M48
; DRILL file {KiCad (5.1.4)-1} date 2019/11/07 17:34:03
; FORMAT={3:3/ absolute / metric / suppress leading zeros}
; #@! TF.CreationDate,2019-11-07T17:34:03+09:00
; #@! TF.GenerationSoftware,Kicad,Pcbnew,(5.1.4)-1
; #@! TF.FileFunction,Plated,1,2,PTH
FMAT,2
METRIC,TZ
T1C0.400
T2C0.780
T3C0.800
T4C0.900
T5C1.000
T6C1.200
%
G90
G05
T1
X102500Y-60000
X102500Y-70000
X102500Y-90000
X102500Y-100000
X102500Y-110000
X102500Y-120000
X102500Y-130000
X105000Y-55000
X105000Y-65000
X105000Y-75000
X105000Y-85000
X105000Y-95000
X105000Y-105000
X105000Y-125000
X105000Y-135000
X105000Y-145000
X113500Y-54000
X113500Y-58000
X113500Y-141500
X113500Y-145500
X120000Y-70000
X120000Y-80000
X120000Y-90000
X120000Y-110000
X120000Y-120000
X120000Y-140000
X124000Y-52000
X125000Y-75000
X125000Y-85000
X125000Y-105000
X125000Y-115000
X125000Y-125000
X125000Y-145000
X125000Y-149000
X130000Y-52000
X130000Y-70000
X130000Y-80000
X130000Y-90000
X130000Y-110000
X130000Y-120000
X135000Y-55000
X135000Y-75000
X135000Y-85000
X135000Y-105000
X135000Y-115000
X135000Y-125000
X135000Y-149000
X140000Y-52000
X140000Y-60000
X140000Y-70000
X140000Y-80000
X140000Y-90000
X140000Y-110000
X140000Y-120000
X140000Y-140000
X145000Y-55000
X145000Y-75000
X145000Y-85000
X145000Y-105000
X145000Y-115000
X145000Y-125000
X146000Y-149000
X150000Y-52000
X150000Y-60000
X150000Y-70000
X150000Y-80000
X150000Y-90000
X150000Y-110000
X150000Y-120000
X155000Y-75000
X155000Y-85000
X155000Y-105000
X155000Y-115000
X155000Y-125000
X155000Y-149000
X160000Y-52000
X160000Y-70000
X160000Y-120000
X165000Y-75000
X165000Y-85000
X165000Y-105000
X165000Y-115000
X165000Y-125000
X170000Y-52000
X170000Y-60000
X170000Y-70000
X170000Y-80000
X170000Y-90000
X170000Y-110000
X170000Y-120000
X175000Y-55000
X175000Y-75000
X175000Y-85000
X175000Y-105000
X175000Y-115000
X175000Y-125000
X180000Y-60000
X180000Y-70000
X180000Y-80000
X180000Y-90000
X180000Y-110000
X180000Y-120000
X180000Y-140000
X185000Y-55000
X185000Y-75000
X185000Y-85000
X185000Y-105000
X185000Y-115000
X185000Y-125000
X185000Y-145000
X190000Y-60000
X190000Y-70000
X190000Y-80000
X190000Y-90000
X190000Y-110000
X190000Y-120000
X190000Y-140000
X195000Y-65000
X195000Y-75000
X195000Y-85000
X195000Y-95000
X195000Y-105000
X195000Y-125000
X195000Y-135000
T2
X107600Y-131250
X107600Y-133750
X108600Y-129250
X108600Y-135750
X109600Y-131250
X109600Y-133750
X110600Y-129250
X110600Y-135750
X111600Y-131250
X111600Y-133750
X112600Y-129250
X112600Y-135750
X113600Y-131250
X113600Y-133750
X114600Y-129250
X114600Y-135750
X115600Y-131250
X115600Y-133750
X116600Y-129250
X116600Y-135750
X117600Y-131250
X117600Y-133750
X120600Y-129250
X120600Y-135750
X121600Y-131250
X121600Y-133750
X122600Y-129250
X122600Y-135750
X123600Y-131250
X123600Y-133750
X124600Y-129250
X124600Y-135750
X125600Y-131250
X125600Y-133750
X126600Y-129250
X126600Y-135750
X127600Y-131250
X127600Y-133750
X128600Y-129250
X128600Y-135750
X129600Y-131250
X129600Y-133750
X130600Y-129250
X130600Y-135750
X131600Y-131250
X131600Y-133750
X132600Y-129250
X132600Y-135750
X133600Y-131250
X133600Y-133750
X134600Y-129250
X134600Y-135750
X135600Y-131250
X135600Y-133750
X136600Y-129250
X136600Y-135750
X137600Y-131250
X137600Y-133750
X138600Y-129250
X138600Y-135750
X139600Y-131250
X139600Y-133750
X140600Y-129250
X140600Y-135750
X141600Y-131250
X141600Y-133750
X142600Y-129250
X142600Y-135750
X143600Y-131250
X143600Y-133750
X144600Y-129250
X144600Y-135750
X145600Y-131250
X145600Y-133750
X146600Y-129250
X146600Y-135750
X147600Y-131250
X147600Y-133750
X148600Y-129250
X148600Y-135750
X149600Y-131250
X149600Y-133750
X150600Y-129250
X150600Y-135750
X151600Y-131250
X151600Y-133750
X152600Y-129250
X152600Y-135750
X153600Y-131250
X153600Y-133750
X154600Y-129250
X154600Y-135750
X155600Y-131250
X155600Y-133750
X156600Y-129250
X156600Y-135750
X157600Y-131250
X157600Y-133750
X158600Y-129250
X158600Y-135750
X159600Y-131250
X159600Y-133750
X160600Y-129250
X160600Y-135750
X161600Y-131250
X161600Y-133750
X162600Y-129250
X162600Y-135750
X163600Y-131250
X163600Y-133750
X164600Y-129250
X164600Y-135750
X165600Y-131250
X165600Y-133750
X166600Y-129250
X166600Y-135750
X167600Y-131250
X167600Y-133750
X168600Y-129250
X168600Y-135750
X169600Y-131250
X169600Y-133750
X170600Y-129250
X170600Y-135750
X171600Y-131250
X171600Y-133750
X172600Y-129250
X172600Y-135750
X173600Y-131250
X173600Y-133750
X174600Y-129250
X174600Y-135750
X175600Y-131250
X175600Y-133750
X176600Y-129250
X176600Y-135750
X177600Y-131250
X177600Y-133750
X178600Y-129250
X178600Y-135750
X179600Y-131250
X179600Y-133750
X180600Y-129250
X180600Y-135750
X181600Y-131250
X181600Y-133750
X182600Y-129250
X182600Y-135750
X183600Y-131250
X183600Y-133750
X184600Y-129250
X184600Y-135750
X185600Y-131250
X185600Y-133750
X186600Y-129250
X186600Y-135750
X187600Y-131250
X187600Y-133750
X188600Y-129250
X188600Y-135750
X189600Y-131250
X189600Y-133750
X190600Y-129250
X190600Y-135750
X107600Y-96250
X107600Y-98750
X108600Y-94250
X108600Y-100750
X109600Y-96250
X109600Y-98750
X110600Y-94250
X110600Y-100750
X111600Y-96250
X111600Y-98750
X112600Y-94250
X112600Y-100750
X113600Y-96250
X113600Y-98750
X114600Y-94250
X114600Y-100750
X115600Y-96250
X115600Y-98750
X116600Y-94250
X116600Y-100750
X117600Y-96250
X117600Y-98750
X120600Y-94250
X120600Y-100750
X121600Y-96250
X121600Y-98750
X122600Y-94250
X122600Y-100750
X123600Y-96250
X123600Y-98750
X124600Y-94250
X124600Y-100750
X125600Y-96250
X125600Y-98750
X126600Y-94250
X126600Y-100750
X127600Y-96250
X127600Y-98750
X128600Y-94250
X128600Y-100750
X129600Y-96250
X129600Y-98750
X130600Y-94250
X130600Y-100750
X131600Y-96250
X131600Y-98750
X132600Y-94250
X132600Y-100750
X133600Y-96250
X133600Y-98750
X134600Y-94250
X134600Y-100750
X135600Y-96250
X135600Y-98750
X136600Y-94250
X136600Y-100750
X137600Y-96250
X137600Y-98750
X138600Y-94250
X138600Y-100750
X139600Y-96250
X139600Y-98750
X140600Y-94250
X140600Y-100750
X141600Y-96250
X141600Y-98750
X142600Y-94250
X142600Y-100750
X143600Y-96250
X143600Y-98750
X144600Y-94250
X144600Y-100750
X145600Y-96250
X145600Y-98750
X146600Y-94250
X146600Y-100750
X147600Y-96250
X147600Y-98750
X148600Y-94250
X148600Y-100750
X149600Y-96250
X149600Y-98750
X150600Y-94250
X150600Y-100750
X151600Y-96250
X151600Y-98750
X152600Y-94250
X152600Y-100750
X153600Y-96250
X153600Y-98750
X154600Y-94250
X154600Y-100750
X155600Y-96250
X155600Y-98750
X156600Y-94250
X156600Y-100750
X157600Y-96250
X157600Y-98750
X158600Y-94250
X158600Y-100750
X159600Y-96250
X159600Y-98750
X160600Y-94250
X160600Y-100750
X161600Y-96250
X161600Y-98750
X162600Y-94250
X162600Y-100750
X163600Y-96250
X163600Y-98750
X164600Y-94250
X164600Y-100750
X165600Y-96250
X165600Y-98750
X166600Y-94250
X166600Y-100750
X167600Y-96250
X167600Y-98750
X168600Y-94250
X168600Y-100750
X169600Y-96250
X169600Y-98750
X170600Y-94250
X170600Y-100750
X171600Y-96250
X171600Y-98750
X172600Y-94250
X172600Y-100750
X173600Y-96250
X173600Y-98750
X174600Y-94250
X174600Y-100750
X175600Y-96250
X175600Y-98750
X176600Y-94250
X176600Y-100750
X177600Y-96250
X177600Y-98750
X178600Y-94250
X178600Y-100750
X179600Y-96250
X179600Y-98750
X180600Y-94250
X180600Y-100750
X181600Y-96250
X181600Y-98750
X182600Y-94250
X182600Y-100750
X183600Y-96250
X183600Y-98750
X184600Y-94250
X184600Y-100750
X185600Y-96250
X185600Y-98750
X186600Y-94250
X186600Y-100750
X187600Y-96250
X187600Y-98750
X188600Y-94250
X188600Y-100750
X189600Y-96250
X189600Y-98750
X190600Y-94250
X190600Y-100750
X107600Y-63750
X107600Y-66250
X108600Y-61750
X108600Y-68250
X109600Y-63750
X109600Y-66250
X110600Y-61750
X110600Y-68250
X111600Y-63750
X111600Y-66250
X112600Y-61750
X112600Y-68250
X113600Y-63750
X113600Y-66250
X114600Y-61750
X114600Y-68250
X115600Y-63750
X115600Y-66250
X116600Y-61750
X116600Y-68250
X117600Y-63750
X117600Y-66250
X120600Y-61750
X120600Y-68250
X121600Y-63750
X121600Y-66250
X122600Y-61750
X122600Y-68250
X123600Y-63750
X123600Y-66250
X124600Y-61750
X124600Y-68250
X125600Y-63750
X125600Y-66250
X126600Y-61750
X126600Y-68250
X127600Y-63750
X127600Y-66250
X128600Y-61750
X128600Y-68250
X129600Y-63750
X129600Y-66250
X130600Y-61750
X130600Y-68250
X131600Y-63750
X131600Y-66250
X132600Y-61750
X132600Y-68250
X133600Y-63750
X133600Y-66250
X134600Y-61750
X134600Y-68250
X135600Y-63750
X135600Y-66250
X136600Y-61750
X136600Y-68250
X137600Y-63750
X137600Y-66250
X138600Y-61750
X138600Y-68250
X139600Y-63750
X139600Y-66250
X140600Y-61750
X140600Y-68250
X141600Y-63750
X141600Y-66250
X142600Y-61750
X142600Y-68250
X143600Y-63750
X143600Y-66250
X144600Y-61750
X144600Y-68250
X145600Y-63750
X145600Y-66250
X146600Y-61750
X146600Y-68250
X147600Y-63750
X147600Y-66250
X148600Y-61750
X148600Y-68250
X149600Y-63750
X149600Y-66250
X150600Y-61750
X150600Y-68250
X151600Y-63750
X151600Y-66250
X152600Y-61750
X152600Y-68250
X153600Y-63750
X153600Y-66250
X154600Y-61750
X154600Y-68250
X155600Y-63750
X155600Y-66250
X156600Y-61750
X156600Y-68250
X157600Y-63750
X157600Y-66250
X158600Y-61750
X158600Y-68250
X159600Y-63750
X159600Y-66250
X160600Y-61750
X160600Y-68250
X161600Y-63750
X161600Y-66250
X162600Y-61750
X162600Y-68250
X163600Y-63750
X163600Y-66250
X164600Y-61750
X164600Y-68250
X165600Y-63750
X165600Y-66250
X166600Y-61750
X166600Y-68250
X167600Y-63750
X167600Y-66250
X168600Y-61750
X168600Y-68250
X169600Y-63750
X169600Y-66250
X170600Y-61750
X170600Y-68250
X171600Y-63750
X171600Y-66250
X172600Y-61750
X172600Y-68250
X173600Y-63750
X173600Y-66250
X174600Y-61750
X174600Y-68250
X175600Y-63750
X175600Y-66250
X176600Y-61750
X176600Y-68250
X177600Y-63750
X177600Y-66250
X178600Y-61750
X178600Y-68250
X179600Y-63750
X179600Y-66250
X180600Y-61750
X180600Y-68250
X181600Y-63750
X181600Y-66250
X182600Y-61750
X182600Y-68250
X183600Y-63750
X183600Y-66250
X184600Y-61750
X184600Y-68250
X185600Y-63750
X185600Y-66250
X186600Y-61750
X186600Y-68250
X187600Y-63750
X187600Y-66250
X188600Y-61750
X188600Y-68250
X189600Y-63750
X189600Y-66250
X190600Y-61750
X190600Y-68250
T3
X135440Y-145600
X145600Y-145600
T4
X129400Y-145600
X131940Y-145600
T5
X107250Y-56250
X109790Y-56250
X112330Y-56250
X114870Y-56250
X117410Y-56250
X119950Y-56250
X122490Y-56250
X107250Y-52500
X109790Y-52500
X112330Y-52500
X114870Y-52500
X107250Y-143750
X109790Y-143750
X112330Y-143750
X114870Y-143750
X117410Y-143750
X119950Y-143750
X122490Y-143750
X107250Y-147500
X109790Y-147500
X112330Y-147500
X114870Y-147500
T6
X159500Y-54500
X164500Y-54500
X160000Y-76900
X160000Y-81900
X159500Y-145500
X164500Y-145500
X160000Y-112150
X160000Y-117150
T0
M30
