G04 #@! TF.GenerationSoftware,KiCad,Pcbnew,(5.1.5)-3*
G04 #@! TF.CreationDate,2020-02-01T14:09:58+09:00*
G04 #@! TF.ProjectId,MotherBoard_PCIe,4d6f7468-6572-4426-9f61-72645f504349,rev?*
G04 #@! TF.SameCoordinates,Original*
G04 #@! TF.FileFunction,Legend,Bot*
G04 #@! TF.FilePolarity,Positive*
%FSLAX46Y46*%
G04 Gerber Fmt 4.6, Leading zero omitted, Abs format (unit mm)*
G04 Created by KiCad (PCBNEW (5.1.5)-3) date 2020-02-01 14:09:58*
%MOMM*%
%LPD*%
G04 APERTURE LIST*
%ADD10C,0.150000*%
%ADD11C,0.450000*%
%ADD12C,0.120000*%
%ADD13C,0.050000*%
%ADD14O,2.132000X1.832000*%
%ADD15R,2.132000X1.832000*%
%ADD16C,2.502000*%
%ADD17R,2.502000X2.502000*%
%ADD18C,1.382000*%
%ADD19R,1.802000X1.802000*%
%ADD20O,1.802000X1.802000*%
%ADD21C,0.100000*%
%ADD22C,6.102000*%
%ADD23C,3.302000*%
%ADD24C,1.902000*%
%ADD25R,1.902000X1.902000*%
G04 APERTURE END LIST*
D10*
X164712023Y-164516666D02*
X164235833Y-164516666D01*
X164807261Y-164802380D02*
X164473928Y-163802380D01*
X164140595Y-164802380D01*
X163950119Y-164135714D02*
X163569166Y-164135714D01*
X163807261Y-163802380D02*
X163807261Y-164659523D01*
X163759642Y-164754761D01*
X163664404Y-164802380D01*
X163569166Y-164802380D01*
X163378690Y-164135714D02*
X162997738Y-164135714D01*
X163235833Y-163802380D02*
X163235833Y-164659523D01*
X163188214Y-164754761D01*
X163092976Y-164802380D01*
X162997738Y-164802380D01*
X162283452Y-164754761D02*
X162378690Y-164802380D01*
X162569166Y-164802380D01*
X162664404Y-164754761D01*
X162712023Y-164659523D01*
X162712023Y-164278571D01*
X162664404Y-164183333D01*
X162569166Y-164135714D01*
X162378690Y-164135714D01*
X162283452Y-164183333D01*
X162235833Y-164278571D01*
X162235833Y-164373809D01*
X162712023Y-164469047D01*
X161807261Y-164135714D02*
X161807261Y-164802380D01*
X161807261Y-164230952D02*
X161759642Y-164183333D01*
X161664404Y-164135714D01*
X161521547Y-164135714D01*
X161426309Y-164183333D01*
X161378690Y-164278571D01*
X161378690Y-164802380D01*
X161045357Y-164135714D02*
X160664404Y-164135714D01*
X160902500Y-163802380D02*
X160902500Y-164659523D01*
X160854880Y-164754761D01*
X160759642Y-164802380D01*
X160664404Y-164802380D01*
X160331071Y-164802380D02*
X160331071Y-164135714D01*
X160331071Y-163802380D02*
X160378690Y-163850000D01*
X160331071Y-163897619D01*
X160283452Y-163850000D01*
X160331071Y-163802380D01*
X160331071Y-163897619D01*
X159712023Y-164802380D02*
X159807261Y-164754761D01*
X159854880Y-164707142D01*
X159902500Y-164611904D01*
X159902500Y-164326190D01*
X159854880Y-164230952D01*
X159807261Y-164183333D01*
X159712023Y-164135714D01*
X159569166Y-164135714D01*
X159473928Y-164183333D01*
X159426309Y-164230952D01*
X159378690Y-164326190D01*
X159378690Y-164611904D01*
X159426309Y-164707142D01*
X159473928Y-164754761D01*
X159569166Y-164802380D01*
X159712023Y-164802380D01*
X158950119Y-164135714D02*
X158950119Y-164802380D01*
X158950119Y-164230952D02*
X158902500Y-164183333D01*
X158807261Y-164135714D01*
X158664404Y-164135714D01*
X158569166Y-164183333D01*
X158521547Y-164278571D01*
X158521547Y-164802380D01*
X158045357Y-164707142D02*
X157997738Y-164754761D01*
X158045357Y-164802380D01*
X158092976Y-164754761D01*
X158045357Y-164707142D01*
X158045357Y-164802380D01*
X158045357Y-164421428D02*
X158092976Y-163850000D01*
X158045357Y-163802380D01*
X157997738Y-163850000D01*
X158045357Y-164421428D01*
X158045357Y-163802380D01*
X164807261Y-165452380D02*
X164235833Y-165452380D01*
X164521547Y-166452380D02*
X164521547Y-165452380D01*
X163902500Y-166452380D02*
X163902500Y-165452380D01*
X163473928Y-166452380D02*
X163473928Y-165928571D01*
X163521547Y-165833333D01*
X163616785Y-165785714D01*
X163759642Y-165785714D01*
X163854880Y-165833333D01*
X163902500Y-165880952D01*
X162616785Y-166404761D02*
X162712023Y-166452380D01*
X162902500Y-166452380D01*
X162997738Y-166404761D01*
X163045357Y-166309523D01*
X163045357Y-165928571D01*
X162997738Y-165833333D01*
X162902500Y-165785714D01*
X162712023Y-165785714D01*
X162616785Y-165833333D01*
X162569166Y-165928571D01*
X162569166Y-166023809D01*
X163045357Y-166119047D01*
X161378690Y-166452380D02*
X161378690Y-165785714D01*
X161378690Y-165880952D02*
X161331071Y-165833333D01*
X161235833Y-165785714D01*
X161092976Y-165785714D01*
X160997738Y-165833333D01*
X160950119Y-165928571D01*
X160950119Y-166452380D01*
X160950119Y-165928571D02*
X160902500Y-165833333D01*
X160807261Y-165785714D01*
X160664404Y-165785714D01*
X160569166Y-165833333D01*
X160521547Y-165928571D01*
X160521547Y-166452380D01*
X159616785Y-166452380D02*
X159616785Y-165928571D01*
X159664404Y-165833333D01*
X159759642Y-165785714D01*
X159950119Y-165785714D01*
X160045357Y-165833333D01*
X159616785Y-166404761D02*
X159712023Y-166452380D01*
X159950119Y-166452380D01*
X160045357Y-166404761D01*
X160092976Y-166309523D01*
X160092976Y-166214285D01*
X160045357Y-166119047D01*
X159950119Y-166071428D01*
X159712023Y-166071428D01*
X159616785Y-166023809D01*
X159235833Y-166452380D02*
X158712023Y-165785714D01*
X159235833Y-165785714D02*
X158712023Y-166452380D01*
X158331071Y-166452380D02*
X158331071Y-165785714D01*
X158331071Y-165452380D02*
X158378690Y-165500000D01*
X158331071Y-165547619D01*
X158283452Y-165500000D01*
X158331071Y-165452380D01*
X158331071Y-165547619D01*
X157854880Y-166452380D02*
X157854880Y-165785714D01*
X157854880Y-165880952D02*
X157807261Y-165833333D01*
X157712023Y-165785714D01*
X157569166Y-165785714D01*
X157473928Y-165833333D01*
X157426309Y-165928571D01*
X157426309Y-166452380D01*
X157426309Y-165928571D02*
X157378690Y-165833333D01*
X157283452Y-165785714D01*
X157140595Y-165785714D01*
X157045357Y-165833333D01*
X156997738Y-165928571D01*
X156997738Y-166452380D01*
X156092976Y-165785714D02*
X156092976Y-166452380D01*
X156521547Y-165785714D02*
X156521547Y-166309523D01*
X156473928Y-166404761D01*
X156378690Y-166452380D01*
X156235833Y-166452380D01*
X156140595Y-166404761D01*
X156092976Y-166357142D01*
X155616785Y-166452380D02*
X155616785Y-165785714D01*
X155616785Y-165880952D02*
X155569166Y-165833333D01*
X155473928Y-165785714D01*
X155331071Y-165785714D01*
X155235833Y-165833333D01*
X155188214Y-165928571D01*
X155188214Y-166452380D01*
X155188214Y-165928571D02*
X155140595Y-165833333D01*
X155045357Y-165785714D01*
X154902500Y-165785714D01*
X154807261Y-165833333D01*
X154759642Y-165928571D01*
X154759642Y-166452380D01*
X153616785Y-165785714D02*
X153378690Y-166452380D01*
X153140595Y-165785714D01*
X152331071Y-166452380D02*
X152331071Y-165928571D01*
X152378690Y-165833333D01*
X152473928Y-165785714D01*
X152664404Y-165785714D01*
X152759642Y-165833333D01*
X152331071Y-166404761D02*
X152426309Y-166452380D01*
X152664404Y-166452380D01*
X152759642Y-166404761D01*
X152807261Y-166309523D01*
X152807261Y-166214285D01*
X152759642Y-166119047D01*
X152664404Y-166071428D01*
X152426309Y-166071428D01*
X152331071Y-166023809D01*
X151712023Y-166452380D02*
X151807261Y-166404761D01*
X151854880Y-166309523D01*
X151854880Y-165452380D01*
X150902500Y-165785714D02*
X150902500Y-166452380D01*
X151331071Y-165785714D02*
X151331071Y-166309523D01*
X151283452Y-166404761D01*
X151188214Y-166452380D01*
X151045357Y-166452380D01*
X150950119Y-166404761D01*
X150902500Y-166357142D01*
X150045357Y-166404761D02*
X150140595Y-166452380D01*
X150331071Y-166452380D01*
X150426309Y-166404761D01*
X150473928Y-166309523D01*
X150473928Y-165928571D01*
X150426309Y-165833333D01*
X150331071Y-165785714D01*
X150140595Y-165785714D01*
X150045357Y-165833333D01*
X149997738Y-165928571D01*
X149997738Y-166023809D01*
X150473928Y-166119047D01*
X148664404Y-166452380D02*
X148759642Y-166404761D01*
X148807261Y-166357142D01*
X148854880Y-166261904D01*
X148854880Y-165976190D01*
X148807261Y-165880952D01*
X148759642Y-165833333D01*
X148664404Y-165785714D01*
X148521547Y-165785714D01*
X148426309Y-165833333D01*
X148378690Y-165880952D01*
X148331071Y-165976190D01*
X148331071Y-166261904D01*
X148378690Y-166357142D01*
X148426309Y-166404761D01*
X148521547Y-166452380D01*
X148664404Y-166452380D01*
X148045357Y-165785714D02*
X147664404Y-165785714D01*
X147902500Y-166452380D02*
X147902500Y-165595238D01*
X147854880Y-165500000D01*
X147759642Y-165452380D01*
X147664404Y-165452380D01*
X164807261Y-167435714D02*
X164426309Y-167435714D01*
X164664404Y-167102380D02*
X164664404Y-167959523D01*
X164616785Y-168054761D01*
X164521547Y-168102380D01*
X164426309Y-168102380D01*
X164092976Y-168102380D02*
X164092976Y-167102380D01*
X163664404Y-168102380D02*
X163664404Y-167578571D01*
X163712023Y-167483333D01*
X163807261Y-167435714D01*
X163950119Y-167435714D01*
X164045357Y-167483333D01*
X164092976Y-167530952D01*
X162807261Y-168054761D02*
X162902500Y-168102380D01*
X163092976Y-168102380D01*
X163188214Y-168054761D01*
X163235833Y-167959523D01*
X163235833Y-167578571D01*
X163188214Y-167483333D01*
X163092976Y-167435714D01*
X162902500Y-167435714D01*
X162807261Y-167483333D01*
X162759642Y-167578571D01*
X162759642Y-167673809D01*
X163235833Y-167769047D01*
X161712023Y-167435714D02*
X161331071Y-167435714D01*
X161569166Y-167102380D02*
X161569166Y-167959523D01*
X161521547Y-168054761D01*
X161426309Y-168102380D01*
X161331071Y-168102380D01*
X160854880Y-168102380D02*
X160950119Y-168054761D01*
X160997738Y-168007142D01*
X161045357Y-167911904D01*
X161045357Y-167626190D01*
X160997738Y-167530952D01*
X160950119Y-167483333D01*
X160854880Y-167435714D01*
X160712023Y-167435714D01*
X160616785Y-167483333D01*
X160569166Y-167530952D01*
X160521547Y-167626190D01*
X160521547Y-167911904D01*
X160569166Y-168007142D01*
X160616785Y-168054761D01*
X160712023Y-168102380D01*
X160854880Y-168102380D01*
X160235833Y-167435714D02*
X159854880Y-167435714D01*
X160092976Y-167102380D02*
X160092976Y-167959523D01*
X160045357Y-168054761D01*
X159950119Y-168102380D01*
X159854880Y-168102380D01*
X159092976Y-168102380D02*
X159092976Y-167578571D01*
X159140595Y-167483333D01*
X159235833Y-167435714D01*
X159426309Y-167435714D01*
X159521547Y-167483333D01*
X159092976Y-168054761D02*
X159188214Y-168102380D01*
X159426309Y-168102380D01*
X159521547Y-168054761D01*
X159569166Y-167959523D01*
X159569166Y-167864285D01*
X159521547Y-167769047D01*
X159426309Y-167721428D01*
X159188214Y-167721428D01*
X159092976Y-167673809D01*
X158473928Y-168102380D02*
X158569166Y-168054761D01*
X158616785Y-167959523D01*
X158616785Y-167102380D01*
X157473928Y-167435714D02*
X157092976Y-167435714D01*
X157331071Y-168102380D02*
X157331071Y-167245238D01*
X157283452Y-167150000D01*
X157188214Y-167102380D01*
X157092976Y-167102380D01*
X156331071Y-168102380D02*
X156331071Y-167578571D01*
X156378690Y-167483333D01*
X156473928Y-167435714D01*
X156664404Y-167435714D01*
X156759642Y-167483333D01*
X156331071Y-168054761D02*
X156426309Y-168102380D01*
X156664404Y-168102380D01*
X156759642Y-168054761D01*
X156807261Y-167959523D01*
X156807261Y-167864285D01*
X156759642Y-167769047D01*
X156664404Y-167721428D01*
X156426309Y-167721428D01*
X156331071Y-167673809D01*
X155854880Y-167435714D02*
X155854880Y-168102380D01*
X155854880Y-167530952D02*
X155807261Y-167483333D01*
X155712023Y-167435714D01*
X155569166Y-167435714D01*
X155473928Y-167483333D01*
X155426309Y-167578571D01*
X155426309Y-168102380D01*
X153759642Y-168054761D02*
X153854880Y-168102380D01*
X154045357Y-168102380D01*
X154140595Y-168054761D01*
X154188214Y-168007142D01*
X154235833Y-167911904D01*
X154235833Y-167626190D01*
X154188214Y-167530952D01*
X154140595Y-167483333D01*
X154045357Y-167435714D01*
X153854880Y-167435714D01*
X153759642Y-167483333D01*
X152902500Y-167435714D02*
X152902500Y-168102380D01*
X153331071Y-167435714D02*
X153331071Y-167959523D01*
X153283452Y-168054761D01*
X153188214Y-168102380D01*
X153045357Y-168102380D01*
X152950119Y-168054761D01*
X152902500Y-168007142D01*
X152426309Y-168102380D02*
X152426309Y-167435714D01*
X152426309Y-167626190D02*
X152378690Y-167530952D01*
X152331071Y-167483333D01*
X152235833Y-167435714D01*
X152140595Y-167435714D01*
X151807261Y-168102380D02*
X151807261Y-167435714D01*
X151807261Y-167626190D02*
X151759642Y-167530952D01*
X151712023Y-167483333D01*
X151616785Y-167435714D01*
X151521547Y-167435714D01*
X150807261Y-168054761D02*
X150902500Y-168102380D01*
X151092976Y-168102380D01*
X151188214Y-168054761D01*
X151235833Y-167959523D01*
X151235833Y-167578571D01*
X151188214Y-167483333D01*
X151092976Y-167435714D01*
X150902500Y-167435714D01*
X150807261Y-167483333D01*
X150759642Y-167578571D01*
X150759642Y-167673809D01*
X151235833Y-167769047D01*
X150331071Y-167435714D02*
X150331071Y-168102380D01*
X150331071Y-167530952D02*
X150283452Y-167483333D01*
X150188214Y-167435714D01*
X150045357Y-167435714D01*
X149950119Y-167483333D01*
X149902500Y-167578571D01*
X149902500Y-168102380D01*
X149569166Y-167435714D02*
X149188214Y-167435714D01*
X149426309Y-167102380D02*
X149426309Y-167959523D01*
X149378690Y-168054761D01*
X149283452Y-168102380D01*
X149188214Y-168102380D01*
X148092976Y-168102380D02*
X148092976Y-167435714D01*
X148092976Y-167102380D02*
X148140595Y-167150000D01*
X148092976Y-167197619D01*
X148045357Y-167150000D01*
X148092976Y-167102380D01*
X148092976Y-167197619D01*
X147664404Y-168054761D02*
X147569166Y-168102380D01*
X147378690Y-168102380D01*
X147283452Y-168054761D01*
X147235833Y-167959523D01*
X147235833Y-167911904D01*
X147283452Y-167816666D01*
X147378690Y-167769047D01*
X147521547Y-167769047D01*
X147616785Y-167721428D01*
X147664404Y-167626190D01*
X147664404Y-167578571D01*
X147616785Y-167483333D01*
X147521547Y-167435714D01*
X147378690Y-167435714D01*
X147283452Y-167483333D01*
X145902500Y-167530952D02*
X145997738Y-167483333D01*
X146045357Y-167435714D01*
X146092976Y-167340476D01*
X146092976Y-167292857D01*
X146045357Y-167197619D01*
X145997738Y-167150000D01*
X145902500Y-167102380D01*
X145712023Y-167102380D01*
X145616785Y-167150000D01*
X145569166Y-167197619D01*
X145521547Y-167292857D01*
X145521547Y-167340476D01*
X145569166Y-167435714D01*
X145616785Y-167483333D01*
X145712023Y-167530952D01*
X145902500Y-167530952D01*
X145997738Y-167578571D01*
X146045357Y-167626190D01*
X146092976Y-167721428D01*
X146092976Y-167911904D01*
X146045357Y-168007142D01*
X145997738Y-168054761D01*
X145902500Y-168102380D01*
X145712023Y-168102380D01*
X145616785Y-168054761D01*
X145569166Y-168007142D01*
X145521547Y-167911904D01*
X145521547Y-167721428D01*
X145569166Y-167626190D01*
X145616785Y-167578571D01*
X145712023Y-167530952D01*
X144902500Y-167102380D02*
X144807261Y-167102380D01*
X144712023Y-167150000D01*
X144664404Y-167197619D01*
X144616785Y-167292857D01*
X144569166Y-167483333D01*
X144569166Y-167721428D01*
X144616785Y-167911904D01*
X144664404Y-168007142D01*
X144712023Y-168054761D01*
X144807261Y-168102380D01*
X144902500Y-168102380D01*
X144997738Y-168054761D01*
X145045357Y-168007142D01*
X145092976Y-167911904D01*
X145140595Y-167721428D01*
X145140595Y-167483333D01*
X145092976Y-167292857D01*
X145045357Y-167197619D01*
X144997738Y-167150000D01*
X144902500Y-167102380D01*
X143950119Y-167102380D02*
X143854880Y-167102380D01*
X143759642Y-167150000D01*
X143712023Y-167197619D01*
X143664404Y-167292857D01*
X143616785Y-167483333D01*
X143616785Y-167721428D01*
X143664404Y-167911904D01*
X143712023Y-168007142D01*
X143759642Y-168054761D01*
X143854880Y-168102380D01*
X143950119Y-168102380D01*
X144045357Y-168054761D01*
X144092976Y-168007142D01*
X144140595Y-167911904D01*
X144188214Y-167721428D01*
X144188214Y-167483333D01*
X144140595Y-167292857D01*
X144092976Y-167197619D01*
X144045357Y-167150000D01*
X143950119Y-167102380D01*
X142426309Y-168102380D02*
X142426309Y-167435714D01*
X142426309Y-167530952D02*
X142378690Y-167483333D01*
X142283452Y-167435714D01*
X142140595Y-167435714D01*
X142045357Y-167483333D01*
X141997738Y-167578571D01*
X141997738Y-168102380D01*
X141997738Y-167578571D02*
X141950119Y-167483333D01*
X141854880Y-167435714D01*
X141712023Y-167435714D01*
X141616785Y-167483333D01*
X141569166Y-167578571D01*
X141569166Y-168102380D01*
X141140595Y-167816666D02*
X140664404Y-167816666D01*
X141235833Y-168102380D02*
X140902500Y-167102380D01*
X140569166Y-168102380D01*
X140235833Y-168007142D02*
X140188214Y-168054761D01*
X140235833Y-168102380D01*
X140283452Y-168054761D01*
X140235833Y-168007142D01*
X140235833Y-168102380D01*
D11*
X104857142Y-5714285D02*
X105285714Y-5571428D01*
X105428571Y-5428571D01*
X105571428Y-5142857D01*
X105571428Y-4714285D01*
X105428571Y-4428571D01*
X105285714Y-4285714D01*
X105000000Y-4142857D01*
X103857142Y-4142857D01*
X103857142Y-7142857D01*
X104857142Y-7142857D01*
X105142857Y-7000000D01*
X105285714Y-6857142D01*
X105428571Y-6571428D01*
X105428571Y-6285714D01*
X105285714Y-6000000D01*
X105142857Y-5857142D01*
X104857142Y-5714285D01*
X103857142Y-5714285D01*
X108142857Y-4142857D02*
X108142857Y-5714285D01*
X108000000Y-6000000D01*
X107714285Y-6142857D01*
X107142857Y-6142857D01*
X106857142Y-6000000D01*
X108142857Y-4285714D02*
X107857142Y-4142857D01*
X107142857Y-4142857D01*
X106857142Y-4285714D01*
X106714285Y-4571428D01*
X106714285Y-4857142D01*
X106857142Y-5142857D01*
X107142857Y-5285714D01*
X107857142Y-5285714D01*
X108142857Y-5428571D01*
X110857142Y-4285714D02*
X110571428Y-4142857D01*
X110000000Y-4142857D01*
X109714285Y-4285714D01*
X109571428Y-4428571D01*
X109428571Y-4714285D01*
X109428571Y-5571428D01*
X109571428Y-5857142D01*
X109714285Y-6000000D01*
X110000000Y-6142857D01*
X110571428Y-6142857D01*
X110857142Y-6000000D01*
X112142857Y-4142857D02*
X112142857Y-7142857D01*
X112428571Y-5285714D02*
X113285714Y-4142857D01*
X113285714Y-6142857D02*
X112142857Y-5000000D01*
D12*
X164274380Y-173305714D02*
X164312476Y-173343809D01*
X164426761Y-173381904D01*
X164502952Y-173381904D01*
X164617238Y-173343809D01*
X164693428Y-173267619D01*
X164731523Y-173191428D01*
X164769619Y-173039047D01*
X164769619Y-172924761D01*
X164731523Y-172772380D01*
X164693428Y-172696190D01*
X164617238Y-172620000D01*
X164502952Y-172581904D01*
X164426761Y-172581904D01*
X164312476Y-172620000D01*
X164274380Y-172658095D01*
X163512476Y-173381904D02*
X163969619Y-173381904D01*
X163741047Y-173381904D02*
X163741047Y-172581904D01*
X163817238Y-172696190D01*
X163893428Y-172772380D01*
X163969619Y-172810476D01*
X163131523Y-173343809D02*
X163131523Y-173381904D01*
X163169619Y-173458095D01*
X163207714Y-173496190D01*
X161722000Y-173305714D02*
X161760095Y-173343809D01*
X161874380Y-173381904D01*
X161950571Y-173381904D01*
X162064857Y-173343809D01*
X162141047Y-173267619D01*
X162179142Y-173191428D01*
X162217238Y-173039047D01*
X162217238Y-172924761D01*
X162179142Y-172772380D01*
X162141047Y-172696190D01*
X162064857Y-172620000D01*
X161950571Y-172581904D01*
X161874380Y-172581904D01*
X161760095Y-172620000D01*
X161722000Y-172658095D01*
X161036285Y-172848571D02*
X161036285Y-173381904D01*
X161226761Y-172543809D02*
X161417238Y-173115238D01*
X160922000Y-173115238D01*
X160579142Y-173343809D02*
X160579142Y-173381904D01*
X160617238Y-173458095D01*
X160655333Y-173496190D01*
X159169619Y-173305714D02*
X159207714Y-173343809D01*
X159322000Y-173381904D01*
X159398190Y-173381904D01*
X159512476Y-173343809D01*
X159588666Y-173267619D01*
X159626761Y-173191428D01*
X159664857Y-173039047D01*
X159664857Y-172924761D01*
X159626761Y-172772380D01*
X159588666Y-172696190D01*
X159512476Y-172620000D01*
X159398190Y-172581904D01*
X159322000Y-172581904D01*
X159207714Y-172620000D01*
X159169619Y-172658095D01*
X158902952Y-172581904D02*
X158369619Y-172581904D01*
X158712476Y-173381904D01*
X158026761Y-173343809D02*
X158026761Y-173381904D01*
X158064857Y-173458095D01*
X158102952Y-173496190D01*
X156617238Y-173305714D02*
X156655333Y-173343809D01*
X156769619Y-173381904D01*
X156845809Y-173381904D01*
X156960095Y-173343809D01*
X157036285Y-173267619D01*
X157074380Y-173191428D01*
X157112476Y-173039047D01*
X157112476Y-172924761D01*
X157074380Y-172772380D01*
X157036285Y-172696190D01*
X156960095Y-172620000D01*
X156845809Y-172581904D01*
X156769619Y-172581904D01*
X156655333Y-172620000D01*
X156617238Y-172658095D01*
X155855333Y-173381904D02*
X156312476Y-173381904D01*
X156083904Y-173381904D02*
X156083904Y-172581904D01*
X156160095Y-172696190D01*
X156236285Y-172772380D01*
X156312476Y-172810476D01*
X155360095Y-172581904D02*
X155283904Y-172581904D01*
X155207714Y-172620000D01*
X155169619Y-172658095D01*
X155131523Y-172734285D01*
X155093428Y-172886666D01*
X155093428Y-173077142D01*
X155131523Y-173229523D01*
X155169619Y-173305714D01*
X155207714Y-173343809D01*
X155283904Y-173381904D01*
X155360095Y-173381904D01*
X155436285Y-173343809D01*
X155474380Y-173305714D01*
X155512476Y-173229523D01*
X155550571Y-173077142D01*
X155550571Y-172886666D01*
X155512476Y-172734285D01*
X155474380Y-172658095D01*
X155436285Y-172620000D01*
X155360095Y-172581904D01*
X154712476Y-173343809D02*
X154712476Y-173381904D01*
X154750571Y-173458095D01*
X154788666Y-173496190D01*
X153302952Y-173305714D02*
X153341047Y-173343809D01*
X153455333Y-173381904D01*
X153531523Y-173381904D01*
X153645809Y-173343809D01*
X153722000Y-173267619D01*
X153760095Y-173191428D01*
X153798190Y-173039047D01*
X153798190Y-172924761D01*
X153760095Y-172772380D01*
X153722000Y-172696190D01*
X153645809Y-172620000D01*
X153531523Y-172581904D01*
X153455333Y-172581904D01*
X153341047Y-172620000D01*
X153302952Y-172658095D01*
X152541047Y-173381904D02*
X152998190Y-173381904D01*
X152769619Y-173381904D02*
X152769619Y-172581904D01*
X152845809Y-172696190D01*
X152922000Y-172772380D01*
X152998190Y-172810476D01*
X152274380Y-172581904D02*
X151779142Y-172581904D01*
X152045809Y-172886666D01*
X151931523Y-172886666D01*
X151855333Y-172924761D01*
X151817238Y-172962857D01*
X151779142Y-173039047D01*
X151779142Y-173229523D01*
X151817238Y-173305714D01*
X151855333Y-173343809D01*
X151931523Y-173381904D01*
X152160095Y-173381904D01*
X152236285Y-173343809D01*
X152274380Y-173305714D01*
X151398190Y-173343809D02*
X151398190Y-173381904D01*
X151436285Y-173458095D01*
X151474380Y-173496190D01*
X149988666Y-173305714D02*
X150026761Y-173343809D01*
X150141047Y-173381904D01*
X150217238Y-173381904D01*
X150331523Y-173343809D01*
X150407714Y-173267619D01*
X150445809Y-173191428D01*
X150483904Y-173039047D01*
X150483904Y-172924761D01*
X150445809Y-172772380D01*
X150407714Y-172696190D01*
X150331523Y-172620000D01*
X150217238Y-172581904D01*
X150141047Y-172581904D01*
X150026761Y-172620000D01*
X149988666Y-172658095D01*
X149226761Y-173381904D02*
X149683904Y-173381904D01*
X149455333Y-173381904D02*
X149455333Y-172581904D01*
X149531523Y-172696190D01*
X149607714Y-172772380D01*
X149683904Y-172810476D01*
X148541047Y-172581904D02*
X148693428Y-172581904D01*
X148769619Y-172620000D01*
X148807714Y-172658095D01*
X148883904Y-172772380D01*
X148922000Y-172924761D01*
X148922000Y-173229523D01*
X148883904Y-173305714D01*
X148845809Y-173343809D01*
X148769619Y-173381904D01*
X148617238Y-173381904D01*
X148541047Y-173343809D01*
X148502952Y-173305714D01*
X148464857Y-173229523D01*
X148464857Y-173039047D01*
X148502952Y-172962857D01*
X148541047Y-172924761D01*
X148617238Y-172886666D01*
X148769619Y-172886666D01*
X148845809Y-172924761D01*
X148883904Y-172962857D01*
X148922000Y-173039047D01*
X148083904Y-173343809D02*
X148083904Y-173381904D01*
X148122000Y-173458095D01*
X148160095Y-173496190D01*
X146674380Y-173305714D02*
X146712476Y-173343809D01*
X146826761Y-173381904D01*
X146902952Y-173381904D01*
X147017238Y-173343809D01*
X147093428Y-173267619D01*
X147131523Y-173191428D01*
X147169619Y-173039047D01*
X147169619Y-172924761D01*
X147131523Y-172772380D01*
X147093428Y-172696190D01*
X147017238Y-172620000D01*
X146902952Y-172581904D01*
X146826761Y-172581904D01*
X146712476Y-172620000D01*
X146674380Y-172658095D01*
X145912476Y-173381904D02*
X146369619Y-173381904D01*
X146141047Y-173381904D02*
X146141047Y-172581904D01*
X146217238Y-172696190D01*
X146293428Y-172772380D01*
X146369619Y-172810476D01*
X145531523Y-173381904D02*
X145379142Y-173381904D01*
X145302952Y-173343809D01*
X145264857Y-173305714D01*
X145188666Y-173191428D01*
X145150571Y-173039047D01*
X145150571Y-172734285D01*
X145188666Y-172658095D01*
X145226761Y-172620000D01*
X145302952Y-172581904D01*
X145455333Y-172581904D01*
X145531523Y-172620000D01*
X145569619Y-172658095D01*
X145607714Y-172734285D01*
X145607714Y-172924761D01*
X145569619Y-173000952D01*
X145531523Y-173039047D01*
X145455333Y-173077142D01*
X145302952Y-173077142D01*
X145226761Y-173039047D01*
X145188666Y-173000952D01*
X145150571Y-172924761D01*
X144198190Y-173077142D02*
X143588666Y-173077142D01*
X143207714Y-172848571D02*
X142598190Y-173077142D01*
X143207714Y-173305714D01*
X141188666Y-173381904D02*
X141645809Y-173381904D01*
X141417238Y-173381904D02*
X141417238Y-172581904D01*
X141493428Y-172696190D01*
X141569619Y-172772380D01*
X141645809Y-172810476D01*
X140502952Y-172848571D02*
X140502952Y-173381904D01*
X140845809Y-172848571D02*
X140845809Y-173267619D01*
X140807714Y-173343809D01*
X140731523Y-173381904D01*
X140617238Y-173381904D01*
X140541047Y-173343809D01*
X140502952Y-173305714D01*
X139855333Y-172962857D02*
X140122000Y-172962857D01*
X140122000Y-173381904D02*
X140122000Y-172581904D01*
X139741047Y-172581904D01*
X164274380Y-174625714D02*
X164312476Y-174663809D01*
X164426761Y-174701904D01*
X164502952Y-174701904D01*
X164617238Y-174663809D01*
X164693428Y-174587619D01*
X164731523Y-174511428D01*
X164769619Y-174359047D01*
X164769619Y-174244761D01*
X164731523Y-174092380D01*
X164693428Y-174016190D01*
X164617238Y-173940000D01*
X164502952Y-173901904D01*
X164426761Y-173901904D01*
X164312476Y-173940000D01*
X164274380Y-173978095D01*
X163969619Y-173978095D02*
X163931523Y-173940000D01*
X163855333Y-173901904D01*
X163664857Y-173901904D01*
X163588666Y-173940000D01*
X163550571Y-173978095D01*
X163512476Y-174054285D01*
X163512476Y-174130476D01*
X163550571Y-174244761D01*
X164007714Y-174701904D01*
X163512476Y-174701904D01*
X163131523Y-174663809D02*
X163131523Y-174701904D01*
X163169619Y-174778095D01*
X163207714Y-174816190D01*
X161722000Y-174625714D02*
X161760095Y-174663809D01*
X161874380Y-174701904D01*
X161950571Y-174701904D01*
X162064857Y-174663809D01*
X162141047Y-174587619D01*
X162179142Y-174511428D01*
X162217238Y-174359047D01*
X162217238Y-174244761D01*
X162179142Y-174092380D01*
X162141047Y-174016190D01*
X162064857Y-173940000D01*
X161950571Y-173901904D01*
X161874380Y-173901904D01*
X161760095Y-173940000D01*
X161722000Y-173978095D01*
X160998190Y-173901904D02*
X161379142Y-173901904D01*
X161417238Y-174282857D01*
X161379142Y-174244761D01*
X161302952Y-174206666D01*
X161112476Y-174206666D01*
X161036285Y-174244761D01*
X160998190Y-174282857D01*
X160960095Y-174359047D01*
X160960095Y-174549523D01*
X160998190Y-174625714D01*
X161036285Y-174663809D01*
X161112476Y-174701904D01*
X161302952Y-174701904D01*
X161379142Y-174663809D01*
X161417238Y-174625714D01*
X160579142Y-174663809D02*
X160579142Y-174701904D01*
X160617238Y-174778095D01*
X160655333Y-174816190D01*
X159169619Y-174625714D02*
X159207714Y-174663809D01*
X159322000Y-174701904D01*
X159398190Y-174701904D01*
X159512476Y-174663809D01*
X159588666Y-174587619D01*
X159626761Y-174511428D01*
X159664857Y-174359047D01*
X159664857Y-174244761D01*
X159626761Y-174092380D01*
X159588666Y-174016190D01*
X159512476Y-173940000D01*
X159398190Y-173901904D01*
X159322000Y-173901904D01*
X159207714Y-173940000D01*
X159169619Y-173978095D01*
X158712476Y-174244761D02*
X158788666Y-174206666D01*
X158826761Y-174168571D01*
X158864857Y-174092380D01*
X158864857Y-174054285D01*
X158826761Y-173978095D01*
X158788666Y-173940000D01*
X158712476Y-173901904D01*
X158560095Y-173901904D01*
X158483904Y-173940000D01*
X158445809Y-173978095D01*
X158407714Y-174054285D01*
X158407714Y-174092380D01*
X158445809Y-174168571D01*
X158483904Y-174206666D01*
X158560095Y-174244761D01*
X158712476Y-174244761D01*
X158788666Y-174282857D01*
X158826761Y-174320952D01*
X158864857Y-174397142D01*
X158864857Y-174549523D01*
X158826761Y-174625714D01*
X158788666Y-174663809D01*
X158712476Y-174701904D01*
X158560095Y-174701904D01*
X158483904Y-174663809D01*
X158445809Y-174625714D01*
X158407714Y-174549523D01*
X158407714Y-174397142D01*
X158445809Y-174320952D01*
X158483904Y-174282857D01*
X158560095Y-174244761D01*
X158026761Y-174663809D02*
X158026761Y-174701904D01*
X158064857Y-174778095D01*
X158102952Y-174816190D01*
X156617238Y-174625714D02*
X156655333Y-174663809D01*
X156769619Y-174701904D01*
X156845809Y-174701904D01*
X156960095Y-174663809D01*
X157036285Y-174587619D01*
X157074380Y-174511428D01*
X157112476Y-174359047D01*
X157112476Y-174244761D01*
X157074380Y-174092380D01*
X157036285Y-174016190D01*
X156960095Y-173940000D01*
X156845809Y-173901904D01*
X156769619Y-173901904D01*
X156655333Y-173940000D01*
X156617238Y-173978095D01*
X155855333Y-174701904D02*
X156312476Y-174701904D01*
X156083904Y-174701904D02*
X156083904Y-173901904D01*
X156160095Y-174016190D01*
X156236285Y-174092380D01*
X156312476Y-174130476D01*
X155093428Y-174701904D02*
X155550571Y-174701904D01*
X155322000Y-174701904D02*
X155322000Y-173901904D01*
X155398190Y-174016190D01*
X155474380Y-174092380D01*
X155550571Y-174130476D01*
X154712476Y-174663809D02*
X154712476Y-174701904D01*
X154750571Y-174778095D01*
X154788666Y-174816190D01*
X153302952Y-174625714D02*
X153341047Y-174663809D01*
X153455333Y-174701904D01*
X153531523Y-174701904D01*
X153645809Y-174663809D01*
X153722000Y-174587619D01*
X153760095Y-174511428D01*
X153798190Y-174359047D01*
X153798190Y-174244761D01*
X153760095Y-174092380D01*
X153722000Y-174016190D01*
X153645809Y-173940000D01*
X153531523Y-173901904D01*
X153455333Y-173901904D01*
X153341047Y-173940000D01*
X153302952Y-173978095D01*
X152541047Y-174701904D02*
X152998190Y-174701904D01*
X152769619Y-174701904D02*
X152769619Y-173901904D01*
X152845809Y-174016190D01*
X152922000Y-174092380D01*
X152998190Y-174130476D01*
X151855333Y-174168571D02*
X151855333Y-174701904D01*
X152045809Y-173863809D02*
X152236285Y-174435238D01*
X151741047Y-174435238D01*
X151398190Y-174663809D02*
X151398190Y-174701904D01*
X151436285Y-174778095D01*
X151474380Y-174816190D01*
X149988666Y-174625714D02*
X150026761Y-174663809D01*
X150141047Y-174701904D01*
X150217238Y-174701904D01*
X150331523Y-174663809D01*
X150407714Y-174587619D01*
X150445809Y-174511428D01*
X150483904Y-174359047D01*
X150483904Y-174244761D01*
X150445809Y-174092380D01*
X150407714Y-174016190D01*
X150331523Y-173940000D01*
X150217238Y-173901904D01*
X150141047Y-173901904D01*
X150026761Y-173940000D01*
X149988666Y-173978095D01*
X149226761Y-174701904D02*
X149683904Y-174701904D01*
X149455333Y-174701904D02*
X149455333Y-173901904D01*
X149531523Y-174016190D01*
X149607714Y-174092380D01*
X149683904Y-174130476D01*
X148960095Y-173901904D02*
X148426761Y-173901904D01*
X148769619Y-174701904D01*
X148083904Y-174663809D02*
X148083904Y-174701904D01*
X148122000Y-174778095D01*
X148160095Y-174816190D01*
X146674380Y-174625714D02*
X146712476Y-174663809D01*
X146826761Y-174701904D01*
X146902952Y-174701904D01*
X147017238Y-174663809D01*
X147093428Y-174587619D01*
X147131523Y-174511428D01*
X147169619Y-174359047D01*
X147169619Y-174244761D01*
X147131523Y-174092380D01*
X147093428Y-174016190D01*
X147017238Y-173940000D01*
X146902952Y-173901904D01*
X146826761Y-173901904D01*
X146712476Y-173940000D01*
X146674380Y-173978095D01*
X146369619Y-173978095D02*
X146331523Y-173940000D01*
X146255333Y-173901904D01*
X146064857Y-173901904D01*
X145988666Y-173940000D01*
X145950571Y-173978095D01*
X145912476Y-174054285D01*
X145912476Y-174130476D01*
X145950571Y-174244761D01*
X146407714Y-174701904D01*
X145912476Y-174701904D01*
X145417238Y-173901904D02*
X145341047Y-173901904D01*
X145264857Y-173940000D01*
X145226761Y-173978095D01*
X145188666Y-174054285D01*
X145150571Y-174206666D01*
X145150571Y-174397142D01*
X145188666Y-174549523D01*
X145226761Y-174625714D01*
X145264857Y-174663809D01*
X145341047Y-174701904D01*
X145417238Y-174701904D01*
X145493428Y-174663809D01*
X145531523Y-174625714D01*
X145569619Y-174549523D01*
X145607714Y-174397142D01*
X145607714Y-174206666D01*
X145569619Y-174054285D01*
X145531523Y-173978095D01*
X145493428Y-173940000D01*
X145417238Y-173901904D01*
X144198190Y-174397142D02*
X143588666Y-174397142D01*
X143207714Y-174168571D02*
X142598190Y-174397142D01*
X143207714Y-174625714D01*
X141188666Y-174701904D02*
X141645809Y-174701904D01*
X141417238Y-174701904D02*
X141417238Y-173901904D01*
X141493428Y-174016190D01*
X141569619Y-174092380D01*
X141645809Y-174130476D01*
X140693428Y-173901904D02*
X140617238Y-173901904D01*
X140541047Y-173940000D01*
X140502952Y-173978095D01*
X140464857Y-174054285D01*
X140426761Y-174206666D01*
X140426761Y-174397142D01*
X140464857Y-174549523D01*
X140502952Y-174625714D01*
X140541047Y-174663809D01*
X140617238Y-174701904D01*
X140693428Y-174701904D01*
X140769619Y-174663809D01*
X140807714Y-174625714D01*
X140845809Y-174549523D01*
X140883904Y-174397142D01*
X140883904Y-174206666D01*
X140845809Y-174054285D01*
X140807714Y-173978095D01*
X140769619Y-173940000D01*
X140693428Y-173901904D01*
X139931523Y-173901904D02*
X139855333Y-173901904D01*
X139779142Y-173940000D01*
X139741047Y-173978095D01*
X139702952Y-174054285D01*
X139664857Y-174206666D01*
X139664857Y-174397142D01*
X139702952Y-174549523D01*
X139741047Y-174625714D01*
X139779142Y-174663809D01*
X139855333Y-174701904D01*
X139931523Y-174701904D01*
X140007714Y-174663809D01*
X140045809Y-174625714D01*
X140083904Y-174549523D01*
X140122000Y-174397142D01*
X140122000Y-174206666D01*
X140083904Y-174054285D01*
X140045809Y-173978095D01*
X140007714Y-173940000D01*
X139931523Y-173901904D01*
X139169619Y-173901904D02*
X139093428Y-173901904D01*
X139017238Y-173940000D01*
X138979142Y-173978095D01*
X138941047Y-174054285D01*
X138902952Y-174206666D01*
X138902952Y-174397142D01*
X138941047Y-174549523D01*
X138979142Y-174625714D01*
X139017238Y-174663809D01*
X139093428Y-174701904D01*
X139169619Y-174701904D01*
X139245809Y-174663809D01*
X139283904Y-174625714D01*
X139322000Y-174549523D01*
X139360095Y-174397142D01*
X139360095Y-174206666D01*
X139322000Y-174054285D01*
X139283904Y-173978095D01*
X139245809Y-173940000D01*
X139169619Y-173901904D01*
X138217238Y-174168571D02*
X138217238Y-174701904D01*
X138560095Y-174168571D02*
X138560095Y-174587619D01*
X138522000Y-174663809D01*
X138445809Y-174701904D01*
X138331523Y-174701904D01*
X138255333Y-174663809D01*
X138217238Y-174625714D01*
X137569619Y-174282857D02*
X137836285Y-174282857D01*
X137836285Y-174701904D02*
X137836285Y-173901904D01*
X137455333Y-173901904D01*
X164274380Y-175945714D02*
X164312476Y-175983809D01*
X164426761Y-176021904D01*
X164502952Y-176021904D01*
X164617238Y-175983809D01*
X164693428Y-175907619D01*
X164731523Y-175831428D01*
X164769619Y-175679047D01*
X164769619Y-175564761D01*
X164731523Y-175412380D01*
X164693428Y-175336190D01*
X164617238Y-175260000D01*
X164502952Y-175221904D01*
X164426761Y-175221904D01*
X164312476Y-175260000D01*
X164274380Y-175298095D01*
X164007714Y-175221904D02*
X163512476Y-175221904D01*
X163779142Y-175526666D01*
X163664857Y-175526666D01*
X163588666Y-175564761D01*
X163550571Y-175602857D01*
X163512476Y-175679047D01*
X163512476Y-175869523D01*
X163550571Y-175945714D01*
X163588666Y-175983809D01*
X163664857Y-176021904D01*
X163893428Y-176021904D01*
X163969619Y-175983809D01*
X164007714Y-175945714D01*
X163131523Y-175983809D02*
X163131523Y-176021904D01*
X163169619Y-176098095D01*
X163207714Y-176136190D01*
X161722000Y-175945714D02*
X161760095Y-175983809D01*
X161874380Y-176021904D01*
X161950571Y-176021904D01*
X162064857Y-175983809D01*
X162141047Y-175907619D01*
X162179142Y-175831428D01*
X162217238Y-175679047D01*
X162217238Y-175564761D01*
X162179142Y-175412380D01*
X162141047Y-175336190D01*
X162064857Y-175260000D01*
X161950571Y-175221904D01*
X161874380Y-175221904D01*
X161760095Y-175260000D01*
X161722000Y-175298095D01*
X161036285Y-175221904D02*
X161188666Y-175221904D01*
X161264857Y-175260000D01*
X161302952Y-175298095D01*
X161379142Y-175412380D01*
X161417238Y-175564761D01*
X161417238Y-175869523D01*
X161379142Y-175945714D01*
X161341047Y-175983809D01*
X161264857Y-176021904D01*
X161112476Y-176021904D01*
X161036285Y-175983809D01*
X160998190Y-175945714D01*
X160960095Y-175869523D01*
X160960095Y-175679047D01*
X160998190Y-175602857D01*
X161036285Y-175564761D01*
X161112476Y-175526666D01*
X161264857Y-175526666D01*
X161341047Y-175564761D01*
X161379142Y-175602857D01*
X161417238Y-175679047D01*
X160579142Y-175983809D02*
X160579142Y-176021904D01*
X160617238Y-176098095D01*
X160655333Y-176136190D01*
X159169619Y-175945714D02*
X159207714Y-175983809D01*
X159322000Y-176021904D01*
X159398190Y-176021904D01*
X159512476Y-175983809D01*
X159588666Y-175907619D01*
X159626761Y-175831428D01*
X159664857Y-175679047D01*
X159664857Y-175564761D01*
X159626761Y-175412380D01*
X159588666Y-175336190D01*
X159512476Y-175260000D01*
X159398190Y-175221904D01*
X159322000Y-175221904D01*
X159207714Y-175260000D01*
X159169619Y-175298095D01*
X158788666Y-176021904D02*
X158636285Y-176021904D01*
X158560095Y-175983809D01*
X158522000Y-175945714D01*
X158445809Y-175831428D01*
X158407714Y-175679047D01*
X158407714Y-175374285D01*
X158445809Y-175298095D01*
X158483904Y-175260000D01*
X158560095Y-175221904D01*
X158712476Y-175221904D01*
X158788666Y-175260000D01*
X158826761Y-175298095D01*
X158864857Y-175374285D01*
X158864857Y-175564761D01*
X158826761Y-175640952D01*
X158788666Y-175679047D01*
X158712476Y-175717142D01*
X158560095Y-175717142D01*
X158483904Y-175679047D01*
X158445809Y-175640952D01*
X158407714Y-175564761D01*
X158026761Y-175983809D02*
X158026761Y-176021904D01*
X158064857Y-176098095D01*
X158102952Y-176136190D01*
X156617238Y-175945714D02*
X156655333Y-175983809D01*
X156769619Y-176021904D01*
X156845809Y-176021904D01*
X156960095Y-175983809D01*
X157036285Y-175907619D01*
X157074380Y-175831428D01*
X157112476Y-175679047D01*
X157112476Y-175564761D01*
X157074380Y-175412380D01*
X157036285Y-175336190D01*
X156960095Y-175260000D01*
X156845809Y-175221904D01*
X156769619Y-175221904D01*
X156655333Y-175260000D01*
X156617238Y-175298095D01*
X155855333Y-176021904D02*
X156312476Y-176021904D01*
X156083904Y-176021904D02*
X156083904Y-175221904D01*
X156160095Y-175336190D01*
X156236285Y-175412380D01*
X156312476Y-175450476D01*
X155550571Y-175298095D02*
X155512476Y-175260000D01*
X155436285Y-175221904D01*
X155245809Y-175221904D01*
X155169619Y-175260000D01*
X155131523Y-175298095D01*
X155093428Y-175374285D01*
X155093428Y-175450476D01*
X155131523Y-175564761D01*
X155588666Y-176021904D01*
X155093428Y-176021904D01*
X154712476Y-175983809D02*
X154712476Y-176021904D01*
X154750571Y-176098095D01*
X154788666Y-176136190D01*
X153302952Y-175945714D02*
X153341047Y-175983809D01*
X153455333Y-176021904D01*
X153531523Y-176021904D01*
X153645809Y-175983809D01*
X153722000Y-175907619D01*
X153760095Y-175831428D01*
X153798190Y-175679047D01*
X153798190Y-175564761D01*
X153760095Y-175412380D01*
X153722000Y-175336190D01*
X153645809Y-175260000D01*
X153531523Y-175221904D01*
X153455333Y-175221904D01*
X153341047Y-175260000D01*
X153302952Y-175298095D01*
X152541047Y-176021904D02*
X152998190Y-176021904D01*
X152769619Y-176021904D02*
X152769619Y-175221904D01*
X152845809Y-175336190D01*
X152922000Y-175412380D01*
X152998190Y-175450476D01*
X151817238Y-175221904D02*
X152198190Y-175221904D01*
X152236285Y-175602857D01*
X152198190Y-175564761D01*
X152122000Y-175526666D01*
X151931523Y-175526666D01*
X151855333Y-175564761D01*
X151817238Y-175602857D01*
X151779142Y-175679047D01*
X151779142Y-175869523D01*
X151817238Y-175945714D01*
X151855333Y-175983809D01*
X151931523Y-176021904D01*
X152122000Y-176021904D01*
X152198190Y-175983809D01*
X152236285Y-175945714D01*
X151398190Y-175983809D02*
X151398190Y-176021904D01*
X151436285Y-176098095D01*
X151474380Y-176136190D01*
X149988666Y-175945714D02*
X150026761Y-175983809D01*
X150141047Y-176021904D01*
X150217238Y-176021904D01*
X150331523Y-175983809D01*
X150407714Y-175907619D01*
X150445809Y-175831428D01*
X150483904Y-175679047D01*
X150483904Y-175564761D01*
X150445809Y-175412380D01*
X150407714Y-175336190D01*
X150331523Y-175260000D01*
X150217238Y-175221904D01*
X150141047Y-175221904D01*
X150026761Y-175260000D01*
X149988666Y-175298095D01*
X149226761Y-176021904D02*
X149683904Y-176021904D01*
X149455333Y-176021904D02*
X149455333Y-175221904D01*
X149531523Y-175336190D01*
X149607714Y-175412380D01*
X149683904Y-175450476D01*
X148769619Y-175564761D02*
X148845809Y-175526666D01*
X148883904Y-175488571D01*
X148922000Y-175412380D01*
X148922000Y-175374285D01*
X148883904Y-175298095D01*
X148845809Y-175260000D01*
X148769619Y-175221904D01*
X148617238Y-175221904D01*
X148541047Y-175260000D01*
X148502952Y-175298095D01*
X148464857Y-175374285D01*
X148464857Y-175412380D01*
X148502952Y-175488571D01*
X148541047Y-175526666D01*
X148617238Y-175564761D01*
X148769619Y-175564761D01*
X148845809Y-175602857D01*
X148883904Y-175640952D01*
X148922000Y-175717142D01*
X148922000Y-175869523D01*
X148883904Y-175945714D01*
X148845809Y-175983809D01*
X148769619Y-176021904D01*
X148617238Y-176021904D01*
X148541047Y-175983809D01*
X148502952Y-175945714D01*
X148464857Y-175869523D01*
X148464857Y-175717142D01*
X148502952Y-175640952D01*
X148541047Y-175602857D01*
X148617238Y-175564761D01*
X148083904Y-175983809D02*
X148083904Y-176021904D01*
X148122000Y-176098095D01*
X148160095Y-176136190D01*
X146674380Y-175945714D02*
X146712476Y-175983809D01*
X146826761Y-176021904D01*
X146902952Y-176021904D01*
X147017238Y-175983809D01*
X147093428Y-175907619D01*
X147131523Y-175831428D01*
X147169619Y-175679047D01*
X147169619Y-175564761D01*
X147131523Y-175412380D01*
X147093428Y-175336190D01*
X147017238Y-175260000D01*
X146902952Y-175221904D01*
X146826761Y-175221904D01*
X146712476Y-175260000D01*
X146674380Y-175298095D01*
X146369619Y-175298095D02*
X146331523Y-175260000D01*
X146255333Y-175221904D01*
X146064857Y-175221904D01*
X145988666Y-175260000D01*
X145950571Y-175298095D01*
X145912476Y-175374285D01*
X145912476Y-175450476D01*
X145950571Y-175564761D01*
X146407714Y-176021904D01*
X145912476Y-176021904D01*
X145150571Y-176021904D02*
X145607714Y-176021904D01*
X145379142Y-176021904D02*
X145379142Y-175221904D01*
X145455333Y-175336190D01*
X145531523Y-175412380D01*
X145607714Y-175450476D01*
X144198190Y-175717142D02*
X143588666Y-175717142D01*
X143207714Y-175488571D02*
X142598190Y-175717142D01*
X143207714Y-175945714D01*
X141188666Y-176021904D02*
X141645809Y-176021904D01*
X141417238Y-176021904D02*
X141417238Y-175221904D01*
X141493428Y-175336190D01*
X141569619Y-175412380D01*
X141645809Y-175450476D01*
X140693428Y-175221904D02*
X140617238Y-175221904D01*
X140541047Y-175260000D01*
X140502952Y-175298095D01*
X140464857Y-175374285D01*
X140426761Y-175526666D01*
X140426761Y-175717142D01*
X140464857Y-175869523D01*
X140502952Y-175945714D01*
X140541047Y-175983809D01*
X140617238Y-176021904D01*
X140693428Y-176021904D01*
X140769619Y-175983809D01*
X140807714Y-175945714D01*
X140845809Y-175869523D01*
X140883904Y-175717142D01*
X140883904Y-175526666D01*
X140845809Y-175374285D01*
X140807714Y-175298095D01*
X140769619Y-175260000D01*
X140693428Y-175221904D01*
X139741047Y-175488571D02*
X139741047Y-176021904D01*
X140083904Y-175488571D02*
X140083904Y-175907619D01*
X140045809Y-175983809D01*
X139969619Y-176021904D01*
X139855333Y-176021904D01*
X139779142Y-175983809D01*
X139741047Y-175945714D01*
X139093428Y-175602857D02*
X139360095Y-175602857D01*
X139360095Y-176021904D02*
X139360095Y-175221904D01*
X138979142Y-175221904D01*
X164274380Y-177265714D02*
X164312476Y-177303809D01*
X164426761Y-177341904D01*
X164502952Y-177341904D01*
X164617238Y-177303809D01*
X164693428Y-177227619D01*
X164731523Y-177151428D01*
X164769619Y-176999047D01*
X164769619Y-176884761D01*
X164731523Y-176732380D01*
X164693428Y-176656190D01*
X164617238Y-176580000D01*
X164502952Y-176541904D01*
X164426761Y-176541904D01*
X164312476Y-176580000D01*
X164274380Y-176618095D01*
X163969619Y-176618095D02*
X163931523Y-176580000D01*
X163855333Y-176541904D01*
X163664857Y-176541904D01*
X163588666Y-176580000D01*
X163550571Y-176618095D01*
X163512476Y-176694285D01*
X163512476Y-176770476D01*
X163550571Y-176884761D01*
X164007714Y-177341904D01*
X163512476Y-177341904D01*
X163207714Y-176618095D02*
X163169619Y-176580000D01*
X163093428Y-176541904D01*
X162902952Y-176541904D01*
X162826761Y-176580000D01*
X162788666Y-176618095D01*
X162750571Y-176694285D01*
X162750571Y-176770476D01*
X162788666Y-176884761D01*
X163245809Y-177341904D01*
X162750571Y-177341904D01*
X161798190Y-177037142D02*
X161188666Y-177037142D01*
X160807714Y-176808571D02*
X160198190Y-177037142D01*
X160807714Y-177265714D01*
X159055333Y-176541904D02*
X158979142Y-176541904D01*
X158902952Y-176580000D01*
X158864857Y-176618095D01*
X158826761Y-176694285D01*
X158788666Y-176846666D01*
X158788666Y-177037142D01*
X158826761Y-177189523D01*
X158864857Y-177265714D01*
X158902952Y-177303809D01*
X158979142Y-177341904D01*
X159055333Y-177341904D01*
X159131523Y-177303809D01*
X159169619Y-177265714D01*
X159207714Y-177189523D01*
X159245809Y-177037142D01*
X159245809Y-176846666D01*
X159207714Y-176694285D01*
X159169619Y-176618095D01*
X159131523Y-176580000D01*
X159055333Y-176541904D01*
X158445809Y-177265714D02*
X158407714Y-177303809D01*
X158445809Y-177341904D01*
X158483904Y-177303809D01*
X158445809Y-177265714D01*
X158445809Y-177341904D01*
X158141047Y-176541904D02*
X157645809Y-176541904D01*
X157912476Y-176846666D01*
X157798190Y-176846666D01*
X157722000Y-176884761D01*
X157683904Y-176922857D01*
X157645809Y-176999047D01*
X157645809Y-177189523D01*
X157683904Y-177265714D01*
X157722000Y-177303809D01*
X157798190Y-177341904D01*
X158026761Y-177341904D01*
X158102952Y-177303809D01*
X158141047Y-177265714D01*
X157379142Y-176541904D02*
X156883904Y-176541904D01*
X157150571Y-176846666D01*
X157036285Y-176846666D01*
X156960095Y-176884761D01*
X156922000Y-176922857D01*
X156883904Y-176999047D01*
X156883904Y-177189523D01*
X156922000Y-177265714D01*
X156960095Y-177303809D01*
X157036285Y-177341904D01*
X157264857Y-177341904D01*
X157341047Y-177303809D01*
X157379142Y-177265714D01*
X156198190Y-176808571D02*
X156198190Y-177341904D01*
X156541047Y-176808571D02*
X156541047Y-177227619D01*
X156502952Y-177303809D01*
X156426761Y-177341904D01*
X156312476Y-177341904D01*
X156236285Y-177303809D01*
X156198190Y-177265714D01*
X155550571Y-176922857D02*
X155817238Y-176922857D01*
X155817238Y-177341904D02*
X155817238Y-176541904D01*
X155436285Y-176541904D01*
X155093428Y-177303809D02*
X155093428Y-177341904D01*
X155131523Y-177418095D01*
X155169619Y-177456190D01*
X153074380Y-177265714D02*
X153112476Y-177303809D01*
X153226761Y-177341904D01*
X153302952Y-177341904D01*
X153417238Y-177303809D01*
X153493428Y-177227619D01*
X153531523Y-177151428D01*
X153569619Y-176999047D01*
X153569619Y-176884761D01*
X153531523Y-176732380D01*
X153493428Y-176656190D01*
X153417238Y-176580000D01*
X153302952Y-176541904D01*
X153226761Y-176541904D01*
X153112476Y-176580000D01*
X153074380Y-176618095D01*
X152769619Y-176618095D02*
X152731523Y-176580000D01*
X152655333Y-176541904D01*
X152464857Y-176541904D01*
X152388666Y-176580000D01*
X152350571Y-176618095D01*
X152312476Y-176694285D01*
X152312476Y-176770476D01*
X152350571Y-176884761D01*
X152807714Y-177341904D01*
X152312476Y-177341904D01*
X152045809Y-176541904D02*
X151550571Y-176541904D01*
X151817238Y-176846666D01*
X151702952Y-176846666D01*
X151626761Y-176884761D01*
X151588666Y-176922857D01*
X151550571Y-176999047D01*
X151550571Y-177189523D01*
X151588666Y-177265714D01*
X151626761Y-177303809D01*
X151702952Y-177341904D01*
X151931523Y-177341904D01*
X152007714Y-177303809D01*
X152045809Y-177265714D01*
X150598190Y-177037142D02*
X149988666Y-177037142D01*
X149607714Y-176808571D02*
X148998190Y-177037142D01*
X149607714Y-177265714D01*
X147855333Y-176541904D02*
X147779142Y-176541904D01*
X147702952Y-176580000D01*
X147664857Y-176618095D01*
X147626761Y-176694285D01*
X147588666Y-176846666D01*
X147588666Y-177037142D01*
X147626761Y-177189523D01*
X147664857Y-177265714D01*
X147702952Y-177303809D01*
X147779142Y-177341904D01*
X147855333Y-177341904D01*
X147931523Y-177303809D01*
X147969619Y-177265714D01*
X148007714Y-177189523D01*
X148045809Y-177037142D01*
X148045809Y-176846666D01*
X148007714Y-176694285D01*
X147969619Y-176618095D01*
X147931523Y-176580000D01*
X147855333Y-176541904D01*
X147245809Y-177265714D02*
X147207714Y-177303809D01*
X147245809Y-177341904D01*
X147283904Y-177303809D01*
X147245809Y-177265714D01*
X147245809Y-177341904D01*
X146445809Y-177341904D02*
X146902952Y-177341904D01*
X146674380Y-177341904D02*
X146674380Y-176541904D01*
X146750571Y-176656190D01*
X146826761Y-176732380D01*
X146902952Y-176770476D01*
X145760095Y-176808571D02*
X145760095Y-177341904D01*
X146102952Y-176808571D02*
X146102952Y-177227619D01*
X146064857Y-177303809D01*
X145988666Y-177341904D01*
X145874380Y-177341904D01*
X145798190Y-177303809D01*
X145760095Y-177265714D01*
X145112476Y-176922857D02*
X145379142Y-176922857D01*
X145379142Y-177341904D02*
X145379142Y-176541904D01*
X144998190Y-176541904D01*
D11*
X153142857Y-187035714D02*
X152714285Y-187178571D01*
X152571428Y-187321428D01*
X152428571Y-187607142D01*
X152428571Y-188035714D01*
X152571428Y-188321428D01*
X152714285Y-188464285D01*
X153000000Y-188607142D01*
X154142857Y-188607142D01*
X154142857Y-185607142D01*
X153142857Y-185607142D01*
X152857142Y-185750000D01*
X152714285Y-185892857D01*
X152571428Y-186178571D01*
X152571428Y-186464285D01*
X152714285Y-186750000D01*
X152857142Y-186892857D01*
X153142857Y-187035714D01*
X154142857Y-187035714D01*
X149857142Y-188607142D02*
X149857142Y-187035714D01*
X150000000Y-186750000D01*
X150285714Y-186607142D01*
X150857142Y-186607142D01*
X151142857Y-186750000D01*
X149857142Y-188464285D02*
X150142857Y-188607142D01*
X150857142Y-188607142D01*
X151142857Y-188464285D01*
X151285714Y-188178571D01*
X151285714Y-187892857D01*
X151142857Y-187607142D01*
X150857142Y-187464285D01*
X150142857Y-187464285D01*
X149857142Y-187321428D01*
X147142857Y-188464285D02*
X147428571Y-188607142D01*
X148000000Y-188607142D01*
X148285714Y-188464285D01*
X148428571Y-188321428D01*
X148571428Y-188035714D01*
X148571428Y-187178571D01*
X148428571Y-186892857D01*
X148285714Y-186750000D01*
X148000000Y-186607142D01*
X147428571Y-186607142D01*
X147142857Y-186750000D01*
X145857142Y-188607142D02*
X145857142Y-185607142D01*
X145571428Y-187464285D02*
X144714285Y-188607142D01*
X144714285Y-186607142D02*
X145857142Y-187750000D01*
D13*
X75000000Y3000000D02*
X166000000Y3000000D01*
X75000000Y-193000000D02*
X75000000Y3000000D01*
X166000000Y-193000000D02*
X75000000Y-193000000D01*
X166000000Y3000000D02*
X166000000Y-193000000D01*
D12*
X135200000Y-173692082D02*
X133950000Y-173692082D01*
X134575000Y-174317082D02*
X134575000Y-173067082D01*
X131317000Y-161139000D02*
X130683000Y-161139000D01*
X131757000Y-161179000D02*
X130243000Y-161179000D01*
X132028000Y-161219000D02*
X129972000Y-161219000D01*
X132241000Y-161259000D02*
X129759000Y-161259000D01*
X132422000Y-161299000D02*
X129578000Y-161299000D01*
X132583000Y-161339000D02*
X129417000Y-161339000D01*
X132728000Y-161379000D02*
X129272000Y-161379000D01*
X132861000Y-161419000D02*
X129139000Y-161419000D01*
X132984000Y-161459000D02*
X129016000Y-161459000D01*
X133100000Y-161499000D02*
X128900000Y-161499000D01*
X133209000Y-161539000D02*
X128791000Y-161539000D01*
X133312000Y-161579000D02*
X128688000Y-161579000D01*
X133410000Y-161619000D02*
X128590000Y-161619000D01*
X133504000Y-161659000D02*
X128496000Y-161659000D01*
X133594000Y-161699000D02*
X128406000Y-161699000D01*
X133681000Y-161739000D02*
X128319000Y-161739000D01*
X133764000Y-161779000D02*
X128236000Y-161779000D01*
X133844000Y-161819000D02*
X128156000Y-161819000D01*
X133921000Y-161859000D02*
X128079000Y-161859000D01*
X133996000Y-161899000D02*
X128004000Y-161899000D01*
X134069000Y-161939000D02*
X127931000Y-161939000D01*
X134140000Y-161979000D02*
X127860000Y-161979000D01*
X134208000Y-162019000D02*
X127792000Y-162019000D01*
X134275000Y-162059000D02*
X127725000Y-162059000D01*
X134339000Y-162099000D02*
X127661000Y-162099000D01*
X134402000Y-162139000D02*
X127598000Y-162139000D01*
X134464000Y-162179000D02*
X127536000Y-162179000D01*
X134524000Y-162219000D02*
X127476000Y-162219000D01*
X134583000Y-162259000D02*
X127417000Y-162259000D01*
X134640000Y-162299000D02*
X127360000Y-162299000D01*
X134696000Y-162339000D02*
X127304000Y-162339000D01*
X134750000Y-162379000D02*
X127250000Y-162379000D01*
X134804000Y-162419000D02*
X127196000Y-162419000D01*
X134856000Y-162459000D02*
X127144000Y-162459000D01*
X134907000Y-162499000D02*
X127093000Y-162499000D01*
X134957000Y-162539000D02*
X127043000Y-162539000D01*
X135007000Y-162579000D02*
X126993000Y-162579000D01*
X135055000Y-162619000D02*
X126945000Y-162619000D01*
X135102000Y-162659000D02*
X126898000Y-162659000D01*
X135148000Y-162699000D02*
X126852000Y-162699000D01*
X135194000Y-162739000D02*
X126806000Y-162739000D01*
X135238000Y-162779000D02*
X126762000Y-162779000D01*
X135282000Y-162819000D02*
X126718000Y-162819000D01*
X135325000Y-162859000D02*
X126675000Y-162859000D01*
X135367000Y-162899000D02*
X126633000Y-162899000D01*
X135408000Y-162939000D02*
X126592000Y-162939000D01*
X135449000Y-162979000D02*
X126551000Y-162979000D01*
X135489000Y-163019000D02*
X126511000Y-163019000D01*
X135528000Y-163059000D02*
X126472000Y-163059000D01*
X135567000Y-163099000D02*
X126433000Y-163099000D01*
X135605000Y-163139000D02*
X126395000Y-163139000D01*
X135642000Y-163179000D02*
X126358000Y-163179000D01*
X135678000Y-163219000D02*
X126322000Y-163219000D01*
X135714000Y-163259000D02*
X126286000Y-163259000D01*
X135750000Y-163299000D02*
X126250000Y-163299000D01*
X135785000Y-163339000D02*
X126215000Y-163339000D01*
X135819000Y-163379000D02*
X126181000Y-163379000D01*
X135852000Y-163419000D02*
X126148000Y-163419000D01*
X135885000Y-163459000D02*
X126115000Y-163459000D01*
X135918000Y-163499000D02*
X126082000Y-163499000D01*
X135950000Y-163539000D02*
X126050000Y-163539000D01*
X129560000Y-163579000D02*
X126018000Y-163579000D01*
X135982000Y-163579000D02*
X132440000Y-163579000D01*
X129560000Y-163619000D02*
X125988000Y-163619000D01*
X136012000Y-163619000D02*
X132440000Y-163619000D01*
X129560000Y-163659000D02*
X125957000Y-163659000D01*
X136043000Y-163659000D02*
X132440000Y-163659000D01*
X129560000Y-163699000D02*
X125927000Y-163699000D01*
X136073000Y-163699000D02*
X132440000Y-163699000D01*
X129560000Y-163739000D02*
X125898000Y-163739000D01*
X136102000Y-163739000D02*
X132440000Y-163739000D01*
X129560000Y-163779000D02*
X125869000Y-163779000D01*
X136131000Y-163779000D02*
X132440000Y-163779000D01*
X129560000Y-163819000D02*
X125840000Y-163819000D01*
X136160000Y-163819000D02*
X132440000Y-163819000D01*
X129560000Y-163859000D02*
X125812000Y-163859000D01*
X136188000Y-163859000D02*
X132440000Y-163859000D01*
X129560000Y-163899000D02*
X125784000Y-163899000D01*
X136216000Y-163899000D02*
X132440000Y-163899000D01*
X129560000Y-163939000D02*
X125757000Y-163939000D01*
X136243000Y-163939000D02*
X132440000Y-163939000D01*
X129560000Y-163979000D02*
X125730000Y-163979000D01*
X136270000Y-163979000D02*
X132440000Y-163979000D01*
X129560000Y-164019000D02*
X125704000Y-164019000D01*
X136296000Y-164019000D02*
X132440000Y-164019000D01*
X129560000Y-164059000D02*
X125678000Y-164059000D01*
X136322000Y-164059000D02*
X132440000Y-164059000D01*
X129560000Y-164099000D02*
X125653000Y-164099000D01*
X136347000Y-164099000D02*
X132440000Y-164099000D01*
X129560000Y-164139000D02*
X125628000Y-164139000D01*
X136372000Y-164139000D02*
X132440000Y-164139000D01*
X129560000Y-164179000D02*
X125603000Y-164179000D01*
X136397000Y-164179000D02*
X132440000Y-164179000D01*
X129560000Y-164219000D02*
X125579000Y-164219000D01*
X136421000Y-164219000D02*
X132440000Y-164219000D01*
X129560000Y-164259000D02*
X125555000Y-164259000D01*
X136445000Y-164259000D02*
X132440000Y-164259000D01*
X129560000Y-164299000D02*
X125532000Y-164299000D01*
X136468000Y-164299000D02*
X132440000Y-164299000D01*
X129560000Y-164339000D02*
X125509000Y-164339000D01*
X136491000Y-164339000D02*
X132440000Y-164339000D01*
X129560000Y-164379000D02*
X125486000Y-164379000D01*
X136514000Y-164379000D02*
X132440000Y-164379000D01*
X129560000Y-164419000D02*
X125464000Y-164419000D01*
X136536000Y-164419000D02*
X132440000Y-164419000D01*
X129560000Y-164459000D02*
X125442000Y-164459000D01*
X136558000Y-164459000D02*
X132440000Y-164459000D01*
X129560000Y-164499000D02*
X125420000Y-164499000D01*
X136580000Y-164499000D02*
X132440000Y-164499000D01*
X129560000Y-164539000D02*
X125399000Y-164539000D01*
X136601000Y-164539000D02*
X132440000Y-164539000D01*
X129560000Y-164579000D02*
X125378000Y-164579000D01*
X136622000Y-164579000D02*
X132440000Y-164579000D01*
X129560000Y-164619000D02*
X125358000Y-164619000D01*
X136642000Y-164619000D02*
X132440000Y-164619000D01*
X129560000Y-164659000D02*
X125338000Y-164659000D01*
X136662000Y-164659000D02*
X132440000Y-164659000D01*
X129560000Y-164699000D02*
X125318000Y-164699000D01*
X136682000Y-164699000D02*
X132440000Y-164699000D01*
X129560000Y-164739000D02*
X125298000Y-164739000D01*
X136702000Y-164739000D02*
X132440000Y-164739000D01*
X129560000Y-164779000D02*
X125279000Y-164779000D01*
X136721000Y-164779000D02*
X132440000Y-164779000D01*
X129560000Y-164819000D02*
X125261000Y-164819000D01*
X136739000Y-164819000D02*
X132440000Y-164819000D01*
X129560000Y-164859000D02*
X125242000Y-164859000D01*
X136758000Y-164859000D02*
X132440000Y-164859000D01*
X129560000Y-164899000D02*
X125224000Y-164899000D01*
X136776000Y-164899000D02*
X132440000Y-164899000D01*
X129560000Y-164939000D02*
X125207000Y-164939000D01*
X136793000Y-164939000D02*
X132440000Y-164939000D01*
X129560000Y-164979000D02*
X125189000Y-164979000D01*
X136811000Y-164979000D02*
X132440000Y-164979000D01*
X129560000Y-165019000D02*
X125172000Y-165019000D01*
X136828000Y-165019000D02*
X132440000Y-165019000D01*
X129560000Y-165059000D02*
X125155000Y-165059000D01*
X136845000Y-165059000D02*
X132440000Y-165059000D01*
X129560000Y-165099000D02*
X125139000Y-165099000D01*
X136861000Y-165099000D02*
X132440000Y-165099000D01*
X129560000Y-165139000D02*
X125123000Y-165139000D01*
X136877000Y-165139000D02*
X132440000Y-165139000D01*
X129560000Y-165179000D02*
X125107000Y-165179000D01*
X136893000Y-165179000D02*
X132440000Y-165179000D01*
X129560000Y-165219000D02*
X125092000Y-165219000D01*
X136908000Y-165219000D02*
X132440000Y-165219000D01*
X129560000Y-165259000D02*
X125076000Y-165259000D01*
X136924000Y-165259000D02*
X132440000Y-165259000D01*
X129560000Y-165299000D02*
X125061000Y-165299000D01*
X136939000Y-165299000D02*
X132440000Y-165299000D01*
X129560000Y-165339000D02*
X125047000Y-165339000D01*
X136953000Y-165339000D02*
X132440000Y-165339000D01*
X129560000Y-165379000D02*
X125033000Y-165379000D01*
X136967000Y-165379000D02*
X132440000Y-165379000D01*
X129560000Y-165419000D02*
X125019000Y-165419000D01*
X136981000Y-165419000D02*
X132440000Y-165419000D01*
X129560000Y-165459000D02*
X125005000Y-165459000D01*
X136995000Y-165459000D02*
X132440000Y-165459000D01*
X129560000Y-165499000D02*
X124992000Y-165499000D01*
X137008000Y-165499000D02*
X132440000Y-165499000D01*
X129560000Y-165539000D02*
X124979000Y-165539000D01*
X137021000Y-165539000D02*
X132440000Y-165539000D01*
X129560000Y-165579000D02*
X124966000Y-165579000D01*
X137034000Y-165579000D02*
X132440000Y-165579000D01*
X129560000Y-165619000D02*
X124953000Y-165619000D01*
X137047000Y-165619000D02*
X132440000Y-165619000D01*
X129560000Y-165659000D02*
X124941000Y-165659000D01*
X137059000Y-165659000D02*
X132440000Y-165659000D01*
X129560000Y-165699000D02*
X124929000Y-165699000D01*
X137071000Y-165699000D02*
X132440000Y-165699000D01*
X129560000Y-165739000D02*
X124917000Y-165739000D01*
X137083000Y-165739000D02*
X132440000Y-165739000D01*
X129560000Y-165779000D02*
X124906000Y-165779000D01*
X137094000Y-165779000D02*
X132440000Y-165779000D01*
X129560000Y-165819000D02*
X124895000Y-165819000D01*
X137105000Y-165819000D02*
X132440000Y-165819000D01*
X129560000Y-165859000D02*
X124884000Y-165859000D01*
X137116000Y-165859000D02*
X132440000Y-165859000D01*
X129560000Y-165899000D02*
X124874000Y-165899000D01*
X137126000Y-165899000D02*
X132440000Y-165899000D01*
X129560000Y-165939000D02*
X124863000Y-165939000D01*
X137137000Y-165939000D02*
X132440000Y-165939000D01*
X129560000Y-165979000D02*
X124854000Y-165979000D01*
X137146000Y-165979000D02*
X132440000Y-165979000D01*
X129560000Y-166019000D02*
X124844000Y-166019000D01*
X137156000Y-166019000D02*
X132440000Y-166019000D01*
X129560000Y-166059000D02*
X124834000Y-166059000D01*
X137166000Y-166059000D02*
X132440000Y-166059000D01*
X129560000Y-166099000D02*
X124825000Y-166099000D01*
X137175000Y-166099000D02*
X132440000Y-166099000D01*
X129560000Y-166139000D02*
X124816000Y-166139000D01*
X137184000Y-166139000D02*
X132440000Y-166139000D01*
X129560000Y-166179000D02*
X124808000Y-166179000D01*
X137192000Y-166179000D02*
X132440000Y-166179000D01*
X129560000Y-166219000D02*
X124799000Y-166219000D01*
X137201000Y-166219000D02*
X132440000Y-166219000D01*
X129560000Y-166259000D02*
X124791000Y-166259000D01*
X137209000Y-166259000D02*
X132440000Y-166259000D01*
X129560000Y-166299000D02*
X124784000Y-166299000D01*
X137216000Y-166299000D02*
X132440000Y-166299000D01*
X129560000Y-166339000D02*
X124776000Y-166339000D01*
X137224000Y-166339000D02*
X132440000Y-166339000D01*
X129560000Y-166379000D02*
X124769000Y-166379000D01*
X137231000Y-166379000D02*
X132440000Y-166379000D01*
X129560000Y-166419000D02*
X124762000Y-166419000D01*
X137238000Y-166419000D02*
X132440000Y-166419000D01*
X137245000Y-166459000D02*
X124755000Y-166459000D01*
X137252000Y-166499000D02*
X124748000Y-166499000D01*
X137258000Y-166539000D02*
X124742000Y-166539000D01*
X137264000Y-166579000D02*
X124736000Y-166579000D01*
X137269000Y-166619000D02*
X124731000Y-166619000D01*
X137275000Y-166659000D02*
X124725000Y-166659000D01*
X137280000Y-166699000D02*
X124720000Y-166699000D01*
X137285000Y-166739000D02*
X124715000Y-166739000D01*
X137290000Y-166779000D02*
X124710000Y-166779000D01*
X137294000Y-166820000D02*
X124706000Y-166820000D01*
X137298000Y-166860000D02*
X124702000Y-166860000D01*
X137302000Y-166900000D02*
X124698000Y-166900000D01*
X137306000Y-166940000D02*
X124694000Y-166940000D01*
X137309000Y-166980000D02*
X124691000Y-166980000D01*
X137312000Y-167020000D02*
X124688000Y-167020000D01*
X137315000Y-167060000D02*
X124685000Y-167060000D01*
X137318000Y-167100000D02*
X124682000Y-167100000D01*
X137320000Y-167140000D02*
X124680000Y-167140000D01*
X137322000Y-167180000D02*
X124678000Y-167180000D01*
X137324000Y-167220000D02*
X124676000Y-167220000D01*
X137326000Y-167260000D02*
X124674000Y-167260000D01*
X137327000Y-167300000D02*
X124673000Y-167300000D01*
X137328000Y-167340000D02*
X124672000Y-167340000D01*
X137329000Y-167380000D02*
X124671000Y-167380000D01*
X137330000Y-167420000D02*
X124670000Y-167420000D01*
X137330000Y-167460000D02*
X124670000Y-167460000D01*
X137330000Y-167500000D02*
X124670000Y-167500000D01*
X137370000Y-167500000D02*
G75*
G03X137370000Y-167500000I-6370000J0D01*
G01*
X135700000Y-73692082D02*
X134450000Y-73692082D01*
X135075000Y-74317082D02*
X135075000Y-73067082D01*
X131817000Y-61139000D02*
X131183000Y-61139000D01*
X132257000Y-61179000D02*
X130743000Y-61179000D01*
X132528000Y-61219000D02*
X130472000Y-61219000D01*
X132741000Y-61259000D02*
X130259000Y-61259000D01*
X132922000Y-61299000D02*
X130078000Y-61299000D01*
X133083000Y-61339000D02*
X129917000Y-61339000D01*
X133228000Y-61379000D02*
X129772000Y-61379000D01*
X133361000Y-61419000D02*
X129639000Y-61419000D01*
X133484000Y-61459000D02*
X129516000Y-61459000D01*
X133600000Y-61499000D02*
X129400000Y-61499000D01*
X133709000Y-61539000D02*
X129291000Y-61539000D01*
X133812000Y-61579000D02*
X129188000Y-61579000D01*
X133910000Y-61619000D02*
X129090000Y-61619000D01*
X134004000Y-61659000D02*
X128996000Y-61659000D01*
X134094000Y-61699000D02*
X128906000Y-61699000D01*
X134181000Y-61739000D02*
X128819000Y-61739000D01*
X134264000Y-61779000D02*
X128736000Y-61779000D01*
X134344000Y-61819000D02*
X128656000Y-61819000D01*
X134421000Y-61859000D02*
X128579000Y-61859000D01*
X134496000Y-61899000D02*
X128504000Y-61899000D01*
X134569000Y-61939000D02*
X128431000Y-61939000D01*
X134640000Y-61979000D02*
X128360000Y-61979000D01*
X134708000Y-62019000D02*
X128292000Y-62019000D01*
X134775000Y-62059000D02*
X128225000Y-62059000D01*
X134839000Y-62099000D02*
X128161000Y-62099000D01*
X134902000Y-62139000D02*
X128098000Y-62139000D01*
X134964000Y-62179000D02*
X128036000Y-62179000D01*
X135024000Y-62219000D02*
X127976000Y-62219000D01*
X135083000Y-62259000D02*
X127917000Y-62259000D01*
X135140000Y-62299000D02*
X127860000Y-62299000D01*
X135196000Y-62339000D02*
X127804000Y-62339000D01*
X135250000Y-62379000D02*
X127750000Y-62379000D01*
X135304000Y-62419000D02*
X127696000Y-62419000D01*
X135356000Y-62459000D02*
X127644000Y-62459000D01*
X135407000Y-62499000D02*
X127593000Y-62499000D01*
X135457000Y-62539000D02*
X127543000Y-62539000D01*
X135507000Y-62579000D02*
X127493000Y-62579000D01*
X135555000Y-62619000D02*
X127445000Y-62619000D01*
X135602000Y-62659000D02*
X127398000Y-62659000D01*
X135648000Y-62699000D02*
X127352000Y-62699000D01*
X135694000Y-62739000D02*
X127306000Y-62739000D01*
X135738000Y-62779000D02*
X127262000Y-62779000D01*
X135782000Y-62819000D02*
X127218000Y-62819000D01*
X135825000Y-62859000D02*
X127175000Y-62859000D01*
X135867000Y-62899000D02*
X127133000Y-62899000D01*
X135908000Y-62939000D02*
X127092000Y-62939000D01*
X135949000Y-62979000D02*
X127051000Y-62979000D01*
X135989000Y-63019000D02*
X127011000Y-63019000D01*
X136028000Y-63059000D02*
X126972000Y-63059000D01*
X136067000Y-63099000D02*
X126933000Y-63099000D01*
X136105000Y-63139000D02*
X126895000Y-63139000D01*
X136142000Y-63179000D02*
X126858000Y-63179000D01*
X136178000Y-63219000D02*
X126822000Y-63219000D01*
X136214000Y-63259000D02*
X126786000Y-63259000D01*
X136250000Y-63299000D02*
X126750000Y-63299000D01*
X136285000Y-63339000D02*
X126715000Y-63339000D01*
X136319000Y-63379000D02*
X126681000Y-63379000D01*
X136352000Y-63419000D02*
X126648000Y-63419000D01*
X136385000Y-63459000D02*
X126615000Y-63459000D01*
X136418000Y-63499000D02*
X126582000Y-63499000D01*
X136450000Y-63539000D02*
X126550000Y-63539000D01*
X130060000Y-63579000D02*
X126518000Y-63579000D01*
X136482000Y-63579000D02*
X132940000Y-63579000D01*
X130060000Y-63619000D02*
X126488000Y-63619000D01*
X136512000Y-63619000D02*
X132940000Y-63619000D01*
X130060000Y-63659000D02*
X126457000Y-63659000D01*
X136543000Y-63659000D02*
X132940000Y-63659000D01*
X130060000Y-63699000D02*
X126427000Y-63699000D01*
X136573000Y-63699000D02*
X132940000Y-63699000D01*
X130060000Y-63739000D02*
X126398000Y-63739000D01*
X136602000Y-63739000D02*
X132940000Y-63739000D01*
X130060000Y-63779000D02*
X126369000Y-63779000D01*
X136631000Y-63779000D02*
X132940000Y-63779000D01*
X130060000Y-63819000D02*
X126340000Y-63819000D01*
X136660000Y-63819000D02*
X132940000Y-63819000D01*
X130060000Y-63859000D02*
X126312000Y-63859000D01*
X136688000Y-63859000D02*
X132940000Y-63859000D01*
X130060000Y-63899000D02*
X126284000Y-63899000D01*
X136716000Y-63899000D02*
X132940000Y-63899000D01*
X130060000Y-63939000D02*
X126257000Y-63939000D01*
X136743000Y-63939000D02*
X132940000Y-63939000D01*
X130060000Y-63979000D02*
X126230000Y-63979000D01*
X136770000Y-63979000D02*
X132940000Y-63979000D01*
X130060000Y-64019000D02*
X126204000Y-64019000D01*
X136796000Y-64019000D02*
X132940000Y-64019000D01*
X130060000Y-64059000D02*
X126178000Y-64059000D01*
X136822000Y-64059000D02*
X132940000Y-64059000D01*
X130060000Y-64099000D02*
X126153000Y-64099000D01*
X136847000Y-64099000D02*
X132940000Y-64099000D01*
X130060000Y-64139000D02*
X126128000Y-64139000D01*
X136872000Y-64139000D02*
X132940000Y-64139000D01*
X130060000Y-64179000D02*
X126103000Y-64179000D01*
X136897000Y-64179000D02*
X132940000Y-64179000D01*
X130060000Y-64219000D02*
X126079000Y-64219000D01*
X136921000Y-64219000D02*
X132940000Y-64219000D01*
X130060000Y-64259000D02*
X126055000Y-64259000D01*
X136945000Y-64259000D02*
X132940000Y-64259000D01*
X130060000Y-64299000D02*
X126032000Y-64299000D01*
X136968000Y-64299000D02*
X132940000Y-64299000D01*
X130060000Y-64339000D02*
X126009000Y-64339000D01*
X136991000Y-64339000D02*
X132940000Y-64339000D01*
X130060000Y-64379000D02*
X125986000Y-64379000D01*
X137014000Y-64379000D02*
X132940000Y-64379000D01*
X130060000Y-64419000D02*
X125964000Y-64419000D01*
X137036000Y-64419000D02*
X132940000Y-64419000D01*
X130060000Y-64459000D02*
X125942000Y-64459000D01*
X137058000Y-64459000D02*
X132940000Y-64459000D01*
X130060000Y-64499000D02*
X125920000Y-64499000D01*
X137080000Y-64499000D02*
X132940000Y-64499000D01*
X130060000Y-64539000D02*
X125899000Y-64539000D01*
X137101000Y-64539000D02*
X132940000Y-64539000D01*
X130060000Y-64579000D02*
X125878000Y-64579000D01*
X137122000Y-64579000D02*
X132940000Y-64579000D01*
X130060000Y-64619000D02*
X125858000Y-64619000D01*
X137142000Y-64619000D02*
X132940000Y-64619000D01*
X130060000Y-64659000D02*
X125838000Y-64659000D01*
X137162000Y-64659000D02*
X132940000Y-64659000D01*
X130060000Y-64699000D02*
X125818000Y-64699000D01*
X137182000Y-64699000D02*
X132940000Y-64699000D01*
X130060000Y-64739000D02*
X125798000Y-64739000D01*
X137202000Y-64739000D02*
X132940000Y-64739000D01*
X130060000Y-64779000D02*
X125779000Y-64779000D01*
X137221000Y-64779000D02*
X132940000Y-64779000D01*
X130060000Y-64819000D02*
X125761000Y-64819000D01*
X137239000Y-64819000D02*
X132940000Y-64819000D01*
X130060000Y-64859000D02*
X125742000Y-64859000D01*
X137258000Y-64859000D02*
X132940000Y-64859000D01*
X130060000Y-64899000D02*
X125724000Y-64899000D01*
X137276000Y-64899000D02*
X132940000Y-64899000D01*
X130060000Y-64939000D02*
X125707000Y-64939000D01*
X137293000Y-64939000D02*
X132940000Y-64939000D01*
X130060000Y-64979000D02*
X125689000Y-64979000D01*
X137311000Y-64979000D02*
X132940000Y-64979000D01*
X130060000Y-65019000D02*
X125672000Y-65019000D01*
X137328000Y-65019000D02*
X132940000Y-65019000D01*
X130060000Y-65059000D02*
X125655000Y-65059000D01*
X137345000Y-65059000D02*
X132940000Y-65059000D01*
X130060000Y-65099000D02*
X125639000Y-65099000D01*
X137361000Y-65099000D02*
X132940000Y-65099000D01*
X130060000Y-65139000D02*
X125623000Y-65139000D01*
X137377000Y-65139000D02*
X132940000Y-65139000D01*
X130060000Y-65179000D02*
X125607000Y-65179000D01*
X137393000Y-65179000D02*
X132940000Y-65179000D01*
X130060000Y-65219000D02*
X125592000Y-65219000D01*
X137408000Y-65219000D02*
X132940000Y-65219000D01*
X130060000Y-65259000D02*
X125576000Y-65259000D01*
X137424000Y-65259000D02*
X132940000Y-65259000D01*
X130060000Y-65299000D02*
X125561000Y-65299000D01*
X137439000Y-65299000D02*
X132940000Y-65299000D01*
X130060000Y-65339000D02*
X125547000Y-65339000D01*
X137453000Y-65339000D02*
X132940000Y-65339000D01*
X130060000Y-65379000D02*
X125533000Y-65379000D01*
X137467000Y-65379000D02*
X132940000Y-65379000D01*
X130060000Y-65419000D02*
X125519000Y-65419000D01*
X137481000Y-65419000D02*
X132940000Y-65419000D01*
X130060000Y-65459000D02*
X125505000Y-65459000D01*
X137495000Y-65459000D02*
X132940000Y-65459000D01*
X130060000Y-65499000D02*
X125492000Y-65499000D01*
X137508000Y-65499000D02*
X132940000Y-65499000D01*
X130060000Y-65539000D02*
X125479000Y-65539000D01*
X137521000Y-65539000D02*
X132940000Y-65539000D01*
X130060000Y-65579000D02*
X125466000Y-65579000D01*
X137534000Y-65579000D02*
X132940000Y-65579000D01*
X130060000Y-65619000D02*
X125453000Y-65619000D01*
X137547000Y-65619000D02*
X132940000Y-65619000D01*
X130060000Y-65659000D02*
X125441000Y-65659000D01*
X137559000Y-65659000D02*
X132940000Y-65659000D01*
X130060000Y-65699000D02*
X125429000Y-65699000D01*
X137571000Y-65699000D02*
X132940000Y-65699000D01*
X130060000Y-65739000D02*
X125417000Y-65739000D01*
X137583000Y-65739000D02*
X132940000Y-65739000D01*
X130060000Y-65779000D02*
X125406000Y-65779000D01*
X137594000Y-65779000D02*
X132940000Y-65779000D01*
X130060000Y-65819000D02*
X125395000Y-65819000D01*
X137605000Y-65819000D02*
X132940000Y-65819000D01*
X130060000Y-65859000D02*
X125384000Y-65859000D01*
X137616000Y-65859000D02*
X132940000Y-65859000D01*
X130060000Y-65899000D02*
X125374000Y-65899000D01*
X137626000Y-65899000D02*
X132940000Y-65899000D01*
X130060000Y-65939000D02*
X125363000Y-65939000D01*
X137637000Y-65939000D02*
X132940000Y-65939000D01*
X130060000Y-65979000D02*
X125354000Y-65979000D01*
X137646000Y-65979000D02*
X132940000Y-65979000D01*
X130060000Y-66019000D02*
X125344000Y-66019000D01*
X137656000Y-66019000D02*
X132940000Y-66019000D01*
X130060000Y-66059000D02*
X125334000Y-66059000D01*
X137666000Y-66059000D02*
X132940000Y-66059000D01*
X130060000Y-66099000D02*
X125325000Y-66099000D01*
X137675000Y-66099000D02*
X132940000Y-66099000D01*
X130060000Y-66139000D02*
X125316000Y-66139000D01*
X137684000Y-66139000D02*
X132940000Y-66139000D01*
X130060000Y-66179000D02*
X125308000Y-66179000D01*
X137692000Y-66179000D02*
X132940000Y-66179000D01*
X130060000Y-66219000D02*
X125299000Y-66219000D01*
X137701000Y-66219000D02*
X132940000Y-66219000D01*
X130060000Y-66259000D02*
X125291000Y-66259000D01*
X137709000Y-66259000D02*
X132940000Y-66259000D01*
X130060000Y-66299000D02*
X125284000Y-66299000D01*
X137716000Y-66299000D02*
X132940000Y-66299000D01*
X130060000Y-66339000D02*
X125276000Y-66339000D01*
X137724000Y-66339000D02*
X132940000Y-66339000D01*
X130060000Y-66379000D02*
X125269000Y-66379000D01*
X137731000Y-66379000D02*
X132940000Y-66379000D01*
X130060000Y-66419000D02*
X125262000Y-66419000D01*
X137738000Y-66419000D02*
X132940000Y-66419000D01*
X137745000Y-66459000D02*
X125255000Y-66459000D01*
X137752000Y-66499000D02*
X125248000Y-66499000D01*
X137758000Y-66539000D02*
X125242000Y-66539000D01*
X137764000Y-66579000D02*
X125236000Y-66579000D01*
X137769000Y-66619000D02*
X125231000Y-66619000D01*
X137775000Y-66659000D02*
X125225000Y-66659000D01*
X137780000Y-66699000D02*
X125220000Y-66699000D01*
X137785000Y-66739000D02*
X125215000Y-66739000D01*
X137790000Y-66779000D02*
X125210000Y-66779000D01*
X137794000Y-66820000D02*
X125206000Y-66820000D01*
X137798000Y-66860000D02*
X125202000Y-66860000D01*
X137802000Y-66900000D02*
X125198000Y-66900000D01*
X137806000Y-66940000D02*
X125194000Y-66940000D01*
X137809000Y-66980000D02*
X125191000Y-66980000D01*
X137812000Y-67020000D02*
X125188000Y-67020000D01*
X137815000Y-67060000D02*
X125185000Y-67060000D01*
X137818000Y-67100000D02*
X125182000Y-67100000D01*
X137820000Y-67140000D02*
X125180000Y-67140000D01*
X137822000Y-67180000D02*
X125178000Y-67180000D01*
X137824000Y-67220000D02*
X125176000Y-67220000D01*
X137826000Y-67260000D02*
X125174000Y-67260000D01*
X137827000Y-67300000D02*
X125173000Y-67300000D01*
X137828000Y-67340000D02*
X125172000Y-67340000D01*
X137829000Y-67380000D02*
X125171000Y-67380000D01*
X137830000Y-67420000D02*
X125170000Y-67420000D01*
X137830000Y-67460000D02*
X125170000Y-67460000D01*
X137830000Y-67500000D02*
X125170000Y-67500000D01*
X137870000Y-67500000D02*
G75*
G03X137870000Y-67500000I-6370000J0D01*
G01*
X135700000Y-98692082D02*
X134450000Y-98692082D01*
X135075000Y-99317082D02*
X135075000Y-98067082D01*
X131817000Y-86139000D02*
X131183000Y-86139000D01*
X132257000Y-86179000D02*
X130743000Y-86179000D01*
X132528000Y-86219000D02*
X130472000Y-86219000D01*
X132741000Y-86259000D02*
X130259000Y-86259000D01*
X132922000Y-86299000D02*
X130078000Y-86299000D01*
X133083000Y-86339000D02*
X129917000Y-86339000D01*
X133228000Y-86379000D02*
X129772000Y-86379000D01*
X133361000Y-86419000D02*
X129639000Y-86419000D01*
X133484000Y-86459000D02*
X129516000Y-86459000D01*
X133600000Y-86499000D02*
X129400000Y-86499000D01*
X133709000Y-86539000D02*
X129291000Y-86539000D01*
X133812000Y-86579000D02*
X129188000Y-86579000D01*
X133910000Y-86619000D02*
X129090000Y-86619000D01*
X134004000Y-86659000D02*
X128996000Y-86659000D01*
X134094000Y-86699000D02*
X128906000Y-86699000D01*
X134181000Y-86739000D02*
X128819000Y-86739000D01*
X134264000Y-86779000D02*
X128736000Y-86779000D01*
X134344000Y-86819000D02*
X128656000Y-86819000D01*
X134421000Y-86859000D02*
X128579000Y-86859000D01*
X134496000Y-86899000D02*
X128504000Y-86899000D01*
X134569000Y-86939000D02*
X128431000Y-86939000D01*
X134640000Y-86979000D02*
X128360000Y-86979000D01*
X134708000Y-87019000D02*
X128292000Y-87019000D01*
X134775000Y-87059000D02*
X128225000Y-87059000D01*
X134839000Y-87099000D02*
X128161000Y-87099000D01*
X134902000Y-87139000D02*
X128098000Y-87139000D01*
X134964000Y-87179000D02*
X128036000Y-87179000D01*
X135024000Y-87219000D02*
X127976000Y-87219000D01*
X135083000Y-87259000D02*
X127917000Y-87259000D01*
X135140000Y-87299000D02*
X127860000Y-87299000D01*
X135196000Y-87339000D02*
X127804000Y-87339000D01*
X135250000Y-87379000D02*
X127750000Y-87379000D01*
X135304000Y-87419000D02*
X127696000Y-87419000D01*
X135356000Y-87459000D02*
X127644000Y-87459000D01*
X135407000Y-87499000D02*
X127593000Y-87499000D01*
X135457000Y-87539000D02*
X127543000Y-87539000D01*
X135507000Y-87579000D02*
X127493000Y-87579000D01*
X135555000Y-87619000D02*
X127445000Y-87619000D01*
X135602000Y-87659000D02*
X127398000Y-87659000D01*
X135648000Y-87699000D02*
X127352000Y-87699000D01*
X135694000Y-87739000D02*
X127306000Y-87739000D01*
X135738000Y-87779000D02*
X127262000Y-87779000D01*
X135782000Y-87819000D02*
X127218000Y-87819000D01*
X135825000Y-87859000D02*
X127175000Y-87859000D01*
X135867000Y-87899000D02*
X127133000Y-87899000D01*
X135908000Y-87939000D02*
X127092000Y-87939000D01*
X135949000Y-87979000D02*
X127051000Y-87979000D01*
X135989000Y-88019000D02*
X127011000Y-88019000D01*
X136028000Y-88059000D02*
X126972000Y-88059000D01*
X136067000Y-88099000D02*
X126933000Y-88099000D01*
X136105000Y-88139000D02*
X126895000Y-88139000D01*
X136142000Y-88179000D02*
X126858000Y-88179000D01*
X136178000Y-88219000D02*
X126822000Y-88219000D01*
X136214000Y-88259000D02*
X126786000Y-88259000D01*
X136250000Y-88299000D02*
X126750000Y-88299000D01*
X136285000Y-88339000D02*
X126715000Y-88339000D01*
X136319000Y-88379000D02*
X126681000Y-88379000D01*
X136352000Y-88419000D02*
X126648000Y-88419000D01*
X136385000Y-88459000D02*
X126615000Y-88459000D01*
X136418000Y-88499000D02*
X126582000Y-88499000D01*
X136450000Y-88539000D02*
X126550000Y-88539000D01*
X130060000Y-88579000D02*
X126518000Y-88579000D01*
X136482000Y-88579000D02*
X132940000Y-88579000D01*
X130060000Y-88619000D02*
X126488000Y-88619000D01*
X136512000Y-88619000D02*
X132940000Y-88619000D01*
X130060000Y-88659000D02*
X126457000Y-88659000D01*
X136543000Y-88659000D02*
X132940000Y-88659000D01*
X130060000Y-88699000D02*
X126427000Y-88699000D01*
X136573000Y-88699000D02*
X132940000Y-88699000D01*
X130060000Y-88739000D02*
X126398000Y-88739000D01*
X136602000Y-88739000D02*
X132940000Y-88739000D01*
X130060000Y-88779000D02*
X126369000Y-88779000D01*
X136631000Y-88779000D02*
X132940000Y-88779000D01*
X130060000Y-88819000D02*
X126340000Y-88819000D01*
X136660000Y-88819000D02*
X132940000Y-88819000D01*
X130060000Y-88859000D02*
X126312000Y-88859000D01*
X136688000Y-88859000D02*
X132940000Y-88859000D01*
X130060000Y-88899000D02*
X126284000Y-88899000D01*
X136716000Y-88899000D02*
X132940000Y-88899000D01*
X130060000Y-88939000D02*
X126257000Y-88939000D01*
X136743000Y-88939000D02*
X132940000Y-88939000D01*
X130060000Y-88979000D02*
X126230000Y-88979000D01*
X136770000Y-88979000D02*
X132940000Y-88979000D01*
X130060000Y-89019000D02*
X126204000Y-89019000D01*
X136796000Y-89019000D02*
X132940000Y-89019000D01*
X130060000Y-89059000D02*
X126178000Y-89059000D01*
X136822000Y-89059000D02*
X132940000Y-89059000D01*
X130060000Y-89099000D02*
X126153000Y-89099000D01*
X136847000Y-89099000D02*
X132940000Y-89099000D01*
X130060000Y-89139000D02*
X126128000Y-89139000D01*
X136872000Y-89139000D02*
X132940000Y-89139000D01*
X130060000Y-89179000D02*
X126103000Y-89179000D01*
X136897000Y-89179000D02*
X132940000Y-89179000D01*
X130060000Y-89219000D02*
X126079000Y-89219000D01*
X136921000Y-89219000D02*
X132940000Y-89219000D01*
X130060000Y-89259000D02*
X126055000Y-89259000D01*
X136945000Y-89259000D02*
X132940000Y-89259000D01*
X130060000Y-89299000D02*
X126032000Y-89299000D01*
X136968000Y-89299000D02*
X132940000Y-89299000D01*
X130060000Y-89339000D02*
X126009000Y-89339000D01*
X136991000Y-89339000D02*
X132940000Y-89339000D01*
X130060000Y-89379000D02*
X125986000Y-89379000D01*
X137014000Y-89379000D02*
X132940000Y-89379000D01*
X130060000Y-89419000D02*
X125964000Y-89419000D01*
X137036000Y-89419000D02*
X132940000Y-89419000D01*
X130060000Y-89459000D02*
X125942000Y-89459000D01*
X137058000Y-89459000D02*
X132940000Y-89459000D01*
X130060000Y-89499000D02*
X125920000Y-89499000D01*
X137080000Y-89499000D02*
X132940000Y-89499000D01*
X130060000Y-89539000D02*
X125899000Y-89539000D01*
X137101000Y-89539000D02*
X132940000Y-89539000D01*
X130060000Y-89579000D02*
X125878000Y-89579000D01*
X137122000Y-89579000D02*
X132940000Y-89579000D01*
X130060000Y-89619000D02*
X125858000Y-89619000D01*
X137142000Y-89619000D02*
X132940000Y-89619000D01*
X130060000Y-89659000D02*
X125838000Y-89659000D01*
X137162000Y-89659000D02*
X132940000Y-89659000D01*
X130060000Y-89699000D02*
X125818000Y-89699000D01*
X137182000Y-89699000D02*
X132940000Y-89699000D01*
X130060000Y-89739000D02*
X125798000Y-89739000D01*
X137202000Y-89739000D02*
X132940000Y-89739000D01*
X130060000Y-89779000D02*
X125779000Y-89779000D01*
X137221000Y-89779000D02*
X132940000Y-89779000D01*
X130060000Y-89819000D02*
X125761000Y-89819000D01*
X137239000Y-89819000D02*
X132940000Y-89819000D01*
X130060000Y-89859000D02*
X125742000Y-89859000D01*
X137258000Y-89859000D02*
X132940000Y-89859000D01*
X130060000Y-89899000D02*
X125724000Y-89899000D01*
X137276000Y-89899000D02*
X132940000Y-89899000D01*
X130060000Y-89939000D02*
X125707000Y-89939000D01*
X137293000Y-89939000D02*
X132940000Y-89939000D01*
X130060000Y-89979000D02*
X125689000Y-89979000D01*
X137311000Y-89979000D02*
X132940000Y-89979000D01*
X130060000Y-90019000D02*
X125672000Y-90019000D01*
X137328000Y-90019000D02*
X132940000Y-90019000D01*
X130060000Y-90059000D02*
X125655000Y-90059000D01*
X137345000Y-90059000D02*
X132940000Y-90059000D01*
X130060000Y-90099000D02*
X125639000Y-90099000D01*
X137361000Y-90099000D02*
X132940000Y-90099000D01*
X130060000Y-90139000D02*
X125623000Y-90139000D01*
X137377000Y-90139000D02*
X132940000Y-90139000D01*
X130060000Y-90179000D02*
X125607000Y-90179000D01*
X137393000Y-90179000D02*
X132940000Y-90179000D01*
X130060000Y-90219000D02*
X125592000Y-90219000D01*
X137408000Y-90219000D02*
X132940000Y-90219000D01*
X130060000Y-90259000D02*
X125576000Y-90259000D01*
X137424000Y-90259000D02*
X132940000Y-90259000D01*
X130060000Y-90299000D02*
X125561000Y-90299000D01*
X137439000Y-90299000D02*
X132940000Y-90299000D01*
X130060000Y-90339000D02*
X125547000Y-90339000D01*
X137453000Y-90339000D02*
X132940000Y-90339000D01*
X130060000Y-90379000D02*
X125533000Y-90379000D01*
X137467000Y-90379000D02*
X132940000Y-90379000D01*
X130060000Y-90419000D02*
X125519000Y-90419000D01*
X137481000Y-90419000D02*
X132940000Y-90419000D01*
X130060000Y-90459000D02*
X125505000Y-90459000D01*
X137495000Y-90459000D02*
X132940000Y-90459000D01*
X130060000Y-90499000D02*
X125492000Y-90499000D01*
X137508000Y-90499000D02*
X132940000Y-90499000D01*
X130060000Y-90539000D02*
X125479000Y-90539000D01*
X137521000Y-90539000D02*
X132940000Y-90539000D01*
X130060000Y-90579000D02*
X125466000Y-90579000D01*
X137534000Y-90579000D02*
X132940000Y-90579000D01*
X130060000Y-90619000D02*
X125453000Y-90619000D01*
X137547000Y-90619000D02*
X132940000Y-90619000D01*
X130060000Y-90659000D02*
X125441000Y-90659000D01*
X137559000Y-90659000D02*
X132940000Y-90659000D01*
X130060000Y-90699000D02*
X125429000Y-90699000D01*
X137571000Y-90699000D02*
X132940000Y-90699000D01*
X130060000Y-90739000D02*
X125417000Y-90739000D01*
X137583000Y-90739000D02*
X132940000Y-90739000D01*
X130060000Y-90779000D02*
X125406000Y-90779000D01*
X137594000Y-90779000D02*
X132940000Y-90779000D01*
X130060000Y-90819000D02*
X125395000Y-90819000D01*
X137605000Y-90819000D02*
X132940000Y-90819000D01*
X130060000Y-90859000D02*
X125384000Y-90859000D01*
X137616000Y-90859000D02*
X132940000Y-90859000D01*
X130060000Y-90899000D02*
X125374000Y-90899000D01*
X137626000Y-90899000D02*
X132940000Y-90899000D01*
X130060000Y-90939000D02*
X125363000Y-90939000D01*
X137637000Y-90939000D02*
X132940000Y-90939000D01*
X130060000Y-90979000D02*
X125354000Y-90979000D01*
X137646000Y-90979000D02*
X132940000Y-90979000D01*
X130060000Y-91019000D02*
X125344000Y-91019000D01*
X137656000Y-91019000D02*
X132940000Y-91019000D01*
X130060000Y-91059000D02*
X125334000Y-91059000D01*
X137666000Y-91059000D02*
X132940000Y-91059000D01*
X130060000Y-91099000D02*
X125325000Y-91099000D01*
X137675000Y-91099000D02*
X132940000Y-91099000D01*
X130060000Y-91139000D02*
X125316000Y-91139000D01*
X137684000Y-91139000D02*
X132940000Y-91139000D01*
X130060000Y-91179000D02*
X125308000Y-91179000D01*
X137692000Y-91179000D02*
X132940000Y-91179000D01*
X130060000Y-91219000D02*
X125299000Y-91219000D01*
X137701000Y-91219000D02*
X132940000Y-91219000D01*
X130060000Y-91259000D02*
X125291000Y-91259000D01*
X137709000Y-91259000D02*
X132940000Y-91259000D01*
X130060000Y-91299000D02*
X125284000Y-91299000D01*
X137716000Y-91299000D02*
X132940000Y-91299000D01*
X130060000Y-91339000D02*
X125276000Y-91339000D01*
X137724000Y-91339000D02*
X132940000Y-91339000D01*
X130060000Y-91379000D02*
X125269000Y-91379000D01*
X137731000Y-91379000D02*
X132940000Y-91379000D01*
X130060000Y-91419000D02*
X125262000Y-91419000D01*
X137738000Y-91419000D02*
X132940000Y-91419000D01*
X137745000Y-91459000D02*
X125255000Y-91459000D01*
X137752000Y-91499000D02*
X125248000Y-91499000D01*
X137758000Y-91539000D02*
X125242000Y-91539000D01*
X137764000Y-91579000D02*
X125236000Y-91579000D01*
X137769000Y-91619000D02*
X125231000Y-91619000D01*
X137775000Y-91659000D02*
X125225000Y-91659000D01*
X137780000Y-91699000D02*
X125220000Y-91699000D01*
X137785000Y-91739000D02*
X125215000Y-91739000D01*
X137790000Y-91779000D02*
X125210000Y-91779000D01*
X137794000Y-91820000D02*
X125206000Y-91820000D01*
X137798000Y-91860000D02*
X125202000Y-91860000D01*
X137802000Y-91900000D02*
X125198000Y-91900000D01*
X137806000Y-91940000D02*
X125194000Y-91940000D01*
X137809000Y-91980000D02*
X125191000Y-91980000D01*
X137812000Y-92020000D02*
X125188000Y-92020000D01*
X137815000Y-92060000D02*
X125185000Y-92060000D01*
X137818000Y-92100000D02*
X125182000Y-92100000D01*
X137820000Y-92140000D02*
X125180000Y-92140000D01*
X137822000Y-92180000D02*
X125178000Y-92180000D01*
X137824000Y-92220000D02*
X125176000Y-92220000D01*
X137826000Y-92260000D02*
X125174000Y-92260000D01*
X137827000Y-92300000D02*
X125173000Y-92300000D01*
X137828000Y-92340000D02*
X125172000Y-92340000D01*
X137829000Y-92380000D02*
X125171000Y-92380000D01*
X137830000Y-92420000D02*
X125170000Y-92420000D01*
X137830000Y-92460000D02*
X125170000Y-92460000D01*
X137830000Y-92500000D02*
X125170000Y-92500000D01*
X137870000Y-92500000D02*
G75*
G03X137870000Y-92500000I-6370000J0D01*
G01*
X135700000Y-123692082D02*
X134450000Y-123692082D01*
X135075000Y-124317082D02*
X135075000Y-123067082D01*
X131817000Y-111139000D02*
X131183000Y-111139000D01*
X132257000Y-111179000D02*
X130743000Y-111179000D01*
X132528000Y-111219000D02*
X130472000Y-111219000D01*
X132741000Y-111259000D02*
X130259000Y-111259000D01*
X132922000Y-111299000D02*
X130078000Y-111299000D01*
X133083000Y-111339000D02*
X129917000Y-111339000D01*
X133228000Y-111379000D02*
X129772000Y-111379000D01*
X133361000Y-111419000D02*
X129639000Y-111419000D01*
X133484000Y-111459000D02*
X129516000Y-111459000D01*
X133600000Y-111499000D02*
X129400000Y-111499000D01*
X133709000Y-111539000D02*
X129291000Y-111539000D01*
X133812000Y-111579000D02*
X129188000Y-111579000D01*
X133910000Y-111619000D02*
X129090000Y-111619000D01*
X134004000Y-111659000D02*
X128996000Y-111659000D01*
X134094000Y-111699000D02*
X128906000Y-111699000D01*
X134181000Y-111739000D02*
X128819000Y-111739000D01*
X134264000Y-111779000D02*
X128736000Y-111779000D01*
X134344000Y-111819000D02*
X128656000Y-111819000D01*
X134421000Y-111859000D02*
X128579000Y-111859000D01*
X134496000Y-111899000D02*
X128504000Y-111899000D01*
X134569000Y-111939000D02*
X128431000Y-111939000D01*
X134640000Y-111979000D02*
X128360000Y-111979000D01*
X134708000Y-112019000D02*
X128292000Y-112019000D01*
X134775000Y-112059000D02*
X128225000Y-112059000D01*
X134839000Y-112099000D02*
X128161000Y-112099000D01*
X134902000Y-112139000D02*
X128098000Y-112139000D01*
X134964000Y-112179000D02*
X128036000Y-112179000D01*
X135024000Y-112219000D02*
X127976000Y-112219000D01*
X135083000Y-112259000D02*
X127917000Y-112259000D01*
X135140000Y-112299000D02*
X127860000Y-112299000D01*
X135196000Y-112339000D02*
X127804000Y-112339000D01*
X135250000Y-112379000D02*
X127750000Y-112379000D01*
X135304000Y-112419000D02*
X127696000Y-112419000D01*
X135356000Y-112459000D02*
X127644000Y-112459000D01*
X135407000Y-112499000D02*
X127593000Y-112499000D01*
X135457000Y-112539000D02*
X127543000Y-112539000D01*
X135507000Y-112579000D02*
X127493000Y-112579000D01*
X135555000Y-112619000D02*
X127445000Y-112619000D01*
X135602000Y-112659000D02*
X127398000Y-112659000D01*
X135648000Y-112699000D02*
X127352000Y-112699000D01*
X135694000Y-112739000D02*
X127306000Y-112739000D01*
X135738000Y-112779000D02*
X127262000Y-112779000D01*
X135782000Y-112819000D02*
X127218000Y-112819000D01*
X135825000Y-112859000D02*
X127175000Y-112859000D01*
X135867000Y-112899000D02*
X127133000Y-112899000D01*
X135908000Y-112939000D02*
X127092000Y-112939000D01*
X135949000Y-112979000D02*
X127051000Y-112979000D01*
X135989000Y-113019000D02*
X127011000Y-113019000D01*
X136028000Y-113059000D02*
X126972000Y-113059000D01*
X136067000Y-113099000D02*
X126933000Y-113099000D01*
X136105000Y-113139000D02*
X126895000Y-113139000D01*
X136142000Y-113179000D02*
X126858000Y-113179000D01*
X136178000Y-113219000D02*
X126822000Y-113219000D01*
X136214000Y-113259000D02*
X126786000Y-113259000D01*
X136250000Y-113299000D02*
X126750000Y-113299000D01*
X136285000Y-113339000D02*
X126715000Y-113339000D01*
X136319000Y-113379000D02*
X126681000Y-113379000D01*
X136352000Y-113419000D02*
X126648000Y-113419000D01*
X136385000Y-113459000D02*
X126615000Y-113459000D01*
X136418000Y-113499000D02*
X126582000Y-113499000D01*
X136450000Y-113539000D02*
X126550000Y-113539000D01*
X130060000Y-113579000D02*
X126518000Y-113579000D01*
X136482000Y-113579000D02*
X132940000Y-113579000D01*
X130060000Y-113619000D02*
X126488000Y-113619000D01*
X136512000Y-113619000D02*
X132940000Y-113619000D01*
X130060000Y-113659000D02*
X126457000Y-113659000D01*
X136543000Y-113659000D02*
X132940000Y-113659000D01*
X130060000Y-113699000D02*
X126427000Y-113699000D01*
X136573000Y-113699000D02*
X132940000Y-113699000D01*
X130060000Y-113739000D02*
X126398000Y-113739000D01*
X136602000Y-113739000D02*
X132940000Y-113739000D01*
X130060000Y-113779000D02*
X126369000Y-113779000D01*
X136631000Y-113779000D02*
X132940000Y-113779000D01*
X130060000Y-113819000D02*
X126340000Y-113819000D01*
X136660000Y-113819000D02*
X132940000Y-113819000D01*
X130060000Y-113859000D02*
X126312000Y-113859000D01*
X136688000Y-113859000D02*
X132940000Y-113859000D01*
X130060000Y-113899000D02*
X126284000Y-113899000D01*
X136716000Y-113899000D02*
X132940000Y-113899000D01*
X130060000Y-113939000D02*
X126257000Y-113939000D01*
X136743000Y-113939000D02*
X132940000Y-113939000D01*
X130060000Y-113979000D02*
X126230000Y-113979000D01*
X136770000Y-113979000D02*
X132940000Y-113979000D01*
X130060000Y-114019000D02*
X126204000Y-114019000D01*
X136796000Y-114019000D02*
X132940000Y-114019000D01*
X130060000Y-114059000D02*
X126178000Y-114059000D01*
X136822000Y-114059000D02*
X132940000Y-114059000D01*
X130060000Y-114099000D02*
X126153000Y-114099000D01*
X136847000Y-114099000D02*
X132940000Y-114099000D01*
X130060000Y-114139000D02*
X126128000Y-114139000D01*
X136872000Y-114139000D02*
X132940000Y-114139000D01*
X130060000Y-114179000D02*
X126103000Y-114179000D01*
X136897000Y-114179000D02*
X132940000Y-114179000D01*
X130060000Y-114219000D02*
X126079000Y-114219000D01*
X136921000Y-114219000D02*
X132940000Y-114219000D01*
X130060000Y-114259000D02*
X126055000Y-114259000D01*
X136945000Y-114259000D02*
X132940000Y-114259000D01*
X130060000Y-114299000D02*
X126032000Y-114299000D01*
X136968000Y-114299000D02*
X132940000Y-114299000D01*
X130060000Y-114339000D02*
X126009000Y-114339000D01*
X136991000Y-114339000D02*
X132940000Y-114339000D01*
X130060000Y-114379000D02*
X125986000Y-114379000D01*
X137014000Y-114379000D02*
X132940000Y-114379000D01*
X130060000Y-114419000D02*
X125964000Y-114419000D01*
X137036000Y-114419000D02*
X132940000Y-114419000D01*
X130060000Y-114459000D02*
X125942000Y-114459000D01*
X137058000Y-114459000D02*
X132940000Y-114459000D01*
X130060000Y-114499000D02*
X125920000Y-114499000D01*
X137080000Y-114499000D02*
X132940000Y-114499000D01*
X130060000Y-114539000D02*
X125899000Y-114539000D01*
X137101000Y-114539000D02*
X132940000Y-114539000D01*
X130060000Y-114579000D02*
X125878000Y-114579000D01*
X137122000Y-114579000D02*
X132940000Y-114579000D01*
X130060000Y-114619000D02*
X125858000Y-114619000D01*
X137142000Y-114619000D02*
X132940000Y-114619000D01*
X130060000Y-114659000D02*
X125838000Y-114659000D01*
X137162000Y-114659000D02*
X132940000Y-114659000D01*
X130060000Y-114699000D02*
X125818000Y-114699000D01*
X137182000Y-114699000D02*
X132940000Y-114699000D01*
X130060000Y-114739000D02*
X125798000Y-114739000D01*
X137202000Y-114739000D02*
X132940000Y-114739000D01*
X130060000Y-114779000D02*
X125779000Y-114779000D01*
X137221000Y-114779000D02*
X132940000Y-114779000D01*
X130060000Y-114819000D02*
X125761000Y-114819000D01*
X137239000Y-114819000D02*
X132940000Y-114819000D01*
X130060000Y-114859000D02*
X125742000Y-114859000D01*
X137258000Y-114859000D02*
X132940000Y-114859000D01*
X130060000Y-114899000D02*
X125724000Y-114899000D01*
X137276000Y-114899000D02*
X132940000Y-114899000D01*
X130060000Y-114939000D02*
X125707000Y-114939000D01*
X137293000Y-114939000D02*
X132940000Y-114939000D01*
X130060000Y-114979000D02*
X125689000Y-114979000D01*
X137311000Y-114979000D02*
X132940000Y-114979000D01*
X130060000Y-115019000D02*
X125672000Y-115019000D01*
X137328000Y-115019000D02*
X132940000Y-115019000D01*
X130060000Y-115059000D02*
X125655000Y-115059000D01*
X137345000Y-115059000D02*
X132940000Y-115059000D01*
X130060000Y-115099000D02*
X125639000Y-115099000D01*
X137361000Y-115099000D02*
X132940000Y-115099000D01*
X130060000Y-115139000D02*
X125623000Y-115139000D01*
X137377000Y-115139000D02*
X132940000Y-115139000D01*
X130060000Y-115179000D02*
X125607000Y-115179000D01*
X137393000Y-115179000D02*
X132940000Y-115179000D01*
X130060000Y-115219000D02*
X125592000Y-115219000D01*
X137408000Y-115219000D02*
X132940000Y-115219000D01*
X130060000Y-115259000D02*
X125576000Y-115259000D01*
X137424000Y-115259000D02*
X132940000Y-115259000D01*
X130060000Y-115299000D02*
X125561000Y-115299000D01*
X137439000Y-115299000D02*
X132940000Y-115299000D01*
X130060000Y-115339000D02*
X125547000Y-115339000D01*
X137453000Y-115339000D02*
X132940000Y-115339000D01*
X130060000Y-115379000D02*
X125533000Y-115379000D01*
X137467000Y-115379000D02*
X132940000Y-115379000D01*
X130060000Y-115419000D02*
X125519000Y-115419000D01*
X137481000Y-115419000D02*
X132940000Y-115419000D01*
X130060000Y-115459000D02*
X125505000Y-115459000D01*
X137495000Y-115459000D02*
X132940000Y-115459000D01*
X130060000Y-115499000D02*
X125492000Y-115499000D01*
X137508000Y-115499000D02*
X132940000Y-115499000D01*
X130060000Y-115539000D02*
X125479000Y-115539000D01*
X137521000Y-115539000D02*
X132940000Y-115539000D01*
X130060000Y-115579000D02*
X125466000Y-115579000D01*
X137534000Y-115579000D02*
X132940000Y-115579000D01*
X130060000Y-115619000D02*
X125453000Y-115619000D01*
X137547000Y-115619000D02*
X132940000Y-115619000D01*
X130060000Y-115659000D02*
X125441000Y-115659000D01*
X137559000Y-115659000D02*
X132940000Y-115659000D01*
X130060000Y-115699000D02*
X125429000Y-115699000D01*
X137571000Y-115699000D02*
X132940000Y-115699000D01*
X130060000Y-115739000D02*
X125417000Y-115739000D01*
X137583000Y-115739000D02*
X132940000Y-115739000D01*
X130060000Y-115779000D02*
X125406000Y-115779000D01*
X137594000Y-115779000D02*
X132940000Y-115779000D01*
X130060000Y-115819000D02*
X125395000Y-115819000D01*
X137605000Y-115819000D02*
X132940000Y-115819000D01*
X130060000Y-115859000D02*
X125384000Y-115859000D01*
X137616000Y-115859000D02*
X132940000Y-115859000D01*
X130060000Y-115899000D02*
X125374000Y-115899000D01*
X137626000Y-115899000D02*
X132940000Y-115899000D01*
X130060000Y-115939000D02*
X125363000Y-115939000D01*
X137637000Y-115939000D02*
X132940000Y-115939000D01*
X130060000Y-115979000D02*
X125354000Y-115979000D01*
X137646000Y-115979000D02*
X132940000Y-115979000D01*
X130060000Y-116019000D02*
X125344000Y-116019000D01*
X137656000Y-116019000D02*
X132940000Y-116019000D01*
X130060000Y-116059000D02*
X125334000Y-116059000D01*
X137666000Y-116059000D02*
X132940000Y-116059000D01*
X130060000Y-116099000D02*
X125325000Y-116099000D01*
X137675000Y-116099000D02*
X132940000Y-116099000D01*
X130060000Y-116139000D02*
X125316000Y-116139000D01*
X137684000Y-116139000D02*
X132940000Y-116139000D01*
X130060000Y-116179000D02*
X125308000Y-116179000D01*
X137692000Y-116179000D02*
X132940000Y-116179000D01*
X130060000Y-116219000D02*
X125299000Y-116219000D01*
X137701000Y-116219000D02*
X132940000Y-116219000D01*
X130060000Y-116259000D02*
X125291000Y-116259000D01*
X137709000Y-116259000D02*
X132940000Y-116259000D01*
X130060000Y-116299000D02*
X125284000Y-116299000D01*
X137716000Y-116299000D02*
X132940000Y-116299000D01*
X130060000Y-116339000D02*
X125276000Y-116339000D01*
X137724000Y-116339000D02*
X132940000Y-116339000D01*
X130060000Y-116379000D02*
X125269000Y-116379000D01*
X137731000Y-116379000D02*
X132940000Y-116379000D01*
X130060000Y-116419000D02*
X125262000Y-116419000D01*
X137738000Y-116419000D02*
X132940000Y-116419000D01*
X137745000Y-116459000D02*
X125255000Y-116459000D01*
X137752000Y-116499000D02*
X125248000Y-116499000D01*
X137758000Y-116539000D02*
X125242000Y-116539000D01*
X137764000Y-116579000D02*
X125236000Y-116579000D01*
X137769000Y-116619000D02*
X125231000Y-116619000D01*
X137775000Y-116659000D02*
X125225000Y-116659000D01*
X137780000Y-116699000D02*
X125220000Y-116699000D01*
X137785000Y-116739000D02*
X125215000Y-116739000D01*
X137790000Y-116779000D02*
X125210000Y-116779000D01*
X137794000Y-116820000D02*
X125206000Y-116820000D01*
X137798000Y-116860000D02*
X125202000Y-116860000D01*
X137802000Y-116900000D02*
X125198000Y-116900000D01*
X137806000Y-116940000D02*
X125194000Y-116940000D01*
X137809000Y-116980000D02*
X125191000Y-116980000D01*
X137812000Y-117020000D02*
X125188000Y-117020000D01*
X137815000Y-117060000D02*
X125185000Y-117060000D01*
X137818000Y-117100000D02*
X125182000Y-117100000D01*
X137820000Y-117140000D02*
X125180000Y-117140000D01*
X137822000Y-117180000D02*
X125178000Y-117180000D01*
X137824000Y-117220000D02*
X125176000Y-117220000D01*
X137826000Y-117260000D02*
X125174000Y-117260000D01*
X137827000Y-117300000D02*
X125173000Y-117300000D01*
X137828000Y-117340000D02*
X125172000Y-117340000D01*
X137829000Y-117380000D02*
X125171000Y-117380000D01*
X137830000Y-117420000D02*
X125170000Y-117420000D01*
X137830000Y-117460000D02*
X125170000Y-117460000D01*
X137830000Y-117500000D02*
X125170000Y-117500000D01*
X137870000Y-117500000D02*
G75*
G03X137870000Y-117500000I-6370000J0D01*
G01*
X135700000Y-148692082D02*
X134450000Y-148692082D01*
X135075000Y-149317082D02*
X135075000Y-148067082D01*
X131817000Y-136139000D02*
X131183000Y-136139000D01*
X132257000Y-136179000D02*
X130743000Y-136179000D01*
X132528000Y-136219000D02*
X130472000Y-136219000D01*
X132741000Y-136259000D02*
X130259000Y-136259000D01*
X132922000Y-136299000D02*
X130078000Y-136299000D01*
X133083000Y-136339000D02*
X129917000Y-136339000D01*
X133228000Y-136379000D02*
X129772000Y-136379000D01*
X133361000Y-136419000D02*
X129639000Y-136419000D01*
X133484000Y-136459000D02*
X129516000Y-136459000D01*
X133600000Y-136499000D02*
X129400000Y-136499000D01*
X133709000Y-136539000D02*
X129291000Y-136539000D01*
X133812000Y-136579000D02*
X129188000Y-136579000D01*
X133910000Y-136619000D02*
X129090000Y-136619000D01*
X134004000Y-136659000D02*
X128996000Y-136659000D01*
X134094000Y-136699000D02*
X128906000Y-136699000D01*
X134181000Y-136739000D02*
X128819000Y-136739000D01*
X134264000Y-136779000D02*
X128736000Y-136779000D01*
X134344000Y-136819000D02*
X128656000Y-136819000D01*
X134421000Y-136859000D02*
X128579000Y-136859000D01*
X134496000Y-136899000D02*
X128504000Y-136899000D01*
X134569000Y-136939000D02*
X128431000Y-136939000D01*
X134640000Y-136979000D02*
X128360000Y-136979000D01*
X134708000Y-137019000D02*
X128292000Y-137019000D01*
X134775000Y-137059000D02*
X128225000Y-137059000D01*
X134839000Y-137099000D02*
X128161000Y-137099000D01*
X134902000Y-137139000D02*
X128098000Y-137139000D01*
X134964000Y-137179000D02*
X128036000Y-137179000D01*
X135024000Y-137219000D02*
X127976000Y-137219000D01*
X135083000Y-137259000D02*
X127917000Y-137259000D01*
X135140000Y-137299000D02*
X127860000Y-137299000D01*
X135196000Y-137339000D02*
X127804000Y-137339000D01*
X135250000Y-137379000D02*
X127750000Y-137379000D01*
X135304000Y-137419000D02*
X127696000Y-137419000D01*
X135356000Y-137459000D02*
X127644000Y-137459000D01*
X135407000Y-137499000D02*
X127593000Y-137499000D01*
X135457000Y-137539000D02*
X127543000Y-137539000D01*
X135507000Y-137579000D02*
X127493000Y-137579000D01*
X135555000Y-137619000D02*
X127445000Y-137619000D01*
X135602000Y-137659000D02*
X127398000Y-137659000D01*
X135648000Y-137699000D02*
X127352000Y-137699000D01*
X135694000Y-137739000D02*
X127306000Y-137739000D01*
X135738000Y-137779000D02*
X127262000Y-137779000D01*
X135782000Y-137819000D02*
X127218000Y-137819000D01*
X135825000Y-137859000D02*
X127175000Y-137859000D01*
X135867000Y-137899000D02*
X127133000Y-137899000D01*
X135908000Y-137939000D02*
X127092000Y-137939000D01*
X135949000Y-137979000D02*
X127051000Y-137979000D01*
X135989000Y-138019000D02*
X127011000Y-138019000D01*
X136028000Y-138059000D02*
X126972000Y-138059000D01*
X136067000Y-138099000D02*
X126933000Y-138099000D01*
X136105000Y-138139000D02*
X126895000Y-138139000D01*
X136142000Y-138179000D02*
X126858000Y-138179000D01*
X136178000Y-138219000D02*
X126822000Y-138219000D01*
X136214000Y-138259000D02*
X126786000Y-138259000D01*
X136250000Y-138299000D02*
X126750000Y-138299000D01*
X136285000Y-138339000D02*
X126715000Y-138339000D01*
X136319000Y-138379000D02*
X126681000Y-138379000D01*
X136352000Y-138419000D02*
X126648000Y-138419000D01*
X136385000Y-138459000D02*
X126615000Y-138459000D01*
X136418000Y-138499000D02*
X126582000Y-138499000D01*
X136450000Y-138539000D02*
X126550000Y-138539000D01*
X130060000Y-138579000D02*
X126518000Y-138579000D01*
X136482000Y-138579000D02*
X132940000Y-138579000D01*
X130060000Y-138619000D02*
X126488000Y-138619000D01*
X136512000Y-138619000D02*
X132940000Y-138619000D01*
X130060000Y-138659000D02*
X126457000Y-138659000D01*
X136543000Y-138659000D02*
X132940000Y-138659000D01*
X130060000Y-138699000D02*
X126427000Y-138699000D01*
X136573000Y-138699000D02*
X132940000Y-138699000D01*
X130060000Y-138739000D02*
X126398000Y-138739000D01*
X136602000Y-138739000D02*
X132940000Y-138739000D01*
X130060000Y-138779000D02*
X126369000Y-138779000D01*
X136631000Y-138779000D02*
X132940000Y-138779000D01*
X130060000Y-138819000D02*
X126340000Y-138819000D01*
X136660000Y-138819000D02*
X132940000Y-138819000D01*
X130060000Y-138859000D02*
X126312000Y-138859000D01*
X136688000Y-138859000D02*
X132940000Y-138859000D01*
X130060000Y-138899000D02*
X126284000Y-138899000D01*
X136716000Y-138899000D02*
X132940000Y-138899000D01*
X130060000Y-138939000D02*
X126257000Y-138939000D01*
X136743000Y-138939000D02*
X132940000Y-138939000D01*
X130060000Y-138979000D02*
X126230000Y-138979000D01*
X136770000Y-138979000D02*
X132940000Y-138979000D01*
X130060000Y-139019000D02*
X126204000Y-139019000D01*
X136796000Y-139019000D02*
X132940000Y-139019000D01*
X130060000Y-139059000D02*
X126178000Y-139059000D01*
X136822000Y-139059000D02*
X132940000Y-139059000D01*
X130060000Y-139099000D02*
X126153000Y-139099000D01*
X136847000Y-139099000D02*
X132940000Y-139099000D01*
X130060000Y-139139000D02*
X126128000Y-139139000D01*
X136872000Y-139139000D02*
X132940000Y-139139000D01*
X130060000Y-139179000D02*
X126103000Y-139179000D01*
X136897000Y-139179000D02*
X132940000Y-139179000D01*
X130060000Y-139219000D02*
X126079000Y-139219000D01*
X136921000Y-139219000D02*
X132940000Y-139219000D01*
X130060000Y-139259000D02*
X126055000Y-139259000D01*
X136945000Y-139259000D02*
X132940000Y-139259000D01*
X130060000Y-139299000D02*
X126032000Y-139299000D01*
X136968000Y-139299000D02*
X132940000Y-139299000D01*
X130060000Y-139339000D02*
X126009000Y-139339000D01*
X136991000Y-139339000D02*
X132940000Y-139339000D01*
X130060000Y-139379000D02*
X125986000Y-139379000D01*
X137014000Y-139379000D02*
X132940000Y-139379000D01*
X130060000Y-139419000D02*
X125964000Y-139419000D01*
X137036000Y-139419000D02*
X132940000Y-139419000D01*
X130060000Y-139459000D02*
X125942000Y-139459000D01*
X137058000Y-139459000D02*
X132940000Y-139459000D01*
X130060000Y-139499000D02*
X125920000Y-139499000D01*
X137080000Y-139499000D02*
X132940000Y-139499000D01*
X130060000Y-139539000D02*
X125899000Y-139539000D01*
X137101000Y-139539000D02*
X132940000Y-139539000D01*
X130060000Y-139579000D02*
X125878000Y-139579000D01*
X137122000Y-139579000D02*
X132940000Y-139579000D01*
X130060000Y-139619000D02*
X125858000Y-139619000D01*
X137142000Y-139619000D02*
X132940000Y-139619000D01*
X130060000Y-139659000D02*
X125838000Y-139659000D01*
X137162000Y-139659000D02*
X132940000Y-139659000D01*
X130060000Y-139699000D02*
X125818000Y-139699000D01*
X137182000Y-139699000D02*
X132940000Y-139699000D01*
X130060000Y-139739000D02*
X125798000Y-139739000D01*
X137202000Y-139739000D02*
X132940000Y-139739000D01*
X130060000Y-139779000D02*
X125779000Y-139779000D01*
X137221000Y-139779000D02*
X132940000Y-139779000D01*
X130060000Y-139819000D02*
X125761000Y-139819000D01*
X137239000Y-139819000D02*
X132940000Y-139819000D01*
X130060000Y-139859000D02*
X125742000Y-139859000D01*
X137258000Y-139859000D02*
X132940000Y-139859000D01*
X130060000Y-139899000D02*
X125724000Y-139899000D01*
X137276000Y-139899000D02*
X132940000Y-139899000D01*
X130060000Y-139939000D02*
X125707000Y-139939000D01*
X137293000Y-139939000D02*
X132940000Y-139939000D01*
X130060000Y-139979000D02*
X125689000Y-139979000D01*
X137311000Y-139979000D02*
X132940000Y-139979000D01*
X130060000Y-140019000D02*
X125672000Y-140019000D01*
X137328000Y-140019000D02*
X132940000Y-140019000D01*
X130060000Y-140059000D02*
X125655000Y-140059000D01*
X137345000Y-140059000D02*
X132940000Y-140059000D01*
X130060000Y-140099000D02*
X125639000Y-140099000D01*
X137361000Y-140099000D02*
X132940000Y-140099000D01*
X130060000Y-140139000D02*
X125623000Y-140139000D01*
X137377000Y-140139000D02*
X132940000Y-140139000D01*
X130060000Y-140179000D02*
X125607000Y-140179000D01*
X137393000Y-140179000D02*
X132940000Y-140179000D01*
X130060000Y-140219000D02*
X125592000Y-140219000D01*
X137408000Y-140219000D02*
X132940000Y-140219000D01*
X130060000Y-140259000D02*
X125576000Y-140259000D01*
X137424000Y-140259000D02*
X132940000Y-140259000D01*
X130060000Y-140299000D02*
X125561000Y-140299000D01*
X137439000Y-140299000D02*
X132940000Y-140299000D01*
X130060000Y-140339000D02*
X125547000Y-140339000D01*
X137453000Y-140339000D02*
X132940000Y-140339000D01*
X130060000Y-140379000D02*
X125533000Y-140379000D01*
X137467000Y-140379000D02*
X132940000Y-140379000D01*
X130060000Y-140419000D02*
X125519000Y-140419000D01*
X137481000Y-140419000D02*
X132940000Y-140419000D01*
X130060000Y-140459000D02*
X125505000Y-140459000D01*
X137495000Y-140459000D02*
X132940000Y-140459000D01*
X130060000Y-140499000D02*
X125492000Y-140499000D01*
X137508000Y-140499000D02*
X132940000Y-140499000D01*
X130060000Y-140539000D02*
X125479000Y-140539000D01*
X137521000Y-140539000D02*
X132940000Y-140539000D01*
X130060000Y-140579000D02*
X125466000Y-140579000D01*
X137534000Y-140579000D02*
X132940000Y-140579000D01*
X130060000Y-140619000D02*
X125453000Y-140619000D01*
X137547000Y-140619000D02*
X132940000Y-140619000D01*
X130060000Y-140659000D02*
X125441000Y-140659000D01*
X137559000Y-140659000D02*
X132940000Y-140659000D01*
X130060000Y-140699000D02*
X125429000Y-140699000D01*
X137571000Y-140699000D02*
X132940000Y-140699000D01*
X130060000Y-140739000D02*
X125417000Y-140739000D01*
X137583000Y-140739000D02*
X132940000Y-140739000D01*
X130060000Y-140779000D02*
X125406000Y-140779000D01*
X137594000Y-140779000D02*
X132940000Y-140779000D01*
X130060000Y-140819000D02*
X125395000Y-140819000D01*
X137605000Y-140819000D02*
X132940000Y-140819000D01*
X130060000Y-140859000D02*
X125384000Y-140859000D01*
X137616000Y-140859000D02*
X132940000Y-140859000D01*
X130060000Y-140899000D02*
X125374000Y-140899000D01*
X137626000Y-140899000D02*
X132940000Y-140899000D01*
X130060000Y-140939000D02*
X125363000Y-140939000D01*
X137637000Y-140939000D02*
X132940000Y-140939000D01*
X130060000Y-140979000D02*
X125354000Y-140979000D01*
X137646000Y-140979000D02*
X132940000Y-140979000D01*
X130060000Y-141019000D02*
X125344000Y-141019000D01*
X137656000Y-141019000D02*
X132940000Y-141019000D01*
X130060000Y-141059000D02*
X125334000Y-141059000D01*
X137666000Y-141059000D02*
X132940000Y-141059000D01*
X130060000Y-141099000D02*
X125325000Y-141099000D01*
X137675000Y-141099000D02*
X132940000Y-141099000D01*
X130060000Y-141139000D02*
X125316000Y-141139000D01*
X137684000Y-141139000D02*
X132940000Y-141139000D01*
X130060000Y-141179000D02*
X125308000Y-141179000D01*
X137692000Y-141179000D02*
X132940000Y-141179000D01*
X130060000Y-141219000D02*
X125299000Y-141219000D01*
X137701000Y-141219000D02*
X132940000Y-141219000D01*
X130060000Y-141259000D02*
X125291000Y-141259000D01*
X137709000Y-141259000D02*
X132940000Y-141259000D01*
X130060000Y-141299000D02*
X125284000Y-141299000D01*
X137716000Y-141299000D02*
X132940000Y-141299000D01*
X130060000Y-141339000D02*
X125276000Y-141339000D01*
X137724000Y-141339000D02*
X132940000Y-141339000D01*
X130060000Y-141379000D02*
X125269000Y-141379000D01*
X137731000Y-141379000D02*
X132940000Y-141379000D01*
X130060000Y-141419000D02*
X125262000Y-141419000D01*
X137738000Y-141419000D02*
X132940000Y-141419000D01*
X137745000Y-141459000D02*
X125255000Y-141459000D01*
X137752000Y-141499000D02*
X125248000Y-141499000D01*
X137758000Y-141539000D02*
X125242000Y-141539000D01*
X137764000Y-141579000D02*
X125236000Y-141579000D01*
X137769000Y-141619000D02*
X125231000Y-141619000D01*
X137775000Y-141659000D02*
X125225000Y-141659000D01*
X137780000Y-141699000D02*
X125220000Y-141699000D01*
X137785000Y-141739000D02*
X125215000Y-141739000D01*
X137790000Y-141779000D02*
X125210000Y-141779000D01*
X137794000Y-141820000D02*
X125206000Y-141820000D01*
X137798000Y-141860000D02*
X125202000Y-141860000D01*
X137802000Y-141900000D02*
X125198000Y-141900000D01*
X137806000Y-141940000D02*
X125194000Y-141940000D01*
X137809000Y-141980000D02*
X125191000Y-141980000D01*
X137812000Y-142020000D02*
X125188000Y-142020000D01*
X137815000Y-142060000D02*
X125185000Y-142060000D01*
X137818000Y-142100000D02*
X125182000Y-142100000D01*
X137820000Y-142140000D02*
X125180000Y-142140000D01*
X137822000Y-142180000D02*
X125178000Y-142180000D01*
X137824000Y-142220000D02*
X125176000Y-142220000D01*
X137826000Y-142260000D02*
X125174000Y-142260000D01*
X137827000Y-142300000D02*
X125173000Y-142300000D01*
X137828000Y-142340000D02*
X125172000Y-142340000D01*
X137829000Y-142380000D02*
X125171000Y-142380000D01*
X137830000Y-142420000D02*
X125170000Y-142420000D01*
X137830000Y-142460000D02*
X125170000Y-142460000D01*
X137830000Y-142500000D02*
X125170000Y-142500000D01*
X137870000Y-142500000D02*
G75*
G03X137870000Y-142500000I-6370000J0D01*
G01*
X135700000Y-23692082D02*
X134450000Y-23692082D01*
X135075000Y-24317082D02*
X135075000Y-23067082D01*
X131817000Y-11139000D02*
X131183000Y-11139000D01*
X132257000Y-11179000D02*
X130743000Y-11179000D01*
X132528000Y-11219000D02*
X130472000Y-11219000D01*
X132741000Y-11259000D02*
X130259000Y-11259000D01*
X132922000Y-11299000D02*
X130078000Y-11299000D01*
X133083000Y-11339000D02*
X129917000Y-11339000D01*
X133228000Y-11379000D02*
X129772000Y-11379000D01*
X133361000Y-11419000D02*
X129639000Y-11419000D01*
X133484000Y-11459000D02*
X129516000Y-11459000D01*
X133600000Y-11499000D02*
X129400000Y-11499000D01*
X133709000Y-11539000D02*
X129291000Y-11539000D01*
X133812000Y-11579000D02*
X129188000Y-11579000D01*
X133910000Y-11619000D02*
X129090000Y-11619000D01*
X134004000Y-11659000D02*
X128996000Y-11659000D01*
X134094000Y-11699000D02*
X128906000Y-11699000D01*
X134181000Y-11739000D02*
X128819000Y-11739000D01*
X134264000Y-11779000D02*
X128736000Y-11779000D01*
X134344000Y-11819000D02*
X128656000Y-11819000D01*
X134421000Y-11859000D02*
X128579000Y-11859000D01*
X134496000Y-11899000D02*
X128504000Y-11899000D01*
X134569000Y-11939000D02*
X128431000Y-11939000D01*
X134640000Y-11979000D02*
X128360000Y-11979000D01*
X134708000Y-12019000D02*
X128292000Y-12019000D01*
X134775000Y-12059000D02*
X128225000Y-12059000D01*
X134839000Y-12099000D02*
X128161000Y-12099000D01*
X134902000Y-12139000D02*
X128098000Y-12139000D01*
X134964000Y-12179000D02*
X128036000Y-12179000D01*
X135024000Y-12219000D02*
X127976000Y-12219000D01*
X135083000Y-12259000D02*
X127917000Y-12259000D01*
X135140000Y-12299000D02*
X127860000Y-12299000D01*
X135196000Y-12339000D02*
X127804000Y-12339000D01*
X135250000Y-12379000D02*
X127750000Y-12379000D01*
X135304000Y-12419000D02*
X127696000Y-12419000D01*
X135356000Y-12459000D02*
X127644000Y-12459000D01*
X135407000Y-12499000D02*
X127593000Y-12499000D01*
X135457000Y-12539000D02*
X127543000Y-12539000D01*
X135507000Y-12579000D02*
X127493000Y-12579000D01*
X135555000Y-12619000D02*
X127445000Y-12619000D01*
X135602000Y-12659000D02*
X127398000Y-12659000D01*
X135648000Y-12699000D02*
X127352000Y-12699000D01*
X135694000Y-12739000D02*
X127306000Y-12739000D01*
X135738000Y-12779000D02*
X127262000Y-12779000D01*
X135782000Y-12819000D02*
X127218000Y-12819000D01*
X135825000Y-12859000D02*
X127175000Y-12859000D01*
X135867000Y-12899000D02*
X127133000Y-12899000D01*
X135908000Y-12939000D02*
X127092000Y-12939000D01*
X135949000Y-12979000D02*
X127051000Y-12979000D01*
X135989000Y-13019000D02*
X127011000Y-13019000D01*
X136028000Y-13059000D02*
X126972000Y-13059000D01*
X136067000Y-13099000D02*
X126933000Y-13099000D01*
X136105000Y-13139000D02*
X126895000Y-13139000D01*
X136142000Y-13179000D02*
X126858000Y-13179000D01*
X136178000Y-13219000D02*
X126822000Y-13219000D01*
X136214000Y-13259000D02*
X126786000Y-13259000D01*
X136250000Y-13299000D02*
X126750000Y-13299000D01*
X136285000Y-13339000D02*
X126715000Y-13339000D01*
X136319000Y-13379000D02*
X126681000Y-13379000D01*
X136352000Y-13419000D02*
X126648000Y-13419000D01*
X136385000Y-13459000D02*
X126615000Y-13459000D01*
X136418000Y-13499000D02*
X126582000Y-13499000D01*
X136450000Y-13539000D02*
X126550000Y-13539000D01*
X130060000Y-13579000D02*
X126518000Y-13579000D01*
X136482000Y-13579000D02*
X132940000Y-13579000D01*
X130060000Y-13619000D02*
X126488000Y-13619000D01*
X136512000Y-13619000D02*
X132940000Y-13619000D01*
X130060000Y-13659000D02*
X126457000Y-13659000D01*
X136543000Y-13659000D02*
X132940000Y-13659000D01*
X130060000Y-13699000D02*
X126427000Y-13699000D01*
X136573000Y-13699000D02*
X132940000Y-13699000D01*
X130060000Y-13739000D02*
X126398000Y-13739000D01*
X136602000Y-13739000D02*
X132940000Y-13739000D01*
X130060000Y-13779000D02*
X126369000Y-13779000D01*
X136631000Y-13779000D02*
X132940000Y-13779000D01*
X130060000Y-13819000D02*
X126340000Y-13819000D01*
X136660000Y-13819000D02*
X132940000Y-13819000D01*
X130060000Y-13859000D02*
X126312000Y-13859000D01*
X136688000Y-13859000D02*
X132940000Y-13859000D01*
X130060000Y-13899000D02*
X126284000Y-13899000D01*
X136716000Y-13899000D02*
X132940000Y-13899000D01*
X130060000Y-13939000D02*
X126257000Y-13939000D01*
X136743000Y-13939000D02*
X132940000Y-13939000D01*
X130060000Y-13979000D02*
X126230000Y-13979000D01*
X136770000Y-13979000D02*
X132940000Y-13979000D01*
X130060000Y-14019000D02*
X126204000Y-14019000D01*
X136796000Y-14019000D02*
X132940000Y-14019000D01*
X130060000Y-14059000D02*
X126178000Y-14059000D01*
X136822000Y-14059000D02*
X132940000Y-14059000D01*
X130060000Y-14099000D02*
X126153000Y-14099000D01*
X136847000Y-14099000D02*
X132940000Y-14099000D01*
X130060000Y-14139000D02*
X126128000Y-14139000D01*
X136872000Y-14139000D02*
X132940000Y-14139000D01*
X130060000Y-14179000D02*
X126103000Y-14179000D01*
X136897000Y-14179000D02*
X132940000Y-14179000D01*
X130060000Y-14219000D02*
X126079000Y-14219000D01*
X136921000Y-14219000D02*
X132940000Y-14219000D01*
X130060000Y-14259000D02*
X126055000Y-14259000D01*
X136945000Y-14259000D02*
X132940000Y-14259000D01*
X130060000Y-14299000D02*
X126032000Y-14299000D01*
X136968000Y-14299000D02*
X132940000Y-14299000D01*
X130060000Y-14339000D02*
X126009000Y-14339000D01*
X136991000Y-14339000D02*
X132940000Y-14339000D01*
X130060000Y-14379000D02*
X125986000Y-14379000D01*
X137014000Y-14379000D02*
X132940000Y-14379000D01*
X130060000Y-14419000D02*
X125964000Y-14419000D01*
X137036000Y-14419000D02*
X132940000Y-14419000D01*
X130060000Y-14459000D02*
X125942000Y-14459000D01*
X137058000Y-14459000D02*
X132940000Y-14459000D01*
X130060000Y-14499000D02*
X125920000Y-14499000D01*
X137080000Y-14499000D02*
X132940000Y-14499000D01*
X130060000Y-14539000D02*
X125899000Y-14539000D01*
X137101000Y-14539000D02*
X132940000Y-14539000D01*
X130060000Y-14579000D02*
X125878000Y-14579000D01*
X137122000Y-14579000D02*
X132940000Y-14579000D01*
X130060000Y-14619000D02*
X125858000Y-14619000D01*
X137142000Y-14619000D02*
X132940000Y-14619000D01*
X130060000Y-14659000D02*
X125838000Y-14659000D01*
X137162000Y-14659000D02*
X132940000Y-14659000D01*
X130060000Y-14699000D02*
X125818000Y-14699000D01*
X137182000Y-14699000D02*
X132940000Y-14699000D01*
X130060000Y-14739000D02*
X125798000Y-14739000D01*
X137202000Y-14739000D02*
X132940000Y-14739000D01*
X130060000Y-14779000D02*
X125779000Y-14779000D01*
X137221000Y-14779000D02*
X132940000Y-14779000D01*
X130060000Y-14819000D02*
X125761000Y-14819000D01*
X137239000Y-14819000D02*
X132940000Y-14819000D01*
X130060000Y-14859000D02*
X125742000Y-14859000D01*
X137258000Y-14859000D02*
X132940000Y-14859000D01*
X130060000Y-14899000D02*
X125724000Y-14899000D01*
X137276000Y-14899000D02*
X132940000Y-14899000D01*
X130060000Y-14939000D02*
X125707000Y-14939000D01*
X137293000Y-14939000D02*
X132940000Y-14939000D01*
X130060000Y-14979000D02*
X125689000Y-14979000D01*
X137311000Y-14979000D02*
X132940000Y-14979000D01*
X130060000Y-15019000D02*
X125672000Y-15019000D01*
X137328000Y-15019000D02*
X132940000Y-15019000D01*
X130060000Y-15059000D02*
X125655000Y-15059000D01*
X137345000Y-15059000D02*
X132940000Y-15059000D01*
X130060000Y-15099000D02*
X125639000Y-15099000D01*
X137361000Y-15099000D02*
X132940000Y-15099000D01*
X130060000Y-15139000D02*
X125623000Y-15139000D01*
X137377000Y-15139000D02*
X132940000Y-15139000D01*
X130060000Y-15179000D02*
X125607000Y-15179000D01*
X137393000Y-15179000D02*
X132940000Y-15179000D01*
X130060000Y-15219000D02*
X125592000Y-15219000D01*
X137408000Y-15219000D02*
X132940000Y-15219000D01*
X130060000Y-15259000D02*
X125576000Y-15259000D01*
X137424000Y-15259000D02*
X132940000Y-15259000D01*
X130060000Y-15299000D02*
X125561000Y-15299000D01*
X137439000Y-15299000D02*
X132940000Y-15299000D01*
X130060000Y-15339000D02*
X125547000Y-15339000D01*
X137453000Y-15339000D02*
X132940000Y-15339000D01*
X130060000Y-15379000D02*
X125533000Y-15379000D01*
X137467000Y-15379000D02*
X132940000Y-15379000D01*
X130060000Y-15419000D02*
X125519000Y-15419000D01*
X137481000Y-15419000D02*
X132940000Y-15419000D01*
X130060000Y-15459000D02*
X125505000Y-15459000D01*
X137495000Y-15459000D02*
X132940000Y-15459000D01*
X130060000Y-15499000D02*
X125492000Y-15499000D01*
X137508000Y-15499000D02*
X132940000Y-15499000D01*
X130060000Y-15539000D02*
X125479000Y-15539000D01*
X137521000Y-15539000D02*
X132940000Y-15539000D01*
X130060000Y-15579000D02*
X125466000Y-15579000D01*
X137534000Y-15579000D02*
X132940000Y-15579000D01*
X130060000Y-15619000D02*
X125453000Y-15619000D01*
X137547000Y-15619000D02*
X132940000Y-15619000D01*
X130060000Y-15659000D02*
X125441000Y-15659000D01*
X137559000Y-15659000D02*
X132940000Y-15659000D01*
X130060000Y-15699000D02*
X125429000Y-15699000D01*
X137571000Y-15699000D02*
X132940000Y-15699000D01*
X130060000Y-15739000D02*
X125417000Y-15739000D01*
X137583000Y-15739000D02*
X132940000Y-15739000D01*
X130060000Y-15779000D02*
X125406000Y-15779000D01*
X137594000Y-15779000D02*
X132940000Y-15779000D01*
X130060000Y-15819000D02*
X125395000Y-15819000D01*
X137605000Y-15819000D02*
X132940000Y-15819000D01*
X130060000Y-15859000D02*
X125384000Y-15859000D01*
X137616000Y-15859000D02*
X132940000Y-15859000D01*
X130060000Y-15899000D02*
X125374000Y-15899000D01*
X137626000Y-15899000D02*
X132940000Y-15899000D01*
X130060000Y-15939000D02*
X125363000Y-15939000D01*
X137637000Y-15939000D02*
X132940000Y-15939000D01*
X130060000Y-15979000D02*
X125354000Y-15979000D01*
X137646000Y-15979000D02*
X132940000Y-15979000D01*
X130060000Y-16019000D02*
X125344000Y-16019000D01*
X137656000Y-16019000D02*
X132940000Y-16019000D01*
X130060000Y-16059000D02*
X125334000Y-16059000D01*
X137666000Y-16059000D02*
X132940000Y-16059000D01*
X130060000Y-16099000D02*
X125325000Y-16099000D01*
X137675000Y-16099000D02*
X132940000Y-16099000D01*
X130060000Y-16139000D02*
X125316000Y-16139000D01*
X137684000Y-16139000D02*
X132940000Y-16139000D01*
X130060000Y-16179000D02*
X125308000Y-16179000D01*
X137692000Y-16179000D02*
X132940000Y-16179000D01*
X130060000Y-16219000D02*
X125299000Y-16219000D01*
X137701000Y-16219000D02*
X132940000Y-16219000D01*
X130060000Y-16259000D02*
X125291000Y-16259000D01*
X137709000Y-16259000D02*
X132940000Y-16259000D01*
X130060000Y-16299000D02*
X125284000Y-16299000D01*
X137716000Y-16299000D02*
X132940000Y-16299000D01*
X130060000Y-16339000D02*
X125276000Y-16339000D01*
X137724000Y-16339000D02*
X132940000Y-16339000D01*
X130060000Y-16379000D02*
X125269000Y-16379000D01*
X137731000Y-16379000D02*
X132940000Y-16379000D01*
X130060000Y-16419000D02*
X125262000Y-16419000D01*
X137738000Y-16419000D02*
X132940000Y-16419000D01*
X137745000Y-16459000D02*
X125255000Y-16459000D01*
X137752000Y-16499000D02*
X125248000Y-16499000D01*
X137758000Y-16539000D02*
X125242000Y-16539000D01*
X137764000Y-16579000D02*
X125236000Y-16579000D01*
X137769000Y-16619000D02*
X125231000Y-16619000D01*
X137775000Y-16659000D02*
X125225000Y-16659000D01*
X137780000Y-16699000D02*
X125220000Y-16699000D01*
X137785000Y-16739000D02*
X125215000Y-16739000D01*
X137790000Y-16779000D02*
X125210000Y-16779000D01*
X137794000Y-16820000D02*
X125206000Y-16820000D01*
X137798000Y-16860000D02*
X125202000Y-16860000D01*
X137802000Y-16900000D02*
X125198000Y-16900000D01*
X137806000Y-16940000D02*
X125194000Y-16940000D01*
X137809000Y-16980000D02*
X125191000Y-16980000D01*
X137812000Y-17020000D02*
X125188000Y-17020000D01*
X137815000Y-17060000D02*
X125185000Y-17060000D01*
X137818000Y-17100000D02*
X125182000Y-17100000D01*
X137820000Y-17140000D02*
X125180000Y-17140000D01*
X137822000Y-17180000D02*
X125178000Y-17180000D01*
X137824000Y-17220000D02*
X125176000Y-17220000D01*
X137826000Y-17260000D02*
X125174000Y-17260000D01*
X137827000Y-17300000D02*
X125173000Y-17300000D01*
X137828000Y-17340000D02*
X125172000Y-17340000D01*
X137829000Y-17380000D02*
X125171000Y-17380000D01*
X137830000Y-17420000D02*
X125170000Y-17420000D01*
X137830000Y-17460000D02*
X125170000Y-17460000D01*
X137830000Y-17500000D02*
X125170000Y-17500000D01*
X137870000Y-17500000D02*
G75*
G03X137870000Y-17500000I-6370000J0D01*
G01*
X135700000Y-48692082D02*
X134450000Y-48692082D01*
X135075000Y-49317082D02*
X135075000Y-48067082D01*
X131817000Y-36139000D02*
X131183000Y-36139000D01*
X132257000Y-36179000D02*
X130743000Y-36179000D01*
X132528000Y-36219000D02*
X130472000Y-36219000D01*
X132741000Y-36259000D02*
X130259000Y-36259000D01*
X132922000Y-36299000D02*
X130078000Y-36299000D01*
X133083000Y-36339000D02*
X129917000Y-36339000D01*
X133228000Y-36379000D02*
X129772000Y-36379000D01*
X133361000Y-36419000D02*
X129639000Y-36419000D01*
X133484000Y-36459000D02*
X129516000Y-36459000D01*
X133600000Y-36499000D02*
X129400000Y-36499000D01*
X133709000Y-36539000D02*
X129291000Y-36539000D01*
X133812000Y-36579000D02*
X129188000Y-36579000D01*
X133910000Y-36619000D02*
X129090000Y-36619000D01*
X134004000Y-36659000D02*
X128996000Y-36659000D01*
X134094000Y-36699000D02*
X128906000Y-36699000D01*
X134181000Y-36739000D02*
X128819000Y-36739000D01*
X134264000Y-36779000D02*
X128736000Y-36779000D01*
X134344000Y-36819000D02*
X128656000Y-36819000D01*
X134421000Y-36859000D02*
X128579000Y-36859000D01*
X134496000Y-36899000D02*
X128504000Y-36899000D01*
X134569000Y-36939000D02*
X128431000Y-36939000D01*
X134640000Y-36979000D02*
X128360000Y-36979000D01*
X134708000Y-37019000D02*
X128292000Y-37019000D01*
X134775000Y-37059000D02*
X128225000Y-37059000D01*
X134839000Y-37099000D02*
X128161000Y-37099000D01*
X134902000Y-37139000D02*
X128098000Y-37139000D01*
X134964000Y-37179000D02*
X128036000Y-37179000D01*
X135024000Y-37219000D02*
X127976000Y-37219000D01*
X135083000Y-37259000D02*
X127917000Y-37259000D01*
X135140000Y-37299000D02*
X127860000Y-37299000D01*
X135196000Y-37339000D02*
X127804000Y-37339000D01*
X135250000Y-37379000D02*
X127750000Y-37379000D01*
X135304000Y-37419000D02*
X127696000Y-37419000D01*
X135356000Y-37459000D02*
X127644000Y-37459000D01*
X135407000Y-37499000D02*
X127593000Y-37499000D01*
X135457000Y-37539000D02*
X127543000Y-37539000D01*
X135507000Y-37579000D02*
X127493000Y-37579000D01*
X135555000Y-37619000D02*
X127445000Y-37619000D01*
X135602000Y-37659000D02*
X127398000Y-37659000D01*
X135648000Y-37699000D02*
X127352000Y-37699000D01*
X135694000Y-37739000D02*
X127306000Y-37739000D01*
X135738000Y-37779000D02*
X127262000Y-37779000D01*
X135782000Y-37819000D02*
X127218000Y-37819000D01*
X135825000Y-37859000D02*
X127175000Y-37859000D01*
X135867000Y-37899000D02*
X127133000Y-37899000D01*
X135908000Y-37939000D02*
X127092000Y-37939000D01*
X135949000Y-37979000D02*
X127051000Y-37979000D01*
X135989000Y-38019000D02*
X127011000Y-38019000D01*
X136028000Y-38059000D02*
X126972000Y-38059000D01*
X136067000Y-38099000D02*
X126933000Y-38099000D01*
X136105000Y-38139000D02*
X126895000Y-38139000D01*
X136142000Y-38179000D02*
X126858000Y-38179000D01*
X136178000Y-38219000D02*
X126822000Y-38219000D01*
X136214000Y-38259000D02*
X126786000Y-38259000D01*
X136250000Y-38299000D02*
X126750000Y-38299000D01*
X136285000Y-38339000D02*
X126715000Y-38339000D01*
X136319000Y-38379000D02*
X126681000Y-38379000D01*
X136352000Y-38419000D02*
X126648000Y-38419000D01*
X136385000Y-38459000D02*
X126615000Y-38459000D01*
X136418000Y-38499000D02*
X126582000Y-38499000D01*
X136450000Y-38539000D02*
X126550000Y-38539000D01*
X130060000Y-38579000D02*
X126518000Y-38579000D01*
X136482000Y-38579000D02*
X132940000Y-38579000D01*
X130060000Y-38619000D02*
X126488000Y-38619000D01*
X136512000Y-38619000D02*
X132940000Y-38619000D01*
X130060000Y-38659000D02*
X126457000Y-38659000D01*
X136543000Y-38659000D02*
X132940000Y-38659000D01*
X130060000Y-38699000D02*
X126427000Y-38699000D01*
X136573000Y-38699000D02*
X132940000Y-38699000D01*
X130060000Y-38739000D02*
X126398000Y-38739000D01*
X136602000Y-38739000D02*
X132940000Y-38739000D01*
X130060000Y-38779000D02*
X126369000Y-38779000D01*
X136631000Y-38779000D02*
X132940000Y-38779000D01*
X130060000Y-38819000D02*
X126340000Y-38819000D01*
X136660000Y-38819000D02*
X132940000Y-38819000D01*
X130060000Y-38859000D02*
X126312000Y-38859000D01*
X136688000Y-38859000D02*
X132940000Y-38859000D01*
X130060000Y-38899000D02*
X126284000Y-38899000D01*
X136716000Y-38899000D02*
X132940000Y-38899000D01*
X130060000Y-38939000D02*
X126257000Y-38939000D01*
X136743000Y-38939000D02*
X132940000Y-38939000D01*
X130060000Y-38979000D02*
X126230000Y-38979000D01*
X136770000Y-38979000D02*
X132940000Y-38979000D01*
X130060000Y-39019000D02*
X126204000Y-39019000D01*
X136796000Y-39019000D02*
X132940000Y-39019000D01*
X130060000Y-39059000D02*
X126178000Y-39059000D01*
X136822000Y-39059000D02*
X132940000Y-39059000D01*
X130060000Y-39099000D02*
X126153000Y-39099000D01*
X136847000Y-39099000D02*
X132940000Y-39099000D01*
X130060000Y-39139000D02*
X126128000Y-39139000D01*
X136872000Y-39139000D02*
X132940000Y-39139000D01*
X130060000Y-39179000D02*
X126103000Y-39179000D01*
X136897000Y-39179000D02*
X132940000Y-39179000D01*
X130060000Y-39219000D02*
X126079000Y-39219000D01*
X136921000Y-39219000D02*
X132940000Y-39219000D01*
X130060000Y-39259000D02*
X126055000Y-39259000D01*
X136945000Y-39259000D02*
X132940000Y-39259000D01*
X130060000Y-39299000D02*
X126032000Y-39299000D01*
X136968000Y-39299000D02*
X132940000Y-39299000D01*
X130060000Y-39339000D02*
X126009000Y-39339000D01*
X136991000Y-39339000D02*
X132940000Y-39339000D01*
X130060000Y-39379000D02*
X125986000Y-39379000D01*
X137014000Y-39379000D02*
X132940000Y-39379000D01*
X130060000Y-39419000D02*
X125964000Y-39419000D01*
X137036000Y-39419000D02*
X132940000Y-39419000D01*
X130060000Y-39459000D02*
X125942000Y-39459000D01*
X137058000Y-39459000D02*
X132940000Y-39459000D01*
X130060000Y-39499000D02*
X125920000Y-39499000D01*
X137080000Y-39499000D02*
X132940000Y-39499000D01*
X130060000Y-39539000D02*
X125899000Y-39539000D01*
X137101000Y-39539000D02*
X132940000Y-39539000D01*
X130060000Y-39579000D02*
X125878000Y-39579000D01*
X137122000Y-39579000D02*
X132940000Y-39579000D01*
X130060000Y-39619000D02*
X125858000Y-39619000D01*
X137142000Y-39619000D02*
X132940000Y-39619000D01*
X130060000Y-39659000D02*
X125838000Y-39659000D01*
X137162000Y-39659000D02*
X132940000Y-39659000D01*
X130060000Y-39699000D02*
X125818000Y-39699000D01*
X137182000Y-39699000D02*
X132940000Y-39699000D01*
X130060000Y-39739000D02*
X125798000Y-39739000D01*
X137202000Y-39739000D02*
X132940000Y-39739000D01*
X130060000Y-39779000D02*
X125779000Y-39779000D01*
X137221000Y-39779000D02*
X132940000Y-39779000D01*
X130060000Y-39819000D02*
X125761000Y-39819000D01*
X137239000Y-39819000D02*
X132940000Y-39819000D01*
X130060000Y-39859000D02*
X125742000Y-39859000D01*
X137258000Y-39859000D02*
X132940000Y-39859000D01*
X130060000Y-39899000D02*
X125724000Y-39899000D01*
X137276000Y-39899000D02*
X132940000Y-39899000D01*
X130060000Y-39939000D02*
X125707000Y-39939000D01*
X137293000Y-39939000D02*
X132940000Y-39939000D01*
X130060000Y-39979000D02*
X125689000Y-39979000D01*
X137311000Y-39979000D02*
X132940000Y-39979000D01*
X130060000Y-40019000D02*
X125672000Y-40019000D01*
X137328000Y-40019000D02*
X132940000Y-40019000D01*
X130060000Y-40059000D02*
X125655000Y-40059000D01*
X137345000Y-40059000D02*
X132940000Y-40059000D01*
X130060000Y-40099000D02*
X125639000Y-40099000D01*
X137361000Y-40099000D02*
X132940000Y-40099000D01*
X130060000Y-40139000D02*
X125623000Y-40139000D01*
X137377000Y-40139000D02*
X132940000Y-40139000D01*
X130060000Y-40179000D02*
X125607000Y-40179000D01*
X137393000Y-40179000D02*
X132940000Y-40179000D01*
X130060000Y-40219000D02*
X125592000Y-40219000D01*
X137408000Y-40219000D02*
X132940000Y-40219000D01*
X130060000Y-40259000D02*
X125576000Y-40259000D01*
X137424000Y-40259000D02*
X132940000Y-40259000D01*
X130060000Y-40299000D02*
X125561000Y-40299000D01*
X137439000Y-40299000D02*
X132940000Y-40299000D01*
X130060000Y-40339000D02*
X125547000Y-40339000D01*
X137453000Y-40339000D02*
X132940000Y-40339000D01*
X130060000Y-40379000D02*
X125533000Y-40379000D01*
X137467000Y-40379000D02*
X132940000Y-40379000D01*
X130060000Y-40419000D02*
X125519000Y-40419000D01*
X137481000Y-40419000D02*
X132940000Y-40419000D01*
X130060000Y-40459000D02*
X125505000Y-40459000D01*
X137495000Y-40459000D02*
X132940000Y-40459000D01*
X130060000Y-40499000D02*
X125492000Y-40499000D01*
X137508000Y-40499000D02*
X132940000Y-40499000D01*
X130060000Y-40539000D02*
X125479000Y-40539000D01*
X137521000Y-40539000D02*
X132940000Y-40539000D01*
X130060000Y-40579000D02*
X125466000Y-40579000D01*
X137534000Y-40579000D02*
X132940000Y-40579000D01*
X130060000Y-40619000D02*
X125453000Y-40619000D01*
X137547000Y-40619000D02*
X132940000Y-40619000D01*
X130060000Y-40659000D02*
X125441000Y-40659000D01*
X137559000Y-40659000D02*
X132940000Y-40659000D01*
X130060000Y-40699000D02*
X125429000Y-40699000D01*
X137571000Y-40699000D02*
X132940000Y-40699000D01*
X130060000Y-40739000D02*
X125417000Y-40739000D01*
X137583000Y-40739000D02*
X132940000Y-40739000D01*
X130060000Y-40779000D02*
X125406000Y-40779000D01*
X137594000Y-40779000D02*
X132940000Y-40779000D01*
X130060000Y-40819000D02*
X125395000Y-40819000D01*
X137605000Y-40819000D02*
X132940000Y-40819000D01*
X130060000Y-40859000D02*
X125384000Y-40859000D01*
X137616000Y-40859000D02*
X132940000Y-40859000D01*
X130060000Y-40899000D02*
X125374000Y-40899000D01*
X137626000Y-40899000D02*
X132940000Y-40899000D01*
X130060000Y-40939000D02*
X125363000Y-40939000D01*
X137637000Y-40939000D02*
X132940000Y-40939000D01*
X130060000Y-40979000D02*
X125354000Y-40979000D01*
X137646000Y-40979000D02*
X132940000Y-40979000D01*
X130060000Y-41019000D02*
X125344000Y-41019000D01*
X137656000Y-41019000D02*
X132940000Y-41019000D01*
X130060000Y-41059000D02*
X125334000Y-41059000D01*
X137666000Y-41059000D02*
X132940000Y-41059000D01*
X130060000Y-41099000D02*
X125325000Y-41099000D01*
X137675000Y-41099000D02*
X132940000Y-41099000D01*
X130060000Y-41139000D02*
X125316000Y-41139000D01*
X137684000Y-41139000D02*
X132940000Y-41139000D01*
X130060000Y-41179000D02*
X125308000Y-41179000D01*
X137692000Y-41179000D02*
X132940000Y-41179000D01*
X130060000Y-41219000D02*
X125299000Y-41219000D01*
X137701000Y-41219000D02*
X132940000Y-41219000D01*
X130060000Y-41259000D02*
X125291000Y-41259000D01*
X137709000Y-41259000D02*
X132940000Y-41259000D01*
X130060000Y-41299000D02*
X125284000Y-41299000D01*
X137716000Y-41299000D02*
X132940000Y-41299000D01*
X130060000Y-41339000D02*
X125276000Y-41339000D01*
X137724000Y-41339000D02*
X132940000Y-41339000D01*
X130060000Y-41379000D02*
X125269000Y-41379000D01*
X137731000Y-41379000D02*
X132940000Y-41379000D01*
X130060000Y-41419000D02*
X125262000Y-41419000D01*
X137738000Y-41419000D02*
X132940000Y-41419000D01*
X137745000Y-41459000D02*
X125255000Y-41459000D01*
X137752000Y-41499000D02*
X125248000Y-41499000D01*
X137758000Y-41539000D02*
X125242000Y-41539000D01*
X137764000Y-41579000D02*
X125236000Y-41579000D01*
X137769000Y-41619000D02*
X125231000Y-41619000D01*
X137775000Y-41659000D02*
X125225000Y-41659000D01*
X137780000Y-41699000D02*
X125220000Y-41699000D01*
X137785000Y-41739000D02*
X125215000Y-41739000D01*
X137790000Y-41779000D02*
X125210000Y-41779000D01*
X137794000Y-41820000D02*
X125206000Y-41820000D01*
X137798000Y-41860000D02*
X125202000Y-41860000D01*
X137802000Y-41900000D02*
X125198000Y-41900000D01*
X137806000Y-41940000D02*
X125194000Y-41940000D01*
X137809000Y-41980000D02*
X125191000Y-41980000D01*
X137812000Y-42020000D02*
X125188000Y-42020000D01*
X137815000Y-42060000D02*
X125185000Y-42060000D01*
X137818000Y-42100000D02*
X125182000Y-42100000D01*
X137820000Y-42140000D02*
X125180000Y-42140000D01*
X137822000Y-42180000D02*
X125178000Y-42180000D01*
X137824000Y-42220000D02*
X125176000Y-42220000D01*
X137826000Y-42260000D02*
X125174000Y-42260000D01*
X137827000Y-42300000D02*
X125173000Y-42300000D01*
X137828000Y-42340000D02*
X125172000Y-42340000D01*
X137829000Y-42380000D02*
X125171000Y-42380000D01*
X137830000Y-42420000D02*
X125170000Y-42420000D01*
X137830000Y-42460000D02*
X125170000Y-42460000D01*
X137830000Y-42500000D02*
X125170000Y-42500000D01*
X137870000Y-42500000D02*
G75*
G03X137870000Y-42500000I-6370000J0D01*
G01*
D10*
X138857142Y-167333333D02*
X138904761Y-167285714D01*
X138952380Y-167142857D01*
X138952380Y-167047619D01*
X138904761Y-166904761D01*
X138809523Y-166809523D01*
X138714285Y-166761904D01*
X138523809Y-166714285D01*
X138380952Y-166714285D01*
X138190476Y-166761904D01*
X138095238Y-166809523D01*
X138000000Y-166904761D01*
X137952380Y-167047619D01*
X137952380Y-167142857D01*
X138000000Y-167285714D01*
X138047619Y-167333333D01*
X138952380Y-168285714D02*
X138952380Y-167714285D01*
X138952380Y-168000000D02*
X137952380Y-168000000D01*
X138095238Y-167904761D01*
X138190476Y-167809523D01*
X138238095Y-167714285D01*
X139357142Y-66857142D02*
X139404761Y-66809523D01*
X139452380Y-66666666D01*
X139452380Y-66571428D01*
X139404761Y-66428571D01*
X139309523Y-66333333D01*
X139214285Y-66285714D01*
X139023809Y-66238095D01*
X138880952Y-66238095D01*
X138690476Y-66285714D01*
X138595238Y-66333333D01*
X138500000Y-66428571D01*
X138452380Y-66571428D01*
X138452380Y-66666666D01*
X138500000Y-66809523D01*
X138547619Y-66857142D01*
X139452380Y-67809523D02*
X139452380Y-67238095D01*
X139452380Y-67523809D02*
X138452380Y-67523809D01*
X138595238Y-67428571D01*
X138690476Y-67333333D01*
X138738095Y-67238095D01*
X138452380Y-68142857D02*
X138452380Y-68761904D01*
X138833333Y-68428571D01*
X138833333Y-68571428D01*
X138880952Y-68666666D01*
X138928571Y-68714285D01*
X139023809Y-68761904D01*
X139261904Y-68761904D01*
X139357142Y-68714285D01*
X139404761Y-68666666D01*
X139452380Y-68571428D01*
X139452380Y-68285714D01*
X139404761Y-68190476D01*
X139357142Y-68142857D01*
X139357142Y-91857142D02*
X139404761Y-91809523D01*
X139452380Y-91666666D01*
X139452380Y-91571428D01*
X139404761Y-91428571D01*
X139309523Y-91333333D01*
X139214285Y-91285714D01*
X139023809Y-91238095D01*
X138880952Y-91238095D01*
X138690476Y-91285714D01*
X138595238Y-91333333D01*
X138500000Y-91428571D01*
X138452380Y-91571428D01*
X138452380Y-91666666D01*
X138500000Y-91809523D01*
X138547619Y-91857142D01*
X139452380Y-92809523D02*
X139452380Y-92238095D01*
X139452380Y-92523809D02*
X138452380Y-92523809D01*
X138595238Y-92428571D01*
X138690476Y-92333333D01*
X138738095Y-92238095D01*
X138452380Y-93428571D02*
X138452380Y-93523809D01*
X138500000Y-93619047D01*
X138547619Y-93666666D01*
X138642857Y-93714285D01*
X138833333Y-93761904D01*
X139071428Y-93761904D01*
X139261904Y-93714285D01*
X139357142Y-93666666D01*
X139404761Y-93619047D01*
X139452380Y-93523809D01*
X139452380Y-93428571D01*
X139404761Y-93333333D01*
X139357142Y-93285714D01*
X139261904Y-93238095D01*
X139071428Y-93190476D01*
X138833333Y-93190476D01*
X138642857Y-93238095D01*
X138547619Y-93285714D01*
X138500000Y-93333333D01*
X138452380Y-93428571D01*
X139357142Y-117333333D02*
X139404761Y-117285714D01*
X139452380Y-117142857D01*
X139452380Y-117047619D01*
X139404761Y-116904761D01*
X139309523Y-116809523D01*
X139214285Y-116761904D01*
X139023809Y-116714285D01*
X138880952Y-116714285D01*
X138690476Y-116761904D01*
X138595238Y-116809523D01*
X138500000Y-116904761D01*
X138452380Y-117047619D01*
X138452380Y-117142857D01*
X138500000Y-117285714D01*
X138547619Y-117333333D01*
X138452380Y-117666666D02*
X138452380Y-118333333D01*
X139452380Y-117904761D01*
X139357142Y-142333333D02*
X139404761Y-142285714D01*
X139452380Y-142142857D01*
X139452380Y-142047619D01*
X139404761Y-141904761D01*
X139309523Y-141809523D01*
X139214285Y-141761904D01*
X139023809Y-141714285D01*
X138880952Y-141714285D01*
X138690476Y-141761904D01*
X138595238Y-141809523D01*
X138500000Y-141904761D01*
X138452380Y-142047619D01*
X138452380Y-142142857D01*
X138500000Y-142285714D01*
X138547619Y-142333333D01*
X138785714Y-143190476D02*
X139452380Y-143190476D01*
X138404761Y-142952380D02*
X139119047Y-142714285D01*
X139119047Y-143333333D01*
X139357142Y-16857142D02*
X139404761Y-16809523D01*
X139452380Y-16666666D01*
X139452380Y-16571428D01*
X139404761Y-16428571D01*
X139309523Y-16333333D01*
X139214285Y-16285714D01*
X139023809Y-16238095D01*
X138880952Y-16238095D01*
X138690476Y-16285714D01*
X138595238Y-16333333D01*
X138500000Y-16428571D01*
X138452380Y-16571428D01*
X138452380Y-16666666D01*
X138500000Y-16809523D01*
X138547619Y-16857142D01*
X139452380Y-17809523D02*
X139452380Y-17238095D01*
X139452380Y-17523809D02*
X138452380Y-17523809D01*
X138595238Y-17428571D01*
X138690476Y-17333333D01*
X138738095Y-17238095D01*
X139452380Y-18285714D02*
X139452380Y-18476190D01*
X139404761Y-18571428D01*
X139357142Y-18619047D01*
X139214285Y-18714285D01*
X139023809Y-18761904D01*
X138642857Y-18761904D01*
X138547619Y-18714285D01*
X138500000Y-18666666D01*
X138452380Y-18571428D01*
X138452380Y-18380952D01*
X138500000Y-18285714D01*
X138547619Y-18238095D01*
X138642857Y-18190476D01*
X138880952Y-18190476D01*
X138976190Y-18238095D01*
X139023809Y-18285714D01*
X139071428Y-18380952D01*
X139071428Y-18571428D01*
X139023809Y-18666666D01*
X138976190Y-18714285D01*
X138880952Y-18761904D01*
X139357142Y-41857142D02*
X139404761Y-41809523D01*
X139452380Y-41666666D01*
X139452380Y-41571428D01*
X139404761Y-41428571D01*
X139309523Y-41333333D01*
X139214285Y-41285714D01*
X139023809Y-41238095D01*
X138880952Y-41238095D01*
X138690476Y-41285714D01*
X138595238Y-41333333D01*
X138500000Y-41428571D01*
X138452380Y-41571428D01*
X138452380Y-41666666D01*
X138500000Y-41809523D01*
X138547619Y-41857142D01*
X139452380Y-42809523D02*
X139452380Y-42238095D01*
X139452380Y-42523809D02*
X138452380Y-42523809D01*
X138595238Y-42428571D01*
X138690476Y-42333333D01*
X138738095Y-42238095D01*
X138452380Y-43666666D02*
X138452380Y-43476190D01*
X138500000Y-43380952D01*
X138547619Y-43333333D01*
X138690476Y-43238095D01*
X138880952Y-43190476D01*
X139261904Y-43190476D01*
X139357142Y-43238095D01*
X139404761Y-43285714D01*
X139452380Y-43380952D01*
X139452380Y-43571428D01*
X139404761Y-43666666D01*
X139357142Y-43714285D01*
X139261904Y-43761904D01*
X139023809Y-43761904D01*
X138928571Y-43714285D01*
X138880952Y-43666666D01*
X138833333Y-43571428D01*
X138833333Y-43380952D01*
X138880952Y-43285714D01*
X138928571Y-43238095D01*
X139023809Y-43190476D01*
%LPC*%
D14*
X162500000Y-45080000D03*
X162500000Y-42540000D03*
D15*
X162500000Y-40000000D03*
D14*
X162500000Y-95000000D03*
X162500000Y-92460000D03*
D15*
X162500000Y-89920000D03*
X162500000Y-140000000D03*
D14*
X162500000Y-142540000D03*
X162500000Y-145080000D03*
D16*
X131000000Y-165000000D03*
D17*
X131000000Y-170000000D03*
D18*
X160850000Y-133250000D03*
X160850000Y-126750000D03*
X159850000Y-131250000D03*
X158850000Y-133250000D03*
X159850000Y-128750000D03*
X158850000Y-126750000D03*
X157850000Y-131250000D03*
X156850000Y-133250000D03*
X157850000Y-128750000D03*
X156850000Y-126750000D03*
X155850000Y-131250000D03*
X154850000Y-133250000D03*
X155850000Y-128750000D03*
X154850000Y-126750000D03*
X153850000Y-131250000D03*
X152850000Y-133250000D03*
X153850000Y-128750000D03*
X152850000Y-126750000D03*
X151850000Y-131250000D03*
X150850000Y-133250000D03*
X151850000Y-128750000D03*
X150850000Y-126750000D03*
X149850000Y-131250000D03*
X148850000Y-133250000D03*
X149850000Y-128750000D03*
X148850000Y-126750000D03*
X147850000Y-131250000D03*
X146850000Y-133250000D03*
X147850000Y-128750000D03*
X146850000Y-126750000D03*
X145850000Y-131250000D03*
X144850000Y-133250000D03*
X145850000Y-128750000D03*
X144850000Y-126750000D03*
X143850000Y-131250000D03*
X142850000Y-133250000D03*
X143850000Y-128750000D03*
X142850000Y-126750000D03*
X141850000Y-131250000D03*
X140850000Y-133250000D03*
X141850000Y-128750000D03*
X140850000Y-126750000D03*
X139850000Y-131250000D03*
X138850000Y-133250000D03*
X139850000Y-128750000D03*
X138850000Y-126750000D03*
X137850000Y-131250000D03*
X136850000Y-133250000D03*
X137850000Y-128750000D03*
X136850000Y-126750000D03*
X135850000Y-131250000D03*
X134850000Y-133250000D03*
X135850000Y-128750000D03*
X134850000Y-126750000D03*
X133850000Y-131250000D03*
X132850000Y-133250000D03*
X133850000Y-128750000D03*
X132850000Y-126750000D03*
X131850000Y-131250000D03*
X130850000Y-133250000D03*
X131850000Y-128750000D03*
X130850000Y-126750000D03*
X129850000Y-131250000D03*
X128850000Y-133250000D03*
X129850000Y-128750000D03*
X128850000Y-126750000D03*
X127850000Y-131250000D03*
X126850000Y-133250000D03*
X127850000Y-128750000D03*
X126850000Y-126750000D03*
X125850000Y-131250000D03*
X124850000Y-133250000D03*
X125850000Y-128750000D03*
X124850000Y-126750000D03*
X123850000Y-131250000D03*
X122850000Y-133250000D03*
X123850000Y-128750000D03*
X122850000Y-126750000D03*
X121850000Y-131250000D03*
X120850000Y-133250000D03*
X121850000Y-128750000D03*
X120850000Y-126750000D03*
X119850000Y-131250000D03*
X118850000Y-133250000D03*
X119850000Y-128750000D03*
X118850000Y-126750000D03*
X117850000Y-131250000D03*
X116850000Y-133250000D03*
X117850000Y-128750000D03*
X116850000Y-126750000D03*
X115850000Y-131250000D03*
X114850000Y-133250000D03*
X115850000Y-128750000D03*
X114850000Y-126750000D03*
X113850000Y-131250000D03*
X112850000Y-133250000D03*
X113850000Y-128750000D03*
X112850000Y-126750000D03*
X111850000Y-131250000D03*
X110850000Y-133250000D03*
X111850000Y-128750000D03*
X110850000Y-126750000D03*
X109850000Y-131250000D03*
X108850000Y-133250000D03*
X109850000Y-128750000D03*
X108850000Y-126750000D03*
X107850000Y-131250000D03*
X106850000Y-133250000D03*
X107850000Y-128750000D03*
X106850000Y-126750000D03*
X105850000Y-131250000D03*
X104850000Y-133250000D03*
X105850000Y-128750000D03*
X104850000Y-126750000D03*
X103850000Y-131250000D03*
X102850000Y-133250000D03*
X103850000Y-128750000D03*
X102850000Y-126750000D03*
X101850000Y-131250000D03*
X100850000Y-133250000D03*
X101850000Y-128750000D03*
X100850000Y-126750000D03*
X99850000Y-131250000D03*
X98850000Y-133250000D03*
X99850000Y-128750000D03*
X98850000Y-126750000D03*
X97850000Y-131250000D03*
X96850000Y-133250000D03*
X97850000Y-128750000D03*
X96850000Y-126750000D03*
X95850000Y-131250000D03*
X94850000Y-133250000D03*
X95850000Y-128750000D03*
X94850000Y-126750000D03*
X93850000Y-131250000D03*
X92850000Y-133250000D03*
X93850000Y-128750000D03*
X92850000Y-126750000D03*
X78850000Y-126750000D03*
X77850000Y-128750000D03*
X78850000Y-133250000D03*
X77850000Y-131250000D03*
D16*
X162650000Y-130000000D03*
D18*
X91850000Y-131250000D03*
X91850000Y-128750000D03*
X90850000Y-133250000D03*
X90850000Y-126750000D03*
X80850000Y-126750000D03*
X80850000Y-133250000D03*
X82850000Y-126750000D03*
X82850000Y-133250000D03*
X84850000Y-126750000D03*
X84850000Y-133250000D03*
X86850000Y-133250000D03*
X86850000Y-126750000D03*
X79850000Y-131250000D03*
X79850000Y-128750000D03*
X81850000Y-131250000D03*
X81850000Y-128750000D03*
X83850000Y-131250000D03*
X83850000Y-128750000D03*
X85850000Y-131250000D03*
X85850000Y-128750000D03*
D16*
X89500000Y-130000000D03*
D18*
X87850000Y-131250000D03*
X87850000Y-128750000D03*
X160850000Y-158250000D03*
X160850000Y-151750000D03*
X159850000Y-156250000D03*
X158850000Y-158250000D03*
X159850000Y-153750000D03*
X158850000Y-151750000D03*
X157850000Y-156250000D03*
X156850000Y-158250000D03*
X157850000Y-153750000D03*
X156850000Y-151750000D03*
X155850000Y-156250000D03*
X154850000Y-158250000D03*
X155850000Y-153750000D03*
X154850000Y-151750000D03*
X153850000Y-156250000D03*
X152850000Y-158250000D03*
X153850000Y-153750000D03*
X152850000Y-151750000D03*
X151850000Y-156250000D03*
X150850000Y-158250000D03*
X151850000Y-153750000D03*
X150850000Y-151750000D03*
X149850000Y-156250000D03*
X148850000Y-158250000D03*
X149850000Y-153750000D03*
X148850000Y-151750000D03*
X147850000Y-156250000D03*
X146850000Y-158250000D03*
X147850000Y-153750000D03*
X146850000Y-151750000D03*
X145850000Y-156250000D03*
X144850000Y-158250000D03*
X145850000Y-153750000D03*
X144850000Y-151750000D03*
X143850000Y-156250000D03*
X142850000Y-158250000D03*
X143850000Y-153750000D03*
X142850000Y-151750000D03*
X141850000Y-156250000D03*
X140850000Y-158250000D03*
X141850000Y-153750000D03*
X140850000Y-151750000D03*
X139850000Y-156250000D03*
X138850000Y-158250000D03*
X139850000Y-153750000D03*
X138850000Y-151750000D03*
X137850000Y-156250000D03*
X136850000Y-158250000D03*
X137850000Y-153750000D03*
X136850000Y-151750000D03*
X135850000Y-156250000D03*
X134850000Y-158250000D03*
X135850000Y-153750000D03*
X134850000Y-151750000D03*
X133850000Y-156250000D03*
X132850000Y-158250000D03*
X133850000Y-153750000D03*
X132850000Y-151750000D03*
X131850000Y-156250000D03*
X130850000Y-158250000D03*
X131850000Y-153750000D03*
X130850000Y-151750000D03*
X129850000Y-156250000D03*
X128850000Y-158250000D03*
X129850000Y-153750000D03*
X128850000Y-151750000D03*
X127850000Y-156250000D03*
X126850000Y-158250000D03*
X127850000Y-153750000D03*
X126850000Y-151750000D03*
X125850000Y-156250000D03*
X124850000Y-158250000D03*
X125850000Y-153750000D03*
X124850000Y-151750000D03*
X123850000Y-156250000D03*
X122850000Y-158250000D03*
X123850000Y-153750000D03*
X122850000Y-151750000D03*
X121850000Y-156250000D03*
X120850000Y-158250000D03*
X121850000Y-153750000D03*
X120850000Y-151750000D03*
X119850000Y-156250000D03*
X118850000Y-158250000D03*
X119850000Y-153750000D03*
X118850000Y-151750000D03*
X117850000Y-156250000D03*
X116850000Y-158250000D03*
X117850000Y-153750000D03*
X116850000Y-151750000D03*
X115850000Y-156250000D03*
X114850000Y-158250000D03*
X115850000Y-153750000D03*
X114850000Y-151750000D03*
X113850000Y-156250000D03*
X112850000Y-158250000D03*
X113850000Y-153750000D03*
X112850000Y-151750000D03*
X111850000Y-156250000D03*
X110850000Y-158250000D03*
X111850000Y-153750000D03*
X110850000Y-151750000D03*
X109850000Y-156250000D03*
X108850000Y-158250000D03*
X109850000Y-153750000D03*
X108850000Y-151750000D03*
X107850000Y-156250000D03*
X106850000Y-158250000D03*
X107850000Y-153750000D03*
X106850000Y-151750000D03*
X105850000Y-156250000D03*
X104850000Y-158250000D03*
X105850000Y-153750000D03*
X104850000Y-151750000D03*
X103850000Y-156250000D03*
X102850000Y-158250000D03*
X103850000Y-153750000D03*
X102850000Y-151750000D03*
X101850000Y-156250000D03*
X100850000Y-158250000D03*
X101850000Y-153750000D03*
X100850000Y-151750000D03*
X99850000Y-156250000D03*
X98850000Y-158250000D03*
X99850000Y-153750000D03*
X98850000Y-151750000D03*
X97850000Y-156250000D03*
X96850000Y-158250000D03*
X97850000Y-153750000D03*
X96850000Y-151750000D03*
X95850000Y-156250000D03*
X94850000Y-158250000D03*
X95850000Y-153750000D03*
X94850000Y-151750000D03*
X93850000Y-156250000D03*
X92850000Y-158250000D03*
X93850000Y-153750000D03*
X92850000Y-151750000D03*
X78850000Y-151750000D03*
X77850000Y-153750000D03*
X78850000Y-158250000D03*
X77850000Y-156250000D03*
D16*
X162650000Y-155000000D03*
D18*
X91850000Y-156250000D03*
X91850000Y-153750000D03*
X90850000Y-158250000D03*
X90850000Y-151750000D03*
X80850000Y-151750000D03*
X80850000Y-158250000D03*
X82850000Y-151750000D03*
X82850000Y-158250000D03*
X84850000Y-151750000D03*
X84850000Y-158250000D03*
X86850000Y-158250000D03*
X86850000Y-151750000D03*
X79850000Y-156250000D03*
X79850000Y-153750000D03*
X81850000Y-156250000D03*
X81850000Y-153750000D03*
X83850000Y-156250000D03*
X83850000Y-153750000D03*
X85850000Y-156250000D03*
X85850000Y-153750000D03*
D16*
X89500000Y-155000000D03*
D18*
X87850000Y-156250000D03*
X87850000Y-153750000D03*
D19*
X77420000Y-15000000D03*
D20*
X79960000Y-15000000D03*
X82500000Y-15000000D03*
X85040000Y-15000000D03*
X87580000Y-15000000D03*
X90120000Y-15000000D03*
X92660000Y-15000000D03*
X92740000Y-176000000D03*
X90200000Y-176000000D03*
X87660000Y-176000000D03*
X85120000Y-176000000D03*
X82580000Y-176000000D03*
X80040000Y-176000000D03*
D19*
X77500000Y-176000000D03*
D21*
G36*
X138875025Y543654D02*
G01*
X139023110Y521688D01*
X139168329Y485312D01*
X139309284Y434878D01*
X139444616Y370871D01*
X139573022Y293907D01*
X139693267Y204727D01*
X139804191Y104191D01*
X139904727Y-6733D01*
X139993907Y-126978D01*
X140070871Y-255384D01*
X140134878Y-390716D01*
X140185312Y-531671D01*
X140221688Y-676890D01*
X140243654Y-824975D01*
X140251000Y-974500D01*
X140251000Y-4025500D01*
X140243654Y-4175025D01*
X140221688Y-4323110D01*
X140185312Y-4468329D01*
X140134878Y-4609284D01*
X140070871Y-4744616D01*
X139993907Y-4873022D01*
X139904727Y-4993267D01*
X139804191Y-5104191D01*
X139693267Y-5204727D01*
X139573022Y-5293907D01*
X139444616Y-5370871D01*
X139309284Y-5434878D01*
X139168329Y-5485312D01*
X139023110Y-5521688D01*
X138875025Y-5543654D01*
X138725500Y-5551000D01*
X135674500Y-5551000D01*
X135524975Y-5543654D01*
X135376890Y-5521688D01*
X135231671Y-5485312D01*
X135090716Y-5434878D01*
X134955384Y-5370871D01*
X134826978Y-5293907D01*
X134706733Y-5204727D01*
X134595809Y-5104191D01*
X134495273Y-4993267D01*
X134406093Y-4873022D01*
X134329129Y-4744616D01*
X134265122Y-4609284D01*
X134214688Y-4468329D01*
X134178312Y-4323110D01*
X134156346Y-4175025D01*
X134149000Y-4025500D01*
X134149000Y-974500D01*
X134156346Y-824975D01*
X134178312Y-676890D01*
X134214688Y-531671D01*
X134265122Y-390716D01*
X134329129Y-255384D01*
X134406093Y-126978D01*
X134495273Y-6733D01*
X134595809Y104191D01*
X134706733Y204727D01*
X134826978Y293907D01*
X134955384Y370871D01*
X135090716Y434878D01*
X135231671Y485312D01*
X135376890Y521688D01*
X135524975Y543654D01*
X135674500Y551000D01*
X138725500Y551000D01*
X138875025Y543654D01*
G37*
D22*
X130000000Y-2500000D03*
D21*
G36*
X139175025Y-179456346D02*
G01*
X139323110Y-179478312D01*
X139468329Y-179514688D01*
X139609284Y-179565122D01*
X139744616Y-179629129D01*
X139873022Y-179706093D01*
X139993267Y-179795273D01*
X140104191Y-179895809D01*
X140204727Y-180006733D01*
X140293907Y-180126978D01*
X140370871Y-180255384D01*
X140434878Y-180390716D01*
X140485312Y-180531671D01*
X140521688Y-180676890D01*
X140543654Y-180824975D01*
X140551000Y-180974500D01*
X140551000Y-184025500D01*
X140543654Y-184175025D01*
X140521688Y-184323110D01*
X140485312Y-184468329D01*
X140434878Y-184609284D01*
X140370871Y-184744616D01*
X140293907Y-184873022D01*
X140204727Y-184993267D01*
X140104191Y-185104191D01*
X139993267Y-185204727D01*
X139873022Y-185293907D01*
X139744616Y-185370871D01*
X139609284Y-185434878D01*
X139468329Y-185485312D01*
X139323110Y-185521688D01*
X139175025Y-185543654D01*
X139025500Y-185551000D01*
X135974500Y-185551000D01*
X135824975Y-185543654D01*
X135676890Y-185521688D01*
X135531671Y-185485312D01*
X135390716Y-185434878D01*
X135255384Y-185370871D01*
X135126978Y-185293907D01*
X135006733Y-185204727D01*
X134895809Y-185104191D01*
X134795273Y-184993267D01*
X134706093Y-184873022D01*
X134629129Y-184744616D01*
X134565122Y-184609284D01*
X134514688Y-184468329D01*
X134478312Y-184323110D01*
X134456346Y-184175025D01*
X134449000Y-184025500D01*
X134449000Y-180974500D01*
X134456346Y-180824975D01*
X134478312Y-180676890D01*
X134514688Y-180531671D01*
X134565122Y-180390716D01*
X134629129Y-180255384D01*
X134706093Y-180126978D01*
X134795273Y-180006733D01*
X134895809Y-179895809D01*
X135006733Y-179795273D01*
X135126978Y-179706093D01*
X135255384Y-179629129D01*
X135390716Y-179565122D01*
X135531671Y-179514688D01*
X135676890Y-179478312D01*
X135824975Y-179456346D01*
X135974500Y-179449000D01*
X139025500Y-179449000D01*
X139175025Y-179456346D01*
G37*
D22*
X130300000Y-182500000D03*
D23*
X160000000Y-187500000D03*
X160000000Y-2500000D03*
X80000000Y-187500000D03*
X80000000Y-2500000D03*
D24*
X163540000Y-179000000D03*
D25*
X161000000Y-179000000D03*
D16*
X131500000Y-65000000D03*
D17*
X131500000Y-70000000D03*
D16*
X131500000Y-90000000D03*
D17*
X131500000Y-95000000D03*
D16*
X131500000Y-115000000D03*
D17*
X131500000Y-120000000D03*
D16*
X131500000Y-140000000D03*
D17*
X131500000Y-145000000D03*
D18*
X160850000Y-33250000D03*
X160850000Y-26750000D03*
X159850000Y-31250000D03*
X158850000Y-33250000D03*
X159850000Y-28750000D03*
X158850000Y-26750000D03*
X157850000Y-31250000D03*
X156850000Y-33250000D03*
X157850000Y-28750000D03*
X156850000Y-26750000D03*
X155850000Y-31250000D03*
X154850000Y-33250000D03*
X155850000Y-28750000D03*
X154850000Y-26750000D03*
X153850000Y-31250000D03*
X152850000Y-33250000D03*
X153850000Y-28750000D03*
X152850000Y-26750000D03*
X151850000Y-31250000D03*
X150850000Y-33250000D03*
X151850000Y-28750000D03*
X150850000Y-26750000D03*
X149850000Y-31250000D03*
X148850000Y-33250000D03*
X149850000Y-28750000D03*
X148850000Y-26750000D03*
X147850000Y-31250000D03*
X146850000Y-33250000D03*
X147850000Y-28750000D03*
X146850000Y-26750000D03*
X145850000Y-31250000D03*
X144850000Y-33250000D03*
X145850000Y-28750000D03*
X144850000Y-26750000D03*
X143850000Y-31250000D03*
X142850000Y-33250000D03*
X143850000Y-28750000D03*
X142850000Y-26750000D03*
X141850000Y-31250000D03*
X140850000Y-33250000D03*
X141850000Y-28750000D03*
X140850000Y-26750000D03*
X139850000Y-31250000D03*
X138850000Y-33250000D03*
X139850000Y-28750000D03*
X138850000Y-26750000D03*
X137850000Y-31250000D03*
X136850000Y-33250000D03*
X137850000Y-28750000D03*
X136850000Y-26750000D03*
X135850000Y-31250000D03*
X134850000Y-33250000D03*
X135850000Y-28750000D03*
X134850000Y-26750000D03*
X133850000Y-31250000D03*
X132850000Y-33250000D03*
X133850000Y-28750000D03*
X132850000Y-26750000D03*
X131850000Y-31250000D03*
X130850000Y-33250000D03*
X131850000Y-28750000D03*
X130850000Y-26750000D03*
X129850000Y-31250000D03*
X128850000Y-33250000D03*
X129850000Y-28750000D03*
X128850000Y-26750000D03*
X127850000Y-31250000D03*
X126850000Y-33250000D03*
X127850000Y-28750000D03*
X126850000Y-26750000D03*
X125850000Y-31250000D03*
X124850000Y-33250000D03*
X125850000Y-28750000D03*
X124850000Y-26750000D03*
X123850000Y-31250000D03*
X122850000Y-33250000D03*
X123850000Y-28750000D03*
X122850000Y-26750000D03*
X121850000Y-31250000D03*
X120850000Y-33250000D03*
X121850000Y-28750000D03*
X120850000Y-26750000D03*
X119850000Y-31250000D03*
X118850000Y-33250000D03*
X119850000Y-28750000D03*
X118850000Y-26750000D03*
X117850000Y-31250000D03*
X116850000Y-33250000D03*
X117850000Y-28750000D03*
X116850000Y-26750000D03*
X115850000Y-31250000D03*
X114850000Y-33250000D03*
X115850000Y-28750000D03*
X114850000Y-26750000D03*
X113850000Y-31250000D03*
X112850000Y-33250000D03*
X113850000Y-28750000D03*
X112850000Y-26750000D03*
X111850000Y-31250000D03*
X110850000Y-33250000D03*
X111850000Y-28750000D03*
X110850000Y-26750000D03*
X109850000Y-31250000D03*
X108850000Y-33250000D03*
X109850000Y-28750000D03*
X108850000Y-26750000D03*
X107850000Y-31250000D03*
X106850000Y-33250000D03*
X107850000Y-28750000D03*
X106850000Y-26750000D03*
X105850000Y-31250000D03*
X104850000Y-33250000D03*
X105850000Y-28750000D03*
X104850000Y-26750000D03*
X103850000Y-31250000D03*
X102850000Y-33250000D03*
X103850000Y-28750000D03*
X102850000Y-26750000D03*
X101850000Y-31250000D03*
X100850000Y-33250000D03*
X101850000Y-28750000D03*
X100850000Y-26750000D03*
X99850000Y-31250000D03*
X98850000Y-33250000D03*
X99850000Y-28750000D03*
X98850000Y-26750000D03*
X97850000Y-31250000D03*
X96850000Y-33250000D03*
X97850000Y-28750000D03*
X96850000Y-26750000D03*
X95850000Y-31250000D03*
X94850000Y-33250000D03*
X95850000Y-28750000D03*
X94850000Y-26750000D03*
X93850000Y-31250000D03*
X92850000Y-33250000D03*
X93850000Y-28750000D03*
X92850000Y-26750000D03*
X78850000Y-26750000D03*
X77850000Y-28750000D03*
X78850000Y-33250000D03*
X77850000Y-31250000D03*
D16*
X162650000Y-30000000D03*
D18*
X91850000Y-31250000D03*
X91850000Y-28750000D03*
X90850000Y-33250000D03*
X90850000Y-26750000D03*
X80850000Y-26750000D03*
X80850000Y-33250000D03*
X82850000Y-26750000D03*
X82850000Y-33250000D03*
X84850000Y-26750000D03*
X84850000Y-33250000D03*
X86850000Y-33250000D03*
X86850000Y-26750000D03*
X79850000Y-31250000D03*
X79850000Y-28750000D03*
X81850000Y-31250000D03*
X81850000Y-28750000D03*
X83850000Y-31250000D03*
X83850000Y-28750000D03*
X85850000Y-31250000D03*
X85850000Y-28750000D03*
D16*
X89500000Y-30000000D03*
D18*
X87850000Y-31250000D03*
X87850000Y-28750000D03*
X160850000Y-58250000D03*
X160850000Y-51750000D03*
X159850000Y-56250000D03*
X158850000Y-58250000D03*
X159850000Y-53750000D03*
X158850000Y-51750000D03*
X157850000Y-56250000D03*
X156850000Y-58250000D03*
X157850000Y-53750000D03*
X156850000Y-51750000D03*
X155850000Y-56250000D03*
X154850000Y-58250000D03*
X155850000Y-53750000D03*
X154850000Y-51750000D03*
X153850000Y-56250000D03*
X152850000Y-58250000D03*
X153850000Y-53750000D03*
X152850000Y-51750000D03*
X151850000Y-56250000D03*
X150850000Y-58250000D03*
X151850000Y-53750000D03*
X150850000Y-51750000D03*
X149850000Y-56250000D03*
X148850000Y-58250000D03*
X149850000Y-53750000D03*
X148850000Y-51750000D03*
X147850000Y-56250000D03*
X146850000Y-58250000D03*
X147850000Y-53750000D03*
X146850000Y-51750000D03*
X145850000Y-56250000D03*
X144850000Y-58250000D03*
X145850000Y-53750000D03*
X144850000Y-51750000D03*
X143850000Y-56250000D03*
X142850000Y-58250000D03*
X143850000Y-53750000D03*
X142850000Y-51750000D03*
X141850000Y-56250000D03*
X140850000Y-58250000D03*
X141850000Y-53750000D03*
X140850000Y-51750000D03*
X139850000Y-56250000D03*
X138850000Y-58250000D03*
X139850000Y-53750000D03*
X138850000Y-51750000D03*
X137850000Y-56250000D03*
X136850000Y-58250000D03*
X137850000Y-53750000D03*
X136850000Y-51750000D03*
X135850000Y-56250000D03*
X134850000Y-58250000D03*
X135850000Y-53750000D03*
X134850000Y-51750000D03*
X133850000Y-56250000D03*
X132850000Y-58250000D03*
X133850000Y-53750000D03*
X132850000Y-51750000D03*
X131850000Y-56250000D03*
X130850000Y-58250000D03*
X131850000Y-53750000D03*
X130850000Y-51750000D03*
X129850000Y-56250000D03*
X128850000Y-58250000D03*
X129850000Y-53750000D03*
X128850000Y-51750000D03*
X127850000Y-56250000D03*
X126850000Y-58250000D03*
X127850000Y-53750000D03*
X126850000Y-51750000D03*
X125850000Y-56250000D03*
X124850000Y-58250000D03*
X125850000Y-53750000D03*
X124850000Y-51750000D03*
X123850000Y-56250000D03*
X122850000Y-58250000D03*
X123850000Y-53750000D03*
X122850000Y-51750000D03*
X121850000Y-56250000D03*
X120850000Y-58250000D03*
X121850000Y-53750000D03*
X120850000Y-51750000D03*
X119850000Y-56250000D03*
X118850000Y-58250000D03*
X119850000Y-53750000D03*
X118850000Y-51750000D03*
X117850000Y-56250000D03*
X116850000Y-58250000D03*
X117850000Y-53750000D03*
X116850000Y-51750000D03*
X115850000Y-56250000D03*
X114850000Y-58250000D03*
X115850000Y-53750000D03*
X114850000Y-51750000D03*
X113850000Y-56250000D03*
X112850000Y-58250000D03*
X113850000Y-53750000D03*
X112850000Y-51750000D03*
X111850000Y-56250000D03*
X110850000Y-58250000D03*
X111850000Y-53750000D03*
X110850000Y-51750000D03*
X109850000Y-56250000D03*
X108850000Y-58250000D03*
X109850000Y-53750000D03*
X108850000Y-51750000D03*
X107850000Y-56250000D03*
X106850000Y-58250000D03*
X107850000Y-53750000D03*
X106850000Y-51750000D03*
X105850000Y-56250000D03*
X104850000Y-58250000D03*
X105850000Y-53750000D03*
X104850000Y-51750000D03*
X103850000Y-56250000D03*
X102850000Y-58250000D03*
X103850000Y-53750000D03*
X102850000Y-51750000D03*
X101850000Y-56250000D03*
X100850000Y-58250000D03*
X101850000Y-53750000D03*
X100850000Y-51750000D03*
X99850000Y-56250000D03*
X98850000Y-58250000D03*
X99850000Y-53750000D03*
X98850000Y-51750000D03*
X97850000Y-56250000D03*
X96850000Y-58250000D03*
X97850000Y-53750000D03*
X96850000Y-51750000D03*
X95850000Y-56250000D03*
X94850000Y-58250000D03*
X95850000Y-53750000D03*
X94850000Y-51750000D03*
X93850000Y-56250000D03*
X92850000Y-58250000D03*
X93850000Y-53750000D03*
X92850000Y-51750000D03*
X78850000Y-51750000D03*
X77850000Y-53750000D03*
X78850000Y-58250000D03*
X77850000Y-56250000D03*
D16*
X162650000Y-55000000D03*
D18*
X91850000Y-56250000D03*
X91850000Y-53750000D03*
X90850000Y-58250000D03*
X90850000Y-51750000D03*
X80850000Y-51750000D03*
X80850000Y-58250000D03*
X82850000Y-51750000D03*
X82850000Y-58250000D03*
X84850000Y-51750000D03*
X84850000Y-58250000D03*
X86850000Y-58250000D03*
X86850000Y-51750000D03*
X79850000Y-56250000D03*
X79850000Y-53750000D03*
X81850000Y-56250000D03*
X81850000Y-53750000D03*
X83850000Y-56250000D03*
X83850000Y-53750000D03*
X85850000Y-56250000D03*
X85850000Y-53750000D03*
D16*
X89500000Y-55000000D03*
D18*
X87850000Y-56250000D03*
X87850000Y-53750000D03*
X160850000Y-83250000D03*
X160850000Y-76750000D03*
X159850000Y-81250000D03*
X158850000Y-83250000D03*
X159850000Y-78750000D03*
X158850000Y-76750000D03*
X157850000Y-81250000D03*
X156850000Y-83250000D03*
X157850000Y-78750000D03*
X156850000Y-76750000D03*
X155850000Y-81250000D03*
X154850000Y-83250000D03*
X155850000Y-78750000D03*
X154850000Y-76750000D03*
X153850000Y-81250000D03*
X152850000Y-83250000D03*
X153850000Y-78750000D03*
X152850000Y-76750000D03*
X151850000Y-81250000D03*
X150850000Y-83250000D03*
X151850000Y-78750000D03*
X150850000Y-76750000D03*
X149850000Y-81250000D03*
X148850000Y-83250000D03*
X149850000Y-78750000D03*
X148850000Y-76750000D03*
X147850000Y-81250000D03*
X146850000Y-83250000D03*
X147850000Y-78750000D03*
X146850000Y-76750000D03*
X145850000Y-81250000D03*
X144850000Y-83250000D03*
X145850000Y-78750000D03*
X144850000Y-76750000D03*
X143850000Y-81250000D03*
X142850000Y-83250000D03*
X143850000Y-78750000D03*
X142850000Y-76750000D03*
X141850000Y-81250000D03*
X140850000Y-83250000D03*
X141850000Y-78750000D03*
X140850000Y-76750000D03*
X139850000Y-81250000D03*
X138850000Y-83250000D03*
X139850000Y-78750000D03*
X138850000Y-76750000D03*
X137850000Y-81250000D03*
X136850000Y-83250000D03*
X137850000Y-78750000D03*
X136850000Y-76750000D03*
X135850000Y-81250000D03*
X134850000Y-83250000D03*
X135850000Y-78750000D03*
X134850000Y-76750000D03*
X133850000Y-81250000D03*
X132850000Y-83250000D03*
X133850000Y-78750000D03*
X132850000Y-76750000D03*
X131850000Y-81250000D03*
X130850000Y-83250000D03*
X131850000Y-78750000D03*
X130850000Y-76750000D03*
X129850000Y-81250000D03*
X128850000Y-83250000D03*
X129850000Y-78750000D03*
X128850000Y-76750000D03*
X127850000Y-81250000D03*
X126850000Y-83250000D03*
X127850000Y-78750000D03*
X126850000Y-76750000D03*
X125850000Y-81250000D03*
X124850000Y-83250000D03*
X125850000Y-78750000D03*
X124850000Y-76750000D03*
X123850000Y-81250000D03*
X122850000Y-83250000D03*
X123850000Y-78750000D03*
X122850000Y-76750000D03*
X121850000Y-81250000D03*
X120850000Y-83250000D03*
X121850000Y-78750000D03*
X120850000Y-76750000D03*
X119850000Y-81250000D03*
X118850000Y-83250000D03*
X119850000Y-78750000D03*
X118850000Y-76750000D03*
X117850000Y-81250000D03*
X116850000Y-83250000D03*
X117850000Y-78750000D03*
X116850000Y-76750000D03*
X115850000Y-81250000D03*
X114850000Y-83250000D03*
X115850000Y-78750000D03*
X114850000Y-76750000D03*
X113850000Y-81250000D03*
X112850000Y-83250000D03*
X113850000Y-78750000D03*
X112850000Y-76750000D03*
X111850000Y-81250000D03*
X110850000Y-83250000D03*
X111850000Y-78750000D03*
X110850000Y-76750000D03*
X109850000Y-81250000D03*
X108850000Y-83250000D03*
X109850000Y-78750000D03*
X108850000Y-76750000D03*
X107850000Y-81250000D03*
X106850000Y-83250000D03*
X107850000Y-78750000D03*
X106850000Y-76750000D03*
X105850000Y-81250000D03*
X104850000Y-83250000D03*
X105850000Y-78750000D03*
X104850000Y-76750000D03*
X103850000Y-81250000D03*
X102850000Y-83250000D03*
X103850000Y-78750000D03*
X102850000Y-76750000D03*
X101850000Y-81250000D03*
X100850000Y-83250000D03*
X101850000Y-78750000D03*
X100850000Y-76750000D03*
X99850000Y-81250000D03*
X98850000Y-83250000D03*
X99850000Y-78750000D03*
X98850000Y-76750000D03*
X97850000Y-81250000D03*
X96850000Y-83250000D03*
X97850000Y-78750000D03*
X96850000Y-76750000D03*
X95850000Y-81250000D03*
X94850000Y-83250000D03*
X95850000Y-78750000D03*
X94850000Y-76750000D03*
X93850000Y-81250000D03*
X92850000Y-83250000D03*
X93850000Y-78750000D03*
X92850000Y-76750000D03*
X78850000Y-76750000D03*
X77850000Y-78750000D03*
X78850000Y-83250000D03*
X77850000Y-81250000D03*
D16*
X162650000Y-80000000D03*
D18*
X91850000Y-81250000D03*
X91850000Y-78750000D03*
X90850000Y-83250000D03*
X90850000Y-76750000D03*
X80850000Y-76750000D03*
X80850000Y-83250000D03*
X82850000Y-76750000D03*
X82850000Y-83250000D03*
X84850000Y-76750000D03*
X84850000Y-83250000D03*
X86850000Y-83250000D03*
X86850000Y-76750000D03*
X79850000Y-81250000D03*
X79850000Y-78750000D03*
X81850000Y-81250000D03*
X81850000Y-78750000D03*
X83850000Y-81250000D03*
X83850000Y-78750000D03*
X85850000Y-81250000D03*
X85850000Y-78750000D03*
D16*
X89500000Y-80000000D03*
D18*
X87850000Y-81250000D03*
X87850000Y-78750000D03*
X160850000Y-108250000D03*
X160850000Y-101750000D03*
X159850000Y-106250000D03*
X158850000Y-108250000D03*
X159850000Y-103750000D03*
X158850000Y-101750000D03*
X157850000Y-106250000D03*
X156850000Y-108250000D03*
X157850000Y-103750000D03*
X156850000Y-101750000D03*
X155850000Y-106250000D03*
X154850000Y-108250000D03*
X155850000Y-103750000D03*
X154850000Y-101750000D03*
X153850000Y-106250000D03*
X152850000Y-108250000D03*
X153850000Y-103750000D03*
X152850000Y-101750000D03*
X151850000Y-106250000D03*
X150850000Y-108250000D03*
X151850000Y-103750000D03*
X150850000Y-101750000D03*
X149850000Y-106250000D03*
X148850000Y-108250000D03*
X149850000Y-103750000D03*
X148850000Y-101750000D03*
X147850000Y-106250000D03*
X146850000Y-108250000D03*
X147850000Y-103750000D03*
X146850000Y-101750000D03*
X145850000Y-106250000D03*
X144850000Y-108250000D03*
X145850000Y-103750000D03*
X144850000Y-101750000D03*
X143850000Y-106250000D03*
X142850000Y-108250000D03*
X143850000Y-103750000D03*
X142850000Y-101750000D03*
X141850000Y-106250000D03*
X140850000Y-108250000D03*
X141850000Y-103750000D03*
X140850000Y-101750000D03*
X139850000Y-106250000D03*
X138850000Y-108250000D03*
X139850000Y-103750000D03*
X138850000Y-101750000D03*
X137850000Y-106250000D03*
X136850000Y-108250000D03*
X137850000Y-103750000D03*
X136850000Y-101750000D03*
X135850000Y-106250000D03*
X134850000Y-108250000D03*
X135850000Y-103750000D03*
X134850000Y-101750000D03*
X133850000Y-106250000D03*
X132850000Y-108250000D03*
X133850000Y-103750000D03*
X132850000Y-101750000D03*
X131850000Y-106250000D03*
X130850000Y-108250000D03*
X131850000Y-103750000D03*
X130850000Y-101750000D03*
X129850000Y-106250000D03*
X128850000Y-108250000D03*
X129850000Y-103750000D03*
X128850000Y-101750000D03*
X127850000Y-106250000D03*
X126850000Y-108250000D03*
X127850000Y-103750000D03*
X126850000Y-101750000D03*
X125850000Y-106250000D03*
X124850000Y-108250000D03*
X125850000Y-103750000D03*
X124850000Y-101750000D03*
X123850000Y-106250000D03*
X122850000Y-108250000D03*
X123850000Y-103750000D03*
X122850000Y-101750000D03*
X121850000Y-106250000D03*
X120850000Y-108250000D03*
X121850000Y-103750000D03*
X120850000Y-101750000D03*
X119850000Y-106250000D03*
X118850000Y-108250000D03*
X119850000Y-103750000D03*
X118850000Y-101750000D03*
X117850000Y-106250000D03*
X116850000Y-108250000D03*
X117850000Y-103750000D03*
X116850000Y-101750000D03*
X115850000Y-106250000D03*
X114850000Y-108250000D03*
X115850000Y-103750000D03*
X114850000Y-101750000D03*
X113850000Y-106250000D03*
X112850000Y-108250000D03*
X113850000Y-103750000D03*
X112850000Y-101750000D03*
X111850000Y-106250000D03*
X110850000Y-108250000D03*
X111850000Y-103750000D03*
X110850000Y-101750000D03*
X109850000Y-106250000D03*
X108850000Y-108250000D03*
X109850000Y-103750000D03*
X108850000Y-101750000D03*
X107850000Y-106250000D03*
X106850000Y-108250000D03*
X107850000Y-103750000D03*
X106850000Y-101750000D03*
X105850000Y-106250000D03*
X104850000Y-108250000D03*
X105850000Y-103750000D03*
X104850000Y-101750000D03*
X103850000Y-106250000D03*
X102850000Y-108250000D03*
X103850000Y-103750000D03*
X102850000Y-101750000D03*
X101850000Y-106250000D03*
X100850000Y-108250000D03*
X101850000Y-103750000D03*
X100850000Y-101750000D03*
X99850000Y-106250000D03*
X98850000Y-108250000D03*
X99850000Y-103750000D03*
X98850000Y-101750000D03*
X97850000Y-106250000D03*
X96850000Y-108250000D03*
X97850000Y-103750000D03*
X96850000Y-101750000D03*
X95850000Y-106250000D03*
X94850000Y-108250000D03*
X95850000Y-103750000D03*
X94850000Y-101750000D03*
X93850000Y-106250000D03*
X92850000Y-108250000D03*
X93850000Y-103750000D03*
X92850000Y-101750000D03*
X78850000Y-101750000D03*
X77850000Y-103750000D03*
X78850000Y-108250000D03*
X77850000Y-106250000D03*
D16*
X162650000Y-105000000D03*
D18*
X91850000Y-106250000D03*
X91850000Y-103750000D03*
X90850000Y-108250000D03*
X90850000Y-101750000D03*
X80850000Y-101750000D03*
X80850000Y-108250000D03*
X82850000Y-101750000D03*
X82850000Y-108250000D03*
X84850000Y-101750000D03*
X84850000Y-108250000D03*
X86850000Y-108250000D03*
X86850000Y-101750000D03*
X79850000Y-106250000D03*
X79850000Y-103750000D03*
X81850000Y-106250000D03*
X81850000Y-103750000D03*
X83850000Y-106250000D03*
X83850000Y-103750000D03*
X85850000Y-106250000D03*
X85850000Y-103750000D03*
D16*
X89500000Y-105000000D03*
D18*
X87850000Y-106250000D03*
X87850000Y-103750000D03*
D16*
X131500000Y-15000000D03*
D17*
X131500000Y-20000000D03*
D16*
X131500000Y-40000000D03*
D17*
X131500000Y-45000000D03*
M02*
