M48
METRIC,TZ
T1C0.300
T2C0.400
T3C0.780
T4C0.900
T5C1.000
T6C1.020
T7C1.200
T8C4.500
%
G90
G05
T1
X77500Y-20000
X77500Y-25000
X77500Y-35000
X77500Y-40000
X77500Y-45000
X77500Y-50000
X77500Y-60000
X77500Y-65000
X77500Y-70000
X77500Y-75000
X77500Y-85000
X77500Y-90000
X77500Y-95000
X77500Y-100000
X77500Y-110000
X77500Y-115000
X77500Y-120000
X77500Y-125000
X77500Y-135000
X77500Y-140000
X77500Y-145000
X77500Y-150000
X77500Y-160000
X77500Y-165000
X77500Y-170000
X80000Y-10000
X80000Y-20000
X80000Y-25000
X80000Y-85000
X80000Y-90000
X80000Y-95000
X80000Y-100000
X80000Y-110000
X80000Y-115000
X80000Y-120000
X80000Y-125000
X80000Y-135000
X80000Y-140000
X80000Y-145000
X80000Y-150000
X80000Y-160000
X80000Y-165000
X80000Y-170000
X80040Y-180000
X85000Y0
X85000Y-5000
X85000Y-10000
X85000Y-180000
X85000Y-180000
X85000Y-185000
X85000Y-190000
X90000Y0
X90000Y-5000
X90000Y-10000
X90000Y-20000
X90000Y-25000
X90000Y-35000
X90000Y-40000
X90000Y-45000
X90000Y-50000
X90000Y-60000
X90000Y-65000
X90000Y-70000
X90000Y-75000
X90000Y-85000
X90000Y-90000
X90000Y-95000
X90000Y-100000
X90000Y-110000
X90000Y-115000
X90000Y-120000
X90000Y-125000
X90000Y-135000
X90000Y-140000
X90000Y-145000
X90000Y-150000
X90000Y-160000
X90000Y-165000
X90000Y-170000
X90000Y-180000
X90000Y-185000
X90000Y-190000
X95000Y0
X95000Y-5000
X95000Y-10000
X95000Y-15000
X95000Y-20000
X95000Y-25000
X95000Y-35000
X95000Y-40000
X95000Y-45000
X95000Y-50000
X95000Y-60000
X95000Y-65000
X95000Y-70000
X95000Y-75000
X95000Y-85000
X95000Y-90000
X95000Y-95000
X95000Y-100000
X95000Y-110000
X95000Y-115000
X95000Y-120000
X95000Y-125000
X95000Y-135000
X95000Y-140000
X95000Y-145000
X95000Y-150000
X95000Y-160000
X95000Y-165000
X95000Y-170000
X95000Y-175000
X95000Y-180000
X95000Y-185000
X95000Y-190000
X100000Y0
X100000Y-5000
X100000Y-10000
X100000Y-15000
X100000Y-20000
X100000Y-25000
X100000Y-35000
X100000Y-40000
X100000Y-45000
X100000Y-50000
X100000Y-60000
X100000Y-65000
X100000Y-70000
X100000Y-75000
X100000Y-85000
X100000Y-90000
X100000Y-95000
X100000Y-100000
X100000Y-110000
X100000Y-115000
X100000Y-120000
X100000Y-125000
X100000Y-135000
X100000Y-140000
X100000Y-145000
X100000Y-150000
X100000Y-160000
X100000Y-165000
X100000Y-170000
X100000Y-175000
X100500Y-185000
X100500Y-190000
X105000Y0
X105000Y-5000
X105000Y-10000
X105000Y-15000
X105000Y-20000
X105000Y-25000
X105000Y-35000
X105000Y-40000
X105000Y-45000
X105000Y-50000
X105000Y-60000
X105000Y-65000
X105000Y-70000
X105000Y-75000
X105000Y-85000
X105000Y-90000
X105000Y-95000
X105000Y-100000
X105000Y-110000
X105000Y-115000
X105000Y-120000
X105000Y-125000
X105000Y-135000
X105000Y-140000
X105000Y-145000
X105000Y-150000
X105000Y-160000
X105000Y-165000
X105000Y-170000
X105000Y-175000
X105000Y-180000
X110000Y0
X110000Y-5000
X110000Y-10000
X110000Y-15000
X110000Y-20000
X110000Y-25000
X110000Y-35000
X110000Y-40000
X110000Y-45000
X110000Y-50000
X110000Y-60000
X110000Y-65000
X110000Y-70000
X110000Y-75000
X110000Y-85000
X110000Y-90000
X110000Y-95000
X110000Y-100000
X110000Y-110000
X110000Y-115000
X110000Y-120000
X110000Y-125000
X110000Y-135000
X110000Y-140000
X110000Y-145000
X110000Y-150000
X110000Y-160000
X110000Y-165000
X110000Y-170000
X110000Y-175000
X110000Y-190000
X115000Y0
X115000Y-5000
X115000Y-10000
X115000Y-15000
X115000Y-20000
X115000Y-25000
X115000Y-35000
X115000Y-40000
X115000Y-45000
X115000Y-50000
X115000Y-60000
X115000Y-65000
X115000Y-70000
X115000Y-75000
X115000Y-85000
X115000Y-90000
X115000Y-95000
X115000Y-100000
X115000Y-110000
X115000Y-115000
X115000Y-120000
X115000Y-125000
X115000Y-135000
X115000Y-140000
X115000Y-145000
X115000Y-150000
X115000Y-160000
X115000Y-165000
X115000Y-170000
X115000Y-175000
X115000Y-180000
X115000Y-190000
X120000Y0
X120000Y-5000
X120000Y-10000
X120000Y-15000
X120000Y-20000
X120000Y-25000
X120000Y-35000
X120000Y-40000
X120000Y-45000
X120000Y-50000
X120000Y-60000
X120000Y-65000
X120000Y-70000
X120000Y-75000
X120000Y-85000
X120000Y-90000
X120000Y-95000
X120000Y-100000
X120000Y-110000
X120000Y-115000
X120000Y-120000
X120000Y-125000
X120000Y-135000
X120000Y-140000
X120000Y-145000
X120000Y-150000
X120000Y-160000
X120000Y-165000
X120000Y-170000
X120000Y-175000
X120000Y-180000
X120000Y-185000
X120000Y-190000
X125000Y0
X125000Y-5000
X125000Y-10000
X125000Y-15000
X125000Y-20000
X125000Y-25000
X125000Y-35000
X125000Y-40000
X125000Y-45000
X125000Y-50000
X125000Y-60000
X125000Y-65000
X125000Y-70000
X125000Y-75000
X125000Y-85000
X125000Y-90000
X125000Y-95000
X125000Y-100000
X125000Y-110000
X125000Y-115000
X125000Y-120000
X125000Y-125000
X125000Y-135000
X125000Y-140000
X125000Y-145000
X125000Y-150000
X125000Y-160000
X125000Y-165000
X125000Y-170000
X125000Y-175000
X125000Y-180000
X125000Y-185000
X125000Y-190000
X130000Y-10000
X130000Y-25000
X130000Y-35000
X130000Y-50000
X130000Y-60000
X130000Y-75000
X130000Y-85000
X130000Y-100000
X130000Y-110000
X130000Y-125000
X130000Y-135000
X130000Y-150000
X130000Y-160000
X130000Y-175000
X130000Y-190000
X135000Y-10000
X135000Y-15000
X135000Y-20000
X135000Y-25000
X135000Y-35000
X135000Y-40000
X135000Y-45000
X135000Y-50000
X135000Y-60000
X135000Y-65000
X135000Y-70000
X135000Y-75000
X135000Y-85000
X135000Y-90000
X135000Y-95000
X135000Y-100000
X135000Y-110000
X135000Y-115000
X135000Y-120000
X135000Y-125000
X135000Y-135000
X135000Y-140000
X135000Y-145000
X135000Y-150000
X135000Y-160000
X135000Y-165000
X135000Y-170000
X135000Y-175000
X135000Y-190000
X140000Y-10000
X140000Y-15000
X140000Y-20000
X140000Y-25000
X140000Y-35000
X140000Y-40000
X140000Y-45000
X140000Y-50000
X140000Y-60000
X140000Y-65000
X140000Y-70000
X140000Y-75000
X140000Y-85000
X140000Y-90000
X140000Y-95000
X140000Y-100000
X140000Y-110000
X140000Y-115000
X140000Y-120000
X140000Y-125000
X140000Y-135000
X140000Y-140000
X140000Y-145000
X140000Y-150000
X140000Y-160000
X140000Y-165000
X140000Y-170000
X140000Y-175000
X140000Y-190000
X145000Y0
X145000Y-5000
X145000Y-10000
X145000Y-15000
X145000Y-20000
X145000Y-25000
X145000Y-35000
X145000Y-40000
X145000Y-45000
X145000Y-50000
X145000Y-60000
X145000Y-65000
X145000Y-70000
X145000Y-75000
X145000Y-85000
X145000Y-90000
X145000Y-95000
X145000Y-100000
X145000Y-110000
X145000Y-115000
X145000Y-120000
X145000Y-125000
X145000Y-135000
X145000Y-140000
X145000Y-145000
X145000Y-150000
X145000Y-160000
X145000Y-165000
X145000Y-170000
X145000Y-175000
X145000Y-180000
X145000Y-185000
X145000Y-190000
X150000Y0
X150000Y-5000
X150000Y-10000
X150000Y-15000
X150000Y-20000
X150000Y-25000
X150000Y-35000
X150000Y-40000
X150000Y-45000
X150000Y-50000
X150000Y-60000
X150000Y-65000
X150000Y-70000
X150000Y-75000
X150000Y-85000
X150000Y-90000
X150000Y-95000
X150000Y-100000
X150000Y-110000
X150000Y-115000
X150000Y-120000
X150000Y-125000
X150000Y-135000
X150000Y-140000
X150000Y-145000
X150000Y-150000
X150000Y-160000
X150000Y-165000
X150000Y-170000
X150000Y-175000
X150000Y-180000
X150000Y-185000
X150000Y-190000
X155000Y0
X155000Y-5000
X155000Y-10000
X155000Y-15000
X155000Y-20000
X155000Y-25000
X155000Y-35000
X155000Y-40000
X155000Y-45000
X155000Y-50000
X155000Y-60000
X155000Y-65000
X155000Y-70000
X155000Y-75000
X155000Y-85000
X155000Y-90000
X155000Y-95000
X155000Y-100000
X155000Y-110000
X155000Y-115000
X155000Y-120000
X155000Y-125000
X155000Y-135000
X155000Y-140000
X155000Y-145000
X155000Y-150000
X155000Y-160000
X155000Y-165000
X155000Y-170000
X155000Y-175000
X155000Y-180000
X155000Y-185000
X155000Y-190000
X160000Y-10000
X160000Y-15000
X160000Y-20000
X160000Y-25000
X160000Y-35000
X160000Y-40000
X160000Y-45000
X160000Y-50000
X160000Y-60000
X160000Y-65000
X160000Y-70000
X160000Y-75000
X160000Y-85000
X160000Y-90000
X160000Y-95000
X160000Y-100000
X160000Y-110000
X160000Y-115000
X160000Y-120000
X160000Y-125000
X160000Y-135000
X160000Y-140000
X160000Y-145000
X160000Y-150000
X160000Y-160000
X160000Y-165000
X160000Y-170000
X160000Y-170000
X160000Y-175000
X160000Y-185000
X160000Y-190000
X165000Y0
X165000Y-5000
X165000Y-10000
X165000Y-15000
X165000Y-20000
X165000Y-25000
X165000Y-30000
X165000Y-35000
X165000Y-40000
T2
X110000Y-185000
X115000Y-185000
T3
X77850Y-78750
X77850Y-81250
X78850Y-76750
X78850Y-83250
X79850Y-78750
X79850Y-81250
X80850Y-76750
X80850Y-83250
X81850Y-78750
X81850Y-81250
X82850Y-76750
X82850Y-83250
X83850Y-78750
X83850Y-81250
X84850Y-76750
X84850Y-83250
X85850Y-78750
X85850Y-81250
X86850Y-76750
X86850Y-83250
X87850Y-78750
X87850Y-81250
X90850Y-76750
X90850Y-83250
X91850Y-78750
X91850Y-81250
X92850Y-76750
X92850Y-83250
X93850Y-78750
X93850Y-81250
X94850Y-76750
X94850Y-83250
X95850Y-78750
X95850Y-81250
X96850Y-76750
X96850Y-83250
X97850Y-78750
X97850Y-81250
X98850Y-76750
X98850Y-83250
X99850Y-78750
X99850Y-81250
X100850Y-76750
X100850Y-83250
X101850Y-78750
X101850Y-81250
X102850Y-76750
X102850Y-83250
X103850Y-78750
X103850Y-81250
X104850Y-76750
X104850Y-83250
X105850Y-78750
X105850Y-81250
X106850Y-76750
X106850Y-83250
X107850Y-78750
X107850Y-81250
X108850Y-76750
X108850Y-83250
X109850Y-78750
X109850Y-81250
X110850Y-76750
X110850Y-83250
X111850Y-78750
X111850Y-81250
X112850Y-76750
X112850Y-83250
X113850Y-78750
X113850Y-81250
X114850Y-76750
X114850Y-83250
X115850Y-78750
X115850Y-81250
X116850Y-76750
X116850Y-83250
X117850Y-78750
X117850Y-81250
X118850Y-76750
X118850Y-83250
X119850Y-78750
X119850Y-81250
X120850Y-76750
X120850Y-83250
X121850Y-78750
X121850Y-81250
X122850Y-76750
X122850Y-83250
X123850Y-78750
X123850Y-81250
X124850Y-76750
X124850Y-83250
X125850Y-78750
X125850Y-81250
X126850Y-76750
X126850Y-83250
X127850Y-78750
X127850Y-81250
X128850Y-76750
X128850Y-83250
X129850Y-78750
X129850Y-81250
X130850Y-76750
X130850Y-83250
X131850Y-78750
X131850Y-81250
X132850Y-76750
X132850Y-83250
X133850Y-78750
X133850Y-81250
X134850Y-76750
X134850Y-83250
X135850Y-78750
X135850Y-81250
X136850Y-76750
X136850Y-83250
X137850Y-78750
X137850Y-81250
X138850Y-76750
X138850Y-83250
X139850Y-78750
X139850Y-81250
X140850Y-76750
X140850Y-83250
X141850Y-78750
X141850Y-81250
X142850Y-76750
X142850Y-83250
X143850Y-78750
X143850Y-81250
X144850Y-76750
X144850Y-83250
X145850Y-78750
X145850Y-81250
X146850Y-76750
X146850Y-83250
X147850Y-78750
X147850Y-81250
X148850Y-76750
X148850Y-83250
X149850Y-78750
X149850Y-81250
X150850Y-76750
X150850Y-83250
X151850Y-78750
X151850Y-81250
X152850Y-76750
X152850Y-83250
X153850Y-78750
X153850Y-81250
X154850Y-76750
X154850Y-83250
X155850Y-78750
X155850Y-81250
X156850Y-76750
X156850Y-83250
X157850Y-78750
X157850Y-81250
X158850Y-76750
X158850Y-83250
X159850Y-78750
X159850Y-81250
X160850Y-76750
X160850Y-83250
X77850Y-53750
X77850Y-56250
X78850Y-51750
X78850Y-58250
X79850Y-53750
X79850Y-56250
X80850Y-51750
X80850Y-58250
X81850Y-53750
X81850Y-56250
X82850Y-51750
X82850Y-58250
X83850Y-53750
X83850Y-56250
X84850Y-51750
X84850Y-58250
X85850Y-53750
X85850Y-56250
X86850Y-51750
X86850Y-58250
X87850Y-53750
X87850Y-56250
X90850Y-51750
X90850Y-58250
X91850Y-53750
X91850Y-56250
X92850Y-51750
X92850Y-58250
X93850Y-53750
X93850Y-56250
X94850Y-51750
X94850Y-58250
X95850Y-53750
X95850Y-56250
X96850Y-51750
X96850Y-58250
X97850Y-53750
X97850Y-56250
X98850Y-51750
X98850Y-58250
X99850Y-53750
X99850Y-56250
X100850Y-51750
X100850Y-58250
X101850Y-53750
X101850Y-56250
X102850Y-51750
X102850Y-58250
X103850Y-53750
X103850Y-56250
X104850Y-51750
X104850Y-58250
X105850Y-53750
X105850Y-56250
X106850Y-51750
X106850Y-58250
X107850Y-53750
X107850Y-56250
X108850Y-51750
X108850Y-58250
X109850Y-53750
X109850Y-56250
X110850Y-51750
X110850Y-58250
X111850Y-53750
X111850Y-56250
X112850Y-51750
X112850Y-58250
X113850Y-53750
X113850Y-56250
X114850Y-51750
X114850Y-58250
X115850Y-53750
X115850Y-56250
X116850Y-51750
X116850Y-58250
X117850Y-53750
X117850Y-56250
X118850Y-51750
X118850Y-58250
X119850Y-53750
X119850Y-56250
X120850Y-51750
X120850Y-58250
X121850Y-53750
X121850Y-56250
X122850Y-51750
X122850Y-58250
X123850Y-53750
X123850Y-56250
X124850Y-51750
X124850Y-58250
X125850Y-53750
X125850Y-56250
X126850Y-51750
X126850Y-58250
X127850Y-53750
X127850Y-56250
X128850Y-51750
X128850Y-58250
X129850Y-53750
X129850Y-56250
X130850Y-51750
X130850Y-58250
X131850Y-53750
X131850Y-56250
X132850Y-51750
X132850Y-58250
X133850Y-53750
X133850Y-56250
X134850Y-51750
X134850Y-58250
X135850Y-53750
X135850Y-56250
X136850Y-51750
X136850Y-58250
X137850Y-53750
X137850Y-56250
X138850Y-51750
X138850Y-58250
X139850Y-53750
X139850Y-56250
X140850Y-51750
X140850Y-58250
X141850Y-53750
X141850Y-56250
X142850Y-51750
X142850Y-58250
X143850Y-53750
X143850Y-56250
X144850Y-51750
X144850Y-58250
X145850Y-53750
X145850Y-56250
X146850Y-51750
X146850Y-58250
X147850Y-53750
X147850Y-56250
X148850Y-51750
X148850Y-58250
X149850Y-53750
X149850Y-56250
X150850Y-51750
X150850Y-58250
X151850Y-53750
X151850Y-56250
X152850Y-51750
X152850Y-58250
X153850Y-53750
X153850Y-56250
X154850Y-51750
X154850Y-58250
X155850Y-53750
X155850Y-56250
X156850Y-51750
X156850Y-58250
X157850Y-53750
X157850Y-56250
X158850Y-51750
X158850Y-58250
X159850Y-53750
X159850Y-56250
X160850Y-51750
X160850Y-58250
X77850Y-128750
X77850Y-131250
X78850Y-126750
X78850Y-133250
X79850Y-128750
X79850Y-131250
X80850Y-126750
X80850Y-133250
X81850Y-128750
X81850Y-131250
X82850Y-126750
X82850Y-133250
X83850Y-128750
X83850Y-131250
X84850Y-126750
X84850Y-133250
X85850Y-128750
X85850Y-131250
X86850Y-126750
X86850Y-133250
X87850Y-128750
X87850Y-131250
X90850Y-126750
X90850Y-133250
X91850Y-128750
X91850Y-131250
X92850Y-126750
X92850Y-133250
X93850Y-128750
X93850Y-131250
X94850Y-126750
X94850Y-133250
X95850Y-128750
X95850Y-131250
X96850Y-126750
X96850Y-133250
X97850Y-128750
X97850Y-131250
X98850Y-126750
X98850Y-133250
X99850Y-128750
X99850Y-131250
X100850Y-126750
X100850Y-133250
X101850Y-128750
X101850Y-131250
X102850Y-126750
X102850Y-133250
X103850Y-128750
X103850Y-131250
X104850Y-126750
X104850Y-133250
X105850Y-128750
X105850Y-131250
X106850Y-126750
X106850Y-133250
X107850Y-128750
X107850Y-131250
X108850Y-126750
X108850Y-133250
X109850Y-128750
X109850Y-131250
X110850Y-126750
X110850Y-133250
X111850Y-128750
X111850Y-131250
X112850Y-126750
X112850Y-133250
X113850Y-128750
X113850Y-131250
X114850Y-126750
X114850Y-133250
X115850Y-128750
X115850Y-131250
X116850Y-126750
X116850Y-133250
X117850Y-128750
X117850Y-131250
X118850Y-126750
X118850Y-133250
X119850Y-128750
X119850Y-131250
X120850Y-126750
X120850Y-133250
X121850Y-128750
X121850Y-131250
X122850Y-126750
X122850Y-133250
X123850Y-128750
X123850Y-131250
X124850Y-126750
X124850Y-133250
X125850Y-128750
X125850Y-131250
X126850Y-126750
X126850Y-133250
X127850Y-128750
X127850Y-131250
X128850Y-126750
X128850Y-133250
X129850Y-128750
X129850Y-131250
X130850Y-126750
X130850Y-133250
X131850Y-128750
X131850Y-131250
X132850Y-126750
X132850Y-133250
X133850Y-128750
X133850Y-131250
X134850Y-126750
X134850Y-133250
X135850Y-128750
X135850Y-131250
X136850Y-126750
X136850Y-133250
X137850Y-128750
X137850Y-131250
X138850Y-126750
X138850Y-133250
X139850Y-128750
X139850Y-131250
X140850Y-126750
X140850Y-133250
X141850Y-128750
X141850Y-131250
X142850Y-126750
X142850Y-133250
X143850Y-128750
X143850Y-131250
X144850Y-126750
X144850Y-133250
X145850Y-128750
X145850Y-131250
X146850Y-126750
X146850Y-133250
X147850Y-128750
X147850Y-131250
X148850Y-126750
X148850Y-133250
X149850Y-128750
X149850Y-131250
X150850Y-126750
X150850Y-133250
X151850Y-128750
X151850Y-131250
X152850Y-126750
X152850Y-133250
X153850Y-128750
X153850Y-131250
X154850Y-126750
X154850Y-133250
X155850Y-128750
X155850Y-131250
X156850Y-126750
X156850Y-133250
X157850Y-128750
X157850Y-131250
X158850Y-126750
X158850Y-133250
X159850Y-128750
X159850Y-131250
X160850Y-126750
X160850Y-133250
X77850Y-28750
X77850Y-31250
X78850Y-26750
X78850Y-33250
X79850Y-28750
X79850Y-31250
X80850Y-26750
X80850Y-33250
X81850Y-28750
X81850Y-31250
X82850Y-26750
X82850Y-33250
X83850Y-28750
X83850Y-31250
X84850Y-26750
X84850Y-33250
X85850Y-28750
X85850Y-31250
X86850Y-26750
X86850Y-33250
X87850Y-28750
X87850Y-31250
X90850Y-26750
X90850Y-33250
X91850Y-28750
X91850Y-31250
X92850Y-26750
X92850Y-33250
X93850Y-28750
X93850Y-31250
X94850Y-26750
X94850Y-33250
X95850Y-28750
X95850Y-31250
X96850Y-26750
X96850Y-33250
X97850Y-28750
X97850Y-31250
X98850Y-26750
X98850Y-33250
X99850Y-28750
X99850Y-31250
X100850Y-26750
X100850Y-33250
X101850Y-28750
X101850Y-31250
X102850Y-26750
X102850Y-33250
X103850Y-28750
X103850Y-31250
X104850Y-26750
X104850Y-33250
X105850Y-28750
X105850Y-31250
X106850Y-26750
X106850Y-33250
X107850Y-28750
X107850Y-31250
X108850Y-26750
X108850Y-33250
X109850Y-28750
X109850Y-31250
X110850Y-26750
X110850Y-33250
X111850Y-28750
X111850Y-31250
X112850Y-26750
X112850Y-33250
X113850Y-28750
X113850Y-31250
X114850Y-26750
X114850Y-33250
X115850Y-28750
X115850Y-31250
X116850Y-26750
X116850Y-33250
X117850Y-28750
X117850Y-31250
X118850Y-26750
X118850Y-33250
X119850Y-28750
X119850Y-31250
X120850Y-26750
X120850Y-33250
X121850Y-28750
X121850Y-31250
X122850Y-26750
X122850Y-33250
X123850Y-28750
X123850Y-31250
X124850Y-26750
X124850Y-33250
X125850Y-28750
X125850Y-31250
X126850Y-26750
X126850Y-33250
X127850Y-28750
X127850Y-31250
X128850Y-26750
X128850Y-33250
X129850Y-28750
X129850Y-31250
X130850Y-26750
X130850Y-33250
X131850Y-28750
X131850Y-31250
X132850Y-26750
X132850Y-33250
X133850Y-28750
X133850Y-31250
X134850Y-26750
X134850Y-33250
X135850Y-28750
X135850Y-31250
X136850Y-26750
X136850Y-33250
X137850Y-28750
X137850Y-31250
X138850Y-26750
X138850Y-33250
X139850Y-28750
X139850Y-31250
X140850Y-26750
X140850Y-33250
X141850Y-28750
X141850Y-31250
X142850Y-26750
X142850Y-33250
X143850Y-28750
X143850Y-31250
X144850Y-26750
X144850Y-33250
X145850Y-28750
X145850Y-31250
X146850Y-26750
X146850Y-33250
X147850Y-28750
X147850Y-31250
X148850Y-26750
X148850Y-33250
X149850Y-28750
X149850Y-31250
X150850Y-26750
X150850Y-33250
X151850Y-28750
X151850Y-31250
X152850Y-26750
X152850Y-33250
X153850Y-28750
X153850Y-31250
X154850Y-26750
X154850Y-33250
X155850Y-28750
X155850Y-31250
X156850Y-26750
X156850Y-33250
X157850Y-28750
X157850Y-31250
X158850Y-26750
X158850Y-33250
X159850Y-28750
X159850Y-31250
X160850Y-26750
X160850Y-33250
X77850Y-103750
X77850Y-106250
X78850Y-101750
X78850Y-108250
X79850Y-103750
X79850Y-106250
X80850Y-101750
X80850Y-108250
X81850Y-103750
X81850Y-106250
X82850Y-101750
X82850Y-108250
X83850Y-103750
X83850Y-106250
X84850Y-101750
X84850Y-108250
X85850Y-103750
X85850Y-106250
X86850Y-101750
X86850Y-108250
X87850Y-103750
X87850Y-106250
X90850Y-101750
X90850Y-108250
X91850Y-103750
X91850Y-106250
X92850Y-101750
X92850Y-108250
X93850Y-103750
X93850Y-106250
X94850Y-101750
X94850Y-108250
X95850Y-103750
X95850Y-106250
X96850Y-101750
X96850Y-108250
X97850Y-103750
X97850Y-106250
X98850Y-101750
X98850Y-108250
X99850Y-103750
X99850Y-106250
X100850Y-101750
X100850Y-108250
X101850Y-103750
X101850Y-106250
X102850Y-101750
X102850Y-108250
X103850Y-103750
X103850Y-106250
X104850Y-101750
X104850Y-108250
X105850Y-103750
X105850Y-106250
X106850Y-101750
X106850Y-108250
X107850Y-103750
X107850Y-106250
X108850Y-101750
X108850Y-108250
X109850Y-103750
X109850Y-106250
X110850Y-101750
X110850Y-108250
X111850Y-103750
X111850Y-106250
X112850Y-101750
X112850Y-108250
X113850Y-103750
X113850Y-106250
X114850Y-101750
X114850Y-108250
X115850Y-103750
X115850Y-106250
X116850Y-101750
X116850Y-108250
X117850Y-103750
X117850Y-106250
X118850Y-101750
X118850Y-108250
X119850Y-103750
X119850Y-106250
X120850Y-101750
X120850Y-108250
X121850Y-103750
X121850Y-106250
X122850Y-101750
X122850Y-108250
X123850Y-103750
X123850Y-106250
X124850Y-101750
X124850Y-108250
X125850Y-103750
X125850Y-106250
X126850Y-101750
X126850Y-108250
X127850Y-103750
X127850Y-106250
X128850Y-101750
X128850Y-108250
X129850Y-103750
X129850Y-106250
X130850Y-101750
X130850Y-108250
X131850Y-103750
X131850Y-106250
X132850Y-101750
X132850Y-108250
X133850Y-103750
X133850Y-106250
X134850Y-101750
X134850Y-108250
X135850Y-103750
X135850Y-106250
X136850Y-101750
X136850Y-108250
X137850Y-103750
X137850Y-106250
X138850Y-101750
X138850Y-108250
X139850Y-103750
X139850Y-106250
X140850Y-101750
X140850Y-108250
X141850Y-103750
X141850Y-106250
X142850Y-101750
X142850Y-108250
X143850Y-103750
X143850Y-106250
X144850Y-101750
X144850Y-108250
X145850Y-103750
X145850Y-106250
X146850Y-101750
X146850Y-108250
X147850Y-103750
X147850Y-106250
X148850Y-101750
X148850Y-108250
X149850Y-103750
X149850Y-106250
X150850Y-101750
X150850Y-108250
X151850Y-103750
X151850Y-106250
X152850Y-101750
X152850Y-108250
X153850Y-103750
X153850Y-106250
X154850Y-101750
X154850Y-108250
X155850Y-103750
X155850Y-106250
X156850Y-101750
X156850Y-108250
X157850Y-103750
X157850Y-106250
X158850Y-101750
X158850Y-108250
X159850Y-103750
X159850Y-106250
X160850Y-101750
X160850Y-108250
X77850Y-153750
X77850Y-156250
X78850Y-151750
X78850Y-158250
X79850Y-153750
X79850Y-156250
X80850Y-151750
X80850Y-158250
X81850Y-153750
X81850Y-156250
X82850Y-151750
X82850Y-158250
X83850Y-153750
X83850Y-156250
X84850Y-151750
X84850Y-158250
X85850Y-153750
X85850Y-156250
X86850Y-151750
X86850Y-158250
X87850Y-153750
X87850Y-156250
X90850Y-151750
X90850Y-158250
X91850Y-153750
X91850Y-156250
X92850Y-151750
X92850Y-158250
X93850Y-153750
X93850Y-156250
X94850Y-151750
X94850Y-158250
X95850Y-153750
X95850Y-156250
X96850Y-151750
X96850Y-158250
X97850Y-153750
X97850Y-156250
X98850Y-151750
X98850Y-158250
X99850Y-153750
X99850Y-156250
X100850Y-151750
X100850Y-158250
X101850Y-153750
X101850Y-156250
X102850Y-151750
X102850Y-158250
X103850Y-153750
X103850Y-156250
X104850Y-151750
X104850Y-158250
X105850Y-153750
X105850Y-156250
X106850Y-151750
X106850Y-158250
X107850Y-153750
X107850Y-156250
X108850Y-151750
X108850Y-158250
X109850Y-153750
X109850Y-156250
X110850Y-151750
X110850Y-158250
X111850Y-153750
X111850Y-156250
X112850Y-151750
X112850Y-158250
X113850Y-153750
X113850Y-156250
X114850Y-151750
X114850Y-158250
X115850Y-153750
X115850Y-156250
X116850Y-151750
X116850Y-158250
X117850Y-153750
X117850Y-156250
X118850Y-151750
X118850Y-158250
X119850Y-153750
X119850Y-156250
X120850Y-151750
X120850Y-158250
X121850Y-153750
X121850Y-156250
X122850Y-151750
X122850Y-158250
X123850Y-153750
X123850Y-156250
X124850Y-151750
X124850Y-158250
X125850Y-153750
X125850Y-156250
X126850Y-151750
X126850Y-158250
X127850Y-153750
X127850Y-156250
X128850Y-151750
X128850Y-158250
X129850Y-153750
X129850Y-156250
X130850Y-151750
X130850Y-158250
X131850Y-153750
X131850Y-156250
X132850Y-151750
X132850Y-158250
X133850Y-153750
X133850Y-156250
X134850Y-151750
X134850Y-158250
X135850Y-153750
X135850Y-156250
X136850Y-151750
X136850Y-158250
X137850Y-153750
X137850Y-156250
X138850Y-151750
X138850Y-158250
X139850Y-153750
X139850Y-156250
X140850Y-151750
X140850Y-158250
X141850Y-153750
X141850Y-156250
X142850Y-151750
X142850Y-158250
X143850Y-153750
X143850Y-156250
X144850Y-151750
X144850Y-158250
X145850Y-153750
X145850Y-156250
X146850Y-151750
X146850Y-158250
X147850Y-153750
X147850Y-156250
X148850Y-151750
X148850Y-158250
X149850Y-153750
X149850Y-156250
X150850Y-151750
X150850Y-158250
X151850Y-153750
X151850Y-156250
X152850Y-151750
X152850Y-158250
X153850Y-153750
X153850Y-156250
X154850Y-151750
X154850Y-158250
X155850Y-153750
X155850Y-156250
X156850Y-151750
X156850Y-158250
X157850Y-153750
X157850Y-156250
X158850Y-151750
X158850Y-158250
X159850Y-153750
X159850Y-156250
X160850Y-151750
X160850Y-158250
T4
X161000Y-179000
X163540Y-179000
T5
X77500Y-176000
X80040Y-176000
X82580Y-176000
X85120Y-176000
X87660Y-176000
X90200Y-176000
X92740Y-176000
X77420Y-15000
X79960Y-15000
X82500Y-15000
X85040Y-15000
X87580Y-15000
X90120Y-15000
X92660Y-15000
T6
X162500Y-40000
X162500Y-42540
X162500Y-45080
X162500Y-140000
X162500Y-142540
X162500Y-145080
X162500Y-89920
X162500Y-92460
X162500Y-95000
T7
X131500Y-115000
X131500Y-120000
X131500Y-140000
X131500Y-145000
X131000Y-165000
X131000Y-170000
X131500Y-15000
X131500Y-20000
X131500Y-40000
X131500Y-45000
X131500Y-65000
X131500Y-70000
X131500Y-90000
X131500Y-95000
T8
X130000Y-2500
X137200Y-2500
X130300Y-182500
X137500Y-182500
T0
M30
