G04 #@! TF.GenerationSoftware,KiCad,Pcbnew,(5.1.5)-3*
G04 #@! TF.CreationDate,2020-02-01T14:09:57+09:00*
G04 #@! TF.ProjectId,MotherBoard_PCIe,4d6f7468-6572-4426-9f61-72645f504349,rev?*
G04 #@! TF.SameCoordinates,Original*
G04 #@! TF.FileFunction,Legend,Top*
G04 #@! TF.FilePolarity,Positive*
%FSLAX46Y46*%
G04 Gerber Fmt 4.6, Leading zero omitted, Abs format (unit mm)*
G04 Created by KiCad (PCBNEW (5.1.5)-3) date 2020-02-01 14:09:57*
%MOMM*%
%LPD*%
G04 APERTURE LIST*
%ADD10C,0.150000*%
%ADD11C,0.450000*%
%ADD12C,0.050000*%
%ADD13C,0.120000*%
%ADD14C,0.200000*%
%ADD15C,0.254000*%
%ADD16O,2.132000X1.832000*%
%ADD17R,2.132000X1.832000*%
%ADD18C,0.100000*%
%ADD19R,5.902000X6.502000*%
%ADD20R,1.302000X2.302000*%
%ADD21C,2.502000*%
%ADD22R,2.502000X2.502000*%
%ADD23C,1.382000*%
%ADD24R,1.802000X1.802000*%
%ADD25O,1.802000X1.802000*%
%ADD26C,6.102000*%
%ADD27C,3.302000*%
%ADD28C,1.902000*%
%ADD29R,1.902000X1.902000*%
G04 APERTURE END LIST*
D10*
X136750000Y-169578571D02*
X136750000Y-168078571D01*
X137250000Y-169150000D01*
X137750000Y-168078571D01*
X137750000Y-169578571D01*
X138678571Y-169578571D02*
X138535714Y-169507142D01*
X138464285Y-169435714D01*
X138392857Y-169292857D01*
X138392857Y-168864285D01*
X138464285Y-168721428D01*
X138535714Y-168650000D01*
X138678571Y-168578571D01*
X138892857Y-168578571D01*
X139035714Y-168650000D01*
X139107142Y-168721428D01*
X139178571Y-168864285D01*
X139178571Y-169292857D01*
X139107142Y-169435714D01*
X139035714Y-169507142D01*
X138892857Y-169578571D01*
X138678571Y-169578571D01*
X139607142Y-168578571D02*
X140178571Y-168578571D01*
X139821428Y-168078571D02*
X139821428Y-169364285D01*
X139892857Y-169507142D01*
X140035714Y-169578571D01*
X140178571Y-169578571D01*
X140678571Y-169578571D02*
X140678571Y-168078571D01*
X141321428Y-169578571D02*
X141321428Y-168792857D01*
X141250000Y-168650000D01*
X141107142Y-168578571D01*
X140892857Y-168578571D01*
X140750000Y-168650000D01*
X140678571Y-168721428D01*
X142607142Y-169507142D02*
X142464285Y-169578571D01*
X142178571Y-169578571D01*
X142035714Y-169507142D01*
X141964285Y-169364285D01*
X141964285Y-168792857D01*
X142035714Y-168650000D01*
X142178571Y-168578571D01*
X142464285Y-168578571D01*
X142607142Y-168650000D01*
X142678571Y-168792857D01*
X142678571Y-168935714D01*
X141964285Y-169078571D01*
X143321428Y-169578571D02*
X143321428Y-168578571D01*
X143321428Y-168864285D02*
X143392857Y-168721428D01*
X143464285Y-168650000D01*
X143607142Y-168578571D01*
X143750000Y-168578571D01*
X144250000Y-169578571D02*
X144250000Y-168078571D01*
X144250000Y-168650000D02*
X144392857Y-168578571D01*
X144678571Y-168578571D01*
X144821428Y-168650000D01*
X144892857Y-168721428D01*
X144964285Y-168864285D01*
X144964285Y-169292857D01*
X144892857Y-169435714D01*
X144821428Y-169507142D01*
X144678571Y-169578571D01*
X144392857Y-169578571D01*
X144250000Y-169507142D01*
X145821428Y-169578571D02*
X145678571Y-169507142D01*
X145607142Y-169435714D01*
X145535714Y-169292857D01*
X145535714Y-168864285D01*
X145607142Y-168721428D01*
X145678571Y-168650000D01*
X145821428Y-168578571D01*
X146035714Y-168578571D01*
X146178571Y-168650000D01*
X146250000Y-168721428D01*
X146321428Y-168864285D01*
X146321428Y-169292857D01*
X146250000Y-169435714D01*
X146178571Y-169507142D01*
X146035714Y-169578571D01*
X145821428Y-169578571D01*
X147607142Y-169578571D02*
X147607142Y-168792857D01*
X147535714Y-168650000D01*
X147392857Y-168578571D01*
X147107142Y-168578571D01*
X146964285Y-168650000D01*
X147607142Y-169507142D02*
X147464285Y-169578571D01*
X147107142Y-169578571D01*
X146964285Y-169507142D01*
X146892857Y-169364285D01*
X146892857Y-169221428D01*
X146964285Y-169078571D01*
X147107142Y-169007142D01*
X147464285Y-169007142D01*
X147607142Y-168935714D01*
X148321428Y-169578571D02*
X148321428Y-168578571D01*
X148321428Y-168864285D02*
X148392857Y-168721428D01*
X148464285Y-168650000D01*
X148607142Y-168578571D01*
X148750000Y-168578571D01*
X149892857Y-169578571D02*
X149892857Y-168078571D01*
X149892857Y-169507142D02*
X149750000Y-169578571D01*
X149464285Y-169578571D01*
X149321428Y-169507142D01*
X149250000Y-169435714D01*
X149178571Y-169292857D01*
X149178571Y-168864285D01*
X149250000Y-168721428D01*
X149321428Y-168650000D01*
X149464285Y-168578571D01*
X149750000Y-168578571D01*
X149892857Y-168650000D01*
X151750000Y-169578571D02*
X151750000Y-168078571D01*
X152321428Y-168078571D01*
X152464285Y-168150000D01*
X152535714Y-168221428D01*
X152607142Y-168364285D01*
X152607142Y-168578571D01*
X152535714Y-168721428D01*
X152464285Y-168792857D01*
X152321428Y-168864285D01*
X151750000Y-168864285D01*
X154107142Y-169435714D02*
X154035714Y-169507142D01*
X153821428Y-169578571D01*
X153678571Y-169578571D01*
X153464285Y-169507142D01*
X153321428Y-169364285D01*
X153250000Y-169221428D01*
X153178571Y-168935714D01*
X153178571Y-168721428D01*
X153250000Y-168435714D01*
X153321428Y-168292857D01*
X153464285Y-168150000D01*
X153678571Y-168078571D01*
X153821428Y-168078571D01*
X154035714Y-168150000D01*
X154107142Y-168221428D01*
X154750000Y-169578571D02*
X154750000Y-168078571D01*
X156035714Y-169507142D02*
X155892857Y-169578571D01*
X155607142Y-169578571D01*
X155464285Y-169507142D01*
X155392857Y-169364285D01*
X155392857Y-168792857D01*
X155464285Y-168650000D01*
X155607142Y-168578571D01*
X155892857Y-168578571D01*
X156035714Y-168650000D01*
X156107142Y-168792857D01*
X156107142Y-168935714D01*
X155392857Y-169078571D01*
X157750000Y-169578571D02*
X158535714Y-168578571D01*
X157750000Y-168578571D02*
X158535714Y-169578571D01*
X159892857Y-169578571D02*
X159035714Y-169578571D01*
X159464285Y-169578571D02*
X159464285Y-168078571D01*
X159321428Y-168292857D01*
X159178571Y-168435714D01*
X159035714Y-168507142D01*
X161178571Y-168078571D02*
X160892857Y-168078571D01*
X160750000Y-168150000D01*
X160678571Y-168221428D01*
X160535714Y-168435714D01*
X160464285Y-168721428D01*
X160464285Y-169292857D01*
X160535714Y-169435714D01*
X160607142Y-169507142D01*
X160750000Y-169578571D01*
X161035714Y-169578571D01*
X161178571Y-169507142D01*
X161250000Y-169435714D01*
X161321428Y-169292857D01*
X161321428Y-168935714D01*
X161250000Y-168792857D01*
X161178571Y-168721428D01*
X161035714Y-168650000D01*
X160750000Y-168650000D01*
X160607142Y-168721428D01*
X160535714Y-168792857D01*
X160464285Y-168935714D01*
X141678571Y-171978571D02*
X141678571Y-170478571D01*
X142250000Y-170478571D01*
X142392857Y-170550000D01*
X142464285Y-170621428D01*
X142535714Y-170764285D01*
X142535714Y-170978571D01*
X142464285Y-171121428D01*
X142392857Y-171192857D01*
X142250000Y-171264285D01*
X141678571Y-171264285D01*
X143178571Y-171978571D02*
X143178571Y-170978571D01*
X143178571Y-171264285D02*
X143250000Y-171121428D01*
X143321428Y-171050000D01*
X143464285Y-170978571D01*
X143607142Y-170978571D01*
X144321428Y-171978571D02*
X144178571Y-171907142D01*
X144107142Y-171835714D01*
X144035714Y-171692857D01*
X144035714Y-171264285D01*
X144107142Y-171121428D01*
X144178571Y-171050000D01*
X144321428Y-170978571D01*
X144535714Y-170978571D01*
X144678571Y-171050000D01*
X144750000Y-171121428D01*
X144821428Y-171264285D01*
X144821428Y-171692857D01*
X144750000Y-171835714D01*
X144678571Y-171907142D01*
X144535714Y-171978571D01*
X144321428Y-171978571D01*
X145250000Y-170978571D02*
X145821428Y-170978571D01*
X145464285Y-170478571D02*
X145464285Y-171764285D01*
X145535714Y-171907142D01*
X145678571Y-171978571D01*
X145821428Y-171978571D01*
X146535714Y-171978571D02*
X146392857Y-171907142D01*
X146321428Y-171835714D01*
X146250000Y-171692857D01*
X146250000Y-171264285D01*
X146321428Y-171121428D01*
X146392857Y-171050000D01*
X146535714Y-170978571D01*
X146750000Y-170978571D01*
X146892857Y-171050000D01*
X146964285Y-171121428D01*
X147035714Y-171264285D01*
X147035714Y-171692857D01*
X146964285Y-171835714D01*
X146892857Y-171907142D01*
X146750000Y-171978571D01*
X146535714Y-171978571D01*
X147464285Y-170978571D02*
X148035714Y-170978571D01*
X147678571Y-170478571D02*
X147678571Y-171764285D01*
X147750000Y-171907142D01*
X147892857Y-171978571D01*
X148035714Y-171978571D01*
X148392857Y-170978571D02*
X148750000Y-171978571D01*
X149107142Y-170978571D02*
X148750000Y-171978571D01*
X148607142Y-172335714D01*
X148535714Y-172407142D01*
X148392857Y-172478571D01*
X149678571Y-170978571D02*
X149678571Y-172478571D01*
X149678571Y-171050000D02*
X149821428Y-170978571D01*
X150107142Y-170978571D01*
X150250000Y-171050000D01*
X150321428Y-171121428D01*
X150392857Y-171264285D01*
X150392857Y-171692857D01*
X150321428Y-171835714D01*
X150250000Y-171907142D01*
X150107142Y-171978571D01*
X149821428Y-171978571D01*
X149678571Y-171907142D01*
X151607142Y-171907142D02*
X151464285Y-171978571D01*
X151178571Y-171978571D01*
X151035714Y-171907142D01*
X150964285Y-171764285D01*
X150964285Y-171192857D01*
X151035714Y-171050000D01*
X151178571Y-170978571D01*
X151464285Y-170978571D01*
X151607142Y-171050000D01*
X151678571Y-171192857D01*
X151678571Y-171335714D01*
X150964285Y-171478571D01*
X154250000Y-171978571D02*
X153392857Y-171978571D01*
X153821428Y-171978571D02*
X153821428Y-170478571D01*
X153678571Y-170692857D01*
X153535714Y-170835714D01*
X153392857Y-170907142D01*
X154892857Y-171835714D02*
X154964285Y-171907142D01*
X154892857Y-171978571D01*
X154821428Y-171907142D01*
X154892857Y-171835714D01*
X154892857Y-171978571D01*
X156392857Y-171978571D02*
X155535714Y-171978571D01*
X155964285Y-171978571D02*
X155964285Y-170478571D01*
X155821428Y-170692857D01*
X155678571Y-170835714D01*
X155535714Y-170907142D01*
X139464285Y-176778571D02*
X139464285Y-175278571D01*
X139821428Y-175278571D01*
X140035714Y-175350000D01*
X140178571Y-175492857D01*
X140250000Y-175635714D01*
X140321428Y-175921428D01*
X140321428Y-176135714D01*
X140250000Y-176421428D01*
X140178571Y-176564285D01*
X140035714Y-176707142D01*
X139821428Y-176778571D01*
X139464285Y-176778571D01*
X141535714Y-176707142D02*
X141392857Y-176778571D01*
X141107142Y-176778571D01*
X140964285Y-176707142D01*
X140892857Y-176564285D01*
X140892857Y-175992857D01*
X140964285Y-175850000D01*
X141107142Y-175778571D01*
X141392857Y-175778571D01*
X141535714Y-175850000D01*
X141607142Y-175992857D01*
X141607142Y-176135714D01*
X140892857Y-176278571D01*
X142178571Y-176707142D02*
X142321428Y-176778571D01*
X142607142Y-176778571D01*
X142750000Y-176707142D01*
X142821428Y-176564285D01*
X142821428Y-176492857D01*
X142750000Y-176350000D01*
X142607142Y-176278571D01*
X142392857Y-176278571D01*
X142250000Y-176207142D01*
X142178571Y-176064285D01*
X142178571Y-175992857D01*
X142250000Y-175850000D01*
X142392857Y-175778571D01*
X142607142Y-175778571D01*
X142750000Y-175850000D01*
X143464285Y-176778571D02*
X143464285Y-175778571D01*
X143464285Y-175278571D02*
X143392857Y-175350000D01*
X143464285Y-175421428D01*
X143535714Y-175350000D01*
X143464285Y-175278571D01*
X143464285Y-175421428D01*
X144821428Y-175778571D02*
X144821428Y-176992857D01*
X144750000Y-177135714D01*
X144678571Y-177207142D01*
X144535714Y-177278571D01*
X144321428Y-177278571D01*
X144178571Y-177207142D01*
X144821428Y-176707142D02*
X144678571Y-176778571D01*
X144392857Y-176778571D01*
X144250000Y-176707142D01*
X144178571Y-176635714D01*
X144107142Y-176492857D01*
X144107142Y-176064285D01*
X144178571Y-175921428D01*
X144250000Y-175850000D01*
X144392857Y-175778571D01*
X144678571Y-175778571D01*
X144821428Y-175850000D01*
X145535714Y-175778571D02*
X145535714Y-176778571D01*
X145535714Y-175921428D02*
X145607142Y-175850000D01*
X145750000Y-175778571D01*
X145964285Y-175778571D01*
X146107142Y-175850000D01*
X146178571Y-175992857D01*
X146178571Y-176778571D01*
X147464285Y-176707142D02*
X147321428Y-176778571D01*
X147035714Y-176778571D01*
X146892857Y-176707142D01*
X146821428Y-176564285D01*
X146821428Y-175992857D01*
X146892857Y-175850000D01*
X147035714Y-175778571D01*
X147321428Y-175778571D01*
X147464285Y-175850000D01*
X147535714Y-175992857D01*
X147535714Y-176135714D01*
X146821428Y-176278571D01*
X148821428Y-176778571D02*
X148821428Y-175278571D01*
X148821428Y-176707142D02*
X148678571Y-176778571D01*
X148392857Y-176778571D01*
X148250000Y-176707142D01*
X148178571Y-176635714D01*
X148107142Y-176492857D01*
X148107142Y-176064285D01*
X148178571Y-175921428D01*
X148250000Y-175850000D01*
X148392857Y-175778571D01*
X148678571Y-175778571D01*
X148821428Y-175850000D01*
X150678571Y-176778571D02*
X150678571Y-175278571D01*
X150678571Y-175850000D02*
X150821428Y-175778571D01*
X151107142Y-175778571D01*
X151250000Y-175850000D01*
X151321428Y-175921428D01*
X151392857Y-176064285D01*
X151392857Y-176492857D01*
X151321428Y-176635714D01*
X151250000Y-176707142D01*
X151107142Y-176778571D01*
X150821428Y-176778571D01*
X150678571Y-176707142D01*
X151892857Y-175778571D02*
X152250000Y-176778571D01*
X152607142Y-175778571D02*
X152250000Y-176778571D01*
X152107142Y-177135714D01*
X152035714Y-177207142D01*
X151892857Y-177278571D01*
X154107142Y-175278571D02*
X154964285Y-175278571D01*
X154535714Y-176778571D02*
X154535714Y-175278571D01*
X155464285Y-176778571D02*
X155464285Y-175278571D01*
X156321428Y-176778571D01*
X156321428Y-175278571D01*
X157035714Y-176778571D02*
X157035714Y-175278571D01*
X157892857Y-176778571D02*
X157250000Y-175921428D01*
X157892857Y-175278571D02*
X157035714Y-176135714D01*
X158535714Y-176635714D02*
X158607142Y-176707142D01*
X158535714Y-176778571D01*
X158464285Y-176707142D01*
X158535714Y-176635714D01*
X158535714Y-176778571D01*
X89238095Y-167000000D02*
X89142857Y-166952380D01*
X89000000Y-166952380D01*
X88857142Y-167000000D01*
X88761904Y-167095238D01*
X88714285Y-167190476D01*
X88666666Y-167380952D01*
X88666666Y-167523809D01*
X88714285Y-167714285D01*
X88761904Y-167809523D01*
X88857142Y-167904761D01*
X89000000Y-167952380D01*
X89095238Y-167952380D01*
X89238095Y-167904761D01*
X89285714Y-167857142D01*
X89285714Y-167523809D01*
X89095238Y-167523809D01*
X89714285Y-167952380D02*
X89714285Y-166952380D01*
X90285714Y-167952380D01*
X90285714Y-166952380D01*
X90761904Y-167952380D02*
X90761904Y-166952380D01*
X91000000Y-166952380D01*
X91142857Y-167000000D01*
X91238095Y-167095238D01*
X91285714Y-167190476D01*
X91333333Y-167380952D01*
X91333333Y-167523809D01*
X91285714Y-167714285D01*
X91238095Y-167809523D01*
X91142857Y-167904761D01*
X91000000Y-167952380D01*
X90761904Y-167952380D01*
X94666666Y-182952380D02*
X95000000Y-183952380D01*
X95333333Y-182952380D01*
X96238095Y-183857142D02*
X96190476Y-183904761D01*
X96047619Y-183952380D01*
X95952380Y-183952380D01*
X95809523Y-183904761D01*
X95714285Y-183809523D01*
X95666666Y-183714285D01*
X95619047Y-183523809D01*
X95619047Y-183380952D01*
X95666666Y-183190476D01*
X95714285Y-183095238D01*
X95809523Y-183000000D01*
X95952380Y-182952380D01*
X96047619Y-182952380D01*
X96190476Y-183000000D01*
X96238095Y-183047619D01*
X97238095Y-183857142D02*
X97190476Y-183904761D01*
X97047619Y-183952380D01*
X96952380Y-183952380D01*
X96809523Y-183904761D01*
X96714285Y-183809523D01*
X96666666Y-183714285D01*
X96619047Y-183523809D01*
X96619047Y-183380952D01*
X96666666Y-183190476D01*
X96714285Y-183095238D01*
X96809523Y-183000000D01*
X96952380Y-182952380D01*
X97047619Y-182952380D01*
X97190476Y-183000000D01*
X97238095Y-183047619D01*
X143857142Y-181750000D02*
X143714285Y-181678571D01*
X143500000Y-181678571D01*
X143285714Y-181750000D01*
X143142857Y-181892857D01*
X143071428Y-182035714D01*
X143000000Y-182321428D01*
X143000000Y-182535714D01*
X143071428Y-182821428D01*
X143142857Y-182964285D01*
X143285714Y-183107142D01*
X143500000Y-183178571D01*
X143642857Y-183178571D01*
X143857142Y-183107142D01*
X143928571Y-183035714D01*
X143928571Y-182535714D01*
X143642857Y-182535714D01*
X144571428Y-183178571D02*
X144571428Y-181678571D01*
X145428571Y-183178571D01*
X145428571Y-181678571D01*
X146142857Y-183178571D02*
X146142857Y-181678571D01*
X146500000Y-181678571D01*
X146714285Y-181750000D01*
X146857142Y-181892857D01*
X146928571Y-182035714D01*
X147000000Y-182321428D01*
X147000000Y-182535714D01*
X146928571Y-182821428D01*
X146857142Y-182964285D01*
X146714285Y-183107142D01*
X146500000Y-183178571D01*
X146142857Y-183178571D01*
X121000000Y-181678571D02*
X121500000Y-183178571D01*
X122000000Y-181678571D01*
X123357142Y-183035714D02*
X123285714Y-183107142D01*
X123071428Y-183178571D01*
X122928571Y-183178571D01*
X122714285Y-183107142D01*
X122571428Y-182964285D01*
X122500000Y-182821428D01*
X122428571Y-182535714D01*
X122428571Y-182321428D01*
X122500000Y-182035714D01*
X122571428Y-181892857D01*
X122714285Y-181750000D01*
X122928571Y-181678571D01*
X123071428Y-181678571D01*
X123285714Y-181750000D01*
X123357142Y-181821428D01*
X124857142Y-183035714D02*
X124785714Y-183107142D01*
X124571428Y-183178571D01*
X124428571Y-183178571D01*
X124214285Y-183107142D01*
X124071428Y-182964285D01*
X124000000Y-182821428D01*
X123928571Y-182535714D01*
X123928571Y-182321428D01*
X124000000Y-182035714D01*
X124071428Y-181892857D01*
X124214285Y-181750000D01*
X124428571Y-181678571D01*
X124571428Y-181678571D01*
X124785714Y-181750000D01*
X124857142Y-181821428D01*
X116964285Y-1678571D02*
X117250000Y-1678571D01*
X117392857Y-1750000D01*
X117535714Y-1892857D01*
X117607142Y-2178571D01*
X117607142Y-2678571D01*
X117535714Y-2964285D01*
X117392857Y-3107142D01*
X117250000Y-3178571D01*
X116964285Y-3178571D01*
X116821428Y-3107142D01*
X116678571Y-2964285D01*
X116607142Y-2678571D01*
X116607142Y-2178571D01*
X116678571Y-1892857D01*
X116821428Y-1750000D01*
X116964285Y-1678571D01*
X118892857Y-2178571D02*
X118892857Y-3178571D01*
X118250000Y-2178571D02*
X118250000Y-2964285D01*
X118321428Y-3107142D01*
X118464285Y-3178571D01*
X118678571Y-3178571D01*
X118821428Y-3107142D01*
X118892857Y-3035714D01*
X119392857Y-2178571D02*
X119964285Y-2178571D01*
X119607142Y-1678571D02*
X119607142Y-2964285D01*
X119678571Y-3107142D01*
X119821428Y-3178571D01*
X119964285Y-3178571D01*
X120464285Y-2178571D02*
X120464285Y-3678571D01*
X120464285Y-2250000D02*
X120607142Y-2178571D01*
X120892857Y-2178571D01*
X121035714Y-2250000D01*
X121107142Y-2321428D01*
X121178571Y-2464285D01*
X121178571Y-2892857D01*
X121107142Y-3035714D01*
X121035714Y-3107142D01*
X120892857Y-3178571D01*
X120607142Y-3178571D01*
X120464285Y-3107142D01*
X122464285Y-2178571D02*
X122464285Y-3178571D01*
X121821428Y-2178571D02*
X121821428Y-2964285D01*
X121892857Y-3107142D01*
X122035714Y-3178571D01*
X122250000Y-3178571D01*
X122392857Y-3107142D01*
X122464285Y-3035714D01*
X122964285Y-2178571D02*
X123535714Y-2178571D01*
X123178571Y-1678571D02*
X123178571Y-2964285D01*
X123250000Y-3107142D01*
X123392857Y-3178571D01*
X123535714Y-3178571D01*
X131035714Y-190678571D02*
X131035714Y-189178571D01*
X131750000Y-189678571D02*
X131750000Y-190678571D01*
X131750000Y-189821428D02*
X131821428Y-189750000D01*
X131964285Y-189678571D01*
X132178571Y-189678571D01*
X132321428Y-189750000D01*
X132392857Y-189892857D01*
X132392857Y-190678571D01*
X133107142Y-189678571D02*
X133107142Y-191178571D01*
X133107142Y-189750000D02*
X133250000Y-189678571D01*
X133535714Y-189678571D01*
X133678571Y-189750000D01*
X133750000Y-189821428D01*
X133821428Y-189964285D01*
X133821428Y-190392857D01*
X133750000Y-190535714D01*
X133678571Y-190607142D01*
X133535714Y-190678571D01*
X133250000Y-190678571D01*
X133107142Y-190607142D01*
X135107142Y-189678571D02*
X135107142Y-190678571D01*
X134464285Y-189678571D02*
X134464285Y-190464285D01*
X134535714Y-190607142D01*
X134678571Y-190678571D01*
X134892857Y-190678571D01*
X135035714Y-190607142D01*
X135107142Y-190535714D01*
X135607142Y-189678571D02*
X136178571Y-189678571D01*
X135821428Y-189178571D02*
X135821428Y-190464285D01*
X135892857Y-190607142D01*
X136035714Y-190678571D01*
X136178571Y-190678571D01*
X80121428Y-183785714D02*
X80121428Y-183023809D01*
X80502380Y-183404761D02*
X79740476Y-183404761D01*
X79502380Y-182071428D02*
X79502380Y-182547619D01*
X79978571Y-182595238D01*
X79930952Y-182547619D01*
X79883333Y-182452380D01*
X79883333Y-182214285D01*
X79930952Y-182119047D01*
X79978571Y-182071428D01*
X80073809Y-182023809D01*
X80311904Y-182023809D01*
X80407142Y-182071428D01*
X80454761Y-182119047D01*
X80502380Y-182214285D01*
X80502380Y-182452380D01*
X80454761Y-182547619D01*
X80407142Y-182595238D01*
X79502380Y-181738095D02*
X80502380Y-181404761D01*
X79502380Y-181071428D01*
X81200000Y-183261904D02*
X81152380Y-183357142D01*
X81152380Y-183500000D01*
X81200000Y-183642857D01*
X81295238Y-183738095D01*
X81390476Y-183785714D01*
X81580952Y-183833333D01*
X81723809Y-183833333D01*
X81914285Y-183785714D01*
X82009523Y-183738095D01*
X82104761Y-183642857D01*
X82152380Y-183500000D01*
X82152380Y-183404761D01*
X82104761Y-183261904D01*
X82057142Y-183214285D01*
X81723809Y-183214285D01*
X81723809Y-183404761D01*
X82152380Y-182785714D02*
X81152380Y-182785714D01*
X82152380Y-182214285D01*
X81152380Y-182214285D01*
X82152380Y-181738095D02*
X81152380Y-181738095D01*
X81152380Y-181500000D01*
X81200000Y-181357142D01*
X81295238Y-181261904D01*
X81390476Y-181214285D01*
X81580952Y-181166666D01*
X81723809Y-181166666D01*
X81914285Y-181214285D01*
X82009523Y-181261904D01*
X82104761Y-181357142D01*
X82152380Y-181500000D01*
X82152380Y-181738095D01*
X83707142Y-183547619D02*
X83754761Y-183595238D01*
X83802380Y-183738095D01*
X83802380Y-183833333D01*
X83754761Y-183976190D01*
X83659523Y-184071428D01*
X83564285Y-184119047D01*
X83373809Y-184166666D01*
X83230952Y-184166666D01*
X83040476Y-184119047D01*
X82945238Y-184071428D01*
X82850000Y-183976190D01*
X82802380Y-183833333D01*
X82802380Y-183738095D01*
X82850000Y-183595238D01*
X82897619Y-183547619D01*
X83516666Y-183166666D02*
X83516666Y-182690476D01*
X83802380Y-183261904D02*
X82802380Y-182928571D01*
X83802380Y-182595238D01*
X83802380Y-182261904D02*
X82802380Y-182261904D01*
X83802380Y-181690476D01*
X82802380Y-181690476D01*
X83802380Y-180738095D02*
X83802380Y-181214285D01*
X82802380Y-181214285D01*
X85357142Y-183666666D02*
X85404761Y-183714285D01*
X85452380Y-183857142D01*
X85452380Y-183952380D01*
X85404761Y-184095238D01*
X85309523Y-184190476D01*
X85214285Y-184238095D01*
X85023809Y-184285714D01*
X84880952Y-184285714D01*
X84690476Y-184238095D01*
X84595238Y-184190476D01*
X84500000Y-184095238D01*
X84452380Y-183952380D01*
X84452380Y-183857142D01*
X84500000Y-183714285D01*
X84547619Y-183666666D01*
X85166666Y-183285714D02*
X85166666Y-182809523D01*
X85452380Y-183380952D02*
X84452380Y-183047619D01*
X85452380Y-182714285D01*
X85452380Y-182380952D02*
X84452380Y-182380952D01*
X85452380Y-181809523D01*
X84452380Y-181809523D01*
X85452380Y-181333333D02*
X84452380Y-181333333D01*
X84928571Y-181333333D02*
X84928571Y-180761904D01*
X85452380Y-180761904D02*
X84452380Y-180761904D01*
X87102380Y-184809523D02*
X86102380Y-184809523D01*
X86102380Y-184428571D01*
X86150000Y-184333333D01*
X86197619Y-184285714D01*
X86292857Y-184238095D01*
X86435714Y-184238095D01*
X86530952Y-184285714D01*
X86578571Y-184333333D01*
X86626190Y-184428571D01*
X86626190Y-184809523D01*
X87102380Y-183809523D02*
X86435714Y-183809523D01*
X86102380Y-183809523D02*
X86150000Y-183857142D01*
X86197619Y-183809523D01*
X86150000Y-183761904D01*
X86102380Y-183809523D01*
X86197619Y-183809523D01*
X86435714Y-183333333D02*
X87102380Y-183333333D01*
X86530952Y-183333333D02*
X86483333Y-183285714D01*
X86435714Y-183190476D01*
X86435714Y-183047619D01*
X86483333Y-182952380D01*
X86578571Y-182904761D01*
X87102380Y-182904761D01*
X87197619Y-182666666D02*
X87197619Y-181904761D01*
X86578571Y-181333333D02*
X86626190Y-181190476D01*
X86673809Y-181142857D01*
X86769047Y-181095238D01*
X86911904Y-181095238D01*
X87007142Y-181142857D01*
X87054761Y-181190476D01*
X87102380Y-181285714D01*
X87102380Y-181666666D01*
X86102380Y-181666666D01*
X86102380Y-181333333D01*
X86150000Y-181238095D01*
X86197619Y-181190476D01*
X86292857Y-181142857D01*
X86388095Y-181142857D01*
X86483333Y-181190476D01*
X86530952Y-181238095D01*
X86578571Y-181333333D01*
X86578571Y-181666666D01*
X86102380Y-180190476D02*
X86102380Y-180666666D01*
X86578571Y-180714285D01*
X86530952Y-180666666D01*
X86483333Y-180571428D01*
X86483333Y-180333333D01*
X86530952Y-180238095D01*
X86578571Y-180190476D01*
X86673809Y-180142857D01*
X86911904Y-180142857D01*
X87007142Y-180190476D01*
X87054761Y-180238095D01*
X87102380Y-180333333D01*
X87102380Y-180571428D01*
X87054761Y-180666666D01*
X87007142Y-180714285D01*
X88752380Y-184809523D02*
X87752380Y-184809523D01*
X87752380Y-184428571D01*
X87800000Y-184333333D01*
X87847619Y-184285714D01*
X87942857Y-184238095D01*
X88085714Y-184238095D01*
X88180952Y-184285714D01*
X88228571Y-184333333D01*
X88276190Y-184428571D01*
X88276190Y-184809523D01*
X88752380Y-183809523D02*
X88085714Y-183809523D01*
X87752380Y-183809523D02*
X87800000Y-183857142D01*
X87847619Y-183809523D01*
X87800000Y-183761904D01*
X87752380Y-183809523D01*
X87847619Y-183809523D01*
X88085714Y-183333333D02*
X88752380Y-183333333D01*
X88180952Y-183333333D02*
X88133333Y-183285714D01*
X88085714Y-183190476D01*
X88085714Y-183047619D01*
X88133333Y-182952380D01*
X88228571Y-182904761D01*
X88752380Y-182904761D01*
X88847619Y-182666666D02*
X88847619Y-181904761D01*
X88228571Y-181333333D02*
X88276190Y-181190476D01*
X88323809Y-181142857D01*
X88419047Y-181095238D01*
X88561904Y-181095238D01*
X88657142Y-181142857D01*
X88704761Y-181190476D01*
X88752380Y-181285714D01*
X88752380Y-181666666D01*
X87752380Y-181666666D01*
X87752380Y-181333333D01*
X87800000Y-181238095D01*
X87847619Y-181190476D01*
X87942857Y-181142857D01*
X88038095Y-181142857D01*
X88133333Y-181190476D01*
X88180952Y-181238095D01*
X88228571Y-181333333D01*
X88228571Y-181666666D01*
X87752380Y-180238095D02*
X87752380Y-180428571D01*
X87800000Y-180523809D01*
X87847619Y-180571428D01*
X87990476Y-180666666D01*
X88180952Y-180714285D01*
X88561904Y-180714285D01*
X88657142Y-180666666D01*
X88704761Y-180619047D01*
X88752380Y-180523809D01*
X88752380Y-180333333D01*
X88704761Y-180238095D01*
X88657142Y-180190476D01*
X88561904Y-180142857D01*
X88323809Y-180142857D01*
X88228571Y-180190476D01*
X88180952Y-180238095D01*
X88133333Y-180333333D01*
X88133333Y-180523809D01*
X88180952Y-180619047D01*
X88228571Y-180666666D01*
X88323809Y-180714285D01*
X90021428Y-184571428D02*
X90021428Y-183809523D01*
X90402380Y-184190476D02*
X89640476Y-184190476D01*
X89878571Y-183000000D02*
X89926190Y-182857142D01*
X89973809Y-182809523D01*
X90069047Y-182761904D01*
X90211904Y-182761904D01*
X90307142Y-182809523D01*
X90354761Y-182857142D01*
X90402380Y-182952380D01*
X90402380Y-183333333D01*
X89402380Y-183333333D01*
X89402380Y-183000000D01*
X89450000Y-182904761D01*
X89497619Y-182857142D01*
X89592857Y-182809523D01*
X89688095Y-182809523D01*
X89783333Y-182857142D01*
X89830952Y-182904761D01*
X89878571Y-183000000D01*
X89878571Y-183333333D01*
X90116666Y-182380952D02*
X90116666Y-181904761D01*
X90402380Y-182476190D02*
X89402380Y-182142857D01*
X90402380Y-181809523D01*
X89402380Y-181619047D02*
X89402380Y-181047619D01*
X90402380Y-181333333D02*
X89402380Y-181333333D01*
X89402380Y-180857142D02*
X89402380Y-180285714D01*
X90402380Y-180571428D02*
X89402380Y-180571428D01*
D11*
X145678571Y-187285714D02*
X144678571Y-187285714D01*
X144678571Y-188857142D02*
X144678571Y-185857142D01*
X146107142Y-185857142D01*
X147250000Y-188857142D02*
X147250000Y-186857142D01*
X147250000Y-187428571D02*
X147392857Y-187142857D01*
X147535714Y-187000000D01*
X147821428Y-186857142D01*
X148107142Y-186857142D01*
X149535714Y-188857142D02*
X149250000Y-188714285D01*
X149107142Y-188571428D01*
X148964285Y-188285714D01*
X148964285Y-187428571D01*
X149107142Y-187142857D01*
X149250000Y-187000000D01*
X149535714Y-186857142D01*
X149964285Y-186857142D01*
X150250000Y-187000000D01*
X150392857Y-187142857D01*
X150535714Y-187428571D01*
X150535714Y-188285714D01*
X150392857Y-188571428D01*
X150250000Y-188714285D01*
X149964285Y-188857142D01*
X149535714Y-188857142D01*
X151821428Y-186857142D02*
X151821428Y-188857142D01*
X151821428Y-187142857D02*
X151964285Y-187000000D01*
X152250000Y-186857142D01*
X152678571Y-186857142D01*
X152964285Y-187000000D01*
X153107142Y-187285714D01*
X153107142Y-188857142D01*
X154107142Y-186857142D02*
X155250000Y-186857142D01*
X154535714Y-185857142D02*
X154535714Y-188428571D01*
X154678571Y-188714285D01*
X154964285Y-188857142D01*
X155250000Y-188857142D01*
D12*
X75000000Y3000000D02*
X166000000Y3000000D01*
X75000000Y-193000000D02*
X75000000Y3000000D01*
X166000000Y-193000000D02*
X75000000Y-193000000D01*
X166000000Y3000000D02*
X166000000Y-193000000D01*
D13*
X160210000Y-45080000D02*
X159200000Y-45080000D01*
X160210000Y-40000000D02*
X160210000Y-45080000D01*
X159200000Y-40000000D02*
X160210000Y-40000000D01*
X159100000Y-46450000D02*
X159100000Y-38650000D01*
X165150000Y-46450000D02*
X159100000Y-46450000D01*
X165150000Y-38650000D02*
X165150000Y-46450000D01*
X159100000Y-38650000D02*
X165150000Y-38650000D01*
X162828733Y-175510000D02*
X163171267Y-175510000D01*
X162828733Y-174490000D02*
X163171267Y-174490000D01*
X101795000Y-182505000D02*
X101795000Y-181405000D01*
X101525000Y-182505000D02*
X101795000Y-182505000D01*
X101525000Y-184005000D02*
X101525000Y-182505000D01*
X108155000Y-182505000D02*
X108155000Y-179675000D01*
X108425000Y-182505000D02*
X108155000Y-182505000D01*
X108425000Y-184005000D02*
X108425000Y-182505000D01*
X99960000Y-180696078D02*
X99960000Y-180178922D01*
X98540000Y-180696078D02*
X98540000Y-180178922D01*
X110540000Y-181428922D02*
X110540000Y-181946078D01*
X111960000Y-181428922D02*
X111960000Y-181946078D01*
X160210000Y-95000000D02*
X159200000Y-95000000D01*
X160210000Y-89920000D02*
X160210000Y-95000000D01*
X159200000Y-89920000D02*
X160210000Y-89920000D01*
X159100000Y-96370000D02*
X159100000Y-88570000D01*
X165150000Y-96370000D02*
X159100000Y-96370000D01*
X165150000Y-88570000D02*
X165150000Y-96370000D01*
X159100000Y-88570000D02*
X165150000Y-88570000D01*
X159100000Y-138650000D02*
X165150000Y-138650000D01*
X165150000Y-138650000D02*
X165150000Y-146450000D01*
X165150000Y-146450000D02*
X159100000Y-146450000D01*
X159100000Y-146450000D02*
X159100000Y-138650000D01*
X159200000Y-140000000D02*
X160210000Y-140000000D01*
X160210000Y-140000000D02*
X160210000Y-145080000D01*
X160210000Y-145080000D02*
X159200000Y-145080000D01*
X131741422Y-173710000D02*
X132258578Y-173710000D01*
X131741422Y-172290000D02*
X132258578Y-172290000D01*
X131741422Y-162710000D02*
X132258578Y-162710000D01*
X131741422Y-161290000D02*
X132258578Y-161290000D01*
D14*
X74062330Y-128640000D02*
G75*
G03X74062330Y-128640000I-160330J0D01*
G01*
X74054060Y-128762000D02*
G75*
G03X74054060Y-128762000I-42060J0D01*
G01*
X164000000Y-126300000D02*
X164000000Y-133700000D01*
X75000000Y-126300000D02*
X75000000Y-133700000D01*
X74062330Y-153640000D02*
G75*
G03X74062330Y-153640000I-160330J0D01*
G01*
X74054060Y-153762000D02*
G75*
G03X74054060Y-153762000I-42060J0D01*
G01*
X164000000Y-151300000D02*
X164000000Y-158700000D01*
X75000000Y-151300000D02*
X75000000Y-158700000D01*
D13*
X93990000Y-16330000D02*
X93990000Y-13670000D01*
X78690000Y-16330000D02*
X93990000Y-16330000D01*
X78690000Y-13670000D02*
X93990000Y-13670000D01*
X78690000Y-16330000D02*
X78690000Y-13670000D01*
X77420000Y-16330000D02*
X76090000Y-16330000D01*
X76090000Y-16330000D02*
X76090000Y-15000000D01*
X76170000Y-177330000D02*
X76170000Y-176000000D01*
X77500000Y-177330000D02*
X76170000Y-177330000D01*
X78770000Y-177330000D02*
X78770000Y-174670000D01*
X78770000Y-174670000D02*
X94070000Y-174670000D01*
X78770000Y-177330000D02*
X94070000Y-177330000D01*
X94070000Y-177330000D02*
X94070000Y-174670000D01*
X141450000Y-950000D02*
X138600000Y1650000D01*
X138600000Y-6650000D02*
X141450000Y-4100000D01*
X125750000Y1650000D02*
X125750000Y-6650000D01*
X138600000Y1650000D02*
X125750000Y1650000D01*
X141450000Y-4100000D02*
X141450000Y-950000D01*
X125750000Y-6650000D02*
X138600000Y-6650000D01*
X126050000Y-186650000D02*
X138900000Y-186650000D01*
X141750000Y-184100000D02*
X141750000Y-180950000D01*
X138900000Y-178350000D02*
X126050000Y-178350000D01*
X126050000Y-178350000D02*
X126050000Y-186650000D01*
X138900000Y-186650000D02*
X141750000Y-184100000D01*
X141750000Y-180950000D02*
X138900000Y-178350000D01*
X160210000Y-180080000D02*
X160210000Y-180399000D01*
X160210000Y-177601000D02*
X160210000Y-177920000D01*
X163952713Y-180080961D02*
G75*
G02X160586670Y-180080000I-1682713J1080961D01*
G01*
X163952713Y-177919039D02*
G75*
G03X160586670Y-177920000I-1682713J-1080961D01*
G01*
X164513242Y-180080724D02*
G75*
G02X160210000Y-180398749I-2243242J1080724D01*
G01*
X164513242Y-177919276D02*
G75*
G03X160210000Y-177601251I-2243242J-1080724D01*
G01*
X131741422Y-12710000D02*
X132258578Y-12710000D01*
X131741422Y-11290000D02*
X132258578Y-11290000D01*
X131803922Y-23710000D02*
X132321078Y-23710000D01*
X131803922Y-22290000D02*
X132321078Y-22290000D01*
X131741422Y-37710000D02*
X132258578Y-37710000D01*
X131741422Y-36290000D02*
X132258578Y-36290000D01*
X131741422Y-48710000D02*
X132258578Y-48710000D01*
X131741422Y-47290000D02*
X132258578Y-47290000D01*
X131803922Y-62710000D02*
X132321078Y-62710000D01*
X131803922Y-61290000D02*
X132321078Y-61290000D01*
X131803922Y-73710000D02*
X132321078Y-73710000D01*
X131803922Y-72290000D02*
X132321078Y-72290000D01*
X131803922Y-87710000D02*
X132321078Y-87710000D01*
X131803922Y-86290000D02*
X132321078Y-86290000D01*
X131741422Y-98710000D02*
X132258578Y-98710000D01*
X131741422Y-97290000D02*
X132258578Y-97290000D01*
X131803922Y-112710000D02*
X132321078Y-112710000D01*
X131803922Y-111290000D02*
X132321078Y-111290000D01*
X131741422Y-123710000D02*
X132258578Y-123710000D01*
X131741422Y-122290000D02*
X132258578Y-122290000D01*
X131803922Y-137710000D02*
X132321078Y-137710000D01*
X131803922Y-136290000D02*
X132321078Y-136290000D01*
X131803922Y-148710000D02*
X132321078Y-148710000D01*
X131803922Y-147290000D02*
X132321078Y-147290000D01*
D14*
X74062330Y-28640000D02*
G75*
G03X74062330Y-28640000I-160330J0D01*
G01*
X74054060Y-28762000D02*
G75*
G03X74054060Y-28762000I-42060J0D01*
G01*
X164000000Y-26300000D02*
X164000000Y-33700000D01*
X75000000Y-26300000D02*
X75000000Y-33700000D01*
X74062330Y-53640000D02*
G75*
G03X74062330Y-53640000I-160330J0D01*
G01*
X74054060Y-53762000D02*
G75*
G03X74054060Y-53762000I-42060J0D01*
G01*
X164000000Y-51300000D02*
X164000000Y-58700000D01*
X75000000Y-51300000D02*
X75000000Y-58700000D01*
X74062330Y-78640000D02*
G75*
G03X74062330Y-78640000I-160330J0D01*
G01*
X74054060Y-78762000D02*
G75*
G03X74054060Y-78762000I-42060J0D01*
G01*
X164000000Y-76300000D02*
X164000000Y-83700000D01*
X75000000Y-76300000D02*
X75000000Y-83700000D01*
X74062330Y-103640000D02*
G75*
G03X74062330Y-103640000I-160330J0D01*
G01*
X74054060Y-103762000D02*
G75*
G03X74054060Y-103762000I-42060J0D01*
G01*
X164000000Y-101300000D02*
X164000000Y-108700000D01*
X75000000Y-101300000D02*
X75000000Y-108700000D01*
D10*
X156952380Y-43309523D02*
X157666666Y-43309523D01*
X157809523Y-43357142D01*
X157904761Y-43452380D01*
X157952380Y-43595238D01*
X157952380Y-43690476D01*
X157952380Y-42309523D02*
X157952380Y-42880952D01*
X157952380Y-42595238D02*
X156952380Y-42595238D01*
X157095238Y-42690476D01*
X157190476Y-42785714D01*
X157238095Y-42880952D01*
X156952380Y-41976190D02*
X156952380Y-41357142D01*
X157333333Y-41690476D01*
X157333333Y-41547619D01*
X157380952Y-41452380D01*
X157428571Y-41404761D01*
X157523809Y-41357142D01*
X157761904Y-41357142D01*
X157857142Y-41404761D01*
X157904761Y-41452380D01*
X157952380Y-41547619D01*
X157952380Y-41833333D01*
X157904761Y-41928571D01*
X157857142Y-41976190D01*
X162833333Y-174022380D02*
X162500000Y-173546190D01*
X162261904Y-174022380D02*
X162261904Y-173022380D01*
X162642857Y-173022380D01*
X162738095Y-173070000D01*
X162785714Y-173117619D01*
X162833333Y-173212857D01*
X162833333Y-173355714D01*
X162785714Y-173450952D01*
X162738095Y-173498571D01*
X162642857Y-173546190D01*
X162261904Y-173546190D01*
X163785714Y-174022380D02*
X163214285Y-174022380D01*
X163500000Y-174022380D02*
X163500000Y-173022380D01*
X163404761Y-173165238D01*
X163309523Y-173260476D01*
X163214285Y-173308095D01*
X108927380Y-185736904D02*
X109736904Y-185736904D01*
X109832142Y-185689285D01*
X109879761Y-185641666D01*
X109927380Y-185546428D01*
X109927380Y-185355952D01*
X109879761Y-185260714D01*
X109832142Y-185213095D01*
X109736904Y-185165476D01*
X108927380Y-185165476D01*
X109927380Y-184165476D02*
X109927380Y-184736904D01*
X109927380Y-184451190D02*
X108927380Y-184451190D01*
X109070238Y-184546428D01*
X109165476Y-184641666D01*
X109213095Y-184736904D01*
X104480952Y-191952380D02*
X103909523Y-191952380D01*
X104195238Y-191952380D02*
X104195238Y-190952380D01*
X104100000Y-191095238D01*
X104004761Y-191190476D01*
X103909523Y-191238095D01*
X104861904Y-191047619D02*
X104909523Y-191000000D01*
X105004761Y-190952380D01*
X105242857Y-190952380D01*
X105338095Y-191000000D01*
X105385714Y-191047619D01*
X105433333Y-191142857D01*
X105433333Y-191238095D01*
X105385714Y-191380952D01*
X104814285Y-191952380D01*
X105433333Y-191952380D01*
X105719047Y-190952380D02*
X106052380Y-191952380D01*
X106385714Y-190952380D01*
X97957142Y-181080357D02*
X98004761Y-181127976D01*
X98052380Y-181270833D01*
X98052380Y-181366071D01*
X98004761Y-181508928D01*
X97909523Y-181604166D01*
X97814285Y-181651785D01*
X97623809Y-181699404D01*
X97480952Y-181699404D01*
X97290476Y-181651785D01*
X97195238Y-181604166D01*
X97100000Y-181508928D01*
X97052380Y-181366071D01*
X97052380Y-181270833D01*
X97100000Y-181127976D01*
X97147619Y-181080357D01*
X97147619Y-180699404D02*
X97100000Y-180651785D01*
X97052380Y-180556547D01*
X97052380Y-180318452D01*
X97100000Y-180223214D01*
X97147619Y-180175595D01*
X97242857Y-180127976D01*
X97338095Y-180127976D01*
X97480952Y-180175595D01*
X98052380Y-180747023D01*
X98052380Y-180127976D01*
X97052380Y-179794642D02*
X97052380Y-179175595D01*
X97433333Y-179508928D01*
X97433333Y-179366071D01*
X97480952Y-179270833D01*
X97528571Y-179223214D01*
X97623809Y-179175595D01*
X97861904Y-179175595D01*
X97957142Y-179223214D01*
X98004761Y-179270833D01*
X98052380Y-179366071D01*
X98052380Y-179651785D01*
X98004761Y-179747023D01*
X97957142Y-179794642D01*
X113257142Y-182330357D02*
X113304761Y-182377976D01*
X113352380Y-182520833D01*
X113352380Y-182616071D01*
X113304761Y-182758928D01*
X113209523Y-182854166D01*
X113114285Y-182901785D01*
X112923809Y-182949404D01*
X112780952Y-182949404D01*
X112590476Y-182901785D01*
X112495238Y-182854166D01*
X112400000Y-182758928D01*
X112352380Y-182616071D01*
X112352380Y-182520833D01*
X112400000Y-182377976D01*
X112447619Y-182330357D01*
X112447619Y-181949404D02*
X112400000Y-181901785D01*
X112352380Y-181806547D01*
X112352380Y-181568452D01*
X112400000Y-181473214D01*
X112447619Y-181425595D01*
X112542857Y-181377976D01*
X112638095Y-181377976D01*
X112780952Y-181425595D01*
X113352380Y-181997023D01*
X113352380Y-181377976D01*
X112447619Y-180997023D02*
X112400000Y-180949404D01*
X112352380Y-180854166D01*
X112352380Y-180616071D01*
X112400000Y-180520833D01*
X112447619Y-180473214D01*
X112542857Y-180425595D01*
X112638095Y-180425595D01*
X112780952Y-180473214D01*
X113352380Y-181044642D01*
X113352380Y-180425595D01*
X156952380Y-93229523D02*
X157666666Y-93229523D01*
X157809523Y-93277142D01*
X157904761Y-93372380D01*
X157952380Y-93515238D01*
X157952380Y-93610476D01*
X157952380Y-92229523D02*
X157952380Y-92800952D01*
X157952380Y-92515238D02*
X156952380Y-92515238D01*
X157095238Y-92610476D01*
X157190476Y-92705714D01*
X157238095Y-92800952D01*
X157047619Y-91848571D02*
X157000000Y-91800952D01*
X156952380Y-91705714D01*
X156952380Y-91467619D01*
X157000000Y-91372380D01*
X157047619Y-91324761D01*
X157142857Y-91277142D01*
X157238095Y-91277142D01*
X157380952Y-91324761D01*
X157952380Y-91896190D01*
X157952380Y-91277142D01*
X156952380Y-143309523D02*
X157666666Y-143309523D01*
X157809523Y-143357142D01*
X157904761Y-143452380D01*
X157952380Y-143595238D01*
X157952380Y-143690476D01*
X157952380Y-142309523D02*
X157952380Y-142880952D01*
X157952380Y-142595238D02*
X156952380Y-142595238D01*
X157095238Y-142690476D01*
X157190476Y-142785714D01*
X157238095Y-142880952D01*
X157952380Y-141357142D02*
X157952380Y-141928571D01*
X157952380Y-141642857D02*
X156952380Y-141642857D01*
X157095238Y-141738095D01*
X157190476Y-141833333D01*
X157238095Y-141928571D01*
X131833333Y-175107142D02*
X131785714Y-175154761D01*
X131642857Y-175202380D01*
X131547619Y-175202380D01*
X131404761Y-175154761D01*
X131309523Y-175059523D01*
X131261904Y-174964285D01*
X131214285Y-174773809D01*
X131214285Y-174630952D01*
X131261904Y-174440476D01*
X131309523Y-174345238D01*
X131404761Y-174250000D01*
X131547619Y-174202380D01*
X131642857Y-174202380D01*
X131785714Y-174250000D01*
X131833333Y-174297619D01*
X132166666Y-174202380D02*
X132785714Y-174202380D01*
X132452380Y-174583333D01*
X132595238Y-174583333D01*
X132690476Y-174630952D01*
X132738095Y-174678571D01*
X132785714Y-174773809D01*
X132785714Y-175011904D01*
X132738095Y-175107142D01*
X132690476Y-175154761D01*
X132595238Y-175202380D01*
X132309523Y-175202380D01*
X132214285Y-175154761D01*
X132166666Y-175107142D01*
X131833333Y-160707142D02*
X131785714Y-160754761D01*
X131642857Y-160802380D01*
X131547619Y-160802380D01*
X131404761Y-160754761D01*
X131309523Y-160659523D01*
X131261904Y-160564285D01*
X131214285Y-160373809D01*
X131214285Y-160230952D01*
X131261904Y-160040476D01*
X131309523Y-159945238D01*
X131404761Y-159850000D01*
X131547619Y-159802380D01*
X131642857Y-159802380D01*
X131785714Y-159850000D01*
X131833333Y-159897619D01*
X132214285Y-159897619D02*
X132261904Y-159850000D01*
X132357142Y-159802380D01*
X132595238Y-159802380D01*
X132690476Y-159850000D01*
X132738095Y-159897619D01*
X132785714Y-159992857D01*
X132785714Y-160088095D01*
X132738095Y-160230952D01*
X132166666Y-160802380D01*
X132785714Y-160802380D01*
D15*
X114316666Y-129207523D02*
X114316666Y-130114666D01*
X114256190Y-130296095D01*
X114135238Y-130417047D01*
X113953809Y-130477523D01*
X113832857Y-130477523D01*
X115465714Y-129207523D02*
X115223809Y-129207523D01*
X115102857Y-129268000D01*
X115042380Y-129328476D01*
X114921428Y-129509904D01*
X114860952Y-129751809D01*
X114860952Y-130235619D01*
X114921428Y-130356571D01*
X114981904Y-130417047D01*
X115102857Y-130477523D01*
X115344761Y-130477523D01*
X115465714Y-130417047D01*
X115526190Y-130356571D01*
X115586666Y-130235619D01*
X115586666Y-129933238D01*
X115526190Y-129812285D01*
X115465714Y-129751809D01*
X115344761Y-129691333D01*
X115102857Y-129691333D01*
X114981904Y-129751809D01*
X114921428Y-129812285D01*
X114860952Y-129933238D01*
X114316666Y-154207523D02*
X114316666Y-155114666D01*
X114256190Y-155296095D01*
X114135238Y-155417047D01*
X113953809Y-155477523D01*
X113832857Y-155477523D01*
X115526190Y-154207523D02*
X114921428Y-154207523D01*
X114860952Y-154812285D01*
X114921428Y-154751809D01*
X115042380Y-154691333D01*
X115344761Y-154691333D01*
X115465714Y-154751809D01*
X115526190Y-154812285D01*
X115586666Y-154933238D01*
X115586666Y-155235619D01*
X115526190Y-155356571D01*
X115465714Y-155417047D01*
X115344761Y-155477523D01*
X115042380Y-155477523D01*
X114921428Y-155417047D01*
X114860952Y-155356571D01*
D10*
X74542380Y-15333333D02*
X75256666Y-15333333D01*
X75399523Y-15380952D01*
X75494761Y-15476190D01*
X75542380Y-15619047D01*
X75542380Y-15714285D01*
X74875714Y-14428571D02*
X75542380Y-14428571D01*
X74494761Y-14666666D02*
X75209047Y-14904761D01*
X75209047Y-14285714D01*
X74622380Y-176333333D02*
X75336666Y-176333333D01*
X75479523Y-176380952D01*
X75574761Y-176476190D01*
X75622380Y-176619047D01*
X75622380Y-176714285D01*
X74622380Y-175952380D02*
X74622380Y-175333333D01*
X75003333Y-175666666D01*
X75003333Y-175523809D01*
X75050952Y-175428571D01*
X75098571Y-175380952D01*
X75193809Y-175333333D01*
X75431904Y-175333333D01*
X75527142Y-175380952D01*
X75574761Y-175428571D01*
X75622380Y-175523809D01*
X75622380Y-175809523D01*
X75574761Y-175904761D01*
X75527142Y-175952380D01*
X133266666Y-7252380D02*
X133266666Y-7966666D01*
X133219047Y-8109523D01*
X133123809Y-8204761D01*
X132980952Y-8252380D01*
X132885714Y-8252380D01*
X133695238Y-7347619D02*
X133742857Y-7300000D01*
X133838095Y-7252380D01*
X134076190Y-7252380D01*
X134171428Y-7300000D01*
X134219047Y-7347619D01*
X134266666Y-7442857D01*
X134266666Y-7538095D01*
X134219047Y-7680952D01*
X133647619Y-8252380D01*
X134266666Y-8252380D01*
X129885714Y2747619D02*
X130552380Y1747619D01*
X130552380Y2747619D02*
X129885714Y1747619D01*
X130790476Y2747619D02*
X131361904Y2747619D01*
X131076190Y1747619D02*
X131076190Y2747619D01*
X132123809Y2747619D02*
X131933333Y2747619D01*
X131838095Y2700000D01*
X131790476Y2652380D01*
X131695238Y2509523D01*
X131647619Y2319047D01*
X131647619Y1938095D01*
X131695238Y1842857D01*
X131742857Y1795238D01*
X131838095Y1747619D01*
X132028571Y1747619D01*
X132123809Y1795238D01*
X132171428Y1842857D01*
X132219047Y1938095D01*
X132219047Y2176190D01*
X132171428Y2271428D01*
X132123809Y2319047D01*
X132028571Y2366666D01*
X131838095Y2366666D01*
X131742857Y2319047D01*
X131695238Y2271428D01*
X131647619Y2176190D01*
X132838095Y2747619D02*
X132933333Y2747619D01*
X133028571Y2700000D01*
X133076190Y2652380D01*
X133123809Y2557142D01*
X133171428Y2366666D01*
X133171428Y2128571D01*
X133123809Y1938095D01*
X133076190Y1842857D01*
X133028571Y1795238D01*
X132933333Y1747619D01*
X132838095Y1747619D01*
X132742857Y1795238D01*
X132695238Y1842857D01*
X132647619Y1938095D01*
X132600000Y2128571D01*
X132600000Y2366666D01*
X132647619Y2557142D01*
X132695238Y2652380D01*
X132742857Y2700000D01*
X132838095Y2747619D01*
X133600000Y1747619D02*
X133600000Y2747619D01*
X133980952Y2747619D01*
X134076190Y2700000D01*
X134123809Y2652380D01*
X134171428Y2557142D01*
X134171428Y2414285D01*
X134123809Y2319047D01*
X134076190Y2271428D01*
X133980952Y2223809D01*
X133600000Y2223809D01*
X134933333Y2271428D02*
X135076190Y2223809D01*
X135123809Y2176190D01*
X135171428Y2080952D01*
X135171428Y1938095D01*
X135123809Y1842857D01*
X135076190Y1795238D01*
X134980952Y1747619D01*
X134600000Y1747619D01*
X134600000Y2747619D01*
X134933333Y2747619D01*
X135028571Y2700000D01*
X135076190Y2652380D01*
X135123809Y2557142D01*
X135123809Y2461904D01*
X135076190Y2366666D01*
X135028571Y2319047D01*
X134933333Y2271428D01*
X134600000Y2271428D01*
X135600000Y2128571D02*
X136361904Y2128571D01*
X137171428Y2271428D02*
X136838095Y2271428D01*
X136838095Y1747619D02*
X136838095Y2747619D01*
X137314285Y2747619D01*
X133566666Y-187252380D02*
X133566666Y-187966666D01*
X133519047Y-188109523D01*
X133423809Y-188204761D01*
X133280952Y-188252380D01*
X133185714Y-188252380D01*
X134566666Y-188252380D02*
X133995238Y-188252380D01*
X134280952Y-188252380D02*
X134280952Y-187252380D01*
X134185714Y-187395238D01*
X134090476Y-187490476D01*
X133995238Y-187538095D01*
X130042857Y-176552380D02*
X130709523Y-177552380D01*
X130709523Y-176552380D02*
X130042857Y-177552380D01*
X130947619Y-176552380D02*
X131519047Y-176552380D01*
X131233333Y-177552380D02*
X131233333Y-176552380D01*
X132280952Y-176552380D02*
X132090476Y-176552380D01*
X131995238Y-176600000D01*
X131947619Y-176647619D01*
X131852380Y-176790476D01*
X131804761Y-176980952D01*
X131804761Y-177361904D01*
X131852380Y-177457142D01*
X131900000Y-177504761D01*
X131995238Y-177552380D01*
X132185714Y-177552380D01*
X132280952Y-177504761D01*
X132328571Y-177457142D01*
X132376190Y-177361904D01*
X132376190Y-177123809D01*
X132328571Y-177028571D01*
X132280952Y-176980952D01*
X132185714Y-176933333D01*
X131995238Y-176933333D01*
X131900000Y-176980952D01*
X131852380Y-177028571D01*
X131804761Y-177123809D01*
X132995238Y-176552380D02*
X133090476Y-176552380D01*
X133185714Y-176600000D01*
X133233333Y-176647619D01*
X133280952Y-176742857D01*
X133328571Y-176933333D01*
X133328571Y-177171428D01*
X133280952Y-177361904D01*
X133233333Y-177457142D01*
X133185714Y-177504761D01*
X133090476Y-177552380D01*
X132995238Y-177552380D01*
X132900000Y-177504761D01*
X132852380Y-177457142D01*
X132804761Y-177361904D01*
X132757142Y-177171428D01*
X132757142Y-176933333D01*
X132804761Y-176742857D01*
X132852380Y-176647619D01*
X132900000Y-176600000D01*
X132995238Y-176552380D01*
X133757142Y-177552380D02*
X133757142Y-176552380D01*
X134138095Y-176552380D01*
X134233333Y-176600000D01*
X134280952Y-176647619D01*
X134328571Y-176742857D01*
X134328571Y-176885714D01*
X134280952Y-176980952D01*
X134233333Y-177028571D01*
X134138095Y-177076190D01*
X133757142Y-177076190D01*
X135090476Y-177028571D02*
X135233333Y-177076190D01*
X135280952Y-177123809D01*
X135328571Y-177219047D01*
X135328571Y-177361904D01*
X135280952Y-177457142D01*
X135233333Y-177504761D01*
X135138095Y-177552380D01*
X134757142Y-177552380D01*
X134757142Y-176552380D01*
X135090476Y-176552380D01*
X135185714Y-176600000D01*
X135233333Y-176647619D01*
X135280952Y-176742857D01*
X135280952Y-176838095D01*
X135233333Y-176933333D01*
X135185714Y-176980952D01*
X135090476Y-177028571D01*
X134757142Y-177028571D01*
X135757142Y-177171428D02*
X136519047Y-177171428D01*
X136995238Y-177552380D02*
X136995238Y-176552380D01*
X137328571Y-177266666D01*
X137661904Y-176552380D01*
X137661904Y-177552380D01*
X159238095Y-183752380D02*
X159238095Y-182752380D01*
X159238095Y-183228571D02*
X159809523Y-183228571D01*
X159809523Y-183752380D02*
X159809523Y-182752380D01*
X160714285Y-183085714D02*
X160714285Y-183752380D01*
X160476190Y-182704761D02*
X160238095Y-183419047D01*
X160857142Y-183419047D01*
X159238095Y1247619D02*
X159238095Y2247619D01*
X159238095Y1771428D02*
X159809523Y1771428D01*
X159809523Y1247619D02*
X159809523Y2247619D01*
X160190476Y2247619D02*
X160809523Y2247619D01*
X160476190Y1866666D01*
X160619047Y1866666D01*
X160714285Y1819047D01*
X160761904Y1771428D01*
X160809523Y1676190D01*
X160809523Y1438095D01*
X160761904Y1342857D01*
X160714285Y1295238D01*
X160619047Y1247619D01*
X160333333Y1247619D01*
X160238095Y1295238D01*
X160190476Y1342857D01*
X85452380Y-188261904D02*
X84452380Y-188261904D01*
X84928571Y-188261904D02*
X84928571Y-187690476D01*
X85452380Y-187690476D02*
X84452380Y-187690476D01*
X84547619Y-187261904D02*
X84500000Y-187214285D01*
X84452380Y-187119047D01*
X84452380Y-186880952D01*
X84500000Y-186785714D01*
X84547619Y-186738095D01*
X84642857Y-186690476D01*
X84738095Y-186690476D01*
X84880952Y-186738095D01*
X85452380Y-187309523D01*
X85452380Y-186690476D01*
X79238095Y1247619D02*
X79238095Y2247619D01*
X79238095Y1771428D02*
X79809523Y1771428D01*
X79809523Y1247619D02*
X79809523Y2247619D01*
X80809523Y1247619D02*
X80238095Y1247619D01*
X80523809Y1247619D02*
X80523809Y2247619D01*
X80428571Y2104761D01*
X80333333Y2009523D01*
X80238095Y1961904D01*
X166252380Y-179738095D02*
X165252380Y-179738095D01*
X165252380Y-179500000D01*
X165300000Y-179357142D01*
X165395238Y-179261904D01*
X165490476Y-179214285D01*
X165680952Y-179166666D01*
X165823809Y-179166666D01*
X166014285Y-179214285D01*
X166109523Y-179261904D01*
X166204761Y-179357142D01*
X166252380Y-179500000D01*
X166252380Y-179738095D01*
X166252380Y-178214285D02*
X166252380Y-178785714D01*
X166252380Y-178500000D02*
X165252380Y-178500000D01*
X165395238Y-178595238D01*
X165490476Y-178690476D01*
X165538095Y-178785714D01*
X131357142Y-10707142D02*
X131309523Y-10754761D01*
X131166666Y-10802380D01*
X131071428Y-10802380D01*
X130928571Y-10754761D01*
X130833333Y-10659523D01*
X130785714Y-10564285D01*
X130738095Y-10373809D01*
X130738095Y-10230952D01*
X130785714Y-10040476D01*
X130833333Y-9945238D01*
X130928571Y-9850000D01*
X131071428Y-9802380D01*
X131166666Y-9802380D01*
X131309523Y-9850000D01*
X131357142Y-9897619D01*
X131738095Y-9897619D02*
X131785714Y-9850000D01*
X131880952Y-9802380D01*
X132119047Y-9802380D01*
X132214285Y-9850000D01*
X132261904Y-9897619D01*
X132309523Y-9992857D01*
X132309523Y-10088095D01*
X132261904Y-10230952D01*
X131690476Y-10802380D01*
X132309523Y-10802380D01*
X133261904Y-10802380D02*
X132690476Y-10802380D01*
X132976190Y-10802380D02*
X132976190Y-9802380D01*
X132880952Y-9945238D01*
X132785714Y-10040476D01*
X132690476Y-10088095D01*
X131419642Y-25107142D02*
X131372023Y-25154761D01*
X131229166Y-25202380D01*
X131133928Y-25202380D01*
X130991071Y-25154761D01*
X130895833Y-25059523D01*
X130848214Y-24964285D01*
X130800595Y-24773809D01*
X130800595Y-24630952D01*
X130848214Y-24440476D01*
X130895833Y-24345238D01*
X130991071Y-24250000D01*
X131133928Y-24202380D01*
X131229166Y-24202380D01*
X131372023Y-24250000D01*
X131419642Y-24297619D01*
X131800595Y-24297619D02*
X131848214Y-24250000D01*
X131943452Y-24202380D01*
X132181547Y-24202380D01*
X132276785Y-24250000D01*
X132324404Y-24297619D01*
X132372023Y-24392857D01*
X132372023Y-24488095D01*
X132324404Y-24630952D01*
X131752976Y-25202380D01*
X132372023Y-25202380D01*
X132991071Y-24202380D02*
X133086309Y-24202380D01*
X133181547Y-24250000D01*
X133229166Y-24297619D01*
X133276785Y-24392857D01*
X133324404Y-24583333D01*
X133324404Y-24821428D01*
X133276785Y-25011904D01*
X133229166Y-25107142D01*
X133181547Y-25154761D01*
X133086309Y-25202380D01*
X132991071Y-25202380D01*
X132895833Y-25154761D01*
X132848214Y-25107142D01*
X132800595Y-25011904D01*
X132752976Y-24821428D01*
X132752976Y-24583333D01*
X132800595Y-24392857D01*
X132848214Y-24297619D01*
X132895833Y-24250000D01*
X132991071Y-24202380D01*
X131357142Y-35707142D02*
X131309523Y-35754761D01*
X131166666Y-35802380D01*
X131071428Y-35802380D01*
X130928571Y-35754761D01*
X130833333Y-35659523D01*
X130785714Y-35564285D01*
X130738095Y-35373809D01*
X130738095Y-35230952D01*
X130785714Y-35040476D01*
X130833333Y-34945238D01*
X130928571Y-34850000D01*
X131071428Y-34802380D01*
X131166666Y-34802380D01*
X131309523Y-34850000D01*
X131357142Y-34897619D01*
X132309523Y-35802380D02*
X131738095Y-35802380D01*
X132023809Y-35802380D02*
X132023809Y-34802380D01*
X131928571Y-34945238D01*
X131833333Y-35040476D01*
X131738095Y-35088095D01*
X132880952Y-35230952D02*
X132785714Y-35183333D01*
X132738095Y-35135714D01*
X132690476Y-35040476D01*
X132690476Y-34992857D01*
X132738095Y-34897619D01*
X132785714Y-34850000D01*
X132880952Y-34802380D01*
X133071428Y-34802380D01*
X133166666Y-34850000D01*
X133214285Y-34897619D01*
X133261904Y-34992857D01*
X133261904Y-35040476D01*
X133214285Y-35135714D01*
X133166666Y-35183333D01*
X133071428Y-35230952D01*
X132880952Y-35230952D01*
X132785714Y-35278571D01*
X132738095Y-35326190D01*
X132690476Y-35421428D01*
X132690476Y-35611904D01*
X132738095Y-35707142D01*
X132785714Y-35754761D01*
X132880952Y-35802380D01*
X133071428Y-35802380D01*
X133166666Y-35754761D01*
X133214285Y-35707142D01*
X133261904Y-35611904D01*
X133261904Y-35421428D01*
X133214285Y-35326190D01*
X133166666Y-35278571D01*
X133071428Y-35230952D01*
X131357142Y-50107142D02*
X131309523Y-50154761D01*
X131166666Y-50202380D01*
X131071428Y-50202380D01*
X130928571Y-50154761D01*
X130833333Y-50059523D01*
X130785714Y-49964285D01*
X130738095Y-49773809D01*
X130738095Y-49630952D01*
X130785714Y-49440476D01*
X130833333Y-49345238D01*
X130928571Y-49250000D01*
X131071428Y-49202380D01*
X131166666Y-49202380D01*
X131309523Y-49250000D01*
X131357142Y-49297619D01*
X132309523Y-50202380D02*
X131738095Y-50202380D01*
X132023809Y-50202380D02*
X132023809Y-49202380D01*
X131928571Y-49345238D01*
X131833333Y-49440476D01*
X131738095Y-49488095D01*
X132642857Y-49202380D02*
X133309523Y-49202380D01*
X132880952Y-50202380D01*
X131419642Y-60707142D02*
X131372023Y-60754761D01*
X131229166Y-60802380D01*
X131133928Y-60802380D01*
X130991071Y-60754761D01*
X130895833Y-60659523D01*
X130848214Y-60564285D01*
X130800595Y-60373809D01*
X130800595Y-60230952D01*
X130848214Y-60040476D01*
X130895833Y-59945238D01*
X130991071Y-59850000D01*
X131133928Y-59802380D01*
X131229166Y-59802380D01*
X131372023Y-59850000D01*
X131419642Y-59897619D01*
X132372023Y-60802380D02*
X131800595Y-60802380D01*
X132086309Y-60802380D02*
X132086309Y-59802380D01*
X131991071Y-59945238D01*
X131895833Y-60040476D01*
X131800595Y-60088095D01*
X133276785Y-59802380D02*
X132800595Y-59802380D01*
X132752976Y-60278571D01*
X132800595Y-60230952D01*
X132895833Y-60183333D01*
X133133928Y-60183333D01*
X133229166Y-60230952D01*
X133276785Y-60278571D01*
X133324404Y-60373809D01*
X133324404Y-60611904D01*
X133276785Y-60707142D01*
X133229166Y-60754761D01*
X133133928Y-60802380D01*
X132895833Y-60802380D01*
X132800595Y-60754761D01*
X132752976Y-60707142D01*
X131419642Y-75107142D02*
X131372023Y-75154761D01*
X131229166Y-75202380D01*
X131133928Y-75202380D01*
X130991071Y-75154761D01*
X130895833Y-75059523D01*
X130848214Y-74964285D01*
X130800595Y-74773809D01*
X130800595Y-74630952D01*
X130848214Y-74440476D01*
X130895833Y-74345238D01*
X130991071Y-74250000D01*
X131133928Y-74202380D01*
X131229166Y-74202380D01*
X131372023Y-74250000D01*
X131419642Y-74297619D01*
X132372023Y-75202380D02*
X131800595Y-75202380D01*
X132086309Y-75202380D02*
X132086309Y-74202380D01*
X131991071Y-74345238D01*
X131895833Y-74440476D01*
X131800595Y-74488095D01*
X133229166Y-74535714D02*
X133229166Y-75202380D01*
X132991071Y-74154761D02*
X132752976Y-74869047D01*
X133372023Y-74869047D01*
X131419642Y-85707142D02*
X131372023Y-85754761D01*
X131229166Y-85802380D01*
X131133928Y-85802380D01*
X130991071Y-85754761D01*
X130895833Y-85659523D01*
X130848214Y-85564285D01*
X130800595Y-85373809D01*
X130800595Y-85230952D01*
X130848214Y-85040476D01*
X130895833Y-84945238D01*
X130991071Y-84850000D01*
X131133928Y-84802380D01*
X131229166Y-84802380D01*
X131372023Y-84850000D01*
X131419642Y-84897619D01*
X132372023Y-85802380D02*
X131800595Y-85802380D01*
X132086309Y-85802380D02*
X132086309Y-84802380D01*
X131991071Y-84945238D01*
X131895833Y-85040476D01*
X131800595Y-85088095D01*
X132752976Y-84897619D02*
X132800595Y-84850000D01*
X132895833Y-84802380D01*
X133133928Y-84802380D01*
X133229166Y-84850000D01*
X133276785Y-84897619D01*
X133324404Y-84992857D01*
X133324404Y-85088095D01*
X133276785Y-85230952D01*
X132705357Y-85802380D01*
X133324404Y-85802380D01*
X131357142Y-100107142D02*
X131309523Y-100154761D01*
X131166666Y-100202380D01*
X131071428Y-100202380D01*
X130928571Y-100154761D01*
X130833333Y-100059523D01*
X130785714Y-99964285D01*
X130738095Y-99773809D01*
X130738095Y-99630952D01*
X130785714Y-99440476D01*
X130833333Y-99345238D01*
X130928571Y-99250000D01*
X131071428Y-99202380D01*
X131166666Y-99202380D01*
X131309523Y-99250000D01*
X131357142Y-99297619D01*
X132309523Y-100202380D02*
X131738095Y-100202380D01*
X132023809Y-100202380D02*
X132023809Y-99202380D01*
X131928571Y-99345238D01*
X131833333Y-99440476D01*
X131738095Y-99488095D01*
X133261904Y-100202380D02*
X132690476Y-100202380D01*
X132976190Y-100202380D02*
X132976190Y-99202380D01*
X132880952Y-99345238D01*
X132785714Y-99440476D01*
X132690476Y-99488095D01*
X131895833Y-110707142D02*
X131848214Y-110754761D01*
X131705357Y-110802380D01*
X131610119Y-110802380D01*
X131467261Y-110754761D01*
X131372023Y-110659523D01*
X131324404Y-110564285D01*
X131276785Y-110373809D01*
X131276785Y-110230952D01*
X131324404Y-110040476D01*
X131372023Y-109945238D01*
X131467261Y-109850000D01*
X131610119Y-109802380D01*
X131705357Y-109802380D01*
X131848214Y-109850000D01*
X131895833Y-109897619D01*
X132372023Y-110802380D02*
X132562500Y-110802380D01*
X132657738Y-110754761D01*
X132705357Y-110707142D01*
X132800595Y-110564285D01*
X132848214Y-110373809D01*
X132848214Y-109992857D01*
X132800595Y-109897619D01*
X132752976Y-109850000D01*
X132657738Y-109802380D01*
X132467261Y-109802380D01*
X132372023Y-109850000D01*
X132324404Y-109897619D01*
X132276785Y-109992857D01*
X132276785Y-110230952D01*
X132324404Y-110326190D01*
X132372023Y-110373809D01*
X132467261Y-110421428D01*
X132657738Y-110421428D01*
X132752976Y-110373809D01*
X132800595Y-110326190D01*
X132848214Y-110230952D01*
X131833333Y-125107142D02*
X131785714Y-125154761D01*
X131642857Y-125202380D01*
X131547619Y-125202380D01*
X131404761Y-125154761D01*
X131309523Y-125059523D01*
X131261904Y-124964285D01*
X131214285Y-124773809D01*
X131214285Y-124630952D01*
X131261904Y-124440476D01*
X131309523Y-124345238D01*
X131404761Y-124250000D01*
X131547619Y-124202380D01*
X131642857Y-124202380D01*
X131785714Y-124250000D01*
X131833333Y-124297619D01*
X132404761Y-124630952D02*
X132309523Y-124583333D01*
X132261904Y-124535714D01*
X132214285Y-124440476D01*
X132214285Y-124392857D01*
X132261904Y-124297619D01*
X132309523Y-124250000D01*
X132404761Y-124202380D01*
X132595238Y-124202380D01*
X132690476Y-124250000D01*
X132738095Y-124297619D01*
X132785714Y-124392857D01*
X132785714Y-124440476D01*
X132738095Y-124535714D01*
X132690476Y-124583333D01*
X132595238Y-124630952D01*
X132404761Y-124630952D01*
X132309523Y-124678571D01*
X132261904Y-124726190D01*
X132214285Y-124821428D01*
X132214285Y-125011904D01*
X132261904Y-125107142D01*
X132309523Y-125154761D01*
X132404761Y-125202380D01*
X132595238Y-125202380D01*
X132690476Y-125154761D01*
X132738095Y-125107142D01*
X132785714Y-125011904D01*
X132785714Y-124821428D01*
X132738095Y-124726190D01*
X132690476Y-124678571D01*
X132595238Y-124630952D01*
X131895833Y-135707142D02*
X131848214Y-135754761D01*
X131705357Y-135802380D01*
X131610119Y-135802380D01*
X131467261Y-135754761D01*
X131372023Y-135659523D01*
X131324404Y-135564285D01*
X131276785Y-135373809D01*
X131276785Y-135230952D01*
X131324404Y-135040476D01*
X131372023Y-134945238D01*
X131467261Y-134850000D01*
X131610119Y-134802380D01*
X131705357Y-134802380D01*
X131848214Y-134850000D01*
X131895833Y-134897619D01*
X132752976Y-134802380D02*
X132562500Y-134802380D01*
X132467261Y-134850000D01*
X132419642Y-134897619D01*
X132324404Y-135040476D01*
X132276785Y-135230952D01*
X132276785Y-135611904D01*
X132324404Y-135707142D01*
X132372023Y-135754761D01*
X132467261Y-135802380D01*
X132657738Y-135802380D01*
X132752976Y-135754761D01*
X132800595Y-135707142D01*
X132848214Y-135611904D01*
X132848214Y-135373809D01*
X132800595Y-135278571D01*
X132752976Y-135230952D01*
X132657738Y-135183333D01*
X132467261Y-135183333D01*
X132372023Y-135230952D01*
X132324404Y-135278571D01*
X132276785Y-135373809D01*
X131895833Y-150107142D02*
X131848214Y-150154761D01*
X131705357Y-150202380D01*
X131610119Y-150202380D01*
X131467261Y-150154761D01*
X131372023Y-150059523D01*
X131324404Y-149964285D01*
X131276785Y-149773809D01*
X131276785Y-149630952D01*
X131324404Y-149440476D01*
X131372023Y-149345238D01*
X131467261Y-149250000D01*
X131610119Y-149202380D01*
X131705357Y-149202380D01*
X131848214Y-149250000D01*
X131895833Y-149297619D01*
X132800595Y-149202380D02*
X132324404Y-149202380D01*
X132276785Y-149678571D01*
X132324404Y-149630952D01*
X132419642Y-149583333D01*
X132657738Y-149583333D01*
X132752976Y-149630952D01*
X132800595Y-149678571D01*
X132848214Y-149773809D01*
X132848214Y-150011904D01*
X132800595Y-150107142D01*
X132752976Y-150154761D01*
X132657738Y-150202380D01*
X132419642Y-150202380D01*
X132324404Y-150154761D01*
X132276785Y-150107142D01*
D15*
X113711904Y-29207523D02*
X113711904Y-30114666D01*
X113651428Y-30296095D01*
X113530476Y-30417047D01*
X113349047Y-30477523D01*
X113228095Y-30477523D01*
X114981904Y-30477523D02*
X114256190Y-30477523D01*
X114619047Y-30477523D02*
X114619047Y-29207523D01*
X114498095Y-29388952D01*
X114377142Y-29509904D01*
X114256190Y-29570380D01*
X115768095Y-29207523D02*
X115889047Y-29207523D01*
X116010000Y-29268000D01*
X116070476Y-29328476D01*
X116130952Y-29449428D01*
X116191428Y-29691333D01*
X116191428Y-29993714D01*
X116130952Y-30235619D01*
X116070476Y-30356571D01*
X116010000Y-30417047D01*
X115889047Y-30477523D01*
X115768095Y-30477523D01*
X115647142Y-30417047D01*
X115586666Y-30356571D01*
X115526190Y-30235619D01*
X115465714Y-29993714D01*
X115465714Y-29691333D01*
X115526190Y-29449428D01*
X115586666Y-29328476D01*
X115647142Y-29268000D01*
X115768095Y-29207523D01*
X114316666Y-54207523D02*
X114316666Y-55114666D01*
X114256190Y-55296095D01*
X114135238Y-55417047D01*
X113953809Y-55477523D01*
X113832857Y-55477523D01*
X114981904Y-55477523D02*
X115223809Y-55477523D01*
X115344761Y-55417047D01*
X115405238Y-55356571D01*
X115526190Y-55175142D01*
X115586666Y-54933238D01*
X115586666Y-54449428D01*
X115526190Y-54328476D01*
X115465714Y-54268000D01*
X115344761Y-54207523D01*
X115102857Y-54207523D01*
X114981904Y-54268000D01*
X114921428Y-54328476D01*
X114860952Y-54449428D01*
X114860952Y-54751809D01*
X114921428Y-54872761D01*
X114981904Y-54933238D01*
X115102857Y-54993714D01*
X115344761Y-54993714D01*
X115465714Y-54933238D01*
X115526190Y-54872761D01*
X115586666Y-54751809D01*
X114316666Y-79207523D02*
X114316666Y-80114666D01*
X114256190Y-80296095D01*
X114135238Y-80417047D01*
X113953809Y-80477523D01*
X113832857Y-80477523D01*
X115102857Y-79751809D02*
X114981904Y-79691333D01*
X114921428Y-79630857D01*
X114860952Y-79509904D01*
X114860952Y-79449428D01*
X114921428Y-79328476D01*
X114981904Y-79268000D01*
X115102857Y-79207523D01*
X115344761Y-79207523D01*
X115465714Y-79268000D01*
X115526190Y-79328476D01*
X115586666Y-79449428D01*
X115586666Y-79509904D01*
X115526190Y-79630857D01*
X115465714Y-79691333D01*
X115344761Y-79751809D01*
X115102857Y-79751809D01*
X114981904Y-79812285D01*
X114921428Y-79872761D01*
X114860952Y-79993714D01*
X114860952Y-80235619D01*
X114921428Y-80356571D01*
X114981904Y-80417047D01*
X115102857Y-80477523D01*
X115344761Y-80477523D01*
X115465714Y-80417047D01*
X115526190Y-80356571D01*
X115586666Y-80235619D01*
X115586666Y-79993714D01*
X115526190Y-79872761D01*
X115465714Y-79812285D01*
X115344761Y-79751809D01*
X114316666Y-104207523D02*
X114316666Y-105114666D01*
X114256190Y-105296095D01*
X114135238Y-105417047D01*
X113953809Y-105477523D01*
X113832857Y-105477523D01*
X114800476Y-104207523D02*
X115647142Y-104207523D01*
X115102857Y-105477523D01*
%LPC*%
D16*
X162500000Y-45080000D03*
X162500000Y-42540000D03*
D17*
X162500000Y-40000000D03*
D18*
G36*
X164213779Y-174475266D02*
G01*
X164239309Y-174479053D01*
X164264345Y-174485325D01*
X164288646Y-174494020D01*
X164311977Y-174505055D01*
X164334115Y-174518323D01*
X164354845Y-174533698D01*
X164373969Y-174551031D01*
X164391302Y-174570155D01*
X164406677Y-174590885D01*
X164419945Y-174613023D01*
X164430980Y-174636354D01*
X164439675Y-174660655D01*
X164445947Y-174685691D01*
X164449734Y-174711221D01*
X164451000Y-174737000D01*
X164451000Y-175263000D01*
X164449734Y-175288779D01*
X164445947Y-175314309D01*
X164439675Y-175339345D01*
X164430980Y-175363646D01*
X164419945Y-175386977D01*
X164406677Y-175409115D01*
X164391302Y-175429845D01*
X164373969Y-175448969D01*
X164354845Y-175466302D01*
X164334115Y-175481677D01*
X164311977Y-175494945D01*
X164288646Y-175505980D01*
X164264345Y-175514675D01*
X164239309Y-175520947D01*
X164213779Y-175524734D01*
X164188000Y-175526000D01*
X163562000Y-175526000D01*
X163536221Y-175524734D01*
X163510691Y-175520947D01*
X163485655Y-175514675D01*
X163461354Y-175505980D01*
X163438023Y-175494945D01*
X163415885Y-175481677D01*
X163395155Y-175466302D01*
X163376031Y-175448969D01*
X163358698Y-175429845D01*
X163343323Y-175409115D01*
X163330055Y-175386977D01*
X163319020Y-175363646D01*
X163310325Y-175339345D01*
X163304053Y-175314309D01*
X163300266Y-175288779D01*
X163299000Y-175263000D01*
X163299000Y-174737000D01*
X163300266Y-174711221D01*
X163304053Y-174685691D01*
X163310325Y-174660655D01*
X163319020Y-174636354D01*
X163330055Y-174613023D01*
X163343323Y-174590885D01*
X163358698Y-174570155D01*
X163376031Y-174551031D01*
X163395155Y-174533698D01*
X163415885Y-174518323D01*
X163438023Y-174505055D01*
X163461354Y-174494020D01*
X163485655Y-174485325D01*
X163510691Y-174479053D01*
X163536221Y-174475266D01*
X163562000Y-174474000D01*
X164188000Y-174474000D01*
X164213779Y-174475266D01*
G37*
G36*
X162463779Y-174475266D02*
G01*
X162489309Y-174479053D01*
X162514345Y-174485325D01*
X162538646Y-174494020D01*
X162561977Y-174505055D01*
X162584115Y-174518323D01*
X162604845Y-174533698D01*
X162623969Y-174551031D01*
X162641302Y-174570155D01*
X162656677Y-174590885D01*
X162669945Y-174613023D01*
X162680980Y-174636354D01*
X162689675Y-174660655D01*
X162695947Y-174685691D01*
X162699734Y-174711221D01*
X162701000Y-174737000D01*
X162701000Y-175263000D01*
X162699734Y-175288779D01*
X162695947Y-175314309D01*
X162689675Y-175339345D01*
X162680980Y-175363646D01*
X162669945Y-175386977D01*
X162656677Y-175409115D01*
X162641302Y-175429845D01*
X162623969Y-175448969D01*
X162604845Y-175466302D01*
X162584115Y-175481677D01*
X162561977Y-175494945D01*
X162538646Y-175505980D01*
X162514345Y-175514675D01*
X162489309Y-175520947D01*
X162463779Y-175524734D01*
X162438000Y-175526000D01*
X161812000Y-175526000D01*
X161786221Y-175524734D01*
X161760691Y-175520947D01*
X161735655Y-175514675D01*
X161711354Y-175505980D01*
X161688023Y-175494945D01*
X161665885Y-175481677D01*
X161645155Y-175466302D01*
X161626031Y-175448969D01*
X161608698Y-175429845D01*
X161593323Y-175409115D01*
X161580055Y-175386977D01*
X161569020Y-175363646D01*
X161560325Y-175339345D01*
X161554053Y-175314309D01*
X161550266Y-175288779D01*
X161549000Y-175263000D01*
X161549000Y-174737000D01*
X161550266Y-174711221D01*
X161554053Y-174685691D01*
X161560325Y-174660655D01*
X161569020Y-174636354D01*
X161580055Y-174613023D01*
X161593323Y-174590885D01*
X161608698Y-174570155D01*
X161626031Y-174551031D01*
X161645155Y-174533698D01*
X161665885Y-174518323D01*
X161688023Y-174505055D01*
X161711354Y-174494020D01*
X161735655Y-174485325D01*
X161760691Y-174479053D01*
X161786221Y-174475266D01*
X161812000Y-174474000D01*
X162438000Y-174474000D01*
X162463779Y-174475266D01*
G37*
D19*
X104975000Y-187075000D03*
D20*
X102695000Y-180775000D03*
X107255000Y-180775000D03*
D18*
G36*
X99758141Y-178962797D02*
G01*
X99784278Y-178966674D01*
X99809909Y-178973094D01*
X99834788Y-178981995D01*
X99858674Y-178993293D01*
X99881337Y-179006877D01*
X99902560Y-179022617D01*
X99922139Y-179040361D01*
X99939883Y-179059940D01*
X99955623Y-179081163D01*
X99969207Y-179103826D01*
X99980505Y-179127712D01*
X99989406Y-179152591D01*
X99995826Y-179178222D01*
X99999703Y-179204359D01*
X100001000Y-179230750D01*
X100001000Y-179769250D01*
X99999703Y-179795641D01*
X99995826Y-179821778D01*
X99989406Y-179847409D01*
X99980505Y-179872288D01*
X99969207Y-179896174D01*
X99955623Y-179918837D01*
X99939883Y-179940060D01*
X99922139Y-179959639D01*
X99902560Y-179977383D01*
X99881337Y-179993123D01*
X99858674Y-180006707D01*
X99834788Y-180018005D01*
X99809909Y-180026906D01*
X99784278Y-180033326D01*
X99758141Y-180037203D01*
X99731750Y-180038500D01*
X98768250Y-180038500D01*
X98741859Y-180037203D01*
X98715722Y-180033326D01*
X98690091Y-180026906D01*
X98665212Y-180018005D01*
X98641326Y-180006707D01*
X98618663Y-179993123D01*
X98597440Y-179977383D01*
X98577861Y-179959639D01*
X98560117Y-179940060D01*
X98544377Y-179918837D01*
X98530793Y-179896174D01*
X98519495Y-179872288D01*
X98510594Y-179847409D01*
X98504174Y-179821778D01*
X98500297Y-179795641D01*
X98499000Y-179769250D01*
X98499000Y-179230750D01*
X98500297Y-179204359D01*
X98504174Y-179178222D01*
X98510594Y-179152591D01*
X98519495Y-179127712D01*
X98530793Y-179103826D01*
X98544377Y-179081163D01*
X98560117Y-179059940D01*
X98577861Y-179040361D01*
X98597440Y-179022617D01*
X98618663Y-179006877D01*
X98641326Y-178993293D01*
X98665212Y-178981995D01*
X98690091Y-178973094D01*
X98715722Y-178966674D01*
X98741859Y-178962797D01*
X98768250Y-178961500D01*
X99731750Y-178961500D01*
X99758141Y-178962797D01*
G37*
G36*
X99758141Y-180837797D02*
G01*
X99784278Y-180841674D01*
X99809909Y-180848094D01*
X99834788Y-180856995D01*
X99858674Y-180868293D01*
X99881337Y-180881877D01*
X99902560Y-180897617D01*
X99922139Y-180915361D01*
X99939883Y-180934940D01*
X99955623Y-180956163D01*
X99969207Y-180978826D01*
X99980505Y-181002712D01*
X99989406Y-181027591D01*
X99995826Y-181053222D01*
X99999703Y-181079359D01*
X100001000Y-181105750D01*
X100001000Y-181644250D01*
X99999703Y-181670641D01*
X99995826Y-181696778D01*
X99989406Y-181722409D01*
X99980505Y-181747288D01*
X99969207Y-181771174D01*
X99955623Y-181793837D01*
X99939883Y-181815060D01*
X99922139Y-181834639D01*
X99902560Y-181852383D01*
X99881337Y-181868123D01*
X99858674Y-181881707D01*
X99834788Y-181893005D01*
X99809909Y-181901906D01*
X99784278Y-181908326D01*
X99758141Y-181912203D01*
X99731750Y-181913500D01*
X98768250Y-181913500D01*
X98741859Y-181912203D01*
X98715722Y-181908326D01*
X98690091Y-181901906D01*
X98665212Y-181893005D01*
X98641326Y-181881707D01*
X98618663Y-181868123D01*
X98597440Y-181852383D01*
X98577861Y-181834639D01*
X98560117Y-181815060D01*
X98544377Y-181793837D01*
X98530793Y-181771174D01*
X98519495Y-181747288D01*
X98510594Y-181722409D01*
X98504174Y-181696778D01*
X98500297Y-181670641D01*
X98499000Y-181644250D01*
X98499000Y-181105750D01*
X98500297Y-181079359D01*
X98504174Y-181053222D01*
X98510594Y-181027591D01*
X98519495Y-181002712D01*
X98530793Y-180978826D01*
X98544377Y-180956163D01*
X98560117Y-180934940D01*
X98577861Y-180915361D01*
X98597440Y-180897617D01*
X98618663Y-180881877D01*
X98641326Y-180868293D01*
X98665212Y-180856995D01*
X98690091Y-180848094D01*
X98715722Y-180841674D01*
X98741859Y-180837797D01*
X98768250Y-180836500D01*
X99731750Y-180836500D01*
X99758141Y-180837797D01*
G37*
G36*
X111758141Y-182087797D02*
G01*
X111784278Y-182091674D01*
X111809909Y-182098094D01*
X111834788Y-182106995D01*
X111858674Y-182118293D01*
X111881337Y-182131877D01*
X111902560Y-182147617D01*
X111922139Y-182165361D01*
X111939883Y-182184940D01*
X111955623Y-182206163D01*
X111969207Y-182228826D01*
X111980505Y-182252712D01*
X111989406Y-182277591D01*
X111995826Y-182303222D01*
X111999703Y-182329359D01*
X112001000Y-182355750D01*
X112001000Y-182894250D01*
X111999703Y-182920641D01*
X111995826Y-182946778D01*
X111989406Y-182972409D01*
X111980505Y-182997288D01*
X111969207Y-183021174D01*
X111955623Y-183043837D01*
X111939883Y-183065060D01*
X111922139Y-183084639D01*
X111902560Y-183102383D01*
X111881337Y-183118123D01*
X111858674Y-183131707D01*
X111834788Y-183143005D01*
X111809909Y-183151906D01*
X111784278Y-183158326D01*
X111758141Y-183162203D01*
X111731750Y-183163500D01*
X110768250Y-183163500D01*
X110741859Y-183162203D01*
X110715722Y-183158326D01*
X110690091Y-183151906D01*
X110665212Y-183143005D01*
X110641326Y-183131707D01*
X110618663Y-183118123D01*
X110597440Y-183102383D01*
X110577861Y-183084639D01*
X110560117Y-183065060D01*
X110544377Y-183043837D01*
X110530793Y-183021174D01*
X110519495Y-182997288D01*
X110510594Y-182972409D01*
X110504174Y-182946778D01*
X110500297Y-182920641D01*
X110499000Y-182894250D01*
X110499000Y-182355750D01*
X110500297Y-182329359D01*
X110504174Y-182303222D01*
X110510594Y-182277591D01*
X110519495Y-182252712D01*
X110530793Y-182228826D01*
X110544377Y-182206163D01*
X110560117Y-182184940D01*
X110577861Y-182165361D01*
X110597440Y-182147617D01*
X110618663Y-182131877D01*
X110641326Y-182118293D01*
X110665212Y-182106995D01*
X110690091Y-182098094D01*
X110715722Y-182091674D01*
X110741859Y-182087797D01*
X110768250Y-182086500D01*
X111731750Y-182086500D01*
X111758141Y-182087797D01*
G37*
G36*
X111758141Y-180212797D02*
G01*
X111784278Y-180216674D01*
X111809909Y-180223094D01*
X111834788Y-180231995D01*
X111858674Y-180243293D01*
X111881337Y-180256877D01*
X111902560Y-180272617D01*
X111922139Y-180290361D01*
X111939883Y-180309940D01*
X111955623Y-180331163D01*
X111969207Y-180353826D01*
X111980505Y-180377712D01*
X111989406Y-180402591D01*
X111995826Y-180428222D01*
X111999703Y-180454359D01*
X112001000Y-180480750D01*
X112001000Y-181019250D01*
X111999703Y-181045641D01*
X111995826Y-181071778D01*
X111989406Y-181097409D01*
X111980505Y-181122288D01*
X111969207Y-181146174D01*
X111955623Y-181168837D01*
X111939883Y-181190060D01*
X111922139Y-181209639D01*
X111902560Y-181227383D01*
X111881337Y-181243123D01*
X111858674Y-181256707D01*
X111834788Y-181268005D01*
X111809909Y-181276906D01*
X111784278Y-181283326D01*
X111758141Y-181287203D01*
X111731750Y-181288500D01*
X110768250Y-181288500D01*
X110741859Y-181287203D01*
X110715722Y-181283326D01*
X110690091Y-181276906D01*
X110665212Y-181268005D01*
X110641326Y-181256707D01*
X110618663Y-181243123D01*
X110597440Y-181227383D01*
X110577861Y-181209639D01*
X110560117Y-181190060D01*
X110544377Y-181168837D01*
X110530793Y-181146174D01*
X110519495Y-181122288D01*
X110510594Y-181097409D01*
X110504174Y-181071778D01*
X110500297Y-181045641D01*
X110499000Y-181019250D01*
X110499000Y-180480750D01*
X110500297Y-180454359D01*
X110504174Y-180428222D01*
X110510594Y-180402591D01*
X110519495Y-180377712D01*
X110530793Y-180353826D01*
X110544377Y-180331163D01*
X110560117Y-180309940D01*
X110577861Y-180290361D01*
X110597440Y-180272617D01*
X110618663Y-180256877D01*
X110641326Y-180243293D01*
X110665212Y-180231995D01*
X110690091Y-180223094D01*
X110715722Y-180216674D01*
X110741859Y-180212797D01*
X110768250Y-180211500D01*
X111731750Y-180211500D01*
X111758141Y-180212797D01*
G37*
D16*
X162500000Y-95000000D03*
X162500000Y-92460000D03*
D17*
X162500000Y-89920000D03*
X162500000Y-140000000D03*
D16*
X162500000Y-142540000D03*
X162500000Y-145080000D03*
D18*
G36*
X133233141Y-172250297D02*
G01*
X133259278Y-172254174D01*
X133284909Y-172260594D01*
X133309788Y-172269495D01*
X133333674Y-172280793D01*
X133356337Y-172294377D01*
X133377560Y-172310117D01*
X133397139Y-172327861D01*
X133414883Y-172347440D01*
X133430623Y-172368663D01*
X133444207Y-172391326D01*
X133455505Y-172415212D01*
X133464406Y-172440091D01*
X133470826Y-172465722D01*
X133474703Y-172491859D01*
X133476000Y-172518250D01*
X133476000Y-173481750D01*
X133474703Y-173508141D01*
X133470826Y-173534278D01*
X133464406Y-173559909D01*
X133455505Y-173584788D01*
X133444207Y-173608674D01*
X133430623Y-173631337D01*
X133414883Y-173652560D01*
X133397139Y-173672139D01*
X133377560Y-173689883D01*
X133356337Y-173705623D01*
X133333674Y-173719207D01*
X133309788Y-173730505D01*
X133284909Y-173739406D01*
X133259278Y-173745826D01*
X133233141Y-173749703D01*
X133206750Y-173751000D01*
X132668250Y-173751000D01*
X132641859Y-173749703D01*
X132615722Y-173745826D01*
X132590091Y-173739406D01*
X132565212Y-173730505D01*
X132541326Y-173719207D01*
X132518663Y-173705623D01*
X132497440Y-173689883D01*
X132477861Y-173672139D01*
X132460117Y-173652560D01*
X132444377Y-173631337D01*
X132430793Y-173608674D01*
X132419495Y-173584788D01*
X132410594Y-173559909D01*
X132404174Y-173534278D01*
X132400297Y-173508141D01*
X132399000Y-173481750D01*
X132399000Y-172518250D01*
X132400297Y-172491859D01*
X132404174Y-172465722D01*
X132410594Y-172440091D01*
X132419495Y-172415212D01*
X132430793Y-172391326D01*
X132444377Y-172368663D01*
X132460117Y-172347440D01*
X132477861Y-172327861D01*
X132497440Y-172310117D01*
X132518663Y-172294377D01*
X132541326Y-172280793D01*
X132565212Y-172269495D01*
X132590091Y-172260594D01*
X132615722Y-172254174D01*
X132641859Y-172250297D01*
X132668250Y-172249000D01*
X133206750Y-172249000D01*
X133233141Y-172250297D01*
G37*
G36*
X131358141Y-172250297D02*
G01*
X131384278Y-172254174D01*
X131409909Y-172260594D01*
X131434788Y-172269495D01*
X131458674Y-172280793D01*
X131481337Y-172294377D01*
X131502560Y-172310117D01*
X131522139Y-172327861D01*
X131539883Y-172347440D01*
X131555623Y-172368663D01*
X131569207Y-172391326D01*
X131580505Y-172415212D01*
X131589406Y-172440091D01*
X131595826Y-172465722D01*
X131599703Y-172491859D01*
X131601000Y-172518250D01*
X131601000Y-173481750D01*
X131599703Y-173508141D01*
X131595826Y-173534278D01*
X131589406Y-173559909D01*
X131580505Y-173584788D01*
X131569207Y-173608674D01*
X131555623Y-173631337D01*
X131539883Y-173652560D01*
X131522139Y-173672139D01*
X131502560Y-173689883D01*
X131481337Y-173705623D01*
X131458674Y-173719207D01*
X131434788Y-173730505D01*
X131409909Y-173739406D01*
X131384278Y-173745826D01*
X131358141Y-173749703D01*
X131331750Y-173751000D01*
X130793250Y-173751000D01*
X130766859Y-173749703D01*
X130740722Y-173745826D01*
X130715091Y-173739406D01*
X130690212Y-173730505D01*
X130666326Y-173719207D01*
X130643663Y-173705623D01*
X130622440Y-173689883D01*
X130602861Y-173672139D01*
X130585117Y-173652560D01*
X130569377Y-173631337D01*
X130555793Y-173608674D01*
X130544495Y-173584788D01*
X130535594Y-173559909D01*
X130529174Y-173534278D01*
X130525297Y-173508141D01*
X130524000Y-173481750D01*
X130524000Y-172518250D01*
X130525297Y-172491859D01*
X130529174Y-172465722D01*
X130535594Y-172440091D01*
X130544495Y-172415212D01*
X130555793Y-172391326D01*
X130569377Y-172368663D01*
X130585117Y-172347440D01*
X130602861Y-172327861D01*
X130622440Y-172310117D01*
X130643663Y-172294377D01*
X130666326Y-172280793D01*
X130690212Y-172269495D01*
X130715091Y-172260594D01*
X130740722Y-172254174D01*
X130766859Y-172250297D01*
X130793250Y-172249000D01*
X131331750Y-172249000D01*
X131358141Y-172250297D01*
G37*
G36*
X133233141Y-161250297D02*
G01*
X133259278Y-161254174D01*
X133284909Y-161260594D01*
X133309788Y-161269495D01*
X133333674Y-161280793D01*
X133356337Y-161294377D01*
X133377560Y-161310117D01*
X133397139Y-161327861D01*
X133414883Y-161347440D01*
X133430623Y-161368663D01*
X133444207Y-161391326D01*
X133455505Y-161415212D01*
X133464406Y-161440091D01*
X133470826Y-161465722D01*
X133474703Y-161491859D01*
X133476000Y-161518250D01*
X133476000Y-162481750D01*
X133474703Y-162508141D01*
X133470826Y-162534278D01*
X133464406Y-162559909D01*
X133455505Y-162584788D01*
X133444207Y-162608674D01*
X133430623Y-162631337D01*
X133414883Y-162652560D01*
X133397139Y-162672139D01*
X133377560Y-162689883D01*
X133356337Y-162705623D01*
X133333674Y-162719207D01*
X133309788Y-162730505D01*
X133284909Y-162739406D01*
X133259278Y-162745826D01*
X133233141Y-162749703D01*
X133206750Y-162751000D01*
X132668250Y-162751000D01*
X132641859Y-162749703D01*
X132615722Y-162745826D01*
X132590091Y-162739406D01*
X132565212Y-162730505D01*
X132541326Y-162719207D01*
X132518663Y-162705623D01*
X132497440Y-162689883D01*
X132477861Y-162672139D01*
X132460117Y-162652560D01*
X132444377Y-162631337D01*
X132430793Y-162608674D01*
X132419495Y-162584788D01*
X132410594Y-162559909D01*
X132404174Y-162534278D01*
X132400297Y-162508141D01*
X132399000Y-162481750D01*
X132399000Y-161518250D01*
X132400297Y-161491859D01*
X132404174Y-161465722D01*
X132410594Y-161440091D01*
X132419495Y-161415212D01*
X132430793Y-161391326D01*
X132444377Y-161368663D01*
X132460117Y-161347440D01*
X132477861Y-161327861D01*
X132497440Y-161310117D01*
X132518663Y-161294377D01*
X132541326Y-161280793D01*
X132565212Y-161269495D01*
X132590091Y-161260594D01*
X132615722Y-161254174D01*
X132641859Y-161250297D01*
X132668250Y-161249000D01*
X133206750Y-161249000D01*
X133233141Y-161250297D01*
G37*
G36*
X131358141Y-161250297D02*
G01*
X131384278Y-161254174D01*
X131409909Y-161260594D01*
X131434788Y-161269495D01*
X131458674Y-161280793D01*
X131481337Y-161294377D01*
X131502560Y-161310117D01*
X131522139Y-161327861D01*
X131539883Y-161347440D01*
X131555623Y-161368663D01*
X131569207Y-161391326D01*
X131580505Y-161415212D01*
X131589406Y-161440091D01*
X131595826Y-161465722D01*
X131599703Y-161491859D01*
X131601000Y-161518250D01*
X131601000Y-162481750D01*
X131599703Y-162508141D01*
X131595826Y-162534278D01*
X131589406Y-162559909D01*
X131580505Y-162584788D01*
X131569207Y-162608674D01*
X131555623Y-162631337D01*
X131539883Y-162652560D01*
X131522139Y-162672139D01*
X131502560Y-162689883D01*
X131481337Y-162705623D01*
X131458674Y-162719207D01*
X131434788Y-162730505D01*
X131409909Y-162739406D01*
X131384278Y-162745826D01*
X131358141Y-162749703D01*
X131331750Y-162751000D01*
X130793250Y-162751000D01*
X130766859Y-162749703D01*
X130740722Y-162745826D01*
X130715091Y-162739406D01*
X130690212Y-162730505D01*
X130666326Y-162719207D01*
X130643663Y-162705623D01*
X130622440Y-162689883D01*
X130602861Y-162672139D01*
X130585117Y-162652560D01*
X130569377Y-162631337D01*
X130555793Y-162608674D01*
X130544495Y-162584788D01*
X130535594Y-162559909D01*
X130529174Y-162534278D01*
X130525297Y-162508141D01*
X130524000Y-162481750D01*
X130524000Y-161518250D01*
X130525297Y-161491859D01*
X130529174Y-161465722D01*
X130535594Y-161440091D01*
X130544495Y-161415212D01*
X130555793Y-161391326D01*
X130569377Y-161368663D01*
X130585117Y-161347440D01*
X130602861Y-161327861D01*
X130622440Y-161310117D01*
X130643663Y-161294377D01*
X130666326Y-161280793D01*
X130690212Y-161269495D01*
X130715091Y-161260594D01*
X130740722Y-161254174D01*
X130766859Y-161250297D01*
X130793250Y-161249000D01*
X131331750Y-161249000D01*
X131358141Y-161250297D01*
G37*
D21*
X131000000Y-165000000D03*
D22*
X131000000Y-170000000D03*
D23*
X160850000Y-133250000D03*
X160850000Y-126750000D03*
X159850000Y-131250000D03*
X158850000Y-133250000D03*
X159850000Y-128750000D03*
X158850000Y-126750000D03*
X157850000Y-131250000D03*
X156850000Y-133250000D03*
X157850000Y-128750000D03*
X156850000Y-126750000D03*
X155850000Y-131250000D03*
X154850000Y-133250000D03*
X155850000Y-128750000D03*
X154850000Y-126750000D03*
X153850000Y-131250000D03*
X152850000Y-133250000D03*
X153850000Y-128750000D03*
X152850000Y-126750000D03*
X151850000Y-131250000D03*
X150850000Y-133250000D03*
X151850000Y-128750000D03*
X150850000Y-126750000D03*
X149850000Y-131250000D03*
X148850000Y-133250000D03*
X149850000Y-128750000D03*
X148850000Y-126750000D03*
X147850000Y-131250000D03*
X146850000Y-133250000D03*
X147850000Y-128750000D03*
X146850000Y-126750000D03*
X145850000Y-131250000D03*
X144850000Y-133250000D03*
X145850000Y-128750000D03*
X144850000Y-126750000D03*
X143850000Y-131250000D03*
X142850000Y-133250000D03*
X143850000Y-128750000D03*
X142850000Y-126750000D03*
X141850000Y-131250000D03*
X140850000Y-133250000D03*
X141850000Y-128750000D03*
X140850000Y-126750000D03*
X139850000Y-131250000D03*
X138850000Y-133250000D03*
X139850000Y-128750000D03*
X138850000Y-126750000D03*
X137850000Y-131250000D03*
X136850000Y-133250000D03*
X137850000Y-128750000D03*
X136850000Y-126750000D03*
X135850000Y-131250000D03*
X134850000Y-133250000D03*
X135850000Y-128750000D03*
X134850000Y-126750000D03*
X133850000Y-131250000D03*
X132850000Y-133250000D03*
X133850000Y-128750000D03*
X132850000Y-126750000D03*
X131850000Y-131250000D03*
X130850000Y-133250000D03*
X131850000Y-128750000D03*
X130850000Y-126750000D03*
X129850000Y-131250000D03*
X128850000Y-133250000D03*
X129850000Y-128750000D03*
X128850000Y-126750000D03*
X127850000Y-131250000D03*
X126850000Y-133250000D03*
X127850000Y-128750000D03*
X126850000Y-126750000D03*
X125850000Y-131250000D03*
X124850000Y-133250000D03*
X125850000Y-128750000D03*
X124850000Y-126750000D03*
X123850000Y-131250000D03*
X122850000Y-133250000D03*
X123850000Y-128750000D03*
X122850000Y-126750000D03*
X121850000Y-131250000D03*
X120850000Y-133250000D03*
X121850000Y-128750000D03*
X120850000Y-126750000D03*
X119850000Y-131250000D03*
X118850000Y-133250000D03*
X119850000Y-128750000D03*
X118850000Y-126750000D03*
X117850000Y-131250000D03*
X116850000Y-133250000D03*
X117850000Y-128750000D03*
X116850000Y-126750000D03*
X115850000Y-131250000D03*
X114850000Y-133250000D03*
X115850000Y-128750000D03*
X114850000Y-126750000D03*
X113850000Y-131250000D03*
X112850000Y-133250000D03*
X113850000Y-128750000D03*
X112850000Y-126750000D03*
X111850000Y-131250000D03*
X110850000Y-133250000D03*
X111850000Y-128750000D03*
X110850000Y-126750000D03*
X109850000Y-131250000D03*
X108850000Y-133250000D03*
X109850000Y-128750000D03*
X108850000Y-126750000D03*
X107850000Y-131250000D03*
X106850000Y-133250000D03*
X107850000Y-128750000D03*
X106850000Y-126750000D03*
X105850000Y-131250000D03*
X104850000Y-133250000D03*
X105850000Y-128750000D03*
X104850000Y-126750000D03*
X103850000Y-131250000D03*
X102850000Y-133250000D03*
X103850000Y-128750000D03*
X102850000Y-126750000D03*
X101850000Y-131250000D03*
X100850000Y-133250000D03*
X101850000Y-128750000D03*
X100850000Y-126750000D03*
X99850000Y-131250000D03*
X98850000Y-133250000D03*
X99850000Y-128750000D03*
X98850000Y-126750000D03*
X97850000Y-131250000D03*
X96850000Y-133250000D03*
X97850000Y-128750000D03*
X96850000Y-126750000D03*
X95850000Y-131250000D03*
X94850000Y-133250000D03*
X95850000Y-128750000D03*
X94850000Y-126750000D03*
X93850000Y-131250000D03*
X92850000Y-133250000D03*
X93850000Y-128750000D03*
X92850000Y-126750000D03*
X78850000Y-126750000D03*
X77850000Y-128750000D03*
X78850000Y-133250000D03*
X77850000Y-131250000D03*
D21*
X162650000Y-130000000D03*
D23*
X91850000Y-131250000D03*
X91850000Y-128750000D03*
X90850000Y-133250000D03*
X90850000Y-126750000D03*
X80850000Y-126750000D03*
X80850000Y-133250000D03*
X82850000Y-126750000D03*
X82850000Y-133250000D03*
X84850000Y-126750000D03*
X84850000Y-133250000D03*
X86850000Y-133250000D03*
X86850000Y-126750000D03*
X79850000Y-131250000D03*
X79850000Y-128750000D03*
X81850000Y-131250000D03*
X81850000Y-128750000D03*
X83850000Y-131250000D03*
X83850000Y-128750000D03*
X85850000Y-131250000D03*
X85850000Y-128750000D03*
D21*
X89500000Y-130000000D03*
D23*
X87850000Y-131250000D03*
X87850000Y-128750000D03*
X160850000Y-158250000D03*
X160850000Y-151750000D03*
X159850000Y-156250000D03*
X158850000Y-158250000D03*
X159850000Y-153750000D03*
X158850000Y-151750000D03*
X157850000Y-156250000D03*
X156850000Y-158250000D03*
X157850000Y-153750000D03*
X156850000Y-151750000D03*
X155850000Y-156250000D03*
X154850000Y-158250000D03*
X155850000Y-153750000D03*
X154850000Y-151750000D03*
X153850000Y-156250000D03*
X152850000Y-158250000D03*
X153850000Y-153750000D03*
X152850000Y-151750000D03*
X151850000Y-156250000D03*
X150850000Y-158250000D03*
X151850000Y-153750000D03*
X150850000Y-151750000D03*
X149850000Y-156250000D03*
X148850000Y-158250000D03*
X149850000Y-153750000D03*
X148850000Y-151750000D03*
X147850000Y-156250000D03*
X146850000Y-158250000D03*
X147850000Y-153750000D03*
X146850000Y-151750000D03*
X145850000Y-156250000D03*
X144850000Y-158250000D03*
X145850000Y-153750000D03*
X144850000Y-151750000D03*
X143850000Y-156250000D03*
X142850000Y-158250000D03*
X143850000Y-153750000D03*
X142850000Y-151750000D03*
X141850000Y-156250000D03*
X140850000Y-158250000D03*
X141850000Y-153750000D03*
X140850000Y-151750000D03*
X139850000Y-156250000D03*
X138850000Y-158250000D03*
X139850000Y-153750000D03*
X138850000Y-151750000D03*
X137850000Y-156250000D03*
X136850000Y-158250000D03*
X137850000Y-153750000D03*
X136850000Y-151750000D03*
X135850000Y-156250000D03*
X134850000Y-158250000D03*
X135850000Y-153750000D03*
X134850000Y-151750000D03*
X133850000Y-156250000D03*
X132850000Y-158250000D03*
X133850000Y-153750000D03*
X132850000Y-151750000D03*
X131850000Y-156250000D03*
X130850000Y-158250000D03*
X131850000Y-153750000D03*
X130850000Y-151750000D03*
X129850000Y-156250000D03*
X128850000Y-158250000D03*
X129850000Y-153750000D03*
X128850000Y-151750000D03*
X127850000Y-156250000D03*
X126850000Y-158250000D03*
X127850000Y-153750000D03*
X126850000Y-151750000D03*
X125850000Y-156250000D03*
X124850000Y-158250000D03*
X125850000Y-153750000D03*
X124850000Y-151750000D03*
X123850000Y-156250000D03*
X122850000Y-158250000D03*
X123850000Y-153750000D03*
X122850000Y-151750000D03*
X121850000Y-156250000D03*
X120850000Y-158250000D03*
X121850000Y-153750000D03*
X120850000Y-151750000D03*
X119850000Y-156250000D03*
X118850000Y-158250000D03*
X119850000Y-153750000D03*
X118850000Y-151750000D03*
X117850000Y-156250000D03*
X116850000Y-158250000D03*
X117850000Y-153750000D03*
X116850000Y-151750000D03*
X115850000Y-156250000D03*
X114850000Y-158250000D03*
X115850000Y-153750000D03*
X114850000Y-151750000D03*
X113850000Y-156250000D03*
X112850000Y-158250000D03*
X113850000Y-153750000D03*
X112850000Y-151750000D03*
X111850000Y-156250000D03*
X110850000Y-158250000D03*
X111850000Y-153750000D03*
X110850000Y-151750000D03*
X109850000Y-156250000D03*
X108850000Y-158250000D03*
X109850000Y-153750000D03*
X108850000Y-151750000D03*
X107850000Y-156250000D03*
X106850000Y-158250000D03*
X107850000Y-153750000D03*
X106850000Y-151750000D03*
X105850000Y-156250000D03*
X104850000Y-158250000D03*
X105850000Y-153750000D03*
X104850000Y-151750000D03*
X103850000Y-156250000D03*
X102850000Y-158250000D03*
X103850000Y-153750000D03*
X102850000Y-151750000D03*
X101850000Y-156250000D03*
X100850000Y-158250000D03*
X101850000Y-153750000D03*
X100850000Y-151750000D03*
X99850000Y-156250000D03*
X98850000Y-158250000D03*
X99850000Y-153750000D03*
X98850000Y-151750000D03*
X97850000Y-156250000D03*
X96850000Y-158250000D03*
X97850000Y-153750000D03*
X96850000Y-151750000D03*
X95850000Y-156250000D03*
X94850000Y-158250000D03*
X95850000Y-153750000D03*
X94850000Y-151750000D03*
X93850000Y-156250000D03*
X92850000Y-158250000D03*
X93850000Y-153750000D03*
X92850000Y-151750000D03*
X78850000Y-151750000D03*
X77850000Y-153750000D03*
X78850000Y-158250000D03*
X77850000Y-156250000D03*
D21*
X162650000Y-155000000D03*
D23*
X91850000Y-156250000D03*
X91850000Y-153750000D03*
X90850000Y-158250000D03*
X90850000Y-151750000D03*
X80850000Y-151750000D03*
X80850000Y-158250000D03*
X82850000Y-151750000D03*
X82850000Y-158250000D03*
X84850000Y-151750000D03*
X84850000Y-158250000D03*
X86850000Y-158250000D03*
X86850000Y-151750000D03*
X79850000Y-156250000D03*
X79850000Y-153750000D03*
X81850000Y-156250000D03*
X81850000Y-153750000D03*
X83850000Y-156250000D03*
X83850000Y-153750000D03*
X85850000Y-156250000D03*
X85850000Y-153750000D03*
D21*
X89500000Y-155000000D03*
D23*
X87850000Y-156250000D03*
X87850000Y-153750000D03*
D24*
X77420000Y-15000000D03*
D25*
X79960000Y-15000000D03*
X82500000Y-15000000D03*
X85040000Y-15000000D03*
X87580000Y-15000000D03*
X90120000Y-15000000D03*
X92660000Y-15000000D03*
X92740000Y-176000000D03*
X90200000Y-176000000D03*
X87660000Y-176000000D03*
X85120000Y-176000000D03*
X82580000Y-176000000D03*
X80040000Y-176000000D03*
D24*
X77500000Y-176000000D03*
D18*
G36*
X138875025Y543654D02*
G01*
X139023110Y521688D01*
X139168329Y485312D01*
X139309284Y434878D01*
X139444616Y370871D01*
X139573022Y293907D01*
X139693267Y204727D01*
X139804191Y104191D01*
X139904727Y-6733D01*
X139993907Y-126978D01*
X140070871Y-255384D01*
X140134878Y-390716D01*
X140185312Y-531671D01*
X140221688Y-676890D01*
X140243654Y-824975D01*
X140251000Y-974500D01*
X140251000Y-4025500D01*
X140243654Y-4175025D01*
X140221688Y-4323110D01*
X140185312Y-4468329D01*
X140134878Y-4609284D01*
X140070871Y-4744616D01*
X139993907Y-4873022D01*
X139904727Y-4993267D01*
X139804191Y-5104191D01*
X139693267Y-5204727D01*
X139573022Y-5293907D01*
X139444616Y-5370871D01*
X139309284Y-5434878D01*
X139168329Y-5485312D01*
X139023110Y-5521688D01*
X138875025Y-5543654D01*
X138725500Y-5551000D01*
X135674500Y-5551000D01*
X135524975Y-5543654D01*
X135376890Y-5521688D01*
X135231671Y-5485312D01*
X135090716Y-5434878D01*
X134955384Y-5370871D01*
X134826978Y-5293907D01*
X134706733Y-5204727D01*
X134595809Y-5104191D01*
X134495273Y-4993267D01*
X134406093Y-4873022D01*
X134329129Y-4744616D01*
X134265122Y-4609284D01*
X134214688Y-4468329D01*
X134178312Y-4323110D01*
X134156346Y-4175025D01*
X134149000Y-4025500D01*
X134149000Y-974500D01*
X134156346Y-824975D01*
X134178312Y-676890D01*
X134214688Y-531671D01*
X134265122Y-390716D01*
X134329129Y-255384D01*
X134406093Y-126978D01*
X134495273Y-6733D01*
X134595809Y104191D01*
X134706733Y204727D01*
X134826978Y293907D01*
X134955384Y370871D01*
X135090716Y434878D01*
X135231671Y485312D01*
X135376890Y521688D01*
X135524975Y543654D01*
X135674500Y551000D01*
X138725500Y551000D01*
X138875025Y543654D01*
G37*
D26*
X130000000Y-2500000D03*
D18*
G36*
X139175025Y-179456346D02*
G01*
X139323110Y-179478312D01*
X139468329Y-179514688D01*
X139609284Y-179565122D01*
X139744616Y-179629129D01*
X139873022Y-179706093D01*
X139993267Y-179795273D01*
X140104191Y-179895809D01*
X140204727Y-180006733D01*
X140293907Y-180126978D01*
X140370871Y-180255384D01*
X140434878Y-180390716D01*
X140485312Y-180531671D01*
X140521688Y-180676890D01*
X140543654Y-180824975D01*
X140551000Y-180974500D01*
X140551000Y-184025500D01*
X140543654Y-184175025D01*
X140521688Y-184323110D01*
X140485312Y-184468329D01*
X140434878Y-184609284D01*
X140370871Y-184744616D01*
X140293907Y-184873022D01*
X140204727Y-184993267D01*
X140104191Y-185104191D01*
X139993267Y-185204727D01*
X139873022Y-185293907D01*
X139744616Y-185370871D01*
X139609284Y-185434878D01*
X139468329Y-185485312D01*
X139323110Y-185521688D01*
X139175025Y-185543654D01*
X139025500Y-185551000D01*
X135974500Y-185551000D01*
X135824975Y-185543654D01*
X135676890Y-185521688D01*
X135531671Y-185485312D01*
X135390716Y-185434878D01*
X135255384Y-185370871D01*
X135126978Y-185293907D01*
X135006733Y-185204727D01*
X134895809Y-185104191D01*
X134795273Y-184993267D01*
X134706093Y-184873022D01*
X134629129Y-184744616D01*
X134565122Y-184609284D01*
X134514688Y-184468329D01*
X134478312Y-184323110D01*
X134456346Y-184175025D01*
X134449000Y-184025500D01*
X134449000Y-180974500D01*
X134456346Y-180824975D01*
X134478312Y-180676890D01*
X134514688Y-180531671D01*
X134565122Y-180390716D01*
X134629129Y-180255384D01*
X134706093Y-180126978D01*
X134795273Y-180006733D01*
X134895809Y-179895809D01*
X135006733Y-179795273D01*
X135126978Y-179706093D01*
X135255384Y-179629129D01*
X135390716Y-179565122D01*
X135531671Y-179514688D01*
X135676890Y-179478312D01*
X135824975Y-179456346D01*
X135974500Y-179449000D01*
X139025500Y-179449000D01*
X139175025Y-179456346D01*
G37*
D26*
X130300000Y-182500000D03*
D27*
X160000000Y-187500000D03*
X160000000Y-2500000D03*
X80000000Y-187500000D03*
X80000000Y-2500000D03*
D28*
X163540000Y-179000000D03*
D29*
X161000000Y-179000000D03*
D18*
G36*
X133233141Y-11250297D02*
G01*
X133259278Y-11254174D01*
X133284909Y-11260594D01*
X133309788Y-11269495D01*
X133333674Y-11280793D01*
X133356337Y-11294377D01*
X133377560Y-11310117D01*
X133397139Y-11327861D01*
X133414883Y-11347440D01*
X133430623Y-11368663D01*
X133444207Y-11391326D01*
X133455505Y-11415212D01*
X133464406Y-11440091D01*
X133470826Y-11465722D01*
X133474703Y-11491859D01*
X133476000Y-11518250D01*
X133476000Y-12481750D01*
X133474703Y-12508141D01*
X133470826Y-12534278D01*
X133464406Y-12559909D01*
X133455505Y-12584788D01*
X133444207Y-12608674D01*
X133430623Y-12631337D01*
X133414883Y-12652560D01*
X133397139Y-12672139D01*
X133377560Y-12689883D01*
X133356337Y-12705623D01*
X133333674Y-12719207D01*
X133309788Y-12730505D01*
X133284909Y-12739406D01*
X133259278Y-12745826D01*
X133233141Y-12749703D01*
X133206750Y-12751000D01*
X132668250Y-12751000D01*
X132641859Y-12749703D01*
X132615722Y-12745826D01*
X132590091Y-12739406D01*
X132565212Y-12730505D01*
X132541326Y-12719207D01*
X132518663Y-12705623D01*
X132497440Y-12689883D01*
X132477861Y-12672139D01*
X132460117Y-12652560D01*
X132444377Y-12631337D01*
X132430793Y-12608674D01*
X132419495Y-12584788D01*
X132410594Y-12559909D01*
X132404174Y-12534278D01*
X132400297Y-12508141D01*
X132399000Y-12481750D01*
X132399000Y-11518250D01*
X132400297Y-11491859D01*
X132404174Y-11465722D01*
X132410594Y-11440091D01*
X132419495Y-11415212D01*
X132430793Y-11391326D01*
X132444377Y-11368663D01*
X132460117Y-11347440D01*
X132477861Y-11327861D01*
X132497440Y-11310117D01*
X132518663Y-11294377D01*
X132541326Y-11280793D01*
X132565212Y-11269495D01*
X132590091Y-11260594D01*
X132615722Y-11254174D01*
X132641859Y-11250297D01*
X132668250Y-11249000D01*
X133206750Y-11249000D01*
X133233141Y-11250297D01*
G37*
G36*
X131358141Y-11250297D02*
G01*
X131384278Y-11254174D01*
X131409909Y-11260594D01*
X131434788Y-11269495D01*
X131458674Y-11280793D01*
X131481337Y-11294377D01*
X131502560Y-11310117D01*
X131522139Y-11327861D01*
X131539883Y-11347440D01*
X131555623Y-11368663D01*
X131569207Y-11391326D01*
X131580505Y-11415212D01*
X131589406Y-11440091D01*
X131595826Y-11465722D01*
X131599703Y-11491859D01*
X131601000Y-11518250D01*
X131601000Y-12481750D01*
X131599703Y-12508141D01*
X131595826Y-12534278D01*
X131589406Y-12559909D01*
X131580505Y-12584788D01*
X131569207Y-12608674D01*
X131555623Y-12631337D01*
X131539883Y-12652560D01*
X131522139Y-12672139D01*
X131502560Y-12689883D01*
X131481337Y-12705623D01*
X131458674Y-12719207D01*
X131434788Y-12730505D01*
X131409909Y-12739406D01*
X131384278Y-12745826D01*
X131358141Y-12749703D01*
X131331750Y-12751000D01*
X130793250Y-12751000D01*
X130766859Y-12749703D01*
X130740722Y-12745826D01*
X130715091Y-12739406D01*
X130690212Y-12730505D01*
X130666326Y-12719207D01*
X130643663Y-12705623D01*
X130622440Y-12689883D01*
X130602861Y-12672139D01*
X130585117Y-12652560D01*
X130569377Y-12631337D01*
X130555793Y-12608674D01*
X130544495Y-12584788D01*
X130535594Y-12559909D01*
X130529174Y-12534278D01*
X130525297Y-12508141D01*
X130524000Y-12481750D01*
X130524000Y-11518250D01*
X130525297Y-11491859D01*
X130529174Y-11465722D01*
X130535594Y-11440091D01*
X130544495Y-11415212D01*
X130555793Y-11391326D01*
X130569377Y-11368663D01*
X130585117Y-11347440D01*
X130602861Y-11327861D01*
X130622440Y-11310117D01*
X130643663Y-11294377D01*
X130666326Y-11280793D01*
X130690212Y-11269495D01*
X130715091Y-11260594D01*
X130740722Y-11254174D01*
X130766859Y-11250297D01*
X130793250Y-11249000D01*
X131331750Y-11249000D01*
X131358141Y-11250297D01*
G37*
G36*
X133295641Y-22250297D02*
G01*
X133321778Y-22254174D01*
X133347409Y-22260594D01*
X133372288Y-22269495D01*
X133396174Y-22280793D01*
X133418837Y-22294377D01*
X133440060Y-22310117D01*
X133459639Y-22327861D01*
X133477383Y-22347440D01*
X133493123Y-22368663D01*
X133506707Y-22391326D01*
X133518005Y-22415212D01*
X133526906Y-22440091D01*
X133533326Y-22465722D01*
X133537203Y-22491859D01*
X133538500Y-22518250D01*
X133538500Y-23481750D01*
X133537203Y-23508141D01*
X133533326Y-23534278D01*
X133526906Y-23559909D01*
X133518005Y-23584788D01*
X133506707Y-23608674D01*
X133493123Y-23631337D01*
X133477383Y-23652560D01*
X133459639Y-23672139D01*
X133440060Y-23689883D01*
X133418837Y-23705623D01*
X133396174Y-23719207D01*
X133372288Y-23730505D01*
X133347409Y-23739406D01*
X133321778Y-23745826D01*
X133295641Y-23749703D01*
X133269250Y-23751000D01*
X132730750Y-23751000D01*
X132704359Y-23749703D01*
X132678222Y-23745826D01*
X132652591Y-23739406D01*
X132627712Y-23730505D01*
X132603826Y-23719207D01*
X132581163Y-23705623D01*
X132559940Y-23689883D01*
X132540361Y-23672139D01*
X132522617Y-23652560D01*
X132506877Y-23631337D01*
X132493293Y-23608674D01*
X132481995Y-23584788D01*
X132473094Y-23559909D01*
X132466674Y-23534278D01*
X132462797Y-23508141D01*
X132461500Y-23481750D01*
X132461500Y-22518250D01*
X132462797Y-22491859D01*
X132466674Y-22465722D01*
X132473094Y-22440091D01*
X132481995Y-22415212D01*
X132493293Y-22391326D01*
X132506877Y-22368663D01*
X132522617Y-22347440D01*
X132540361Y-22327861D01*
X132559940Y-22310117D01*
X132581163Y-22294377D01*
X132603826Y-22280793D01*
X132627712Y-22269495D01*
X132652591Y-22260594D01*
X132678222Y-22254174D01*
X132704359Y-22250297D01*
X132730750Y-22249000D01*
X133269250Y-22249000D01*
X133295641Y-22250297D01*
G37*
G36*
X131420641Y-22250297D02*
G01*
X131446778Y-22254174D01*
X131472409Y-22260594D01*
X131497288Y-22269495D01*
X131521174Y-22280793D01*
X131543837Y-22294377D01*
X131565060Y-22310117D01*
X131584639Y-22327861D01*
X131602383Y-22347440D01*
X131618123Y-22368663D01*
X131631707Y-22391326D01*
X131643005Y-22415212D01*
X131651906Y-22440091D01*
X131658326Y-22465722D01*
X131662203Y-22491859D01*
X131663500Y-22518250D01*
X131663500Y-23481750D01*
X131662203Y-23508141D01*
X131658326Y-23534278D01*
X131651906Y-23559909D01*
X131643005Y-23584788D01*
X131631707Y-23608674D01*
X131618123Y-23631337D01*
X131602383Y-23652560D01*
X131584639Y-23672139D01*
X131565060Y-23689883D01*
X131543837Y-23705623D01*
X131521174Y-23719207D01*
X131497288Y-23730505D01*
X131472409Y-23739406D01*
X131446778Y-23745826D01*
X131420641Y-23749703D01*
X131394250Y-23751000D01*
X130855750Y-23751000D01*
X130829359Y-23749703D01*
X130803222Y-23745826D01*
X130777591Y-23739406D01*
X130752712Y-23730505D01*
X130728826Y-23719207D01*
X130706163Y-23705623D01*
X130684940Y-23689883D01*
X130665361Y-23672139D01*
X130647617Y-23652560D01*
X130631877Y-23631337D01*
X130618293Y-23608674D01*
X130606995Y-23584788D01*
X130598094Y-23559909D01*
X130591674Y-23534278D01*
X130587797Y-23508141D01*
X130586500Y-23481750D01*
X130586500Y-22518250D01*
X130587797Y-22491859D01*
X130591674Y-22465722D01*
X130598094Y-22440091D01*
X130606995Y-22415212D01*
X130618293Y-22391326D01*
X130631877Y-22368663D01*
X130647617Y-22347440D01*
X130665361Y-22327861D01*
X130684940Y-22310117D01*
X130706163Y-22294377D01*
X130728826Y-22280793D01*
X130752712Y-22269495D01*
X130777591Y-22260594D01*
X130803222Y-22254174D01*
X130829359Y-22250297D01*
X130855750Y-22249000D01*
X131394250Y-22249000D01*
X131420641Y-22250297D01*
G37*
G36*
X133233141Y-36250297D02*
G01*
X133259278Y-36254174D01*
X133284909Y-36260594D01*
X133309788Y-36269495D01*
X133333674Y-36280793D01*
X133356337Y-36294377D01*
X133377560Y-36310117D01*
X133397139Y-36327861D01*
X133414883Y-36347440D01*
X133430623Y-36368663D01*
X133444207Y-36391326D01*
X133455505Y-36415212D01*
X133464406Y-36440091D01*
X133470826Y-36465722D01*
X133474703Y-36491859D01*
X133476000Y-36518250D01*
X133476000Y-37481750D01*
X133474703Y-37508141D01*
X133470826Y-37534278D01*
X133464406Y-37559909D01*
X133455505Y-37584788D01*
X133444207Y-37608674D01*
X133430623Y-37631337D01*
X133414883Y-37652560D01*
X133397139Y-37672139D01*
X133377560Y-37689883D01*
X133356337Y-37705623D01*
X133333674Y-37719207D01*
X133309788Y-37730505D01*
X133284909Y-37739406D01*
X133259278Y-37745826D01*
X133233141Y-37749703D01*
X133206750Y-37751000D01*
X132668250Y-37751000D01*
X132641859Y-37749703D01*
X132615722Y-37745826D01*
X132590091Y-37739406D01*
X132565212Y-37730505D01*
X132541326Y-37719207D01*
X132518663Y-37705623D01*
X132497440Y-37689883D01*
X132477861Y-37672139D01*
X132460117Y-37652560D01*
X132444377Y-37631337D01*
X132430793Y-37608674D01*
X132419495Y-37584788D01*
X132410594Y-37559909D01*
X132404174Y-37534278D01*
X132400297Y-37508141D01*
X132399000Y-37481750D01*
X132399000Y-36518250D01*
X132400297Y-36491859D01*
X132404174Y-36465722D01*
X132410594Y-36440091D01*
X132419495Y-36415212D01*
X132430793Y-36391326D01*
X132444377Y-36368663D01*
X132460117Y-36347440D01*
X132477861Y-36327861D01*
X132497440Y-36310117D01*
X132518663Y-36294377D01*
X132541326Y-36280793D01*
X132565212Y-36269495D01*
X132590091Y-36260594D01*
X132615722Y-36254174D01*
X132641859Y-36250297D01*
X132668250Y-36249000D01*
X133206750Y-36249000D01*
X133233141Y-36250297D01*
G37*
G36*
X131358141Y-36250297D02*
G01*
X131384278Y-36254174D01*
X131409909Y-36260594D01*
X131434788Y-36269495D01*
X131458674Y-36280793D01*
X131481337Y-36294377D01*
X131502560Y-36310117D01*
X131522139Y-36327861D01*
X131539883Y-36347440D01*
X131555623Y-36368663D01*
X131569207Y-36391326D01*
X131580505Y-36415212D01*
X131589406Y-36440091D01*
X131595826Y-36465722D01*
X131599703Y-36491859D01*
X131601000Y-36518250D01*
X131601000Y-37481750D01*
X131599703Y-37508141D01*
X131595826Y-37534278D01*
X131589406Y-37559909D01*
X131580505Y-37584788D01*
X131569207Y-37608674D01*
X131555623Y-37631337D01*
X131539883Y-37652560D01*
X131522139Y-37672139D01*
X131502560Y-37689883D01*
X131481337Y-37705623D01*
X131458674Y-37719207D01*
X131434788Y-37730505D01*
X131409909Y-37739406D01*
X131384278Y-37745826D01*
X131358141Y-37749703D01*
X131331750Y-37751000D01*
X130793250Y-37751000D01*
X130766859Y-37749703D01*
X130740722Y-37745826D01*
X130715091Y-37739406D01*
X130690212Y-37730505D01*
X130666326Y-37719207D01*
X130643663Y-37705623D01*
X130622440Y-37689883D01*
X130602861Y-37672139D01*
X130585117Y-37652560D01*
X130569377Y-37631337D01*
X130555793Y-37608674D01*
X130544495Y-37584788D01*
X130535594Y-37559909D01*
X130529174Y-37534278D01*
X130525297Y-37508141D01*
X130524000Y-37481750D01*
X130524000Y-36518250D01*
X130525297Y-36491859D01*
X130529174Y-36465722D01*
X130535594Y-36440091D01*
X130544495Y-36415212D01*
X130555793Y-36391326D01*
X130569377Y-36368663D01*
X130585117Y-36347440D01*
X130602861Y-36327861D01*
X130622440Y-36310117D01*
X130643663Y-36294377D01*
X130666326Y-36280793D01*
X130690212Y-36269495D01*
X130715091Y-36260594D01*
X130740722Y-36254174D01*
X130766859Y-36250297D01*
X130793250Y-36249000D01*
X131331750Y-36249000D01*
X131358141Y-36250297D01*
G37*
G36*
X133233141Y-47250297D02*
G01*
X133259278Y-47254174D01*
X133284909Y-47260594D01*
X133309788Y-47269495D01*
X133333674Y-47280793D01*
X133356337Y-47294377D01*
X133377560Y-47310117D01*
X133397139Y-47327861D01*
X133414883Y-47347440D01*
X133430623Y-47368663D01*
X133444207Y-47391326D01*
X133455505Y-47415212D01*
X133464406Y-47440091D01*
X133470826Y-47465722D01*
X133474703Y-47491859D01*
X133476000Y-47518250D01*
X133476000Y-48481750D01*
X133474703Y-48508141D01*
X133470826Y-48534278D01*
X133464406Y-48559909D01*
X133455505Y-48584788D01*
X133444207Y-48608674D01*
X133430623Y-48631337D01*
X133414883Y-48652560D01*
X133397139Y-48672139D01*
X133377560Y-48689883D01*
X133356337Y-48705623D01*
X133333674Y-48719207D01*
X133309788Y-48730505D01*
X133284909Y-48739406D01*
X133259278Y-48745826D01*
X133233141Y-48749703D01*
X133206750Y-48751000D01*
X132668250Y-48751000D01*
X132641859Y-48749703D01*
X132615722Y-48745826D01*
X132590091Y-48739406D01*
X132565212Y-48730505D01*
X132541326Y-48719207D01*
X132518663Y-48705623D01*
X132497440Y-48689883D01*
X132477861Y-48672139D01*
X132460117Y-48652560D01*
X132444377Y-48631337D01*
X132430793Y-48608674D01*
X132419495Y-48584788D01*
X132410594Y-48559909D01*
X132404174Y-48534278D01*
X132400297Y-48508141D01*
X132399000Y-48481750D01*
X132399000Y-47518250D01*
X132400297Y-47491859D01*
X132404174Y-47465722D01*
X132410594Y-47440091D01*
X132419495Y-47415212D01*
X132430793Y-47391326D01*
X132444377Y-47368663D01*
X132460117Y-47347440D01*
X132477861Y-47327861D01*
X132497440Y-47310117D01*
X132518663Y-47294377D01*
X132541326Y-47280793D01*
X132565212Y-47269495D01*
X132590091Y-47260594D01*
X132615722Y-47254174D01*
X132641859Y-47250297D01*
X132668250Y-47249000D01*
X133206750Y-47249000D01*
X133233141Y-47250297D01*
G37*
G36*
X131358141Y-47250297D02*
G01*
X131384278Y-47254174D01*
X131409909Y-47260594D01*
X131434788Y-47269495D01*
X131458674Y-47280793D01*
X131481337Y-47294377D01*
X131502560Y-47310117D01*
X131522139Y-47327861D01*
X131539883Y-47347440D01*
X131555623Y-47368663D01*
X131569207Y-47391326D01*
X131580505Y-47415212D01*
X131589406Y-47440091D01*
X131595826Y-47465722D01*
X131599703Y-47491859D01*
X131601000Y-47518250D01*
X131601000Y-48481750D01*
X131599703Y-48508141D01*
X131595826Y-48534278D01*
X131589406Y-48559909D01*
X131580505Y-48584788D01*
X131569207Y-48608674D01*
X131555623Y-48631337D01*
X131539883Y-48652560D01*
X131522139Y-48672139D01*
X131502560Y-48689883D01*
X131481337Y-48705623D01*
X131458674Y-48719207D01*
X131434788Y-48730505D01*
X131409909Y-48739406D01*
X131384278Y-48745826D01*
X131358141Y-48749703D01*
X131331750Y-48751000D01*
X130793250Y-48751000D01*
X130766859Y-48749703D01*
X130740722Y-48745826D01*
X130715091Y-48739406D01*
X130690212Y-48730505D01*
X130666326Y-48719207D01*
X130643663Y-48705623D01*
X130622440Y-48689883D01*
X130602861Y-48672139D01*
X130585117Y-48652560D01*
X130569377Y-48631337D01*
X130555793Y-48608674D01*
X130544495Y-48584788D01*
X130535594Y-48559909D01*
X130529174Y-48534278D01*
X130525297Y-48508141D01*
X130524000Y-48481750D01*
X130524000Y-47518250D01*
X130525297Y-47491859D01*
X130529174Y-47465722D01*
X130535594Y-47440091D01*
X130544495Y-47415212D01*
X130555793Y-47391326D01*
X130569377Y-47368663D01*
X130585117Y-47347440D01*
X130602861Y-47327861D01*
X130622440Y-47310117D01*
X130643663Y-47294377D01*
X130666326Y-47280793D01*
X130690212Y-47269495D01*
X130715091Y-47260594D01*
X130740722Y-47254174D01*
X130766859Y-47250297D01*
X130793250Y-47249000D01*
X131331750Y-47249000D01*
X131358141Y-47250297D01*
G37*
G36*
X133295641Y-61250297D02*
G01*
X133321778Y-61254174D01*
X133347409Y-61260594D01*
X133372288Y-61269495D01*
X133396174Y-61280793D01*
X133418837Y-61294377D01*
X133440060Y-61310117D01*
X133459639Y-61327861D01*
X133477383Y-61347440D01*
X133493123Y-61368663D01*
X133506707Y-61391326D01*
X133518005Y-61415212D01*
X133526906Y-61440091D01*
X133533326Y-61465722D01*
X133537203Y-61491859D01*
X133538500Y-61518250D01*
X133538500Y-62481750D01*
X133537203Y-62508141D01*
X133533326Y-62534278D01*
X133526906Y-62559909D01*
X133518005Y-62584788D01*
X133506707Y-62608674D01*
X133493123Y-62631337D01*
X133477383Y-62652560D01*
X133459639Y-62672139D01*
X133440060Y-62689883D01*
X133418837Y-62705623D01*
X133396174Y-62719207D01*
X133372288Y-62730505D01*
X133347409Y-62739406D01*
X133321778Y-62745826D01*
X133295641Y-62749703D01*
X133269250Y-62751000D01*
X132730750Y-62751000D01*
X132704359Y-62749703D01*
X132678222Y-62745826D01*
X132652591Y-62739406D01*
X132627712Y-62730505D01*
X132603826Y-62719207D01*
X132581163Y-62705623D01*
X132559940Y-62689883D01*
X132540361Y-62672139D01*
X132522617Y-62652560D01*
X132506877Y-62631337D01*
X132493293Y-62608674D01*
X132481995Y-62584788D01*
X132473094Y-62559909D01*
X132466674Y-62534278D01*
X132462797Y-62508141D01*
X132461500Y-62481750D01*
X132461500Y-61518250D01*
X132462797Y-61491859D01*
X132466674Y-61465722D01*
X132473094Y-61440091D01*
X132481995Y-61415212D01*
X132493293Y-61391326D01*
X132506877Y-61368663D01*
X132522617Y-61347440D01*
X132540361Y-61327861D01*
X132559940Y-61310117D01*
X132581163Y-61294377D01*
X132603826Y-61280793D01*
X132627712Y-61269495D01*
X132652591Y-61260594D01*
X132678222Y-61254174D01*
X132704359Y-61250297D01*
X132730750Y-61249000D01*
X133269250Y-61249000D01*
X133295641Y-61250297D01*
G37*
G36*
X131420641Y-61250297D02*
G01*
X131446778Y-61254174D01*
X131472409Y-61260594D01*
X131497288Y-61269495D01*
X131521174Y-61280793D01*
X131543837Y-61294377D01*
X131565060Y-61310117D01*
X131584639Y-61327861D01*
X131602383Y-61347440D01*
X131618123Y-61368663D01*
X131631707Y-61391326D01*
X131643005Y-61415212D01*
X131651906Y-61440091D01*
X131658326Y-61465722D01*
X131662203Y-61491859D01*
X131663500Y-61518250D01*
X131663500Y-62481750D01*
X131662203Y-62508141D01*
X131658326Y-62534278D01*
X131651906Y-62559909D01*
X131643005Y-62584788D01*
X131631707Y-62608674D01*
X131618123Y-62631337D01*
X131602383Y-62652560D01*
X131584639Y-62672139D01*
X131565060Y-62689883D01*
X131543837Y-62705623D01*
X131521174Y-62719207D01*
X131497288Y-62730505D01*
X131472409Y-62739406D01*
X131446778Y-62745826D01*
X131420641Y-62749703D01*
X131394250Y-62751000D01*
X130855750Y-62751000D01*
X130829359Y-62749703D01*
X130803222Y-62745826D01*
X130777591Y-62739406D01*
X130752712Y-62730505D01*
X130728826Y-62719207D01*
X130706163Y-62705623D01*
X130684940Y-62689883D01*
X130665361Y-62672139D01*
X130647617Y-62652560D01*
X130631877Y-62631337D01*
X130618293Y-62608674D01*
X130606995Y-62584788D01*
X130598094Y-62559909D01*
X130591674Y-62534278D01*
X130587797Y-62508141D01*
X130586500Y-62481750D01*
X130586500Y-61518250D01*
X130587797Y-61491859D01*
X130591674Y-61465722D01*
X130598094Y-61440091D01*
X130606995Y-61415212D01*
X130618293Y-61391326D01*
X130631877Y-61368663D01*
X130647617Y-61347440D01*
X130665361Y-61327861D01*
X130684940Y-61310117D01*
X130706163Y-61294377D01*
X130728826Y-61280793D01*
X130752712Y-61269495D01*
X130777591Y-61260594D01*
X130803222Y-61254174D01*
X130829359Y-61250297D01*
X130855750Y-61249000D01*
X131394250Y-61249000D01*
X131420641Y-61250297D01*
G37*
G36*
X133295641Y-72250297D02*
G01*
X133321778Y-72254174D01*
X133347409Y-72260594D01*
X133372288Y-72269495D01*
X133396174Y-72280793D01*
X133418837Y-72294377D01*
X133440060Y-72310117D01*
X133459639Y-72327861D01*
X133477383Y-72347440D01*
X133493123Y-72368663D01*
X133506707Y-72391326D01*
X133518005Y-72415212D01*
X133526906Y-72440091D01*
X133533326Y-72465722D01*
X133537203Y-72491859D01*
X133538500Y-72518250D01*
X133538500Y-73481750D01*
X133537203Y-73508141D01*
X133533326Y-73534278D01*
X133526906Y-73559909D01*
X133518005Y-73584788D01*
X133506707Y-73608674D01*
X133493123Y-73631337D01*
X133477383Y-73652560D01*
X133459639Y-73672139D01*
X133440060Y-73689883D01*
X133418837Y-73705623D01*
X133396174Y-73719207D01*
X133372288Y-73730505D01*
X133347409Y-73739406D01*
X133321778Y-73745826D01*
X133295641Y-73749703D01*
X133269250Y-73751000D01*
X132730750Y-73751000D01*
X132704359Y-73749703D01*
X132678222Y-73745826D01*
X132652591Y-73739406D01*
X132627712Y-73730505D01*
X132603826Y-73719207D01*
X132581163Y-73705623D01*
X132559940Y-73689883D01*
X132540361Y-73672139D01*
X132522617Y-73652560D01*
X132506877Y-73631337D01*
X132493293Y-73608674D01*
X132481995Y-73584788D01*
X132473094Y-73559909D01*
X132466674Y-73534278D01*
X132462797Y-73508141D01*
X132461500Y-73481750D01*
X132461500Y-72518250D01*
X132462797Y-72491859D01*
X132466674Y-72465722D01*
X132473094Y-72440091D01*
X132481995Y-72415212D01*
X132493293Y-72391326D01*
X132506877Y-72368663D01*
X132522617Y-72347440D01*
X132540361Y-72327861D01*
X132559940Y-72310117D01*
X132581163Y-72294377D01*
X132603826Y-72280793D01*
X132627712Y-72269495D01*
X132652591Y-72260594D01*
X132678222Y-72254174D01*
X132704359Y-72250297D01*
X132730750Y-72249000D01*
X133269250Y-72249000D01*
X133295641Y-72250297D01*
G37*
G36*
X131420641Y-72250297D02*
G01*
X131446778Y-72254174D01*
X131472409Y-72260594D01*
X131497288Y-72269495D01*
X131521174Y-72280793D01*
X131543837Y-72294377D01*
X131565060Y-72310117D01*
X131584639Y-72327861D01*
X131602383Y-72347440D01*
X131618123Y-72368663D01*
X131631707Y-72391326D01*
X131643005Y-72415212D01*
X131651906Y-72440091D01*
X131658326Y-72465722D01*
X131662203Y-72491859D01*
X131663500Y-72518250D01*
X131663500Y-73481750D01*
X131662203Y-73508141D01*
X131658326Y-73534278D01*
X131651906Y-73559909D01*
X131643005Y-73584788D01*
X131631707Y-73608674D01*
X131618123Y-73631337D01*
X131602383Y-73652560D01*
X131584639Y-73672139D01*
X131565060Y-73689883D01*
X131543837Y-73705623D01*
X131521174Y-73719207D01*
X131497288Y-73730505D01*
X131472409Y-73739406D01*
X131446778Y-73745826D01*
X131420641Y-73749703D01*
X131394250Y-73751000D01*
X130855750Y-73751000D01*
X130829359Y-73749703D01*
X130803222Y-73745826D01*
X130777591Y-73739406D01*
X130752712Y-73730505D01*
X130728826Y-73719207D01*
X130706163Y-73705623D01*
X130684940Y-73689883D01*
X130665361Y-73672139D01*
X130647617Y-73652560D01*
X130631877Y-73631337D01*
X130618293Y-73608674D01*
X130606995Y-73584788D01*
X130598094Y-73559909D01*
X130591674Y-73534278D01*
X130587797Y-73508141D01*
X130586500Y-73481750D01*
X130586500Y-72518250D01*
X130587797Y-72491859D01*
X130591674Y-72465722D01*
X130598094Y-72440091D01*
X130606995Y-72415212D01*
X130618293Y-72391326D01*
X130631877Y-72368663D01*
X130647617Y-72347440D01*
X130665361Y-72327861D01*
X130684940Y-72310117D01*
X130706163Y-72294377D01*
X130728826Y-72280793D01*
X130752712Y-72269495D01*
X130777591Y-72260594D01*
X130803222Y-72254174D01*
X130829359Y-72250297D01*
X130855750Y-72249000D01*
X131394250Y-72249000D01*
X131420641Y-72250297D01*
G37*
D21*
X131500000Y-65000000D03*
D22*
X131500000Y-70000000D03*
D18*
G36*
X133295641Y-86250297D02*
G01*
X133321778Y-86254174D01*
X133347409Y-86260594D01*
X133372288Y-86269495D01*
X133396174Y-86280793D01*
X133418837Y-86294377D01*
X133440060Y-86310117D01*
X133459639Y-86327861D01*
X133477383Y-86347440D01*
X133493123Y-86368663D01*
X133506707Y-86391326D01*
X133518005Y-86415212D01*
X133526906Y-86440091D01*
X133533326Y-86465722D01*
X133537203Y-86491859D01*
X133538500Y-86518250D01*
X133538500Y-87481750D01*
X133537203Y-87508141D01*
X133533326Y-87534278D01*
X133526906Y-87559909D01*
X133518005Y-87584788D01*
X133506707Y-87608674D01*
X133493123Y-87631337D01*
X133477383Y-87652560D01*
X133459639Y-87672139D01*
X133440060Y-87689883D01*
X133418837Y-87705623D01*
X133396174Y-87719207D01*
X133372288Y-87730505D01*
X133347409Y-87739406D01*
X133321778Y-87745826D01*
X133295641Y-87749703D01*
X133269250Y-87751000D01*
X132730750Y-87751000D01*
X132704359Y-87749703D01*
X132678222Y-87745826D01*
X132652591Y-87739406D01*
X132627712Y-87730505D01*
X132603826Y-87719207D01*
X132581163Y-87705623D01*
X132559940Y-87689883D01*
X132540361Y-87672139D01*
X132522617Y-87652560D01*
X132506877Y-87631337D01*
X132493293Y-87608674D01*
X132481995Y-87584788D01*
X132473094Y-87559909D01*
X132466674Y-87534278D01*
X132462797Y-87508141D01*
X132461500Y-87481750D01*
X132461500Y-86518250D01*
X132462797Y-86491859D01*
X132466674Y-86465722D01*
X132473094Y-86440091D01*
X132481995Y-86415212D01*
X132493293Y-86391326D01*
X132506877Y-86368663D01*
X132522617Y-86347440D01*
X132540361Y-86327861D01*
X132559940Y-86310117D01*
X132581163Y-86294377D01*
X132603826Y-86280793D01*
X132627712Y-86269495D01*
X132652591Y-86260594D01*
X132678222Y-86254174D01*
X132704359Y-86250297D01*
X132730750Y-86249000D01*
X133269250Y-86249000D01*
X133295641Y-86250297D01*
G37*
G36*
X131420641Y-86250297D02*
G01*
X131446778Y-86254174D01*
X131472409Y-86260594D01*
X131497288Y-86269495D01*
X131521174Y-86280793D01*
X131543837Y-86294377D01*
X131565060Y-86310117D01*
X131584639Y-86327861D01*
X131602383Y-86347440D01*
X131618123Y-86368663D01*
X131631707Y-86391326D01*
X131643005Y-86415212D01*
X131651906Y-86440091D01*
X131658326Y-86465722D01*
X131662203Y-86491859D01*
X131663500Y-86518250D01*
X131663500Y-87481750D01*
X131662203Y-87508141D01*
X131658326Y-87534278D01*
X131651906Y-87559909D01*
X131643005Y-87584788D01*
X131631707Y-87608674D01*
X131618123Y-87631337D01*
X131602383Y-87652560D01*
X131584639Y-87672139D01*
X131565060Y-87689883D01*
X131543837Y-87705623D01*
X131521174Y-87719207D01*
X131497288Y-87730505D01*
X131472409Y-87739406D01*
X131446778Y-87745826D01*
X131420641Y-87749703D01*
X131394250Y-87751000D01*
X130855750Y-87751000D01*
X130829359Y-87749703D01*
X130803222Y-87745826D01*
X130777591Y-87739406D01*
X130752712Y-87730505D01*
X130728826Y-87719207D01*
X130706163Y-87705623D01*
X130684940Y-87689883D01*
X130665361Y-87672139D01*
X130647617Y-87652560D01*
X130631877Y-87631337D01*
X130618293Y-87608674D01*
X130606995Y-87584788D01*
X130598094Y-87559909D01*
X130591674Y-87534278D01*
X130587797Y-87508141D01*
X130586500Y-87481750D01*
X130586500Y-86518250D01*
X130587797Y-86491859D01*
X130591674Y-86465722D01*
X130598094Y-86440091D01*
X130606995Y-86415212D01*
X130618293Y-86391326D01*
X130631877Y-86368663D01*
X130647617Y-86347440D01*
X130665361Y-86327861D01*
X130684940Y-86310117D01*
X130706163Y-86294377D01*
X130728826Y-86280793D01*
X130752712Y-86269495D01*
X130777591Y-86260594D01*
X130803222Y-86254174D01*
X130829359Y-86250297D01*
X130855750Y-86249000D01*
X131394250Y-86249000D01*
X131420641Y-86250297D01*
G37*
G36*
X133233141Y-97250297D02*
G01*
X133259278Y-97254174D01*
X133284909Y-97260594D01*
X133309788Y-97269495D01*
X133333674Y-97280793D01*
X133356337Y-97294377D01*
X133377560Y-97310117D01*
X133397139Y-97327861D01*
X133414883Y-97347440D01*
X133430623Y-97368663D01*
X133444207Y-97391326D01*
X133455505Y-97415212D01*
X133464406Y-97440091D01*
X133470826Y-97465722D01*
X133474703Y-97491859D01*
X133476000Y-97518250D01*
X133476000Y-98481750D01*
X133474703Y-98508141D01*
X133470826Y-98534278D01*
X133464406Y-98559909D01*
X133455505Y-98584788D01*
X133444207Y-98608674D01*
X133430623Y-98631337D01*
X133414883Y-98652560D01*
X133397139Y-98672139D01*
X133377560Y-98689883D01*
X133356337Y-98705623D01*
X133333674Y-98719207D01*
X133309788Y-98730505D01*
X133284909Y-98739406D01*
X133259278Y-98745826D01*
X133233141Y-98749703D01*
X133206750Y-98751000D01*
X132668250Y-98751000D01*
X132641859Y-98749703D01*
X132615722Y-98745826D01*
X132590091Y-98739406D01*
X132565212Y-98730505D01*
X132541326Y-98719207D01*
X132518663Y-98705623D01*
X132497440Y-98689883D01*
X132477861Y-98672139D01*
X132460117Y-98652560D01*
X132444377Y-98631337D01*
X132430793Y-98608674D01*
X132419495Y-98584788D01*
X132410594Y-98559909D01*
X132404174Y-98534278D01*
X132400297Y-98508141D01*
X132399000Y-98481750D01*
X132399000Y-97518250D01*
X132400297Y-97491859D01*
X132404174Y-97465722D01*
X132410594Y-97440091D01*
X132419495Y-97415212D01*
X132430793Y-97391326D01*
X132444377Y-97368663D01*
X132460117Y-97347440D01*
X132477861Y-97327861D01*
X132497440Y-97310117D01*
X132518663Y-97294377D01*
X132541326Y-97280793D01*
X132565212Y-97269495D01*
X132590091Y-97260594D01*
X132615722Y-97254174D01*
X132641859Y-97250297D01*
X132668250Y-97249000D01*
X133206750Y-97249000D01*
X133233141Y-97250297D01*
G37*
G36*
X131358141Y-97250297D02*
G01*
X131384278Y-97254174D01*
X131409909Y-97260594D01*
X131434788Y-97269495D01*
X131458674Y-97280793D01*
X131481337Y-97294377D01*
X131502560Y-97310117D01*
X131522139Y-97327861D01*
X131539883Y-97347440D01*
X131555623Y-97368663D01*
X131569207Y-97391326D01*
X131580505Y-97415212D01*
X131589406Y-97440091D01*
X131595826Y-97465722D01*
X131599703Y-97491859D01*
X131601000Y-97518250D01*
X131601000Y-98481750D01*
X131599703Y-98508141D01*
X131595826Y-98534278D01*
X131589406Y-98559909D01*
X131580505Y-98584788D01*
X131569207Y-98608674D01*
X131555623Y-98631337D01*
X131539883Y-98652560D01*
X131522139Y-98672139D01*
X131502560Y-98689883D01*
X131481337Y-98705623D01*
X131458674Y-98719207D01*
X131434788Y-98730505D01*
X131409909Y-98739406D01*
X131384278Y-98745826D01*
X131358141Y-98749703D01*
X131331750Y-98751000D01*
X130793250Y-98751000D01*
X130766859Y-98749703D01*
X130740722Y-98745826D01*
X130715091Y-98739406D01*
X130690212Y-98730505D01*
X130666326Y-98719207D01*
X130643663Y-98705623D01*
X130622440Y-98689883D01*
X130602861Y-98672139D01*
X130585117Y-98652560D01*
X130569377Y-98631337D01*
X130555793Y-98608674D01*
X130544495Y-98584788D01*
X130535594Y-98559909D01*
X130529174Y-98534278D01*
X130525297Y-98508141D01*
X130524000Y-98481750D01*
X130524000Y-97518250D01*
X130525297Y-97491859D01*
X130529174Y-97465722D01*
X130535594Y-97440091D01*
X130544495Y-97415212D01*
X130555793Y-97391326D01*
X130569377Y-97368663D01*
X130585117Y-97347440D01*
X130602861Y-97327861D01*
X130622440Y-97310117D01*
X130643663Y-97294377D01*
X130666326Y-97280793D01*
X130690212Y-97269495D01*
X130715091Y-97260594D01*
X130740722Y-97254174D01*
X130766859Y-97250297D01*
X130793250Y-97249000D01*
X131331750Y-97249000D01*
X131358141Y-97250297D01*
G37*
D21*
X131500000Y-90000000D03*
D22*
X131500000Y-95000000D03*
D18*
G36*
X133295641Y-111250297D02*
G01*
X133321778Y-111254174D01*
X133347409Y-111260594D01*
X133372288Y-111269495D01*
X133396174Y-111280793D01*
X133418837Y-111294377D01*
X133440060Y-111310117D01*
X133459639Y-111327861D01*
X133477383Y-111347440D01*
X133493123Y-111368663D01*
X133506707Y-111391326D01*
X133518005Y-111415212D01*
X133526906Y-111440091D01*
X133533326Y-111465722D01*
X133537203Y-111491859D01*
X133538500Y-111518250D01*
X133538500Y-112481750D01*
X133537203Y-112508141D01*
X133533326Y-112534278D01*
X133526906Y-112559909D01*
X133518005Y-112584788D01*
X133506707Y-112608674D01*
X133493123Y-112631337D01*
X133477383Y-112652560D01*
X133459639Y-112672139D01*
X133440060Y-112689883D01*
X133418837Y-112705623D01*
X133396174Y-112719207D01*
X133372288Y-112730505D01*
X133347409Y-112739406D01*
X133321778Y-112745826D01*
X133295641Y-112749703D01*
X133269250Y-112751000D01*
X132730750Y-112751000D01*
X132704359Y-112749703D01*
X132678222Y-112745826D01*
X132652591Y-112739406D01*
X132627712Y-112730505D01*
X132603826Y-112719207D01*
X132581163Y-112705623D01*
X132559940Y-112689883D01*
X132540361Y-112672139D01*
X132522617Y-112652560D01*
X132506877Y-112631337D01*
X132493293Y-112608674D01*
X132481995Y-112584788D01*
X132473094Y-112559909D01*
X132466674Y-112534278D01*
X132462797Y-112508141D01*
X132461500Y-112481750D01*
X132461500Y-111518250D01*
X132462797Y-111491859D01*
X132466674Y-111465722D01*
X132473094Y-111440091D01*
X132481995Y-111415212D01*
X132493293Y-111391326D01*
X132506877Y-111368663D01*
X132522617Y-111347440D01*
X132540361Y-111327861D01*
X132559940Y-111310117D01*
X132581163Y-111294377D01*
X132603826Y-111280793D01*
X132627712Y-111269495D01*
X132652591Y-111260594D01*
X132678222Y-111254174D01*
X132704359Y-111250297D01*
X132730750Y-111249000D01*
X133269250Y-111249000D01*
X133295641Y-111250297D01*
G37*
G36*
X131420641Y-111250297D02*
G01*
X131446778Y-111254174D01*
X131472409Y-111260594D01*
X131497288Y-111269495D01*
X131521174Y-111280793D01*
X131543837Y-111294377D01*
X131565060Y-111310117D01*
X131584639Y-111327861D01*
X131602383Y-111347440D01*
X131618123Y-111368663D01*
X131631707Y-111391326D01*
X131643005Y-111415212D01*
X131651906Y-111440091D01*
X131658326Y-111465722D01*
X131662203Y-111491859D01*
X131663500Y-111518250D01*
X131663500Y-112481750D01*
X131662203Y-112508141D01*
X131658326Y-112534278D01*
X131651906Y-112559909D01*
X131643005Y-112584788D01*
X131631707Y-112608674D01*
X131618123Y-112631337D01*
X131602383Y-112652560D01*
X131584639Y-112672139D01*
X131565060Y-112689883D01*
X131543837Y-112705623D01*
X131521174Y-112719207D01*
X131497288Y-112730505D01*
X131472409Y-112739406D01*
X131446778Y-112745826D01*
X131420641Y-112749703D01*
X131394250Y-112751000D01*
X130855750Y-112751000D01*
X130829359Y-112749703D01*
X130803222Y-112745826D01*
X130777591Y-112739406D01*
X130752712Y-112730505D01*
X130728826Y-112719207D01*
X130706163Y-112705623D01*
X130684940Y-112689883D01*
X130665361Y-112672139D01*
X130647617Y-112652560D01*
X130631877Y-112631337D01*
X130618293Y-112608674D01*
X130606995Y-112584788D01*
X130598094Y-112559909D01*
X130591674Y-112534278D01*
X130587797Y-112508141D01*
X130586500Y-112481750D01*
X130586500Y-111518250D01*
X130587797Y-111491859D01*
X130591674Y-111465722D01*
X130598094Y-111440091D01*
X130606995Y-111415212D01*
X130618293Y-111391326D01*
X130631877Y-111368663D01*
X130647617Y-111347440D01*
X130665361Y-111327861D01*
X130684940Y-111310117D01*
X130706163Y-111294377D01*
X130728826Y-111280793D01*
X130752712Y-111269495D01*
X130777591Y-111260594D01*
X130803222Y-111254174D01*
X130829359Y-111250297D01*
X130855750Y-111249000D01*
X131394250Y-111249000D01*
X131420641Y-111250297D01*
G37*
G36*
X133233141Y-122250297D02*
G01*
X133259278Y-122254174D01*
X133284909Y-122260594D01*
X133309788Y-122269495D01*
X133333674Y-122280793D01*
X133356337Y-122294377D01*
X133377560Y-122310117D01*
X133397139Y-122327861D01*
X133414883Y-122347440D01*
X133430623Y-122368663D01*
X133444207Y-122391326D01*
X133455505Y-122415212D01*
X133464406Y-122440091D01*
X133470826Y-122465722D01*
X133474703Y-122491859D01*
X133476000Y-122518250D01*
X133476000Y-123481750D01*
X133474703Y-123508141D01*
X133470826Y-123534278D01*
X133464406Y-123559909D01*
X133455505Y-123584788D01*
X133444207Y-123608674D01*
X133430623Y-123631337D01*
X133414883Y-123652560D01*
X133397139Y-123672139D01*
X133377560Y-123689883D01*
X133356337Y-123705623D01*
X133333674Y-123719207D01*
X133309788Y-123730505D01*
X133284909Y-123739406D01*
X133259278Y-123745826D01*
X133233141Y-123749703D01*
X133206750Y-123751000D01*
X132668250Y-123751000D01*
X132641859Y-123749703D01*
X132615722Y-123745826D01*
X132590091Y-123739406D01*
X132565212Y-123730505D01*
X132541326Y-123719207D01*
X132518663Y-123705623D01*
X132497440Y-123689883D01*
X132477861Y-123672139D01*
X132460117Y-123652560D01*
X132444377Y-123631337D01*
X132430793Y-123608674D01*
X132419495Y-123584788D01*
X132410594Y-123559909D01*
X132404174Y-123534278D01*
X132400297Y-123508141D01*
X132399000Y-123481750D01*
X132399000Y-122518250D01*
X132400297Y-122491859D01*
X132404174Y-122465722D01*
X132410594Y-122440091D01*
X132419495Y-122415212D01*
X132430793Y-122391326D01*
X132444377Y-122368663D01*
X132460117Y-122347440D01*
X132477861Y-122327861D01*
X132497440Y-122310117D01*
X132518663Y-122294377D01*
X132541326Y-122280793D01*
X132565212Y-122269495D01*
X132590091Y-122260594D01*
X132615722Y-122254174D01*
X132641859Y-122250297D01*
X132668250Y-122249000D01*
X133206750Y-122249000D01*
X133233141Y-122250297D01*
G37*
G36*
X131358141Y-122250297D02*
G01*
X131384278Y-122254174D01*
X131409909Y-122260594D01*
X131434788Y-122269495D01*
X131458674Y-122280793D01*
X131481337Y-122294377D01*
X131502560Y-122310117D01*
X131522139Y-122327861D01*
X131539883Y-122347440D01*
X131555623Y-122368663D01*
X131569207Y-122391326D01*
X131580505Y-122415212D01*
X131589406Y-122440091D01*
X131595826Y-122465722D01*
X131599703Y-122491859D01*
X131601000Y-122518250D01*
X131601000Y-123481750D01*
X131599703Y-123508141D01*
X131595826Y-123534278D01*
X131589406Y-123559909D01*
X131580505Y-123584788D01*
X131569207Y-123608674D01*
X131555623Y-123631337D01*
X131539883Y-123652560D01*
X131522139Y-123672139D01*
X131502560Y-123689883D01*
X131481337Y-123705623D01*
X131458674Y-123719207D01*
X131434788Y-123730505D01*
X131409909Y-123739406D01*
X131384278Y-123745826D01*
X131358141Y-123749703D01*
X131331750Y-123751000D01*
X130793250Y-123751000D01*
X130766859Y-123749703D01*
X130740722Y-123745826D01*
X130715091Y-123739406D01*
X130690212Y-123730505D01*
X130666326Y-123719207D01*
X130643663Y-123705623D01*
X130622440Y-123689883D01*
X130602861Y-123672139D01*
X130585117Y-123652560D01*
X130569377Y-123631337D01*
X130555793Y-123608674D01*
X130544495Y-123584788D01*
X130535594Y-123559909D01*
X130529174Y-123534278D01*
X130525297Y-123508141D01*
X130524000Y-123481750D01*
X130524000Y-122518250D01*
X130525297Y-122491859D01*
X130529174Y-122465722D01*
X130535594Y-122440091D01*
X130544495Y-122415212D01*
X130555793Y-122391326D01*
X130569377Y-122368663D01*
X130585117Y-122347440D01*
X130602861Y-122327861D01*
X130622440Y-122310117D01*
X130643663Y-122294377D01*
X130666326Y-122280793D01*
X130690212Y-122269495D01*
X130715091Y-122260594D01*
X130740722Y-122254174D01*
X130766859Y-122250297D01*
X130793250Y-122249000D01*
X131331750Y-122249000D01*
X131358141Y-122250297D01*
G37*
D21*
X131500000Y-115000000D03*
D22*
X131500000Y-120000000D03*
D18*
G36*
X133295641Y-136250297D02*
G01*
X133321778Y-136254174D01*
X133347409Y-136260594D01*
X133372288Y-136269495D01*
X133396174Y-136280793D01*
X133418837Y-136294377D01*
X133440060Y-136310117D01*
X133459639Y-136327861D01*
X133477383Y-136347440D01*
X133493123Y-136368663D01*
X133506707Y-136391326D01*
X133518005Y-136415212D01*
X133526906Y-136440091D01*
X133533326Y-136465722D01*
X133537203Y-136491859D01*
X133538500Y-136518250D01*
X133538500Y-137481750D01*
X133537203Y-137508141D01*
X133533326Y-137534278D01*
X133526906Y-137559909D01*
X133518005Y-137584788D01*
X133506707Y-137608674D01*
X133493123Y-137631337D01*
X133477383Y-137652560D01*
X133459639Y-137672139D01*
X133440060Y-137689883D01*
X133418837Y-137705623D01*
X133396174Y-137719207D01*
X133372288Y-137730505D01*
X133347409Y-137739406D01*
X133321778Y-137745826D01*
X133295641Y-137749703D01*
X133269250Y-137751000D01*
X132730750Y-137751000D01*
X132704359Y-137749703D01*
X132678222Y-137745826D01*
X132652591Y-137739406D01*
X132627712Y-137730505D01*
X132603826Y-137719207D01*
X132581163Y-137705623D01*
X132559940Y-137689883D01*
X132540361Y-137672139D01*
X132522617Y-137652560D01*
X132506877Y-137631337D01*
X132493293Y-137608674D01*
X132481995Y-137584788D01*
X132473094Y-137559909D01*
X132466674Y-137534278D01*
X132462797Y-137508141D01*
X132461500Y-137481750D01*
X132461500Y-136518250D01*
X132462797Y-136491859D01*
X132466674Y-136465722D01*
X132473094Y-136440091D01*
X132481995Y-136415212D01*
X132493293Y-136391326D01*
X132506877Y-136368663D01*
X132522617Y-136347440D01*
X132540361Y-136327861D01*
X132559940Y-136310117D01*
X132581163Y-136294377D01*
X132603826Y-136280793D01*
X132627712Y-136269495D01*
X132652591Y-136260594D01*
X132678222Y-136254174D01*
X132704359Y-136250297D01*
X132730750Y-136249000D01*
X133269250Y-136249000D01*
X133295641Y-136250297D01*
G37*
G36*
X131420641Y-136250297D02*
G01*
X131446778Y-136254174D01*
X131472409Y-136260594D01*
X131497288Y-136269495D01*
X131521174Y-136280793D01*
X131543837Y-136294377D01*
X131565060Y-136310117D01*
X131584639Y-136327861D01*
X131602383Y-136347440D01*
X131618123Y-136368663D01*
X131631707Y-136391326D01*
X131643005Y-136415212D01*
X131651906Y-136440091D01*
X131658326Y-136465722D01*
X131662203Y-136491859D01*
X131663500Y-136518250D01*
X131663500Y-137481750D01*
X131662203Y-137508141D01*
X131658326Y-137534278D01*
X131651906Y-137559909D01*
X131643005Y-137584788D01*
X131631707Y-137608674D01*
X131618123Y-137631337D01*
X131602383Y-137652560D01*
X131584639Y-137672139D01*
X131565060Y-137689883D01*
X131543837Y-137705623D01*
X131521174Y-137719207D01*
X131497288Y-137730505D01*
X131472409Y-137739406D01*
X131446778Y-137745826D01*
X131420641Y-137749703D01*
X131394250Y-137751000D01*
X130855750Y-137751000D01*
X130829359Y-137749703D01*
X130803222Y-137745826D01*
X130777591Y-137739406D01*
X130752712Y-137730505D01*
X130728826Y-137719207D01*
X130706163Y-137705623D01*
X130684940Y-137689883D01*
X130665361Y-137672139D01*
X130647617Y-137652560D01*
X130631877Y-137631337D01*
X130618293Y-137608674D01*
X130606995Y-137584788D01*
X130598094Y-137559909D01*
X130591674Y-137534278D01*
X130587797Y-137508141D01*
X130586500Y-137481750D01*
X130586500Y-136518250D01*
X130587797Y-136491859D01*
X130591674Y-136465722D01*
X130598094Y-136440091D01*
X130606995Y-136415212D01*
X130618293Y-136391326D01*
X130631877Y-136368663D01*
X130647617Y-136347440D01*
X130665361Y-136327861D01*
X130684940Y-136310117D01*
X130706163Y-136294377D01*
X130728826Y-136280793D01*
X130752712Y-136269495D01*
X130777591Y-136260594D01*
X130803222Y-136254174D01*
X130829359Y-136250297D01*
X130855750Y-136249000D01*
X131394250Y-136249000D01*
X131420641Y-136250297D01*
G37*
G36*
X133295641Y-147250297D02*
G01*
X133321778Y-147254174D01*
X133347409Y-147260594D01*
X133372288Y-147269495D01*
X133396174Y-147280793D01*
X133418837Y-147294377D01*
X133440060Y-147310117D01*
X133459639Y-147327861D01*
X133477383Y-147347440D01*
X133493123Y-147368663D01*
X133506707Y-147391326D01*
X133518005Y-147415212D01*
X133526906Y-147440091D01*
X133533326Y-147465722D01*
X133537203Y-147491859D01*
X133538500Y-147518250D01*
X133538500Y-148481750D01*
X133537203Y-148508141D01*
X133533326Y-148534278D01*
X133526906Y-148559909D01*
X133518005Y-148584788D01*
X133506707Y-148608674D01*
X133493123Y-148631337D01*
X133477383Y-148652560D01*
X133459639Y-148672139D01*
X133440060Y-148689883D01*
X133418837Y-148705623D01*
X133396174Y-148719207D01*
X133372288Y-148730505D01*
X133347409Y-148739406D01*
X133321778Y-148745826D01*
X133295641Y-148749703D01*
X133269250Y-148751000D01*
X132730750Y-148751000D01*
X132704359Y-148749703D01*
X132678222Y-148745826D01*
X132652591Y-148739406D01*
X132627712Y-148730505D01*
X132603826Y-148719207D01*
X132581163Y-148705623D01*
X132559940Y-148689883D01*
X132540361Y-148672139D01*
X132522617Y-148652560D01*
X132506877Y-148631337D01*
X132493293Y-148608674D01*
X132481995Y-148584788D01*
X132473094Y-148559909D01*
X132466674Y-148534278D01*
X132462797Y-148508141D01*
X132461500Y-148481750D01*
X132461500Y-147518250D01*
X132462797Y-147491859D01*
X132466674Y-147465722D01*
X132473094Y-147440091D01*
X132481995Y-147415212D01*
X132493293Y-147391326D01*
X132506877Y-147368663D01*
X132522617Y-147347440D01*
X132540361Y-147327861D01*
X132559940Y-147310117D01*
X132581163Y-147294377D01*
X132603826Y-147280793D01*
X132627712Y-147269495D01*
X132652591Y-147260594D01*
X132678222Y-147254174D01*
X132704359Y-147250297D01*
X132730750Y-147249000D01*
X133269250Y-147249000D01*
X133295641Y-147250297D01*
G37*
G36*
X131420641Y-147250297D02*
G01*
X131446778Y-147254174D01*
X131472409Y-147260594D01*
X131497288Y-147269495D01*
X131521174Y-147280793D01*
X131543837Y-147294377D01*
X131565060Y-147310117D01*
X131584639Y-147327861D01*
X131602383Y-147347440D01*
X131618123Y-147368663D01*
X131631707Y-147391326D01*
X131643005Y-147415212D01*
X131651906Y-147440091D01*
X131658326Y-147465722D01*
X131662203Y-147491859D01*
X131663500Y-147518250D01*
X131663500Y-148481750D01*
X131662203Y-148508141D01*
X131658326Y-148534278D01*
X131651906Y-148559909D01*
X131643005Y-148584788D01*
X131631707Y-148608674D01*
X131618123Y-148631337D01*
X131602383Y-148652560D01*
X131584639Y-148672139D01*
X131565060Y-148689883D01*
X131543837Y-148705623D01*
X131521174Y-148719207D01*
X131497288Y-148730505D01*
X131472409Y-148739406D01*
X131446778Y-148745826D01*
X131420641Y-148749703D01*
X131394250Y-148751000D01*
X130855750Y-148751000D01*
X130829359Y-148749703D01*
X130803222Y-148745826D01*
X130777591Y-148739406D01*
X130752712Y-148730505D01*
X130728826Y-148719207D01*
X130706163Y-148705623D01*
X130684940Y-148689883D01*
X130665361Y-148672139D01*
X130647617Y-148652560D01*
X130631877Y-148631337D01*
X130618293Y-148608674D01*
X130606995Y-148584788D01*
X130598094Y-148559909D01*
X130591674Y-148534278D01*
X130587797Y-148508141D01*
X130586500Y-148481750D01*
X130586500Y-147518250D01*
X130587797Y-147491859D01*
X130591674Y-147465722D01*
X130598094Y-147440091D01*
X130606995Y-147415212D01*
X130618293Y-147391326D01*
X130631877Y-147368663D01*
X130647617Y-147347440D01*
X130665361Y-147327861D01*
X130684940Y-147310117D01*
X130706163Y-147294377D01*
X130728826Y-147280793D01*
X130752712Y-147269495D01*
X130777591Y-147260594D01*
X130803222Y-147254174D01*
X130829359Y-147250297D01*
X130855750Y-147249000D01*
X131394250Y-147249000D01*
X131420641Y-147250297D01*
G37*
D21*
X131500000Y-140000000D03*
D22*
X131500000Y-145000000D03*
D23*
X160850000Y-33250000D03*
X160850000Y-26750000D03*
X159850000Y-31250000D03*
X158850000Y-33250000D03*
X159850000Y-28750000D03*
X158850000Y-26750000D03*
X157850000Y-31250000D03*
X156850000Y-33250000D03*
X157850000Y-28750000D03*
X156850000Y-26750000D03*
X155850000Y-31250000D03*
X154850000Y-33250000D03*
X155850000Y-28750000D03*
X154850000Y-26750000D03*
X153850000Y-31250000D03*
X152850000Y-33250000D03*
X153850000Y-28750000D03*
X152850000Y-26750000D03*
X151850000Y-31250000D03*
X150850000Y-33250000D03*
X151850000Y-28750000D03*
X150850000Y-26750000D03*
X149850000Y-31250000D03*
X148850000Y-33250000D03*
X149850000Y-28750000D03*
X148850000Y-26750000D03*
X147850000Y-31250000D03*
X146850000Y-33250000D03*
X147850000Y-28750000D03*
X146850000Y-26750000D03*
X145850000Y-31250000D03*
X144850000Y-33250000D03*
X145850000Y-28750000D03*
X144850000Y-26750000D03*
X143850000Y-31250000D03*
X142850000Y-33250000D03*
X143850000Y-28750000D03*
X142850000Y-26750000D03*
X141850000Y-31250000D03*
X140850000Y-33250000D03*
X141850000Y-28750000D03*
X140850000Y-26750000D03*
X139850000Y-31250000D03*
X138850000Y-33250000D03*
X139850000Y-28750000D03*
X138850000Y-26750000D03*
X137850000Y-31250000D03*
X136850000Y-33250000D03*
X137850000Y-28750000D03*
X136850000Y-26750000D03*
X135850000Y-31250000D03*
X134850000Y-33250000D03*
X135850000Y-28750000D03*
X134850000Y-26750000D03*
X133850000Y-31250000D03*
X132850000Y-33250000D03*
X133850000Y-28750000D03*
X132850000Y-26750000D03*
X131850000Y-31250000D03*
X130850000Y-33250000D03*
X131850000Y-28750000D03*
X130850000Y-26750000D03*
X129850000Y-31250000D03*
X128850000Y-33250000D03*
X129850000Y-28750000D03*
X128850000Y-26750000D03*
X127850000Y-31250000D03*
X126850000Y-33250000D03*
X127850000Y-28750000D03*
X126850000Y-26750000D03*
X125850000Y-31250000D03*
X124850000Y-33250000D03*
X125850000Y-28750000D03*
X124850000Y-26750000D03*
X123850000Y-31250000D03*
X122850000Y-33250000D03*
X123850000Y-28750000D03*
X122850000Y-26750000D03*
X121850000Y-31250000D03*
X120850000Y-33250000D03*
X121850000Y-28750000D03*
X120850000Y-26750000D03*
X119850000Y-31250000D03*
X118850000Y-33250000D03*
X119850000Y-28750000D03*
X118850000Y-26750000D03*
X117850000Y-31250000D03*
X116850000Y-33250000D03*
X117850000Y-28750000D03*
X116850000Y-26750000D03*
X115850000Y-31250000D03*
X114850000Y-33250000D03*
X115850000Y-28750000D03*
X114850000Y-26750000D03*
X113850000Y-31250000D03*
X112850000Y-33250000D03*
X113850000Y-28750000D03*
X112850000Y-26750000D03*
X111850000Y-31250000D03*
X110850000Y-33250000D03*
X111850000Y-28750000D03*
X110850000Y-26750000D03*
X109850000Y-31250000D03*
X108850000Y-33250000D03*
X109850000Y-28750000D03*
X108850000Y-26750000D03*
X107850000Y-31250000D03*
X106850000Y-33250000D03*
X107850000Y-28750000D03*
X106850000Y-26750000D03*
X105850000Y-31250000D03*
X104850000Y-33250000D03*
X105850000Y-28750000D03*
X104850000Y-26750000D03*
X103850000Y-31250000D03*
X102850000Y-33250000D03*
X103850000Y-28750000D03*
X102850000Y-26750000D03*
X101850000Y-31250000D03*
X100850000Y-33250000D03*
X101850000Y-28750000D03*
X100850000Y-26750000D03*
X99850000Y-31250000D03*
X98850000Y-33250000D03*
X99850000Y-28750000D03*
X98850000Y-26750000D03*
X97850000Y-31250000D03*
X96850000Y-33250000D03*
X97850000Y-28750000D03*
X96850000Y-26750000D03*
X95850000Y-31250000D03*
X94850000Y-33250000D03*
X95850000Y-28750000D03*
X94850000Y-26750000D03*
X93850000Y-31250000D03*
X92850000Y-33250000D03*
X93850000Y-28750000D03*
X92850000Y-26750000D03*
X78850000Y-26750000D03*
X77850000Y-28750000D03*
X78850000Y-33250000D03*
X77850000Y-31250000D03*
D21*
X162650000Y-30000000D03*
D23*
X91850000Y-31250000D03*
X91850000Y-28750000D03*
X90850000Y-33250000D03*
X90850000Y-26750000D03*
X80850000Y-26750000D03*
X80850000Y-33250000D03*
X82850000Y-26750000D03*
X82850000Y-33250000D03*
X84850000Y-26750000D03*
X84850000Y-33250000D03*
X86850000Y-33250000D03*
X86850000Y-26750000D03*
X79850000Y-31250000D03*
X79850000Y-28750000D03*
X81850000Y-31250000D03*
X81850000Y-28750000D03*
X83850000Y-31250000D03*
X83850000Y-28750000D03*
X85850000Y-31250000D03*
X85850000Y-28750000D03*
D21*
X89500000Y-30000000D03*
D23*
X87850000Y-31250000D03*
X87850000Y-28750000D03*
X160850000Y-58250000D03*
X160850000Y-51750000D03*
X159850000Y-56250000D03*
X158850000Y-58250000D03*
X159850000Y-53750000D03*
X158850000Y-51750000D03*
X157850000Y-56250000D03*
X156850000Y-58250000D03*
X157850000Y-53750000D03*
X156850000Y-51750000D03*
X155850000Y-56250000D03*
X154850000Y-58250000D03*
X155850000Y-53750000D03*
X154850000Y-51750000D03*
X153850000Y-56250000D03*
X152850000Y-58250000D03*
X153850000Y-53750000D03*
X152850000Y-51750000D03*
X151850000Y-56250000D03*
X150850000Y-58250000D03*
X151850000Y-53750000D03*
X150850000Y-51750000D03*
X149850000Y-56250000D03*
X148850000Y-58250000D03*
X149850000Y-53750000D03*
X148850000Y-51750000D03*
X147850000Y-56250000D03*
X146850000Y-58250000D03*
X147850000Y-53750000D03*
X146850000Y-51750000D03*
X145850000Y-56250000D03*
X144850000Y-58250000D03*
X145850000Y-53750000D03*
X144850000Y-51750000D03*
X143850000Y-56250000D03*
X142850000Y-58250000D03*
X143850000Y-53750000D03*
X142850000Y-51750000D03*
X141850000Y-56250000D03*
X140850000Y-58250000D03*
X141850000Y-53750000D03*
X140850000Y-51750000D03*
X139850000Y-56250000D03*
X138850000Y-58250000D03*
X139850000Y-53750000D03*
X138850000Y-51750000D03*
X137850000Y-56250000D03*
X136850000Y-58250000D03*
X137850000Y-53750000D03*
X136850000Y-51750000D03*
X135850000Y-56250000D03*
X134850000Y-58250000D03*
X135850000Y-53750000D03*
X134850000Y-51750000D03*
X133850000Y-56250000D03*
X132850000Y-58250000D03*
X133850000Y-53750000D03*
X132850000Y-51750000D03*
X131850000Y-56250000D03*
X130850000Y-58250000D03*
X131850000Y-53750000D03*
X130850000Y-51750000D03*
X129850000Y-56250000D03*
X128850000Y-58250000D03*
X129850000Y-53750000D03*
X128850000Y-51750000D03*
X127850000Y-56250000D03*
X126850000Y-58250000D03*
X127850000Y-53750000D03*
X126850000Y-51750000D03*
X125850000Y-56250000D03*
X124850000Y-58250000D03*
X125850000Y-53750000D03*
X124850000Y-51750000D03*
X123850000Y-56250000D03*
X122850000Y-58250000D03*
X123850000Y-53750000D03*
X122850000Y-51750000D03*
X121850000Y-56250000D03*
X120850000Y-58250000D03*
X121850000Y-53750000D03*
X120850000Y-51750000D03*
X119850000Y-56250000D03*
X118850000Y-58250000D03*
X119850000Y-53750000D03*
X118850000Y-51750000D03*
X117850000Y-56250000D03*
X116850000Y-58250000D03*
X117850000Y-53750000D03*
X116850000Y-51750000D03*
X115850000Y-56250000D03*
X114850000Y-58250000D03*
X115850000Y-53750000D03*
X114850000Y-51750000D03*
X113850000Y-56250000D03*
X112850000Y-58250000D03*
X113850000Y-53750000D03*
X112850000Y-51750000D03*
X111850000Y-56250000D03*
X110850000Y-58250000D03*
X111850000Y-53750000D03*
X110850000Y-51750000D03*
X109850000Y-56250000D03*
X108850000Y-58250000D03*
X109850000Y-53750000D03*
X108850000Y-51750000D03*
X107850000Y-56250000D03*
X106850000Y-58250000D03*
X107850000Y-53750000D03*
X106850000Y-51750000D03*
X105850000Y-56250000D03*
X104850000Y-58250000D03*
X105850000Y-53750000D03*
X104850000Y-51750000D03*
X103850000Y-56250000D03*
X102850000Y-58250000D03*
X103850000Y-53750000D03*
X102850000Y-51750000D03*
X101850000Y-56250000D03*
X100850000Y-58250000D03*
X101850000Y-53750000D03*
X100850000Y-51750000D03*
X99850000Y-56250000D03*
X98850000Y-58250000D03*
X99850000Y-53750000D03*
X98850000Y-51750000D03*
X97850000Y-56250000D03*
X96850000Y-58250000D03*
X97850000Y-53750000D03*
X96850000Y-51750000D03*
X95850000Y-56250000D03*
X94850000Y-58250000D03*
X95850000Y-53750000D03*
X94850000Y-51750000D03*
X93850000Y-56250000D03*
X92850000Y-58250000D03*
X93850000Y-53750000D03*
X92850000Y-51750000D03*
X78850000Y-51750000D03*
X77850000Y-53750000D03*
X78850000Y-58250000D03*
X77850000Y-56250000D03*
D21*
X162650000Y-55000000D03*
D23*
X91850000Y-56250000D03*
X91850000Y-53750000D03*
X90850000Y-58250000D03*
X90850000Y-51750000D03*
X80850000Y-51750000D03*
X80850000Y-58250000D03*
X82850000Y-51750000D03*
X82850000Y-58250000D03*
X84850000Y-51750000D03*
X84850000Y-58250000D03*
X86850000Y-58250000D03*
X86850000Y-51750000D03*
X79850000Y-56250000D03*
X79850000Y-53750000D03*
X81850000Y-56250000D03*
X81850000Y-53750000D03*
X83850000Y-56250000D03*
X83850000Y-53750000D03*
X85850000Y-56250000D03*
X85850000Y-53750000D03*
D21*
X89500000Y-55000000D03*
D23*
X87850000Y-56250000D03*
X87850000Y-53750000D03*
X160850000Y-83250000D03*
X160850000Y-76750000D03*
X159850000Y-81250000D03*
X158850000Y-83250000D03*
X159850000Y-78750000D03*
X158850000Y-76750000D03*
X157850000Y-81250000D03*
X156850000Y-83250000D03*
X157850000Y-78750000D03*
X156850000Y-76750000D03*
X155850000Y-81250000D03*
X154850000Y-83250000D03*
X155850000Y-78750000D03*
X154850000Y-76750000D03*
X153850000Y-81250000D03*
X152850000Y-83250000D03*
X153850000Y-78750000D03*
X152850000Y-76750000D03*
X151850000Y-81250000D03*
X150850000Y-83250000D03*
X151850000Y-78750000D03*
X150850000Y-76750000D03*
X149850000Y-81250000D03*
X148850000Y-83250000D03*
X149850000Y-78750000D03*
X148850000Y-76750000D03*
X147850000Y-81250000D03*
X146850000Y-83250000D03*
X147850000Y-78750000D03*
X146850000Y-76750000D03*
X145850000Y-81250000D03*
X144850000Y-83250000D03*
X145850000Y-78750000D03*
X144850000Y-76750000D03*
X143850000Y-81250000D03*
X142850000Y-83250000D03*
X143850000Y-78750000D03*
X142850000Y-76750000D03*
X141850000Y-81250000D03*
X140850000Y-83250000D03*
X141850000Y-78750000D03*
X140850000Y-76750000D03*
X139850000Y-81250000D03*
X138850000Y-83250000D03*
X139850000Y-78750000D03*
X138850000Y-76750000D03*
X137850000Y-81250000D03*
X136850000Y-83250000D03*
X137850000Y-78750000D03*
X136850000Y-76750000D03*
X135850000Y-81250000D03*
X134850000Y-83250000D03*
X135850000Y-78750000D03*
X134850000Y-76750000D03*
X133850000Y-81250000D03*
X132850000Y-83250000D03*
X133850000Y-78750000D03*
X132850000Y-76750000D03*
X131850000Y-81250000D03*
X130850000Y-83250000D03*
X131850000Y-78750000D03*
X130850000Y-76750000D03*
X129850000Y-81250000D03*
X128850000Y-83250000D03*
X129850000Y-78750000D03*
X128850000Y-76750000D03*
X127850000Y-81250000D03*
X126850000Y-83250000D03*
X127850000Y-78750000D03*
X126850000Y-76750000D03*
X125850000Y-81250000D03*
X124850000Y-83250000D03*
X125850000Y-78750000D03*
X124850000Y-76750000D03*
X123850000Y-81250000D03*
X122850000Y-83250000D03*
X123850000Y-78750000D03*
X122850000Y-76750000D03*
X121850000Y-81250000D03*
X120850000Y-83250000D03*
X121850000Y-78750000D03*
X120850000Y-76750000D03*
X119850000Y-81250000D03*
X118850000Y-83250000D03*
X119850000Y-78750000D03*
X118850000Y-76750000D03*
X117850000Y-81250000D03*
X116850000Y-83250000D03*
X117850000Y-78750000D03*
X116850000Y-76750000D03*
X115850000Y-81250000D03*
X114850000Y-83250000D03*
X115850000Y-78750000D03*
X114850000Y-76750000D03*
X113850000Y-81250000D03*
X112850000Y-83250000D03*
X113850000Y-78750000D03*
X112850000Y-76750000D03*
X111850000Y-81250000D03*
X110850000Y-83250000D03*
X111850000Y-78750000D03*
X110850000Y-76750000D03*
X109850000Y-81250000D03*
X108850000Y-83250000D03*
X109850000Y-78750000D03*
X108850000Y-76750000D03*
X107850000Y-81250000D03*
X106850000Y-83250000D03*
X107850000Y-78750000D03*
X106850000Y-76750000D03*
X105850000Y-81250000D03*
X104850000Y-83250000D03*
X105850000Y-78750000D03*
X104850000Y-76750000D03*
X103850000Y-81250000D03*
X102850000Y-83250000D03*
X103850000Y-78750000D03*
X102850000Y-76750000D03*
X101850000Y-81250000D03*
X100850000Y-83250000D03*
X101850000Y-78750000D03*
X100850000Y-76750000D03*
X99850000Y-81250000D03*
X98850000Y-83250000D03*
X99850000Y-78750000D03*
X98850000Y-76750000D03*
X97850000Y-81250000D03*
X96850000Y-83250000D03*
X97850000Y-78750000D03*
X96850000Y-76750000D03*
X95850000Y-81250000D03*
X94850000Y-83250000D03*
X95850000Y-78750000D03*
X94850000Y-76750000D03*
X93850000Y-81250000D03*
X92850000Y-83250000D03*
X93850000Y-78750000D03*
X92850000Y-76750000D03*
X78850000Y-76750000D03*
X77850000Y-78750000D03*
X78850000Y-83250000D03*
X77850000Y-81250000D03*
D21*
X162650000Y-80000000D03*
D23*
X91850000Y-81250000D03*
X91850000Y-78750000D03*
X90850000Y-83250000D03*
X90850000Y-76750000D03*
X80850000Y-76750000D03*
X80850000Y-83250000D03*
X82850000Y-76750000D03*
X82850000Y-83250000D03*
X84850000Y-76750000D03*
X84850000Y-83250000D03*
X86850000Y-83250000D03*
X86850000Y-76750000D03*
X79850000Y-81250000D03*
X79850000Y-78750000D03*
X81850000Y-81250000D03*
X81850000Y-78750000D03*
X83850000Y-81250000D03*
X83850000Y-78750000D03*
X85850000Y-81250000D03*
X85850000Y-78750000D03*
D21*
X89500000Y-80000000D03*
D23*
X87850000Y-81250000D03*
X87850000Y-78750000D03*
X160850000Y-108250000D03*
X160850000Y-101750000D03*
X159850000Y-106250000D03*
X158850000Y-108250000D03*
X159850000Y-103750000D03*
X158850000Y-101750000D03*
X157850000Y-106250000D03*
X156850000Y-108250000D03*
X157850000Y-103750000D03*
X156850000Y-101750000D03*
X155850000Y-106250000D03*
X154850000Y-108250000D03*
X155850000Y-103750000D03*
X154850000Y-101750000D03*
X153850000Y-106250000D03*
X152850000Y-108250000D03*
X153850000Y-103750000D03*
X152850000Y-101750000D03*
X151850000Y-106250000D03*
X150850000Y-108250000D03*
X151850000Y-103750000D03*
X150850000Y-101750000D03*
X149850000Y-106250000D03*
X148850000Y-108250000D03*
X149850000Y-103750000D03*
X148850000Y-101750000D03*
X147850000Y-106250000D03*
X146850000Y-108250000D03*
X147850000Y-103750000D03*
X146850000Y-101750000D03*
X145850000Y-106250000D03*
X144850000Y-108250000D03*
X145850000Y-103750000D03*
X144850000Y-101750000D03*
X143850000Y-106250000D03*
X142850000Y-108250000D03*
X143850000Y-103750000D03*
X142850000Y-101750000D03*
X141850000Y-106250000D03*
X140850000Y-108250000D03*
X141850000Y-103750000D03*
X140850000Y-101750000D03*
X139850000Y-106250000D03*
X138850000Y-108250000D03*
X139850000Y-103750000D03*
X138850000Y-101750000D03*
X137850000Y-106250000D03*
X136850000Y-108250000D03*
X137850000Y-103750000D03*
X136850000Y-101750000D03*
X135850000Y-106250000D03*
X134850000Y-108250000D03*
X135850000Y-103750000D03*
X134850000Y-101750000D03*
X133850000Y-106250000D03*
X132850000Y-108250000D03*
X133850000Y-103750000D03*
X132850000Y-101750000D03*
X131850000Y-106250000D03*
X130850000Y-108250000D03*
X131850000Y-103750000D03*
X130850000Y-101750000D03*
X129850000Y-106250000D03*
X128850000Y-108250000D03*
X129850000Y-103750000D03*
X128850000Y-101750000D03*
X127850000Y-106250000D03*
X126850000Y-108250000D03*
X127850000Y-103750000D03*
X126850000Y-101750000D03*
X125850000Y-106250000D03*
X124850000Y-108250000D03*
X125850000Y-103750000D03*
X124850000Y-101750000D03*
X123850000Y-106250000D03*
X122850000Y-108250000D03*
X123850000Y-103750000D03*
X122850000Y-101750000D03*
X121850000Y-106250000D03*
X120850000Y-108250000D03*
X121850000Y-103750000D03*
X120850000Y-101750000D03*
X119850000Y-106250000D03*
X118850000Y-108250000D03*
X119850000Y-103750000D03*
X118850000Y-101750000D03*
X117850000Y-106250000D03*
X116850000Y-108250000D03*
X117850000Y-103750000D03*
X116850000Y-101750000D03*
X115850000Y-106250000D03*
X114850000Y-108250000D03*
X115850000Y-103750000D03*
X114850000Y-101750000D03*
X113850000Y-106250000D03*
X112850000Y-108250000D03*
X113850000Y-103750000D03*
X112850000Y-101750000D03*
X111850000Y-106250000D03*
X110850000Y-108250000D03*
X111850000Y-103750000D03*
X110850000Y-101750000D03*
X109850000Y-106250000D03*
X108850000Y-108250000D03*
X109850000Y-103750000D03*
X108850000Y-101750000D03*
X107850000Y-106250000D03*
X106850000Y-108250000D03*
X107850000Y-103750000D03*
X106850000Y-101750000D03*
X105850000Y-106250000D03*
X104850000Y-108250000D03*
X105850000Y-103750000D03*
X104850000Y-101750000D03*
X103850000Y-106250000D03*
X102850000Y-108250000D03*
X103850000Y-103750000D03*
X102850000Y-101750000D03*
X101850000Y-106250000D03*
X100850000Y-108250000D03*
X101850000Y-103750000D03*
X100850000Y-101750000D03*
X99850000Y-106250000D03*
X98850000Y-108250000D03*
X99850000Y-103750000D03*
X98850000Y-101750000D03*
X97850000Y-106250000D03*
X96850000Y-108250000D03*
X97850000Y-103750000D03*
X96850000Y-101750000D03*
X95850000Y-106250000D03*
X94850000Y-108250000D03*
X95850000Y-103750000D03*
X94850000Y-101750000D03*
X93850000Y-106250000D03*
X92850000Y-108250000D03*
X93850000Y-103750000D03*
X92850000Y-101750000D03*
X78850000Y-101750000D03*
X77850000Y-103750000D03*
X78850000Y-108250000D03*
X77850000Y-106250000D03*
D21*
X162650000Y-105000000D03*
D23*
X91850000Y-106250000D03*
X91850000Y-103750000D03*
X90850000Y-108250000D03*
X90850000Y-101750000D03*
X80850000Y-101750000D03*
X80850000Y-108250000D03*
X82850000Y-101750000D03*
X82850000Y-108250000D03*
X84850000Y-101750000D03*
X84850000Y-108250000D03*
X86850000Y-108250000D03*
X86850000Y-101750000D03*
X79850000Y-106250000D03*
X79850000Y-103750000D03*
X81850000Y-106250000D03*
X81850000Y-103750000D03*
X83850000Y-106250000D03*
X83850000Y-103750000D03*
X85850000Y-106250000D03*
X85850000Y-103750000D03*
D21*
X89500000Y-105000000D03*
D23*
X87850000Y-106250000D03*
X87850000Y-103750000D03*
D21*
X131500000Y-15000000D03*
D22*
X131500000Y-20000000D03*
D21*
X131500000Y-40000000D03*
D22*
X131500000Y-45000000D03*
M02*
