M48
; DRILL file {KiCad (5.1.5)-3} date 2020/02/02 15:47:31
; FORMAT={-:-/ absolute / metric / decimal}
; #@! TF.CreationDate,2020-02-02T15:47:31+09:00
; #@! TF.GenerationSoftware,Kicad,Pcbnew,(5.1.5)-3
; #@! TF.FileFunction,Plated,1,2,PTH
FMAT,2
METRIC
T1C0.300
T2C0.400
T3C0.780
T4C0.900
T5C1.000
T6C1.020
T7C1.200
T8C4.500
%
G90
G05
T1
X77.5Y-20.0
X77.5Y-25.0
X77.5Y-35.0
X77.5Y-40.0
X77.5Y-45.0
X77.5Y-50.0
X77.5Y-60.0
X77.5Y-65.0
X77.5Y-70.0
X77.5Y-75.0
X77.5Y-85.0
X77.5Y-90.0
X77.5Y-95.0
X77.5Y-100.0
X77.5Y-110.0
X77.5Y-115.0
X77.5Y-120.0
X77.5Y-125.0
X77.5Y-135.0
X77.5Y-140.0
X77.5Y-145.0
X77.5Y-150.0
X77.5Y-160.0
X77.5Y-165.0
X77.5Y-170.0
X80.0Y-10.0
X80.0Y-20.0
X80.0Y-25.0
X80.0Y-85.0
X80.0Y-90.0
X80.0Y-95.0
X80.0Y-100.0
X80.0Y-110.0
X80.0Y-115.0
X80.0Y-120.0
X80.0Y-125.0
X80.0Y-135.0
X80.0Y-140.0
X80.0Y-145.0
X80.0Y-150.0
X80.0Y-160.0
X80.0Y-165.0
X80.0Y-170.0
X80.04Y-180.0
X85.0Y0.0
X85.0Y-5.0
X85.0Y-10.0
X85.0Y-180.0
X85.0Y-180.0
X85.0Y-185.0
X85.0Y-190.0
X90.0Y0.0
X90.0Y-5.0
X90.0Y-10.0
X90.0Y-20.0
X90.0Y-25.0
X90.0Y-35.0
X90.0Y-40.0
X90.0Y-45.0
X90.0Y-50.0
X90.0Y-60.0
X90.0Y-65.0
X90.0Y-70.0
X90.0Y-75.0
X90.0Y-85.0
X90.0Y-90.0
X90.0Y-95.0
X90.0Y-100.0
X90.0Y-110.0
X90.0Y-115.0
X90.0Y-120.0
X90.0Y-125.0
X90.0Y-135.0
X90.0Y-140.0
X90.0Y-145.0
X90.0Y-150.0
X90.0Y-160.0
X90.0Y-165.0
X90.0Y-170.0
X90.0Y-180.0
X90.0Y-185.0
X90.0Y-190.0
X95.0Y0.0
X95.0Y-5.0
X95.0Y-10.0
X95.0Y-15.0
X95.0Y-20.0
X95.0Y-25.0
X95.0Y-35.0
X95.0Y-40.0
X95.0Y-45.0
X95.0Y-50.0
X95.0Y-60.0
X95.0Y-65.0
X95.0Y-70.0
X95.0Y-75.0
X95.0Y-85.0
X95.0Y-90.0
X95.0Y-95.0
X95.0Y-100.0
X95.0Y-110.0
X95.0Y-115.0
X95.0Y-120.0
X95.0Y-125.0
X95.0Y-135.0
X95.0Y-140.0
X95.0Y-145.0
X95.0Y-150.0
X95.0Y-160.0
X95.0Y-165.0
X95.0Y-170.0
X95.0Y-175.0
X95.0Y-180.0
X95.0Y-185.0
X95.0Y-190.0
X100.0Y0.0
X100.0Y-5.0
X100.0Y-10.0
X100.0Y-15.0
X100.0Y-20.0
X100.0Y-25.0
X100.0Y-35.0
X100.0Y-40.0
X100.0Y-45.0
X100.0Y-50.0
X100.0Y-60.0
X100.0Y-65.0
X100.0Y-70.0
X100.0Y-75.0
X100.0Y-85.0
X100.0Y-90.0
X100.0Y-95.0
X100.0Y-100.0
X100.0Y-110.0
X100.0Y-115.0
X100.0Y-120.0
X100.0Y-125.0
X100.0Y-135.0
X100.0Y-140.0
X100.0Y-145.0
X100.0Y-150.0
X100.0Y-160.0
X100.0Y-165.0
X100.0Y-170.0
X100.0Y-175.0
X100.5Y-185.0
X100.5Y-190.0
X105.0Y0.0
X105.0Y-5.0
X105.0Y-10.0
X105.0Y-15.0
X105.0Y-20.0
X105.0Y-25.0
X105.0Y-35.0
X105.0Y-40.0
X105.0Y-45.0
X105.0Y-50.0
X105.0Y-60.0
X105.0Y-65.0
X105.0Y-70.0
X105.0Y-75.0
X105.0Y-85.0
X105.0Y-90.0
X105.0Y-95.0
X105.0Y-100.0
X105.0Y-110.0
X105.0Y-115.0
X105.0Y-120.0
X105.0Y-125.0
X105.0Y-135.0
X105.0Y-140.0
X105.0Y-145.0
X105.0Y-150.0
X105.0Y-160.0
X105.0Y-165.0
X105.0Y-170.0
X105.0Y-175.0
X105.0Y-180.0
X110.0Y0.0
X110.0Y-5.0
X110.0Y-10.0
X110.0Y-15.0
X110.0Y-20.0
X110.0Y-25.0
X110.0Y-35.0
X110.0Y-40.0
X110.0Y-45.0
X110.0Y-50.0
X110.0Y-60.0
X110.0Y-65.0
X110.0Y-70.0
X110.0Y-75.0
X110.0Y-85.0
X110.0Y-90.0
X110.0Y-95.0
X110.0Y-100.0
X110.0Y-110.0
X110.0Y-115.0
X110.0Y-120.0
X110.0Y-125.0
X110.0Y-135.0
X110.0Y-140.0
X110.0Y-145.0
X110.0Y-150.0
X110.0Y-160.0
X110.0Y-165.0
X110.0Y-170.0
X110.0Y-175.0
X110.0Y-190.0
X115.0Y0.0
X115.0Y-5.0
X115.0Y-10.0
X115.0Y-15.0
X115.0Y-20.0
X115.0Y-25.0
X115.0Y-35.0
X115.0Y-40.0
X115.0Y-45.0
X115.0Y-50.0
X115.0Y-60.0
X115.0Y-65.0
X115.0Y-70.0
X115.0Y-75.0
X115.0Y-85.0
X115.0Y-90.0
X115.0Y-95.0
X115.0Y-100.0
X115.0Y-110.0
X115.0Y-115.0
X115.0Y-120.0
X115.0Y-125.0
X115.0Y-135.0
X115.0Y-140.0
X115.0Y-145.0
X115.0Y-150.0
X115.0Y-160.0
X115.0Y-165.0
X115.0Y-170.0
X115.0Y-175.0
X115.0Y-180.0
X115.0Y-190.0
X120.0Y0.0
X120.0Y-5.0
X120.0Y-10.0
X120.0Y-15.0
X120.0Y-20.0
X120.0Y-25.0
X120.0Y-35.0
X120.0Y-40.0
X120.0Y-45.0
X120.0Y-50.0
X120.0Y-60.0
X120.0Y-65.0
X120.0Y-70.0
X120.0Y-75.0
X120.0Y-85.0
X120.0Y-90.0
X120.0Y-95.0
X120.0Y-100.0
X120.0Y-110.0
X120.0Y-115.0
X120.0Y-120.0
X120.0Y-125.0
X120.0Y-135.0
X120.0Y-140.0
X120.0Y-145.0
X120.0Y-150.0
X120.0Y-160.0
X120.0Y-165.0
X120.0Y-170.0
X120.0Y-175.0
X120.0Y-180.0
X120.0Y-185.0
X120.0Y-190.0
X125.0Y0.0
X125.0Y-5.0
X125.0Y-10.0
X125.0Y-15.0
X125.0Y-20.0
X125.0Y-25.0
X125.0Y-35.0
X125.0Y-40.0
X125.0Y-45.0
X125.0Y-50.0
X125.0Y-60.0
X125.0Y-65.0
X125.0Y-70.0
X125.0Y-75.0
X125.0Y-85.0
X125.0Y-90.0
X125.0Y-95.0
X125.0Y-100.0
X125.0Y-110.0
X125.0Y-115.0
X125.0Y-120.0
X125.0Y-125.0
X125.0Y-135.0
X125.0Y-140.0
X125.0Y-145.0
X125.0Y-150.0
X125.0Y-160.0
X125.0Y-165.0
X125.0Y-170.0
X125.0Y-175.0
X125.0Y-180.0
X125.0Y-185.0
X125.0Y-190.0
X130.0Y-10.0
X130.0Y-25.0
X130.0Y-35.0
X130.0Y-50.0
X130.0Y-60.0
X130.0Y-75.0
X130.0Y-85.0
X130.0Y-100.0
X130.0Y-110.0
X130.0Y-125.0
X130.0Y-135.0
X130.0Y-150.0
X130.0Y-160.0
X130.0Y-175.0
X130.0Y-190.0
X135.0Y-10.0
X135.0Y-15.0
X135.0Y-20.0
X135.0Y-25.0
X135.0Y-35.0
X135.0Y-40.0
X135.0Y-45.0
X135.0Y-50.0
X135.0Y-60.0
X135.0Y-65.0
X135.0Y-70.0
X135.0Y-75.0
X135.0Y-85.0
X135.0Y-90.0
X135.0Y-95.0
X135.0Y-100.0
X135.0Y-110.0
X135.0Y-115.0
X135.0Y-120.0
X135.0Y-125.0
X135.0Y-135.0
X135.0Y-140.0
X135.0Y-145.0
X135.0Y-150.0
X135.0Y-160.0
X135.0Y-165.0
X135.0Y-170.0
X135.0Y-175.0
X135.0Y-190.0
X140.0Y-10.0
X140.0Y-15.0
X140.0Y-20.0
X140.0Y-25.0
X140.0Y-35.0
X140.0Y-40.0
X140.0Y-45.0
X140.0Y-50.0
X140.0Y-60.0
X140.0Y-65.0
X140.0Y-70.0
X140.0Y-75.0
X140.0Y-85.0
X140.0Y-90.0
X140.0Y-95.0
X140.0Y-100.0
X140.0Y-110.0
X140.0Y-115.0
X140.0Y-120.0
X140.0Y-125.0
X140.0Y-135.0
X140.0Y-140.0
X140.0Y-145.0
X140.0Y-150.0
X140.0Y-160.0
X140.0Y-165.0
X140.0Y-170.0
X140.0Y-175.0
X140.0Y-190.0
X145.0Y0.0
X145.0Y-5.0
X145.0Y-10.0
X145.0Y-15.0
X145.0Y-20.0
X145.0Y-25.0
X145.0Y-35.0
X145.0Y-40.0
X145.0Y-45.0
X145.0Y-50.0
X145.0Y-60.0
X145.0Y-65.0
X145.0Y-70.0
X145.0Y-75.0
X145.0Y-85.0
X145.0Y-90.0
X145.0Y-95.0
X145.0Y-100.0
X145.0Y-110.0
X145.0Y-115.0
X145.0Y-120.0
X145.0Y-125.0
X145.0Y-135.0
X145.0Y-140.0
X145.0Y-145.0
X145.0Y-150.0
X145.0Y-160.0
X145.0Y-165.0
X145.0Y-170.0
X145.0Y-175.0
X145.0Y-180.0
X145.0Y-185.0
X145.0Y-190.0
X150.0Y0.0
X150.0Y-5.0
X150.0Y-10.0
X150.0Y-15.0
X150.0Y-20.0
X150.0Y-25.0
X150.0Y-35.0
X150.0Y-40.0
X150.0Y-45.0
X150.0Y-50.0
X150.0Y-60.0
X150.0Y-65.0
X150.0Y-70.0
X150.0Y-75.0
X150.0Y-85.0
X150.0Y-90.0
X150.0Y-95.0
X150.0Y-100.0
X150.0Y-110.0
X150.0Y-115.0
X150.0Y-120.0
X150.0Y-125.0
X150.0Y-135.0
X150.0Y-140.0
X150.0Y-145.0
X150.0Y-150.0
X150.0Y-160.0
X150.0Y-165.0
X150.0Y-170.0
X150.0Y-175.0
X150.0Y-180.0
X150.0Y-185.0
X150.0Y-190.0
X155.0Y0.0
X155.0Y-5.0
X155.0Y-10.0
X155.0Y-15.0
X155.0Y-20.0
X155.0Y-25.0
X155.0Y-35.0
X155.0Y-40.0
X155.0Y-45.0
X155.0Y-50.0
X155.0Y-60.0
X155.0Y-65.0
X155.0Y-70.0
X155.0Y-75.0
X155.0Y-85.0
X155.0Y-90.0
X155.0Y-95.0
X155.0Y-100.0
X155.0Y-110.0
X155.0Y-115.0
X155.0Y-120.0
X155.0Y-125.0
X155.0Y-135.0
X155.0Y-140.0
X155.0Y-145.0
X155.0Y-150.0
X155.0Y-160.0
X155.0Y-165.0
X155.0Y-170.0
X155.0Y-175.0
X155.0Y-180.0
X155.0Y-185.0
X155.0Y-190.0
X160.0Y-10.0
X160.0Y-15.0
X160.0Y-20.0
X160.0Y-25.0
X160.0Y-35.0
X160.0Y-40.0
X160.0Y-45.0
X160.0Y-50.0
X160.0Y-60.0
X160.0Y-65.0
X160.0Y-70.0
X160.0Y-75.0
X160.0Y-85.0
X160.0Y-90.0
X160.0Y-95.0
X160.0Y-100.0
X160.0Y-110.0
X160.0Y-115.0
X160.0Y-120.0
X160.0Y-125.0
X160.0Y-135.0
X160.0Y-140.0
X160.0Y-145.0
X160.0Y-150.0
X160.0Y-160.0
X160.0Y-165.0
X160.0Y-170.0
X160.0Y-170.0
X160.0Y-175.0
X160.0Y-185.0
X160.0Y-190.0
X165.0Y0.0
X165.0Y-5.0
X165.0Y-10.0
X165.0Y-15.0
X165.0Y-20.0
X165.0Y-25.0
X165.0Y-30.0
X165.0Y-35.0
X165.0Y-40.0
T2
X110.0Y-185.0
X115.0Y-185.0
T3
X77.85Y-78.75
X77.85Y-81.25
X78.85Y-76.75
X78.85Y-83.25
X79.85Y-78.75
X79.85Y-81.25
X80.85Y-76.75
X80.85Y-83.25
X81.85Y-78.75
X81.85Y-81.25
X82.85Y-76.75
X82.85Y-83.25
X83.85Y-78.75
X83.85Y-81.25
X84.85Y-76.75
X84.85Y-83.25
X85.85Y-78.75
X85.85Y-81.25
X86.85Y-76.75
X86.85Y-83.25
X87.85Y-78.75
X87.85Y-81.25
X90.85Y-76.75
X90.85Y-83.25
X91.85Y-78.75
X91.85Y-81.25
X92.85Y-76.75
X92.85Y-83.25
X93.85Y-78.75
X93.85Y-81.25
X94.85Y-76.75
X94.85Y-83.25
X95.85Y-78.75
X95.85Y-81.25
X96.85Y-76.75
X96.85Y-83.25
X97.85Y-78.75
X97.85Y-81.25
X98.85Y-76.75
X98.85Y-83.25
X99.85Y-78.75
X99.85Y-81.25
X100.85Y-76.75
X100.85Y-83.25
X101.85Y-78.75
X101.85Y-81.25
X102.85Y-76.75
X102.85Y-83.25
X103.85Y-78.75
X103.85Y-81.25
X104.85Y-76.75
X104.85Y-83.25
X105.85Y-78.75
X105.85Y-81.25
X106.85Y-76.75
X106.85Y-83.25
X107.85Y-78.75
X107.85Y-81.25
X108.85Y-76.75
X108.85Y-83.25
X109.85Y-78.75
X109.85Y-81.25
X110.85Y-76.75
X110.85Y-83.25
X111.85Y-78.75
X111.85Y-81.25
X112.85Y-76.75
X112.85Y-83.25
X113.85Y-78.75
X113.85Y-81.25
X114.85Y-76.75
X114.85Y-83.25
X115.85Y-78.75
X115.85Y-81.25
X116.85Y-76.75
X116.85Y-83.25
X117.85Y-78.75
X117.85Y-81.25
X118.85Y-76.75
X118.85Y-83.25
X119.85Y-78.75
X119.85Y-81.25
X120.85Y-76.75
X120.85Y-83.25
X121.85Y-78.75
X121.85Y-81.25
X122.85Y-76.75
X122.85Y-83.25
X123.85Y-78.75
X123.85Y-81.25
X124.85Y-76.75
X124.85Y-83.25
X125.85Y-78.75
X125.85Y-81.25
X126.85Y-76.75
X126.85Y-83.25
X127.85Y-78.75
X127.85Y-81.25
X128.85Y-76.75
X128.85Y-83.25
X129.85Y-78.75
X129.85Y-81.25
X130.85Y-76.75
X130.85Y-83.25
X131.85Y-78.75
X131.85Y-81.25
X132.85Y-76.75
X132.85Y-83.25
X133.85Y-78.75
X133.85Y-81.25
X134.85Y-76.75
X134.85Y-83.25
X135.85Y-78.75
X135.85Y-81.25
X136.85Y-76.75
X136.85Y-83.25
X137.85Y-78.75
X137.85Y-81.25
X138.85Y-76.75
X138.85Y-83.25
X139.85Y-78.75
X139.85Y-81.25
X140.85Y-76.75
X140.85Y-83.25
X141.85Y-78.75
X141.85Y-81.25
X142.85Y-76.75
X142.85Y-83.25
X143.85Y-78.75
X143.85Y-81.25
X144.85Y-76.75
X144.85Y-83.25
X145.85Y-78.75
X145.85Y-81.25
X146.85Y-76.75
X146.85Y-83.25
X147.85Y-78.75
X147.85Y-81.25
X148.85Y-76.75
X148.85Y-83.25
X149.85Y-78.75
X149.85Y-81.25
X150.85Y-76.75
X150.85Y-83.25
X151.85Y-78.75
X151.85Y-81.25
X152.85Y-76.75
X152.85Y-83.25
X153.85Y-78.75
X153.85Y-81.25
X154.85Y-76.75
X154.85Y-83.25
X155.85Y-78.75
X155.85Y-81.25
X156.85Y-76.75
X156.85Y-83.25
X157.85Y-78.75
X157.85Y-81.25
X158.85Y-76.75
X158.85Y-83.25
X159.85Y-78.75
X159.85Y-81.25
X160.85Y-76.75
X160.85Y-83.25
X77.85Y-53.75
X77.85Y-56.25
X78.85Y-51.75
X78.85Y-58.25
X79.85Y-53.75
X79.85Y-56.25
X80.85Y-51.75
X80.85Y-58.25
X81.85Y-53.75
X81.85Y-56.25
X82.85Y-51.75
X82.85Y-58.25
X83.85Y-53.75
X83.85Y-56.25
X84.85Y-51.75
X84.85Y-58.25
X85.85Y-53.75
X85.85Y-56.25
X86.85Y-51.75
X86.85Y-58.25
X87.85Y-53.75
X87.85Y-56.25
X90.85Y-51.75
X90.85Y-58.25
X91.85Y-53.75
X91.85Y-56.25
X92.85Y-51.75
X92.85Y-58.25
X93.85Y-53.75
X93.85Y-56.25
X94.85Y-51.75
X94.85Y-58.25
X95.85Y-53.75
X95.85Y-56.25
X96.85Y-51.75
X96.85Y-58.25
X97.85Y-53.75
X97.85Y-56.25
X98.85Y-51.75
X98.85Y-58.25
X99.85Y-53.75
X99.85Y-56.25
X100.85Y-51.75
X100.85Y-58.25
X101.85Y-53.75
X101.85Y-56.25
X102.85Y-51.75
X102.85Y-58.25
X103.85Y-53.75
X103.85Y-56.25
X104.85Y-51.75
X104.85Y-58.25
X105.85Y-53.75
X105.85Y-56.25
X106.85Y-51.75
X106.85Y-58.25
X107.85Y-53.75
X107.85Y-56.25
X108.85Y-51.75
X108.85Y-58.25
X109.85Y-53.75
X109.85Y-56.25
X110.85Y-51.75
X110.85Y-58.25
X111.85Y-53.75
X111.85Y-56.25
X112.85Y-51.75
X112.85Y-58.25
X113.85Y-53.75
X113.85Y-56.25
X114.85Y-51.75
X114.85Y-58.25
X115.85Y-53.75
X115.85Y-56.25
X116.85Y-51.75
X116.85Y-58.25
X117.85Y-53.75
X117.85Y-56.25
X118.85Y-51.75
X118.85Y-58.25
X119.85Y-53.75
X119.85Y-56.25
X120.85Y-51.75
X120.85Y-58.25
X121.85Y-53.75
X121.85Y-56.25
X122.85Y-51.75
X122.85Y-58.25
X123.85Y-53.75
X123.85Y-56.25
X124.85Y-51.75
X124.85Y-58.25
X125.85Y-53.75
X125.85Y-56.25
X126.85Y-51.75
X126.85Y-58.25
X127.85Y-53.75
X127.85Y-56.25
X128.85Y-51.75
X128.85Y-58.25
X129.85Y-53.75
X129.85Y-56.25
X130.85Y-51.75
X130.85Y-58.25
X131.85Y-53.75
X131.85Y-56.25
X132.85Y-51.75
X132.85Y-58.25
X133.85Y-53.75
X133.85Y-56.25
X134.85Y-51.75
X134.85Y-58.25
X135.85Y-53.75
X135.85Y-56.25
X136.85Y-51.75
X136.85Y-58.25
X137.85Y-53.75
X137.85Y-56.25
X138.85Y-51.75
X138.85Y-58.25
X139.85Y-53.75
X139.85Y-56.25
X140.85Y-51.75
X140.85Y-58.25
X141.85Y-53.75
X141.85Y-56.25
X142.85Y-51.75
X142.85Y-58.25
X143.85Y-53.75
X143.85Y-56.25
X144.85Y-51.75
X144.85Y-58.25
X145.85Y-53.75
X145.85Y-56.25
X146.85Y-51.75
X146.85Y-58.25
X147.85Y-53.75
X147.85Y-56.25
X148.85Y-51.75
X148.85Y-58.25
X149.85Y-53.75
X149.85Y-56.25
X150.85Y-51.75
X150.85Y-58.25
X151.85Y-53.75
X151.85Y-56.25
X152.85Y-51.75
X152.85Y-58.25
X153.85Y-53.75
X153.85Y-56.25
X154.85Y-51.75
X154.85Y-58.25
X155.85Y-53.75
X155.85Y-56.25
X156.85Y-51.75
X156.85Y-58.25
X157.85Y-53.75
X157.85Y-56.25
X158.85Y-51.75
X158.85Y-58.25
X159.85Y-53.75
X159.85Y-56.25
X160.85Y-51.75
X160.85Y-58.25
X77.85Y-128.75
X77.85Y-131.25
X78.85Y-126.75
X78.85Y-133.25
X79.85Y-128.75
X79.85Y-131.25
X80.85Y-126.75
X80.85Y-133.25
X81.85Y-128.75
X81.85Y-131.25
X82.85Y-126.75
X82.85Y-133.25
X83.85Y-128.75
X83.85Y-131.25
X84.85Y-126.75
X84.85Y-133.25
X85.85Y-128.75
X85.85Y-131.25
X86.85Y-126.75
X86.85Y-133.25
X87.85Y-128.75
X87.85Y-131.25
X90.85Y-126.75
X90.85Y-133.25
X91.85Y-128.75
X91.85Y-131.25
X92.85Y-126.75
X92.85Y-133.25
X93.85Y-128.75
X93.85Y-131.25
X94.85Y-126.75
X94.85Y-133.25
X95.85Y-128.75
X95.85Y-131.25
X96.85Y-126.75
X96.85Y-133.25
X97.85Y-128.75
X97.85Y-131.25
X98.85Y-126.75
X98.85Y-133.25
X99.85Y-128.75
X99.85Y-131.25
X100.85Y-126.75
X100.85Y-133.25
X101.85Y-128.75
X101.85Y-131.25
X102.85Y-126.75
X102.85Y-133.25
X103.85Y-128.75
X103.85Y-131.25
X104.85Y-126.75
X104.85Y-133.25
X105.85Y-128.75
X105.85Y-131.25
X106.85Y-126.75
X106.85Y-133.25
X107.85Y-128.75
X107.85Y-131.25
X108.85Y-126.75
X108.85Y-133.25
X109.85Y-128.75
X109.85Y-131.25
X110.85Y-126.75
X110.85Y-133.25
X111.85Y-128.75
X111.85Y-131.25
X112.85Y-126.75
X112.85Y-133.25
X113.85Y-128.75
X113.85Y-131.25
X114.85Y-126.75
X114.85Y-133.25
X115.85Y-128.75
X115.85Y-131.25
X116.85Y-126.75
X116.85Y-133.25
X117.85Y-128.75
X117.85Y-131.25
X118.85Y-126.75
X118.85Y-133.25
X119.85Y-128.75
X119.85Y-131.25
X120.85Y-126.75
X120.85Y-133.25
X121.85Y-128.75
X121.85Y-131.25
X122.85Y-126.75
X122.85Y-133.25
X123.85Y-128.75
X123.85Y-131.25
X124.85Y-126.75
X124.85Y-133.25
X125.85Y-128.75
X125.85Y-131.25
X126.85Y-126.75
X126.85Y-133.25
X127.85Y-128.75
X127.85Y-131.25
X128.85Y-126.75
X128.85Y-133.25
X129.85Y-128.75
X129.85Y-131.25
X130.85Y-126.75
X130.85Y-133.25
X131.85Y-128.75
X131.85Y-131.25
X132.85Y-126.75
X132.85Y-133.25
X133.85Y-128.75
X133.85Y-131.25
X134.85Y-126.75
X134.85Y-133.25
X135.85Y-128.75
X135.85Y-131.25
X136.85Y-126.75
X136.85Y-133.25
X137.85Y-128.75
X137.85Y-131.25
X138.85Y-126.75
X138.85Y-133.25
X139.85Y-128.75
X139.85Y-131.25
X140.85Y-126.75
X140.85Y-133.25
X141.85Y-128.75
X141.85Y-131.25
X142.85Y-126.75
X142.85Y-133.25
X143.85Y-128.75
X143.85Y-131.25
X144.85Y-126.75
X144.85Y-133.25
X145.85Y-128.75
X145.85Y-131.25
X146.85Y-126.75
X146.85Y-133.25
X147.85Y-128.75
X147.85Y-131.25
X148.85Y-126.75
X148.85Y-133.25
X149.85Y-128.75
X149.85Y-131.25
X150.85Y-126.75
X150.85Y-133.25
X151.85Y-128.75
X151.85Y-131.25
X152.85Y-126.75
X152.85Y-133.25
X153.85Y-128.75
X153.85Y-131.25
X154.85Y-126.75
X154.85Y-133.25
X155.85Y-128.75
X155.85Y-131.25
X156.85Y-126.75
X156.85Y-133.25
X157.85Y-128.75
X157.85Y-131.25
X158.85Y-126.75
X158.85Y-133.25
X159.85Y-128.75
X159.85Y-131.25
X160.85Y-126.75
X160.85Y-133.25
X77.85Y-28.75
X77.85Y-31.25
X78.85Y-26.75
X78.85Y-33.25
X79.85Y-28.75
X79.85Y-31.25
X80.85Y-26.75
X80.85Y-33.25
X81.85Y-28.75
X81.85Y-31.25
X82.85Y-26.75
X82.85Y-33.25
X83.85Y-28.75
X83.85Y-31.25
X84.85Y-26.75
X84.85Y-33.25
X85.85Y-28.75
X85.85Y-31.25
X86.85Y-26.75
X86.85Y-33.25
X87.85Y-28.75
X87.85Y-31.25
X90.85Y-26.75
X90.85Y-33.25
X91.85Y-28.75
X91.85Y-31.25
X92.85Y-26.75
X92.85Y-33.25
X93.85Y-28.75
X93.85Y-31.25
X94.85Y-26.75
X94.85Y-33.25
X95.85Y-28.75
X95.85Y-31.25
X96.85Y-26.75
X96.85Y-33.25
X97.85Y-28.75
X97.85Y-31.25
X98.85Y-26.75
X98.85Y-33.25
X99.85Y-28.75
X99.85Y-31.25
X100.85Y-26.75
X100.85Y-33.25
X101.85Y-28.75
X101.85Y-31.25
X102.85Y-26.75
X102.85Y-33.25
X103.85Y-28.75
X103.85Y-31.25
X104.85Y-26.75
X104.85Y-33.25
X105.85Y-28.75
X105.85Y-31.25
X106.85Y-26.75
X106.85Y-33.25
X107.85Y-28.75
X107.85Y-31.25
X108.85Y-26.75
X108.85Y-33.25
X109.85Y-28.75
X109.85Y-31.25
X110.85Y-26.75
X110.85Y-33.25
X111.85Y-28.75
X111.85Y-31.25
X112.85Y-26.75
X112.85Y-33.25
X113.85Y-28.75
X113.85Y-31.25
X114.85Y-26.75
X114.85Y-33.25
X115.85Y-28.75
X115.85Y-31.25
X116.85Y-26.75
X116.85Y-33.25
X117.85Y-28.75
X117.85Y-31.25
X118.85Y-26.75
X118.85Y-33.25
X119.85Y-28.75
X119.85Y-31.25
X120.85Y-26.75
X120.85Y-33.25
X121.85Y-28.75
X121.85Y-31.25
X122.85Y-26.75
X122.85Y-33.25
X123.85Y-28.75
X123.85Y-31.25
X124.85Y-26.75
X124.85Y-33.25
X125.85Y-28.75
X125.85Y-31.25
X126.85Y-26.75
X126.85Y-33.25
X127.85Y-28.75
X127.85Y-31.25
X128.85Y-26.75
X128.85Y-33.25
X129.85Y-28.75
X129.85Y-31.25
X130.85Y-26.75
X130.85Y-33.25
X131.85Y-28.75
X131.85Y-31.25
X132.85Y-26.75
X132.85Y-33.25
X133.85Y-28.75
X133.85Y-31.25
X134.85Y-26.75
X134.85Y-33.25
X135.85Y-28.75
X135.85Y-31.25
X136.85Y-26.75
X136.85Y-33.25
X137.85Y-28.75
X137.85Y-31.25
X138.85Y-26.75
X138.85Y-33.25
X139.85Y-28.75
X139.85Y-31.25
X140.85Y-26.75
X140.85Y-33.25
X141.85Y-28.75
X141.85Y-31.25
X142.85Y-26.75
X142.85Y-33.25
X143.85Y-28.75
X143.85Y-31.25
X144.85Y-26.75
X144.85Y-33.25
X145.85Y-28.75
X145.85Y-31.25
X146.85Y-26.75
X146.85Y-33.25
X147.85Y-28.75
X147.85Y-31.25
X148.85Y-26.75
X148.85Y-33.25
X149.85Y-28.75
X149.85Y-31.25
X150.85Y-26.75
X150.85Y-33.25
X151.85Y-28.75
X151.85Y-31.25
X152.85Y-26.75
X152.85Y-33.25
X153.85Y-28.75
X153.85Y-31.25
X154.85Y-26.75
X154.85Y-33.25
X155.85Y-28.75
X155.85Y-31.25
X156.85Y-26.75
X156.85Y-33.25
X157.85Y-28.75
X157.85Y-31.25
X158.85Y-26.75
X158.85Y-33.25
X159.85Y-28.75
X159.85Y-31.25
X160.85Y-26.75
X160.85Y-33.25
X77.85Y-103.75
X77.85Y-106.25
X78.85Y-101.75
X78.85Y-108.25
X79.85Y-103.75
X79.85Y-106.25
X80.85Y-101.75
X80.85Y-108.25
X81.85Y-103.75
X81.85Y-106.25
X82.85Y-101.75
X82.85Y-108.25
X83.85Y-103.75
X83.85Y-106.25
X84.85Y-101.75
X84.85Y-108.25
X85.85Y-103.75
X85.85Y-106.25
X86.85Y-101.75
X86.85Y-108.25
X87.85Y-103.75
X87.85Y-106.25
X90.85Y-101.75
X90.85Y-108.25
X91.85Y-103.75
X91.85Y-106.25
X92.85Y-101.75
X92.85Y-108.25
X93.85Y-103.75
X93.85Y-106.25
X94.85Y-101.75
X94.85Y-108.25
X95.85Y-103.75
X95.85Y-106.25
X96.85Y-101.75
X96.85Y-108.25
X97.85Y-103.75
X97.85Y-106.25
X98.85Y-101.75
X98.85Y-108.25
X99.85Y-103.75
X99.85Y-106.25
X100.85Y-101.75
X100.85Y-108.25
X101.85Y-103.75
X101.85Y-106.25
X102.85Y-101.75
X102.85Y-108.25
X103.85Y-103.75
X103.85Y-106.25
X104.85Y-101.75
X104.85Y-108.25
X105.85Y-103.75
X105.85Y-106.25
X106.85Y-101.75
X106.85Y-108.25
X107.85Y-103.75
X107.85Y-106.25
X108.85Y-101.75
X108.85Y-108.25
X109.85Y-103.75
X109.85Y-106.25
X110.85Y-101.75
X110.85Y-108.25
X111.85Y-103.75
X111.85Y-106.25
X112.85Y-101.75
X112.85Y-108.25
X113.85Y-103.75
X113.85Y-106.25
X114.85Y-101.75
X114.85Y-108.25
X115.85Y-103.75
X115.85Y-106.25
X116.85Y-101.75
X116.85Y-108.25
X117.85Y-103.75
X117.85Y-106.25
X118.85Y-101.75
X118.85Y-108.25
X119.85Y-103.75
X119.85Y-106.25
X120.85Y-101.75
X120.85Y-108.25
X121.85Y-103.75
X121.85Y-106.25
X122.85Y-101.75
X122.85Y-108.25
X123.85Y-103.75
X123.85Y-106.25
X124.85Y-101.75
X124.85Y-108.25
X125.85Y-103.75
X125.85Y-106.25
X126.85Y-101.75
X126.85Y-108.25
X127.85Y-103.75
X127.85Y-106.25
X128.85Y-101.75
X128.85Y-108.25
X129.85Y-103.75
X129.85Y-106.25
X130.85Y-101.75
X130.85Y-108.25
X131.85Y-103.75
X131.85Y-106.25
X132.85Y-101.75
X132.85Y-108.25
X133.85Y-103.75
X133.85Y-106.25
X134.85Y-101.75
X134.85Y-108.25
X135.85Y-103.75
X135.85Y-106.25
X136.85Y-101.75
X136.85Y-108.25
X137.85Y-103.75
X137.85Y-106.25
X138.85Y-101.75
X138.85Y-108.25
X139.85Y-103.75
X139.85Y-106.25
X140.85Y-101.75
X140.85Y-108.25
X141.85Y-103.75
X141.85Y-106.25
X142.85Y-101.75
X142.85Y-108.25
X143.85Y-103.75
X143.85Y-106.25
X144.85Y-101.75
X144.85Y-108.25
X145.85Y-103.75
X145.85Y-106.25
X146.85Y-101.75
X146.85Y-108.25
X147.85Y-103.75
X147.85Y-106.25
X148.85Y-101.75
X148.85Y-108.25
X149.85Y-103.75
X149.85Y-106.25
X150.85Y-101.75
X150.85Y-108.25
X151.85Y-103.75
X151.85Y-106.25
X152.85Y-101.75
X152.85Y-108.25
X153.85Y-103.75
X153.85Y-106.25
X154.85Y-101.75
X154.85Y-108.25
X155.85Y-103.75
X155.85Y-106.25
X156.85Y-101.75
X156.85Y-108.25
X157.85Y-103.75
X157.85Y-106.25
X158.85Y-101.75
X158.85Y-108.25
X159.85Y-103.75
X159.85Y-106.25
X160.85Y-101.75
X160.85Y-108.25
X77.85Y-153.75
X77.85Y-156.25
X78.85Y-151.75
X78.85Y-158.25
X79.85Y-153.75
X79.85Y-156.25
X80.85Y-151.75
X80.85Y-158.25
X81.85Y-153.75
X81.85Y-156.25
X82.85Y-151.75
X82.85Y-158.25
X83.85Y-153.75
X83.85Y-156.25
X84.85Y-151.75
X84.85Y-158.25
X85.85Y-153.75
X85.85Y-156.25
X86.85Y-151.75
X86.85Y-158.25
X87.85Y-153.75
X87.85Y-156.25
X90.85Y-151.75
X90.85Y-158.25
X91.85Y-153.75
X91.85Y-156.25
X92.85Y-151.75
X92.85Y-158.25
X93.85Y-153.75
X93.85Y-156.25
X94.85Y-151.75
X94.85Y-158.25
X95.85Y-153.75
X95.85Y-156.25
X96.85Y-151.75
X96.85Y-158.25
X97.85Y-153.75
X97.85Y-156.25
X98.85Y-151.75
X98.85Y-158.25
X99.85Y-153.75
X99.85Y-156.25
X100.85Y-151.75
X100.85Y-158.25
X101.85Y-153.75
X101.85Y-156.25
X102.85Y-151.75
X102.85Y-158.25
X103.85Y-153.75
X103.85Y-156.25
X104.85Y-151.75
X104.85Y-158.25
X105.85Y-153.75
X105.85Y-156.25
X106.85Y-151.75
X106.85Y-158.25
X107.85Y-153.75
X107.85Y-156.25
X108.85Y-151.75
X108.85Y-158.25
X109.85Y-153.75
X109.85Y-156.25
X110.85Y-151.75
X110.85Y-158.25
X111.85Y-153.75
X111.85Y-156.25
X112.85Y-151.75
X112.85Y-158.25
X113.85Y-153.75
X113.85Y-156.25
X114.85Y-151.75
X114.85Y-158.25
X115.85Y-153.75
X115.85Y-156.25
X116.85Y-151.75
X116.85Y-158.25
X117.85Y-153.75
X117.85Y-156.25
X118.85Y-151.75
X118.85Y-158.25
X119.85Y-153.75
X119.85Y-156.25
X120.85Y-151.75
X120.85Y-158.25
X121.85Y-153.75
X121.85Y-156.25
X122.85Y-151.75
X122.85Y-158.25
X123.85Y-153.75
X123.85Y-156.25
X124.85Y-151.75
X124.85Y-158.25
X125.85Y-153.75
X125.85Y-156.25
X126.85Y-151.75
X126.85Y-158.25
X127.85Y-153.75
X127.85Y-156.25
X128.85Y-151.75
X128.85Y-158.25
X129.85Y-153.75
X129.85Y-156.25
X130.85Y-151.75
X130.85Y-158.25
X131.85Y-153.75
X131.85Y-156.25
X132.85Y-151.75
X132.85Y-158.25
X133.85Y-153.75
X133.85Y-156.25
X134.85Y-151.75
X134.85Y-158.25
X135.85Y-153.75
X135.85Y-156.25
X136.85Y-151.75
X136.85Y-158.25
X137.85Y-153.75
X137.85Y-156.25
X138.85Y-151.75
X138.85Y-158.25
X139.85Y-153.75
X139.85Y-156.25
X140.85Y-151.75
X140.85Y-158.25
X141.85Y-153.75
X141.85Y-156.25
X142.85Y-151.75
X142.85Y-158.25
X143.85Y-153.75
X143.85Y-156.25
X144.85Y-151.75
X144.85Y-158.25
X145.85Y-153.75
X145.85Y-156.25
X146.85Y-151.75
X146.85Y-158.25
X147.85Y-153.75
X147.85Y-156.25
X148.85Y-151.75
X148.85Y-158.25
X149.85Y-153.75
X149.85Y-156.25
X150.85Y-151.75
X150.85Y-158.25
X151.85Y-153.75
X151.85Y-156.25
X152.85Y-151.75
X152.85Y-158.25
X153.85Y-153.75
X153.85Y-156.25
X154.85Y-151.75
X154.85Y-158.25
X155.85Y-153.75
X155.85Y-156.25
X156.85Y-151.75
X156.85Y-158.25
X157.85Y-153.75
X157.85Y-156.25
X158.85Y-151.75
X158.85Y-158.25
X159.85Y-153.75
X159.85Y-156.25
X160.85Y-151.75
X160.85Y-158.25
T4
X161.0Y-179.0
X163.54Y-179.0
T5
X77.5Y-176.0
X80.04Y-176.0
X82.58Y-176.0
X85.12Y-176.0
X87.66Y-176.0
X90.2Y-176.0
X92.74Y-176.0
X77.42Y-15.0
X79.96Y-15.0
X82.5Y-15.0
X85.04Y-15.0
X87.58Y-15.0
X90.12Y-15.0
X92.66Y-15.0
T6
X162.5Y-40.0
X162.5Y-42.54
X162.5Y-45.08
X162.5Y-140.0
X162.5Y-142.54
X162.5Y-145.08
X162.5Y-89.92
X162.5Y-92.46
X162.5Y-95.0
T7
X131.5Y-115.0
X131.5Y-120.0
X131.5Y-140.0
X131.5Y-145.0
X131.0Y-165.0
X131.0Y-170.0
X131.5Y-15.0
X131.5Y-20.0
X131.5Y-40.0
X131.5Y-45.0
X131.5Y-65.0
X131.5Y-70.0
X131.5Y-90.0
X131.5Y-95.0
T8
X130.0Y-2.5
X137.2Y-2.5
X130.3Y-182.5
X137.5Y-182.5
T0
M30
